<svg id="Layer_2" data-name="Layer 2" xmlns="http://www.w3.org/2000/svg" viewBox="0 0 180.71 429.56"><defs><style>.cls-1{fill:none;stroke:#000;stroke-miterlimit:10;stroke-width:4px;}</style></defs><title>Bläcksvamp</title><path class="cls-1" d="M279.59,481.85c-3.8-3.86-8.66-6.83-11.17-7.33-4.26-.85-6.46.57-9.38-1.23-3.5-2.14-2.37-5.43-5.31-6.93s-5.12,1.25-13.87,3.26c-5.38,1.24-5.26.37-9.79,1.64-7.29,2-9,4.69-11.42,3.67-1.9-.82-3-3.44-3.67-12.65a116.42,116.42,0,0,1,0-19.17c1.42-12.82-.34-8.28,1.22-32.23,1.26-19.34,3.15-33.67,3.67-37.54s1-7.41,1.22-8.56c1.51-10.12,2.92-18.09,4.08-24.48,3.19-17.5,4.78-26.25,5.72-29.78a203.71,203.71,0,0,1,15.5-40c5.45-10.79,4.23-10.57,8.16-20,5.59-13.42,6.62-16.22,11.42-26.52,5.46-11.71,12.15-18.95,18.77-26.11,6.34-6.87,9.61-10.33,14.28-11.42,7.89-1.85,15.07,2.49,22.84,7.34a93.19,93.19,0,0,1,22.85,20c22.65,28.88,31.54,65.52,37.12,88.53,3,12.31,5.91,24.58,6.94,41.2.54,8.74.09,11.1.81,29,.75,18.4,1.32,18.15,1.63,30.6.66,25.59-1.9,20.9-.81,37.53.67,10.26,2.15,19.79-2.86,26.52-1.26,1.7-3.66,4.92-7.75,6.11-3.84,1.13-5.54-.6-8.16.82-3.83,2.08-1.92,6.7-5.71,10.61s-11,4.65-15.91,2.85c-4.29-1.56-4.22-4-9-5.3-1.73-.46-3.07-.48-9.8,0-3.93.28-8.95.71-11.78,1" transform="translate(-212.61 -184.06)"/><path class="cls-1" d="M223.7,473.29c2.39-2.17,11.94-7.08,16.57-10.4,5-3.56,9.08-11.37,14.84-13.58,6.54-2.51,7.41-2.86,11.27-1.31,5.05,2,4,6.85,11,14.69,3.22,3.59,6.76,7.56,12.24,9,5.18,1.34,10.05-.45,19.58-4.08,10.4-4,9.92-5.52,15.51-6.52,9.21-1.67,17.07,1.4,20.8,2.85,5.23,2,6.58,5.55,13.06,7.75a80.64,80.64,0,0,0,13.05,2.45" transform="translate(-212.61 -184.06)"/><path class="cls-1" d="M280.68,466.19c-.33,4.45-1.15,14.53-1.25,22.61-.06,5.15-.13,21.36,3.68,53.85,4.46,38.11,6.75,34.45,5.71,45.69-.88,9.51-3,17.35,1.63,21.62,2.27,2.1,4.53,1.82,22,1.23,14.92-.51,19.52-.52,21.21-3.68,1.12-2.09.21-4.17-1.22-9-2-6.8-2.7-13.94-4.49-20.81-2-7.64-3-15.7-4.89-31.82-4-33.67-3.77-76.79-3.71-83" transform="translate(-212.61 -184.06)"/><path d="M299.76,201.37c.49,1,.84,2,1.29,2.83a5.57,5.57,0,0,0,.33.6c.1.16.24.31.27.27s0-.16-.3-.24a.92.92,0,0,0-.5,0,.55.55,0,0,0-.18.06l-.07,0c-.07,0,.08-.18.17-.37l1.35-2.62,1.51-2.69a12.51,12.51,0,0,1,1.05-1.5,2.9,2.9,0,0,1,.68-.6,2.44,2.44,0,0,1,.33-.17,1.78,1.78,0,0,1,.46-.14,2,2,0,0,1,1.06.08,2.65,2.65,0,0,1,.48.23,1.44,1.44,0,0,1,.32.26,2.2,2.2,0,0,1,.41.51,3.07,3.07,0,0,1,.2.41l.09.32a9.3,9.3,0,0,1,.25,1.76c.06.48.09.92.15,1.25l.07.36s0,.06,0,.11.32.18.73.08a15.53,15.53,0,0,0,2.79-1.08l.13.14a10.49,10.49,0,0,1-2.47,1.9,2.25,2.25,0,0,1-1.58.25,1.89,1.89,0,0,1-1.1-1.18c-.39-1-.43-2.07-.71-3-.07-.23-.2-.45-.32-.49s-.3.08-.45.27a11.53,11.53,0,0,0-.82,1.27c-1.07,1.75-2.09,3.54-3.31,5.23a3.08,3.08,0,0,1-.55.6.53.53,0,0,1-.48.11.74.74,0,0,1-.38-.26,4.09,4.09,0,0,1-.6-1.48,26.43,26.43,0,0,1-.46-3.07Z" transform="translate(-212.61 -184.06)"/><path d="M320.35,223.6c1,1.37,1.73,2.76,2.57,4.14.41.69.82,1.38,1.24,2a9.73,9.73,0,0,0,.61.82c.08.09.18.18.19.15a.22.22,0,0,0-.11-.08,1.15,1.15,0,0,0-.29-.08c-.36,0-.3.11-.17-.16a9.39,9.39,0,0,0,.43-.85c.31-.67.6-1.44,1.06-2.29a5,5,0,0,1,1.1-1.4,3.21,3.21,0,0,1,.53-.36,2.29,2.29,0,0,1,.71-.28,2.72,2.72,0,0,1,1.65.12,3.81,3.81,0,0,1,1.67,1.4,9,9,0,0,1,.77,1.28c.39.83.68,1.62,1,2.37.14.37.28.73.42,1s.32.64.28.61a1.52,1.52,0,0,0-.34-.21,1.16,1.16,0,0,0-.22-.06.83.83,0,0,0-.31,0,1.19,1.19,0,0,0-.59.13.94.94,0,0,0-.38.31c-.05.08,0,0,0,0a3.63,3.63,0,0,0,.3-.78c.18-.68.36-1.43.52-2.2.61-3.08,1.1-6.28,1.91-9.47h.2c-.09,3.22-.2,6.45-.55,9.66a21.77,21.77,0,0,1-.38,2.4,5.28,5.28,0,0,1-.37,1.19,1.09,1.09,0,0,1-.45.54.64.64,0,0,1-.73-.22,9.54,9.54,0,0,1-1.11-2.21c-.3-.75-.59-1.5-.94-2.21a3.74,3.74,0,0,0-1.38-1.76c-.66-.26-1.26.45-1.65,1.1s-.74,1.41-1.12,2.13a8.19,8.19,0,0,1-.64,1.05,1.54,1.54,0,0,1-1.08.71c-.53,0-.85-.39-1.08-.7a8.87,8.87,0,0,1-.61-1.07c-.36-.73-.69-1.47-1-2.2-.62-1.49-1.19-3-1.79-4.5Z" transform="translate(-212.61 -184.06)"/><path d="M275.66,228.11c.52,1.13.92,2.29,1.45,3.28a5.93,5.93,0,0,0,.39.67c.12.18.3.33.31.26a.46.46,0,0,0-.28-.17.42.42,0,0,0-.19,0h-.06s.13-.16.26-.35a22.9,22.9,0,0,0,1.59-2.8l1.63-3.16a8.32,8.32,0,0,1,1.35-1.88,3.64,3.64,0,0,1,1.45-.88A3.69,3.69,0,0,1,284,223a2.33,2.33,0,0,1,.64,0,3.5,3.5,0,0,1,.78.16,14,14,0,0,1,3.55,2l.71.57c.22.19.37.26.27.29s-.08.13,0,.09a1.32,1.32,0,0,0,.46-.32,16.21,16.21,0,0,0,1.94-2.88l.19.05a11.82,11.82,0,0,1-1.25,3.4,1.73,1.73,0,0,1-1.55,1,5.92,5.92,0,0,1-1.64-.85,14.43,14.43,0,0,0-3.22-1.48,1.34,1.34,0,0,0-1.45.42,6.09,6.09,0,0,0-1,1.45c-.57,1-1.15,2.12-1.76,3.15a15.92,15.92,0,0,1-2.1,3,2.69,2.69,0,0,1-.75.58.83.83,0,0,1-1-.11,3.69,3.69,0,0,1-.84-1.66,23.91,23.91,0,0,1-.63-3.56Z" transform="translate(-212.61 -184.06)"/><path d="M262.19,258.52c.48,1,.83,2,1.29,2.84a6.5,6.5,0,0,0,.32.59c.1.16.25.31.28.27s-.05-.15-.31-.24a.88.88,0,0,0-.49,0,.85.85,0,0,0-.19.06l-.07,0c-.07,0,.09-.18.17-.36l1.36-2.63,1.5-2.69a12.51,12.51,0,0,1,1.05-1.5,2.9,2.9,0,0,1,.68-.59,1.49,1.49,0,0,1,.34-.18,1.59,1.59,0,0,1,.45-.14,2,2,0,0,1,1.06.08,2.75,2.75,0,0,1,.49.23,1.37,1.37,0,0,1,.31.26,2.14,2.14,0,0,1,.41.51,2.62,2.62,0,0,1,.2.42l.1.31a11.46,11.46,0,0,1,.25,1.76c.05.48.08.92.14,1.25l.07.36s0,.07,0,.11.32.19.73.09a15.63,15.63,0,0,0,2.79-1.09l.14.14a10.91,10.91,0,0,1-2.47,1.9,2.28,2.28,0,0,1-1.59.25,1.8,1.8,0,0,1-1.09-1.18c-.4-1-.43-2.07-.72-3-.07-.23-.19-.45-.32-.49s-.29.08-.44.27a10.29,10.29,0,0,0-.83,1.27c-1.07,1.76-2.09,3.54-3.31,5.23a3,3,0,0,1-.54.6.54.54,0,0,1-.48.11.77.77,0,0,1-.39-.26,4,4,0,0,1-.59-1.48,22.84,22.84,0,0,1-.46-3.06Z" transform="translate(-212.61 -184.06)"/><path d="M359.24,312.48c1,1.37,1.74,2.76,2.57,4.14.42.69.83,1.39,1.25,2a10,10,0,0,0,.61.83c.08.08.18.17.18.14s0,0-.1-.08a1.28,1.28,0,0,0-.29-.08c-.37,0-.3.11-.17-.16a9.39,9.39,0,0,0,.43-.85c.31-.67.6-1.43,1.06-2.28a4.7,4.7,0,0,1,1.1-1.4,2.42,2.42,0,0,1,.53-.37,2.29,2.29,0,0,1,.71-.27,2.65,2.65,0,0,1,1.65.11,3.87,3.87,0,0,1,1.67,1.4,8.58,8.58,0,0,1,.77,1.29c.39.83.68,1.61,1,2.36.14.37.28.73.42,1.05s.32.65.27.62a1,1,0,0,0-.33-.21.71.71,0,0,0-.22-.07,1.12,1.12,0,0,0-.32,0,1.16,1.16,0,0,0-.58.14,1,1,0,0,0-.39.3c0,.08,0,0,0,0a3.42,3.42,0,0,0,.3-.78c.18-.68.36-1.43.52-2.19.6-3.08,1.09-6.29,1.9-9.48h.2c-.09,3.22-.19,6.45-.54,9.66a22,22,0,0,1-.38,2.41,6,6,0,0,1-.37,1.18,1.14,1.14,0,0,1-.45.54.63.63,0,0,1-.73-.22,9.16,9.16,0,0,1-1.11-2.21c-.3-.75-.6-1.49-.95-2.21A3.73,3.73,0,0,0,368,316c-.66-.26-1.27.45-1.65,1.1s-.74,1.41-1.12,2.13a6.76,6.76,0,0,1-.65,1.05,1.52,1.52,0,0,1-1.07.71c-.53,0-.85-.39-1.08-.7a8.87,8.87,0,0,1-.61-1.07c-.36-.72-.69-1.46-1-2.2-.63-1.49-1.2-3-1.79-4.5Z" transform="translate(-212.61 -184.06)"/><path d="M297.82,282.61c.53,1.13.93,2.29,1.46,3.28a5,5,0,0,0,.39.66c.12.19.3.34.31.27a.41.41,0,0,0-.29-.17.31.31,0,0,0-.19,0s0,0-.05,0,.13-.16.26-.36a23.47,23.47,0,0,0,1.59-2.8l1.63-3.16a8.21,8.21,0,0,1,1.34-1.87,3.69,3.69,0,0,1,1.46-.89l.45-.1a2.79,2.79,0,0,1,.64,0,3.42,3.42,0,0,1,.78.17,12.12,12.12,0,0,1,1.9.88,11.9,11.9,0,0,1,1.64,1.08l.72.57c.21.18.36.26.27.29s-.08.12,0,.09a1.31,1.31,0,0,0,.45-.33,16.67,16.67,0,0,0,1.95-2.87l.19,0a12.44,12.44,0,0,1-1.25,3.4,1.75,1.75,0,0,1-1.55,1,5.92,5.92,0,0,1-1.64-.85,14.67,14.67,0,0,0-3.22-1.49,1.35,1.35,0,0,0-1.45.43,6.44,6.44,0,0,0-1,1.45c-.56,1.05-1.14,2.11-1.75,3.15a16.4,16.4,0,0,1-2.1,3,3.12,3.12,0,0,1-.75.58.88.88,0,0,1-1-.11,3.89,3.89,0,0,1-.83-1.66,24.17,24.17,0,0,1-.64-3.56Z" transform="translate(-212.61 -184.06)"/><path d="M309.12,251.43c.54,1.3,1,2.63,1.55,3.77a5.43,5.43,0,0,0,.44.76c.13.2.35.36.31.25a.46.46,0,0,0-.39-.12c-.23,0-.22.06-.18,0a6.58,6.58,0,0,0,.46-.63c.68-1.06,1.44-2.21,2.14-3.36l2.25-3.43c.21-.29.42-.58.67-.88a6.71,6.71,0,0,1,1-1,2.86,2.86,0,0,1,1.22-.61,2.5,2.5,0,0,1,1.83.39,3.25,3.25,0,0,1,.56.55q.17.24.3.48a4,4,0,0,1,.28.76,21,21,0,0,1,.37,2.17,8.34,8.34,0,0,0,.35,1.56c.16.39.2.49.51.63a2.7,2.7,0,0,0,1.49-.08,23.27,23.27,0,0,0,3.72-1.49l.13.16a16.1,16.1,0,0,1-3.42,2.29,4.23,4.23,0,0,1-2.05.46,2.2,2.2,0,0,1-1.74-1.18,17.55,17.55,0,0,1-1.15-4,1.57,1.57,0,0,0-.45-.78c-.21-.15-.47-.08-.71.13a9.87,9.87,0,0,0-1.24,1.57c-1.57,2.23-3.08,4.52-4.82,6.65a5.82,5.82,0,0,1-.73.76,1.17,1.17,0,0,1-.52.27.83.83,0,0,1-.58-.14,3.51,3.51,0,0,1-1-1.84,24.43,24.43,0,0,1-.74-4Z" transform="translate(-212.61 -184.06)"/><path d="M330.5,277.74c1.25,1.75,2.23,3.57,3.4,5.31.57.88,1.13,1.77,1.71,2.58a9.34,9.34,0,0,0,.85,1.06,1.93,1.93,0,0,0,.33.26c.08,0,0,0-.06-.07s0,0,0,0,0,0,0,0,.14-.14.25-.3a8,8,0,0,0,.68-1c.48-.84.92-1.81,1.55-2.83a6.71,6.71,0,0,1,1.32-1.57,3.67,3.67,0,0,1,2.76-.92,4.11,4.11,0,0,1,2.41,1.26,8.94,8.94,0,0,1,1.2,1.56,27,27,0,0,1,1.49,3l.63,1.39c.21.43.43.86.59,1.11s.18.2-.05.06a1.07,1.07,0,0,0-.3-.09,1.79,1.79,0,0,0-.4,0,.94.94,0,0,0-.47.25c-.06.07,0,0,.1-.15s.15-.32.23-.53a26.31,26.31,0,0,0,.75-2.8c.4-2,.75-4.05,1.09-6.12s.67-4.14,1.13-6.22h.2c-.14,4.19-.31,8.39-.87,12.57a20.81,20.81,0,0,1-.64,3.1,3.68,3.68,0,0,1-.74,1.46.79.79,0,0,1-.91.17,1.88,1.88,0,0,1-.63-.59c-1.19-1.8-1.8-3.83-2.9-5.58-.53-.85-1.19-1.79-2.14-1.93a1.7,1.7,0,0,0-1.3.46,5.51,5.51,0,0,0-1,1.15c-.58.86-1.06,1.79-1.61,2.69a8.46,8.46,0,0,1-1,1.29,2.05,2.05,0,0,1-1.45.77,1.86,1.86,0,0,1-1.42-.82,8.73,8.73,0,0,1-.89-1.32c-.53-.91-1-1.85-1.49-2.78-.92-1.89-1.76-3.82-2.65-5.72Z" transform="translate(-212.61 -184.06)"/><path d="M346.06,348.61a41.37,41.37,0,0,0,1.83,4.39,4.8,4.8,0,0,0,.55.85c.18.22.41.34.37.25s-.06-.09-.08-.07.08,0,.18-.14a4.21,4.21,0,0,0,.61-.6,29.19,29.19,0,0,0,2.54-3.7l2.49-4.12a7.64,7.64,0,0,1,2.15-2.28,4.42,4.42,0,0,1,1.87-.67,3.54,3.54,0,0,1,1.1.06,6.23,6.23,0,0,1,.75.2,19.25,19.25,0,0,1,2.43,1,16.94,16.94,0,0,1,2.24,1.24l1,.67c.32.21.59.37.69.43s.64.09,1.14-.39a15.65,15.65,0,0,0,2.58-3.82l.19.06a13.24,13.24,0,0,1-2,4.43,2.33,2.33,0,0,1-2.19,1.05,10.47,10.47,0,0,1-2.21-1.05,25,25,0,0,0-4.43-1.81,3.23,3.23,0,0,0-1.12-.16,2.53,2.53,0,0,0-1.05.39,5.82,5.82,0,0,0-1.52,1.74c-.86,1.35-1.7,2.74-2.6,4.08a23.51,23.51,0,0,1-3,3.8,4.57,4.57,0,0,1-1,.74,1.45,1.45,0,0,1-1.27.18,2,2,0,0,1-.92-.87,5.66,5.66,0,0,1-.52-1.12,24.16,24.16,0,0,1-1-4.74Z" transform="translate(-212.61 -184.06)"/><path d="M299.56,349.21c1,1.36,1.73,2.76,2.56,4.13.42.69.83,1.39,1.25,2a8.33,8.33,0,0,0,.61.82c.08.09.18.18.18.15s0,0-.1-.08a1.28,1.28,0,0,0-.29-.08c-.37,0-.3.11-.17-.16a9.39,9.39,0,0,0,.43-.85c.31-.67.6-1.43,1.05-2.28a4.93,4.93,0,0,1,1.11-1.4,2.42,2.42,0,0,1,.53-.37,2.11,2.11,0,0,1,.71-.27,2.62,2.62,0,0,1,1.64.11,4,4,0,0,1,1.68,1.4,8.48,8.48,0,0,1,.76,1.29c.39.83.68,1.61,1,2.36.15.37.28.73.42,1.05s.33.64.28.61a1.52,1.52,0,0,0-.34-.21l-.21-.06a.85.85,0,0,0-.32,0,1.19,1.19,0,0,0-.59.13,1,1,0,0,0-.38.31c0,.08,0,0,0,0a4.4,4.4,0,0,0,.29-.78c.19-.68.37-1.43.52-2.19.61-3.08,1.1-6.29,1.91-9.48h.2c-.09,3.22-.2,6.44-.55,9.65a21.38,21.38,0,0,1-.37,2.4,5.88,5.88,0,0,1-.38,1.19,1.09,1.09,0,0,1-.45.54.64.64,0,0,1-.73-.22,9.5,9.5,0,0,1-1.1-2.21c-.31-.75-.6-1.49-.95-2.2a3.64,3.64,0,0,0-1.38-1.76c-.66-.27-1.26.44-1.64,1.09s-.74,1.41-1.12,2.13a7.27,7.27,0,0,1-.65,1,1.54,1.54,0,0,1-1.07.71c-.53,0-.85-.39-1.08-.7a8.87,8.87,0,0,1-.61-1.07c-.36-.72-.69-1.46-1-2.2-.63-1.49-1.2-3-1.79-4.5Z" transform="translate(-212.61 -184.06)"/><path d="M241.9,325.65c.53,1.13.93,2.29,1.46,3.28a5.93,5.93,0,0,0,.39.67c.12.18.3.33.3.26s-.11-.14-.28-.17a.31.31,0,0,0-.19,0s0,0-.05,0,.13-.16.26-.35a25.17,25.17,0,0,0,1.59-2.8l1.62-3.16a8.65,8.65,0,0,1,1.35-1.88,3.64,3.64,0,0,1,1.45-.88,3.69,3.69,0,0,1,.45-.11,2.8,2.8,0,0,1,.64,0,3,3,0,0,1,.78.17,10.55,10.55,0,0,1,1.9.88,11.08,11.08,0,0,1,1.65,1.07l.71.58c.22.18.37.26.27.28s-.08.13,0,.09a1.4,1.4,0,0,0,.45-.32,17.07,17.07,0,0,0,1.95-2.87l.19,0a12.2,12.2,0,0,1-1.25,3.4,1.76,1.76,0,0,1-1.55,1,5.93,5.93,0,0,1-1.64-.86,15,15,0,0,0-3.21-1.48,1.36,1.36,0,0,0-1.46.43,6.34,6.34,0,0,0-1,1.44c-.57,1.06-1.14,2.12-1.75,3.15a16.4,16.4,0,0,1-2.1,3,2.69,2.69,0,0,1-.75.58.86.86,0,0,1-1-.11,3.73,3.73,0,0,1-.83-1.66,24,24,0,0,1-.64-3.55Z" transform="translate(-212.61 -184.06)"/><path d="M287.06,311.65c1.25,1.75,2.23,3.57,3.41,5.31.56.88,1.12,1.77,1.7,2.57a8.52,8.52,0,0,0,.86,1.06,1.62,1.62,0,0,0,.32.26c.09,0,0,0-.06-.07s0,0,0,0,0,0,0,0a3.53,3.53,0,0,0,.25-.3,6.82,6.82,0,0,0,.69-1.05c.47-.84.91-1.8,1.54-2.82A6.71,6.71,0,0,1,297.1,315a3.63,3.63,0,0,1,2.76-.92,4.11,4.11,0,0,1,2.41,1.25,9.33,9.33,0,0,1,1.2,1.56,27.89,27.89,0,0,1,1.49,3l.63,1.39a10.6,10.6,0,0,0,.59,1.11c.05.12.18.2-.06.06a.9.9,0,0,0-.29-.09,1.86,1.86,0,0,0-.41,0,.85.85,0,0,0-.46.25c-.07.07,0,0,.09-.15a3,3,0,0,0,.23-.53,25.68,25.68,0,0,0,.75-2.8c.4-2,.76-4.05,1.09-6.11s.67-4.14,1.14-6.22h.2c-.15,4.19-.31,8.39-.87,12.56a22.15,22.15,0,0,1-.64,3.1,3.78,3.78,0,0,1-.74,1.47.81.81,0,0,1-.91.16,1.86,1.86,0,0,1-.63-.58c-1.19-1.81-1.8-3.83-2.9-5.59-.53-.85-1.2-1.78-2.14-1.93a1.71,1.71,0,0,0-1.3.47,5.27,5.27,0,0,0-1,1.15c-.58.85-1.06,1.78-1.61,2.68a8,8,0,0,1-1,1.29,2,2,0,0,1-1.45.77,1.85,1.85,0,0,1-1.42-.82,9.84,9.84,0,0,1-.89-1.32c-.53-.91-1-1.84-1.49-2.78-.92-1.88-1.76-3.81-2.64-5.71Z" transform="translate(-212.61 -184.06)"/><path d="M292.94,405.14A11.61,11.61,0,0,1,293,403a6,6,0,0,1,.72-2.19,2.85,2.85,0,0,1,1.08-1,2.67,2.67,0,0,1,1.66-.26,6.24,6.24,0,0,1,2.38.93,20.39,20.39,0,0,1,3.38,2.69c1,.91,2,2.14,2.7,2.7a1.77,1.77,0,0,0,.94.48,4.77,4.77,0,0,0,1.37-.13c1.25-.19,2.52-.52,3.77-.8a19.76,19.76,0,0,1,2.14-.5,3.57,3.57,0,0,1,2.68.74,6.23,6.23,0,0,1,1.94,4l-.18.08a7,7,0,0,0-2.31-3.16,2.46,2.46,0,0,0-1.85-.32c-.63.15-1.25.44-1.89.66a32.8,32.8,0,0,1-3.89,1.16,5.86,5.86,0,0,1-2.06.23,3.82,3.82,0,0,1-1.92-.86,13.12,13.12,0,0,1-1.43-1.46l-1.37-1.48a22.9,22.9,0,0,0-2.94-2.72,4.88,4.88,0,0,0-1.74-.89,1.51,1.51,0,0,0-1.63.64,9.72,9.72,0,0,0-1.44,3.69Z" transform="translate(-212.61 -184.06)"/><path d="M252.68,295.88c.54,1.3,1,2.62,1.55,3.76a4.48,4.48,0,0,0,.44.76c.13.2.35.36.31.25a.46.46,0,0,0-.39-.12c-.23,0-.22.06-.18,0a6.94,6.94,0,0,0,.46-.64c.67-1.06,1.44-2.2,2.14-3.36l2.25-3.43c.21-.28.42-.57.67-.88a6.71,6.71,0,0,1,1-1,2.75,2.75,0,0,1,1.22-.6A2.41,2.41,0,0,1,264,291a3.22,3.22,0,0,1,.56.54q.17.24.3.48a4.08,4.08,0,0,1,.28.77c.22.87.26,1.54.37,2.17a8.21,8.21,0,0,0,.35,1.55c.16.39.2.49.5.63a2.73,2.73,0,0,0,1.5-.08,23.27,23.27,0,0,0,3.72-1.49l.13.16a16.33,16.33,0,0,1-3.43,2.3,4.3,4.3,0,0,1-2,.45,2.19,2.19,0,0,1-1.74-1.17,17.63,17.63,0,0,1-1.15-4,1.61,1.61,0,0,0-.45-.78.57.57,0,0,0-.71.13,10.34,10.34,0,0,0-1.24,1.57c-1.57,2.23-3.08,4.52-4.82,6.66a6.44,6.44,0,0,1-.73.75,1.17,1.17,0,0,1-.52.27.78.78,0,0,1-.58-.14,3.51,3.51,0,0,1-1-1.84,24.43,24.43,0,0,1-.74-4.05Z" transform="translate(-212.61 -184.06)"/><path d="M351,380.05c1,1.37,1.73,2.76,2.57,4.13.42.69.82,1.39,1.25,2a8.22,8.22,0,0,0,.6.83c.09.09.19.18.19.15s0,0-.11-.09a2.05,2.05,0,0,0-.28-.08c-.37,0-.31.11-.18-.16a6.44,6.44,0,0,0,.43-.84c.31-.67.6-1.44,1.06-2.29a4.83,4.83,0,0,1,1.1-1.4,2.32,2.32,0,0,1,.53-.36,2.26,2.26,0,0,1,.72-.28,2.77,2.77,0,0,1,1.64.11,3.94,3.94,0,0,1,1.67,1.4,9.71,9.71,0,0,1,.77,1.29c.39.83.68,1.62,1,2.36.14.37.28.73.42,1.06s.32.64.27.61a1,1,0,0,0-.33-.21l-.22-.07a1.1,1.1,0,0,0-.31,0,1.31,1.31,0,0,0-.59.14,1,1,0,0,0-.39.3c0,.08,0,0,0,0a3.24,3.24,0,0,0,.3-.78c.18-.67.36-1.43.52-2.19.6-3.08,1.09-6.28,1.9-9.47h.2c-.09,3.22-.19,6.44-.54,9.66a22.16,22.16,0,0,1-.38,2.4,5.75,5.75,0,0,1-.37,1.18,1.21,1.21,0,0,1-.45.55.63.63,0,0,1-.73-.23,9,9,0,0,1-1.11-2.21c-.3-.74-.59-1.49-.95-2.2a3.62,3.62,0,0,0-1.37-1.76c-.66-.27-1.26.45-1.65,1.09s-.73,1.42-1.11,2.13a7.62,7.62,0,0,1-.65,1.05,1.55,1.55,0,0,1-1.08.72c-.53,0-.85-.4-1.08-.71a9.36,9.36,0,0,1-.61-1.06c-.36-.73-.68-1.47-1-2.21-.62-1.48-1.19-3-1.79-4.49Z" transform="translate(-212.61 -184.06)"/><path d="M347.08,440.37a40.69,40.69,0,0,0,1.83,4.4,4.7,4.7,0,0,0,.55.84c.18.23.41.34.37.26s-.07-.1-.08-.08.07-.05.18-.14a4.62,4.62,0,0,0,.61-.59,28.16,28.16,0,0,0,2.53-3.7l2.5-4.12a7.6,7.6,0,0,1,2.14-2.28,4.47,4.47,0,0,1,1.87-.67,3.61,3.61,0,0,1,1.11.06,5.66,5.66,0,0,1,.74.19,21.93,21.93,0,0,1,2.43,1,18.77,18.77,0,0,1,2.24,1.24l1,.68c.32.21.6.37.7.43s.63.08,1.13-.39a15.67,15.67,0,0,0,2.59-3.82l.19.06a13.32,13.32,0,0,1-2,4.43,2.37,2.37,0,0,1-2.19,1.05,10.79,10.79,0,0,1-2.22-1.05,23.69,23.69,0,0,0-4.43-1.81,3.43,3.43,0,0,0-1.12-.17,2.59,2.59,0,0,0-1,.4,5.85,5.85,0,0,0-1.53,1.74c-.85,1.35-1.7,2.74-2.6,4.07a23,23,0,0,1-3,3.81,5.29,5.29,0,0,1-1,.74,1.51,1.51,0,0,1-1.27.18,2,2,0,0,1-.92-.88,6.59,6.59,0,0,1-.52-1.11,24.9,24.9,0,0,1-1-4.74Z" transform="translate(-212.61 -184.06)"/><path d="M225.66,393.72c1,1.36,1.73,2.76,2.57,4.13.41.69.82,1.39,1.24,2a10,10,0,0,0,.61.83c.08.08.18.17.19.15s0,0-.11-.09a1.15,1.15,0,0,0-.29-.08c-.37,0-.3.11-.17-.16s.28-.51.43-.84c.31-.68.6-1.44,1.06-2.29a4.83,4.83,0,0,1,1.1-1.4,2.12,2.12,0,0,1,.53-.36,2.07,2.07,0,0,1,.71-.28,2.65,2.65,0,0,1,1.65.11,3.94,3.94,0,0,1,1.67,1.4,8.58,8.58,0,0,1,.77,1.29c.39.83.67,1.62,1,2.36.14.37.28.73.41,1.05s.33.65.28.62a1,1,0,0,0-.33-.21.71.71,0,0,0-.22-.07,1.12,1.12,0,0,0-.32,0,1.2,1.2,0,0,0-.59.14,1,1,0,0,0-.38.3c0,.08,0,0,0,0a3.42,3.42,0,0,0,.3-.78c.18-.67.36-1.43.52-2.19.6-3.08,1.09-6.29,1.9-9.48h.2c-.09,3.22-.19,6.44-.54,9.65-.09.81-.21,1.61-.38,2.41a6,6,0,0,1-.38,1.18,1.12,1.12,0,0,1-.44.54.63.63,0,0,1-.73-.22,9.16,9.16,0,0,1-1.11-2.21c-.3-.75-.6-1.49-1-2.2a3.68,3.68,0,0,0-1.37-1.76c-.66-.27-1.27.44-1.65,1.09s-.74,1.41-1.12,2.13a7.55,7.55,0,0,1-.64,1.05,1.54,1.54,0,0,1-1.08.71c-.53,0-.85-.39-1.08-.7a7.56,7.56,0,0,1-.61-1.07c-.36-.72-.69-1.46-1-2.2-.62-1.48-1.19-3-1.79-4.49Z" transform="translate(-212.61 -184.06)"/><path d="M244,354.43c1.25,1.74,2.23,3.56,3.4,5.3.57.88,1.13,1.77,1.71,2.58a10.32,10.32,0,0,0,.85,1.06,1.38,1.38,0,0,0,.33.25c.08,0,0,0-.06-.06s0,0,0,0,0,0,0,0a3.1,3.1,0,0,0,.25-.29,8,8,0,0,0,.68-1c.47-.84.92-1.81,1.55-2.83a6.47,6.47,0,0,1,1.32-1.57,3.67,3.67,0,0,1,2.76-.92,4.05,4.05,0,0,1,2.4,1.26,8.56,8.56,0,0,1,1.21,1.56,31,31,0,0,1,1.49,3l.62,1.39c.21.43.44.86.59,1.11s.19.19,0,.06a.76.76,0,0,0-.29-.09,1.13,1.13,0,0,0-.41,0,1,1,0,0,0-.47.24c-.06.08,0,0,.1-.14a4.16,4.16,0,0,0,.23-.54,25.68,25.68,0,0,0,.75-2.8c.4-2,.75-4,1.09-6.11s.67-4.14,1.13-6.22h.2a125.57,125.57,0,0,1-.87,12.55,20.94,20.94,0,0,1-.64,3.11,3.75,3.75,0,0,1-.74,1.46.79.79,0,0,1-.91.17,1.85,1.85,0,0,1-.62-.59c-1.2-1.8-1.8-3.83-2.91-5.59-.52-.84-1.19-1.78-2.13-1.92a1.69,1.69,0,0,0-1.3.46,5.51,5.51,0,0,0-1,1.15c-.58.86-1.06,1.79-1.62,2.69a7.71,7.71,0,0,1-.95,1.28,2,2,0,0,1-1.45.77,1.82,1.82,0,0,1-1.42-.81,9.26,9.26,0,0,1-.89-1.32c-.53-.91-1-1.85-1.49-2.78-.92-1.89-1.76-3.81-2.64-5.72Z" transform="translate(-212.61 -184.06)"/><path d="M228,436.74a41.37,41.37,0,0,0,1.83,4.39,4.8,4.8,0,0,0,.55.85c.18.23.41.34.38.25s-.07-.09-.09-.07.08-.05.18-.14a4.78,4.78,0,0,0,.62-.6,30.25,30.25,0,0,0,2.53-3.7l2.49-4.12a7.64,7.64,0,0,1,2.15-2.28,4.42,4.42,0,0,1,1.87-.67,3.51,3.51,0,0,1,1.1.06,6.23,6.23,0,0,1,.75.2,19.25,19.25,0,0,1,2.43,1,18.16,18.16,0,0,1,2.24,1.24l1,.67c.32.21.59.37.69.43s.64.09,1.14-.38a15.92,15.92,0,0,0,2.58-3.83l.19.06a13.24,13.24,0,0,1-2,4.43,2.33,2.33,0,0,1-2.19,1.05,10.47,10.47,0,0,1-2.21-1.05,25,25,0,0,0-4.43-1.81,3.23,3.23,0,0,0-1.12-.16,2.44,2.44,0,0,0-1,.39,5.72,5.72,0,0,0-1.53,1.74c-.86,1.35-1.7,2.74-2.6,4.08a23,23,0,0,1-3,3.8,4.57,4.57,0,0,1-1,.74,1.45,1.45,0,0,1-1.27.18,2,2,0,0,1-.92-.87,5.66,5.66,0,0,1-.52-1.12,24.16,24.16,0,0,1-1-4.74Z" transform="translate(-212.61 -184.06)"/></svg>