<svg id="Layer_2" data-name="Layer 2" xmlns="http://www.w3.org/2000/svg" viewBox="0 0 412.72 525.4"><defs><style>.cls-1{fill:none;stroke:#000;stroke-miterlimit:10;stroke-width:4px;}</style></defs><title>flugsvamp</title><path class="cls-1" d="M257.47,354.26a163.22,163.22,0,0,0-17.7-2.39c-12.3-1-13.76.3-23.49-.68-12-1.2-12.8-3.43-26.56-5.1-2.94-.36-8.47-.59-19.4-1-23.85-.95-25.84-.7-32.68-1.7-8.73-1.27-15.64-2.34-23.83-6.47-5.43-2.73-12-6-17-13.27-8.6-12.35-6.07-26.48-5.45-30a45.48,45.48,0,0,1,9.19-20.09A55.94,55.94,0,0,1,113.13,262c4.89-3.33,6.58-3.37,11.91-7.15,4.31-3,4.52-4,10.56-9.19,6.77-5.87,8.24-6.24,17.36-13.62,1.89-1.53,6.64-5.38,11.23-9.53,8.84-8,12.89-13.23,19.75-20.77a319.93,319.93,0,0,1,22.8-22.46,200.84,200.84,0,0,1,33.37-23.83c15.35-8.59,26.88-15,43.57-16.34,12.6-1,23.25,1.33,29.62,2.72a101.8,101.8,0,0,1,25.19,8.51c9.11,4.56,8.86,6.31,21.45,13.28,3.5,1.94,4.76,2.49,20.08,9.87,12.73,6.13,19.09,9.19,20.43,9.87a356.28,356.28,0,0,1,34.72,20.09c11.07,7.32,9.4,7.2,19.4,13.61,17.73,11.37,20.4,10.08,27.58,17a56.77,56.77,0,0,1,15.32,26.55,48.89,48.89,0,0,1,0,25.87c-4,13.85-13.57,21.78-19.07,26.21-3,2.46-8.14,6.14-33,15.32-16.21,6-25.44,9.39-39.15,12.94-8.92,2.31-20.24,4.6-42.89,9.19-5,1-9.12,1.83-11.91,2.38" transform="translate(-88.51 -136.87)"/><path class="cls-1" d="M110.4,329.06c-1.36-1.93-6.17-2.84-7.49-5.44-2.85-5.68-5.13-10-4.76-14,.24-2.65,1.8-6.93,15.66-15a131.74,131.74,0,0,1,24.85-11.23c21.64-7,32.47-10.53,41.87-12.6,19.48-4.28,34-5.42,56.17-7.15,25.61-2,25-.47,44.6-2.72,12.62-1.45,20.68-3,35.4-3.41,11-.32,11.13.39,24.17.34,21.24-.08,24.17-2,44.26-2.38,13.84-.27,23.68-.46,37.1,1.7,16.17,2.61,26.55,6.86,35.41,10.56,8.63,3.6,15,7.1,20.76,13.27,3.69,4,7.52,8.21,7.49,14,0,7.93-8.13,13.45-13.27,17-3,2.09-5.88,3.59-21.79,9.19-9.61,3.39-14.42,5.09-21.11,7.15-4.4,1.36-7.61,2.28-28.59,7.83-21.71,5.75-25.69,6.73-32,7.83-7.56,1.32-13.84,2-18,2.39" transform="translate(-88.51 -136.87)"/><path class="cls-1" d="M257.81,349.83c-3.66-.34-9.22-.84-16-1.36-16.94-1.32-17.12-.93-24.51-1.7-11.8-1.24-12-2.29-31.32-5.11-9.5-1.39-14.25-2.08-19.07-2.38-13.95-.89-17.89.79-27.91-.68-7-1-8.42-3.22-19.4-5.79-5.3-1.24-6.3-3.33-9.2-3.75" transform="translate(-88.51 -136.87)"/><path d="M255.52,303.51c1,3.94,1.82,7.93,2.74,11.91l.6,3,.5,3q.48,3,.89,6.05c.6,4,.92,8.11,1.2,12.19s.27,8.19.22,12.27-.26,8.14-.45,12.19-.34,8.1-.65,12.14l-.81,12.15c-.4,4-.67,8.09-1.17,12.14h-.2l1.28-48.64a196.85,196.85,0,0,0-1-24.28c-.69-8.08-2.16-16.06-3.37-24.08Z" transform="translate(-88.51 -136.87)"/><path d="M253.75,309.42a10.79,10.79,0,0,1-4.53.25,8.27,8.27,0,0,1-4.17-2.06,9.29,9.29,0,0,1-2.53-4,7.73,7.73,0,0,1-.36-2.47,6.28,6.28,0,0,1,.67-2.49,11.1,11.1,0,0,1,3.23-3.62,26.39,26.39,0,0,1,4-2.44,60.62,60.62,0,0,1,8.43-3.44c2.86-1,5.73-1.79,8.63-2.54s5.86-1.4,8.82-2a124.41,124.41,0,0,1,18-1.86,146,146,0,0,1,18,.74,120.21,120.21,0,0,1,17.79,2.93c1.46.38,2.92.8,4.36,1.28.72.24,1.45.5,2.15.78l.52.2.13.05h0l.29.09,1.11.37a37.53,37.53,0,0,1,8.15,4.17,28.58,28.58,0,0,1,3.58,2.88,7.69,7.69,0,0,1,1.51,1.92,3.14,3.14,0,0,1,.36,1.33,3.71,3.71,0,0,1-.24,1.3,7.23,7.23,0,0,1-3.27,3.37,18.12,18.12,0,0,1-4.2,1.64l-.06-.19a17.34,17.34,0,0,0,4-1.84,6.74,6.74,0,0,0,2.89-3.18,2.44,2.44,0,0,0-.15-2.06,7.23,7.23,0,0,0-1.42-1.66,28.1,28.1,0,0,0-3.58-2.62,37.12,37.12,0,0,0-8-3.82c-1.42-.4-2.83-1-4.24-1.37s-2.85-.81-4.29-1.14a133.93,133.93,0,0,0-17.61-2.57,150.79,150.79,0,0,0-17.78-.62,128.25,128.25,0,0,0-17.71,1.72,149,149,0,0,0-17.3,4.14,59.46,59.46,0,0,0-8.32,3.13,24.78,24.78,0,0,0-3.83,2.22,10,10,0,0,0-3,3.17,5.17,5.17,0,0,0-.64,2.06,6.58,6.58,0,0,0,.23,2.16,8.42,8.42,0,0,0,2.17,3.77,8.83,8.83,0,0,0,8.18,2.08Z" transform="translate(-88.51 -136.87)"/><path d="M260.36,403.79a34.82,34.82,0,0,0-8.58,9.61c-1.11,1.84-2.07,3.8-3.33,5.62a27.47,27.47,0,0,1-4.49,4.83c-1.64,1.44-3.34,2.8-5,4.15s-3.41,2.71-5.18,4-3.61,2.49-5.43,3.65a17.42,17.42,0,0,0-4.75,4,29,29,0,0,0-3.26,5.33,12.33,12.33,0,0,0-1.2,5.8,8.46,8.46,0,0,0,2.26,5.16,13.58,13.58,0,0,0,4.91,3.31,15.4,15.4,0,0,0,2.88.87l.73.13c.23,0,.44.05.68.06a12.35,12.35,0,0,0,1.48,0c2.06-.14,4.2-.49,6.32-.81l6.41-1.05a26.16,26.16,0,0,1,3.43-.42,6.25,6.25,0,0,1,2.06.25,6.44,6.44,0,0,1,1.9.92,8.25,8.25,0,0,1,2.45,3,9.65,9.65,0,0,0,1.59,2.34,5.69,5.69,0,0,0,2.07,1.38c.64.23,1.84.28,3,.58a16.6,16.6,0,0,1,3.39,1.18,13.2,13.2,0,0,1,3.07,2,31.9,31.9,0,0,0,5,3.69,28,28,0,0,0,5.43,2.79,9.82,9.82,0,0,0,2.71.55,7.3,7.3,0,0,0,2.55-.29,7,7,0,0,0,2.2-1.46,11.56,11.56,0,0,1,1.64-1.06,10.9,10.9,0,0,1,1.8-.72,9,9,0,0,1,2-.4,12.42,12.42,0,0,1,1.93,0,31.74,31.74,0,0,1,3.41.5c4.37.85,8.57,1.94,12.79,3,1,.26,2.12.57,3,.74a2.58,2.58,0,0,0,1,.05,5.66,5.66,0,0,0,1.09-.33,5,5,0,0,0,1.85-1.49c.65-.75,1.35-1.64,2.1-2.49a40.32,40.32,0,0,1,4.94-4.69,39.06,39.06,0,0,1,5.59-4,15.63,15.63,0,0,1,3.44-1.43,8.62,8.62,0,0,1,4.15-.14,11.82,11.82,0,0,1,3.53,1.59c.5.31,1,.62,1.45.94l.7.49.35.25.17.13.09.06,0,0a1.21,1.21,0,0,0-.26-.16l.34.21a11.77,11.77,0,0,0,8,2.77c2.77-.2,5.95-1.68,9.28-2.67a43.59,43.59,0,0,1,5.15-1.32c.9-.16,1.8-.27,2.63-.37s1.58-.21,2.35-.36a40.62,40.62,0,0,0,4.66-1.32q2.36-.77,4.59-1.72a38.67,38.67,0,0,0,8.33-4.85,45.51,45.51,0,0,0,7.05-6.65,14.18,14.18,0,0,0,2.34-3.77,4.37,4.37,0,0,0,.28-.92l.09-.45V444a2.34,2.34,0,0,0-.32-1.32,4.74,4.74,0,0,0-1.38-1.07c-.66-.39-1.4-.78-2.15-1.17-1.49-.77-3-1.57-4.51-2.39l-.15-.08.07,0-.06,0-.13-.08-.27-.14-.52-.3-1-.59L385,435.68q-2.06-1.21-4.09-2.48c-2.72-1.69-5.37-3.42-8-5.23a54.85,54.85,0,0,1-14.09-13.44,55.53,55.53,0,0,1-8.21-17.62,36.13,36.13,0,0,1-1.17-9.76c.05-3.26.44-6.43.68-9.56a95.53,95.53,0,0,0-.27-18.75,23.51,23.51,0,0,0-.33-2.34l-.4-2.33-.81-4.67-1.6-9.34c-2.12-12.45-4.37-25-6.17-37.48q1.82,9.33,3.73,18.63l3.82,18.62,1.92,9.32.95,4.67.48,2.33a20.61,20.61,0,0,1,.41,2.35,99,99,0,0,1,.73,19.16c-.18,3.19-.48,6.33-.45,9.4a34.26,34.26,0,0,0,1.24,9,49.72,49.72,0,0,0,21.49,28.94c2.59,1.73,5.26,3.43,7.94,5.05q2,1.23,4,2.4l2,1.17,2.2,1.21-.15-.09c1.48.79,3,1.54,4.48,2.31.76.39,1.53.78,2.33,1.24a8.1,8.1,0,0,1,2.54,2.09,7.17,7.17,0,0,1,.47,6.64,17.4,17.4,0,0,1-2.92,4.85,49.27,49.27,0,0,1-7.66,7.3,42.55,42.55,0,0,1-9.15,5.37c-1.62.7-3.27,1.31-4.91,1.86A46.16,46.16,0,0,1,371,468c-.89.19-1.81.32-2.66.42s-1.63.2-2.4.35a37.79,37.79,0,0,0-4.67,1.21c-1.57.49-3.12,1.06-4.77,1.62a20.78,20.78,0,0,1-5.43,1.24,15.78,15.78,0,0,1-10.75-3.64l.34.22a3.24,3.24,0,0,1-.35-.22l0,0-.08-.06-.15-.11-.31-.23-.64-.44c-.42-.29-.85-.57-1.27-.84a8.7,8.7,0,0,0-2.35-1.12c-1.32-.33-3.13.23-4.82,1.17a34.31,34.31,0,0,0-5,3.55,35.67,35.67,0,0,0-4.51,4.23c-.69.77-1.32,1.59-2.1,2.48a9,9,0,0,1-3.22,2.48,8.55,8.55,0,0,1-2,.59,6.2,6.2,0,0,1-2.26-.07c-1.24-.24-2.24-.54-3.3-.82-4.17-1.13-8.37-2.25-12.5-3.11a29.3,29.3,0,0,0-3-.47,8.52,8.52,0,0,0-1.32,0,5.41,5.41,0,0,0-1.22.25,6.62,6.62,0,0,0-2.31,1.16c-.38.28-.81.66-1.37,1.05a7.32,7.32,0,0,1-1.9.94,11.91,11.91,0,0,1-7.51-.34,31.06,31.06,0,0,1-6.1-3.18c-.9-.57-1.89-1.21-2.81-1.9s-1.8-1.47-2.58-2.15a9.83,9.83,0,0,0-2.33-1.59,14.35,14.35,0,0,0-2.72-1c-.47-.12-.93-.2-1.47-.29a9.82,9.82,0,0,1-1.86-.42,8.82,8.82,0,0,1-3.28-2.22,13,13,0,0,1-2-3,5.36,5.36,0,0,0-1.51-2,3.59,3.59,0,0,0-1-.52,3.38,3.38,0,0,0-1.15-.15,25.84,25.84,0,0,0-3,.33l-6.45.94c-2.16.3-4.31.61-6.59.71a15,15,0,0,1-1.77,0c-.3,0-.63-.06-.93-.11l-.87-.17a17.83,17.83,0,0,1-3.31-1.09,16.14,16.14,0,0,1-5.7-4.05,10.77,10.77,0,0,1-2.69-6.59,14.21,14.21,0,0,1,1.54-6.79,28.69,28.69,0,0,1,3.69-5.64,14.39,14.39,0,0,1,2.5-2.37,33.35,33.35,0,0,1,2.81-1.81c1.86-1.11,3.69-2.22,5.47-3.43s3.52-2.48,5.26-3.78,3.47-2.59,5.13-4a26.48,26.48,0,0,0,4.5-4.54c1.27-1.7,2.28-3.63,3.49-5.45A35.2,35.2,0,0,1,260.36,403.79Z" transform="translate(-88.51 -136.87)"/><path d="M265.09,406.19a16.91,16.91,0,0,0,2.25,1.13,16.32,16.32,0,0,0,2.28.81,12,12,0,0,0,4.45.44,30.63,30.63,0,0,0,4.56-1.1,33.34,33.34,0,0,1,5.36-.94,27,27,0,0,1,5.54,0c1.82.17,3.57.45,5.28.75s3.36.72,5,1.09,3.4.78,5.15,1.32l2.36.84a15.08,15.08,0,0,0,2,.49,38,38,0,0,0,4.51.51,54.91,54.91,0,0,0,9.46-.46A164,164,0,0,0,343,407.69l.17.36a80.24,80.24,0,0,1-19.31,6.11,48.84,48.84,0,0,1-10.1,1.13,33.4,33.4,0,0,1-5.09-.43,18.68,18.68,0,0,1-2.52-.57l-2.4-.8c-1.59-.51-3.22-.93-4.85-1.34s-3.27-.81-4.91-1.19a39.9,39.9,0,0,0-9.93-1.28,36.44,36.44,0,0,0-5,.46,25.73,25.73,0,0,1-5.07.55,15.26,15.26,0,0,1-9.17-4.2Z" transform="translate(-88.51 -136.87)"/><path d="M255.26,470.68c-3.72,18.7-8,37.29-12,56-1,4.68-2.29,9.28-3.66,13.88s-3,9.15-4.78,13.6-3.76,8.75-5,13.19a109.91,109.91,0,0,0-2.56,13.8,92.83,92.83,0,0,0-1,13.94,52.94,52.94,0,0,0,1.85,13.58,54.23,54.23,0,0,0,5.24,12.65,60.56,60.56,0,0,0,8.22,11,77.51,77.51,0,0,0,10.39,9.14,108,108,0,0,0,11.65,7.7,65.82,65.82,0,0,0,53.24,4.57,50.72,50.72,0,0,0,22-15.52A58.5,58.5,0,0,0,346,626.47a132.6,132.6,0,0,0,5.11-13.09c1.53-4.51,3-8.94,4.16-13.48a116.21,116.21,0,0,0,2.62-13.8c.63-4.66,1-9.38,1.38-14.12s.71-9.48.93-14.21c.47-9.46.3-18.95,0-28.46s-.65-19-1.1-28.56q-.35-7.14-.79-14.27t-.9-14.27c2.42,18.92,3.86,38,5.24,57,.62,9.52,1,19.09.85,28.69-.07,4.8-.35,9.58-.6,14.34s-.57,9.56-1.12,14.35a120.72,120.72,0,0,1-2.41,14.33c-1.09,4.74-2.62,9.36-4.09,13.88a139.35,139.35,0,0,1-5.12,13.6,62.85,62.85,0,0,1-7.58,12.73,55.09,55.09,0,0,1-24,17.16,69.53,69.53,0,0,1-57.29-4.9,110.17,110.17,0,0,1-12.16-8.09,77.66,77.66,0,0,1-11-9.8,64.45,64.45,0,0,1-8.71-12,59,59,0,0,1-5.52-13.77,54.62,54.62,0,0,1-1.38-7.3,55.39,55.39,0,0,1-.41-7.39,93.11,93.11,0,0,1,1.38-14.52,109.73,109.73,0,0,1,3-14.23c1.38-4.75,3.53-9.12,5.39-13.44s3.55-8.74,5.07-13.23,2.92-9,4-13.64Z" transform="translate(-88.51 -136.87)"/><path d="M257.59,339a6.08,6.08,0,0,1,.36,3,4.8,4.8,0,0,1-.84,2.1,4.88,4.88,0,0,1-1.72,1.47,6.11,6.11,0,0,1-2.91.62l-.24-.17c.75-1.27,1.62-2.44,2.43-3.66s1.72-2.37,2.68-3.49Z" transform="translate(-88.51 -136.87)"/><path d="M255.89,328.47a21,21,0,0,1-2.22,6c-.48.92-1,1.79-1.58,2.65l-.88,1.25c-.3.41-.66.78-1,1.17a33.7,33.7,0,0,1-4.49,4.19,21.3,21.3,0,0,1-5.52,3.16l-.21-.21c2.59-3.08,5.3-6.05,7.94-9.08.7-.73,1.32-1.52,1.95-2.3l1.91-2.34q1.89-2.34,3.85-4.65Z" transform="translate(-88.51 -136.87)"/><path d="M255.18,319.64a54.87,54.87,0,0,1-6.6,8.32,73.69,73.69,0,0,1-7.73,7.06,81.43,81.43,0,0,1-8.54,6.07,54.62,54.62,0,0,1-9.48,4.77l-.18-.24q4.08-3.22,8.2-6.41c2.77-2.09,5.4-4.35,8.11-6.52l4.07-3.24,2-1.62,2-1.69q3.94-3.39,8-6.72Z" transform="translate(-88.51 -136.87)"/><path d="M254.17,311.47a63.53,63.53,0,0,1-9.68,10.82c-1.76,1.66-3.68,3.14-5.57,4.66s-3.92,2.82-5.89,4.18-4.07,2.58-6.16,3.78-4.21,2.34-6.41,3.33a71.13,71.13,0,0,1-6.72,2.74c-2.29.79-4.57,1.59-6.93,2.18l-.13-.27,6.32-3.31c2.11-1.11,4.24-2.16,6.28-3.38q6.18-3.58,12.09-7.57c4-2.6,7.9-5.31,11.67-8.21s7.41-6,10.92-9.17Z" transform="translate(-88.51 -136.87)"/><path d="M245.63,311.49c-2.21,2-4.55,3.83-6.89,5.66s-4.84,3.45-7.32,5.08c-1.23.83-2.47,1.65-3.74,2.43s-2.65,1.5-4,2.19c-2.73,1.33-5.49,2.46-8.26,3.57s-5.59,2-8.41,2.9-5.67,1.72-8.57,2.39a107.76,107.76,0,0,1-17.54,3l-.08-.29a338.42,338.42,0,0,0,33.53-10.83,90.12,90.12,0,0,0,15.91-7.46l7.65-4.37,7.55-4.56Z" transform="translate(-88.51 -136.87)"/><path d="M243.24,309.11A98.4,98.4,0,0,1,228.83,317c-2.52,1.1-5.08,2.13-7.7,3s-5.27,1.64-7.91,2.37c-10.61,2.78-21.14,5-31.95,7A112.82,112.82,0,0,1,164.72,331c-2.79,0-5.56-.08-8.27-.21l-8.08-.35c-10.78-.34-21.61-.38-32.51-.5l0-.29q16.22-1.46,32.53-1.57c5.43-.06,10.86.28,16.27.1a113.45,113.45,0,0,0,16.13-1.72c5.35-.89,10.67-2,16-3s10.64-2.12,15.93-3.34a121.09,121.09,0,0,0,30.41-11.2Z" transform="translate(-88.51 -136.87)"/><path d="M240.5,307.42a129,129,0,0,1-34.16,10.63,141.68,141.68,0,0,1-17.94,1.88c-6,.21-12,0-18-.24s-11.95-.9-17.86-1.68-11.73-1.67-17.59-2.56c-11.7-1.71-23.42-3.35-35.15-5.3l0-.3q17.73,1.31,35.4,3.26c5.89.64,11.77,1.4,17.65,2.1s11.77,1.2,17.69,1.48,11.83.54,17.74.41A156.37,156.37,0,0,0,206,315.7a160.88,160.88,0,0,0,34.37-8.56Z" transform="translate(-88.51 -136.87)"/><path d="M238.45,305a110.93,110.93,0,0,1-30.91,7.32,122.12,122.12,0,0,1-16,.43c-5.32-.2-10.58-.68-15.82-1.14-10.66-1.14-20.94-3.21-31.24-5.32s-20.55-4.56-30.7-7.42l.06-.29,31,5.39,15.54,2.56c5.19.82,10.38,1.6,15.59,2.1,10.44,1,20.93,2,31.41,1.33a142,142,0,0,0,31-5.25Z" transform="translate(-88.51 -136.87)"/><path d="M235.71,301a65,65,0,0,1-12.49,2.57c-2.13.21-4.26.34-6.42.38a60.65,60.65,0,0,1-6.47-.28c-8.59-.9-16.69-2.72-24.94-4.14-4.08-.83-8.19-1.47-12.37-2.34s-8.25-1.81-12.29-3c-8.13-2.22-16.21-4.62-24.15-7.49l.07-.3,24.57,5.48c4.09,1,8.2,1.77,12.32,2.54l12.4,2.16c4.12.78,8.24,1.61,12.35,2.45s8.22,1.71,12.36,2.3a72.74,72.74,0,0,0,12.52.65,85.71,85.71,0,0,0,12.48-1.28Z" transform="translate(-88.51 -136.87)"/><path d="M237.72,296.87a79,79,0,0,1-20.32-.32,92.3,92.3,0,0,1-10-2c-3.29-.86-6.52-1.87-9.72-2.87l-18.91-6.36c-6.31-2.1-12.65-4.15-19-6.51l.06-.3q9.84,2,19.55,4.54c6.47,1.71,12.86,3.72,19.22,5.78a158,158,0,0,0,19.28,5.38,130.09,130.09,0,0,0,19.88,2.34Z" transform="translate(-88.51 -136.87)"/><path d="M242.79,293.8a52.81,52.81,0,0,1-13.43-2.55,64.84,64.84,0,0,1-6.43-2.4c-2.09-.94-4.11-2-6.11-3s-3.92-2.23-5.82-3.4-3.8-2.38-5.62-3.7a88.47,88.47,0,0,1-10.63-8.42l.16-.26,11.64,6.63c3.89,2.2,7.77,4.41,11.7,6.52a112,112,0,0,0,12,5.87,125,125,0,0,0,12.61,4.46Z" transform="translate(-88.51 -136.87)"/><path d="M221.17,267.71a95.66,95.66,0,0,0,7.56,6.09c1.29.85,2.51,1.7,3.89,2.43s2.74,1.57,4.19,2.37,2.84,1.54,4.24,2.37,2.79,1.66,4.13,2.62a51.76,51.76,0,0,1,7.93,6.19l-.13.27c-3-1.43-5.94-2.85-8.88-4.34l-8.8-4.52a45.43,45.43,0,0,1-8.17-5.62,31.46,31.46,0,0,1-6.22-7.71Z" transform="translate(-88.51 -136.87)"/><path d="M236.84,265.7a71.49,71.49,0,0,0,5.41,5.84,29.21,29.21,0,0,0,2.8,2.24c1,.67,2,1.35,3.17,2.06a56.71,56.71,0,0,1,6.58,4.81,35.37,35.37,0,0,1,5.81,6.08l-.16.25c-2.32-1.42-4.63-2.85-6.92-4.31s-4.62-2.86-6.92-4.31a35.14,35.14,0,0,1-3.36-2.37,19.06,19.06,0,0,1-2.86-3,22.92,22.92,0,0,1-3.83-7.24Z" transform="translate(-88.51 -136.87)"/><path d="M245.34,265.66a32.39,32.39,0,0,1,5.52,3.94,57.43,57.43,0,0,1,4.7,4.38c1.47,1.54,2.87,3.15,4.29,4.9a23.07,23.07,0,0,1,3.51,5.82l-.21.21c-1.67-1.42-3.33-2.86-5-4.32s-3.26-2.94-4.79-4.52-3-3.24-4.38-4.95a63.54,63.54,0,0,1-3.93-5.29Z" transform="translate(-88.51 -136.87)"/><path d="M258.63,264.68a40.17,40.17,0,0,1,4.05,4.57c1.18,1.5,2.27,3,3.34,4.49s2.12,3,3.15,4.72a23.56,23.56,0,0,1,2.7,5.56l-.21.22c-1.43-1.37-2.9-2.73-4.26-4.17a46.7,46.7,0,0,1-3.82-4.59,38.74,38.74,0,0,1-3.05-5.15,33.93,33.93,0,0,1-2.18-5.56Z" transform="translate(-88.51 -136.87)"/><path d="M269.18,264.33a25.28,25.28,0,0,1,3.95,3.55,38,38,0,0,1,3.07,3.76,15.26,15.26,0,0,1,1.38,2.42,12.83,12.83,0,0,1,.85,2.7,10.28,10.28,0,0,1-.39,5.64l-.29.05a29.45,29.45,0,0,0-1.53-4.77,22.45,22.45,0,0,0-2.48-4.33,43.24,43.24,0,0,1-2.71-4.3,32.61,32.61,0,0,1-2.13-4.61Z" transform="translate(-88.51 -136.87)"/><path d="M281.1,264A13.48,13.48,0,0,1,284,268.2a20.8,20.8,0,0,1,.87,2.27,19.16,19.16,0,0,1,.47,2.35,16.87,16.87,0,0,1-.07,4.81,12.24,12.24,0,0,1-1.77,4.79h-.3c-.19-3.09-.38-6.17-.84-9.22l-.3-2.3-.43-2.27q-.44-2.26-.81-4.56Z" transform="translate(-88.51 -136.87)"/><path d="M288.25,262.32a13.4,13.4,0,0,1,2.59,4.33,15,15,0,0,1,1.06,4.61,20.36,20.36,0,0,1-.24,4.73,13.79,13.79,0,0,1-1.7,4.73h-.3c-.33-3.07-.49-6.13-.74-9.2,0-1.53-.3-3-.46-4.58s-.36-3.05-.5-4.59Z" transform="translate(-88.51 -136.87)"/><path d="M297.79,262a15.34,15.34,0,0,1,2,4.94,21.79,21.79,0,0,1,.55,4.93,23.08,23.08,0,0,1-.55,4.94,15.76,15.76,0,0,1-2,4.93h-.3c-.13-3.29-.1-6.58-.15-9.87s0-6.58.15-9.87Z" transform="translate(-88.51 -136.87)"/><path d="M307.32,260.32a27.76,27.76,0,0,1,1.65,5.46,43.23,43.23,0,0,1,.77,5.24,19.1,19.1,0,0,1,0,2.93,15.42,15.42,0,0,1-.54,2.93,12.4,12.4,0,0,1-2.91,5.24l-.29-.07a40.85,40.85,0,0,0,.81-5.38,30.67,30.67,0,0,0-.06-5.42c-.14-1.82-.22-3.66-.18-5.49a41.75,41.75,0,0,1,.45-5.48Z" transform="translate(-88.51 -136.87)"/><path d="M317.53,260a11.94,11.94,0,0,1,1.18,6,17,17,0,0,1-1.34,5.76c-.66,1.6-1.33,3.13-2.1,4.75a32.57,32.57,0,0,1-2.84,5l-.3,0a36,36,0,0,1,2.46-10.82,32.46,32.46,0,0,0,1.78-5.19,34.29,34.29,0,0,0,.86-5.43Z" transform="translate(-88.51 -136.87)"/><path d="M326.72,260a15.58,15.58,0,0,1,.63,6.46,22.1,22.1,0,0,1-1.55,6.12A32.63,32.63,0,0,1,323,278a21.7,21.7,0,0,1-4.14,4.84l-.27-.11q1-2.83,2.18-5.64l2.22-5.62a54.5,54.5,0,0,0,2-5.66c.54-1.93,1-3.88,1.39-5.86Z" transform="translate(-88.51 -136.87)"/><path d="M336.24,260a26,26,0,0,1-1.33,7.11,36.89,36.89,0,0,1-2.71,6.43,61.41,61.41,0,0,1-3.58,5.85,27.15,27.15,0,0,1-4.63,5.46l-.28-.12c.9-2.13,1.81-4.26,2.76-6.37s2-4.17,3.08-6.22,2.18-4.06,3.24-6.12,2.1-4.11,3.18-6.15Z" transform="translate(-88.51 -136.87)"/><path d="M345.09,260a24.09,24.09,0,0,1-3,10.85c-.58,1.09-1.2,2.15-1.86,3.2a39.17,39.17,0,0,1-4.44,5.87,28.77,28.77,0,0,1-5.69,4.95l-.25-.17c1.3-2,2.61-4.08,3.95-6.09s2.6-4.08,3.88-6.13l1.95-3.06c.64-1,1.34-2,1.9-3.09,1.16-2.11,2.26-4.27,3.29-6.45Z" transform="translate(-88.51 -136.87)"/><path d="M358.36,260.05a34.89,34.89,0,0,1-3.55,8.15c-.7,1.3-1.5,2.54-2.3,3.78a21.76,21.76,0,0,1-3.15,3.44c-1.16,1-2.23,1.83-3.31,2.69s-2.12,1.75-3.24,2.59c-2.18,1.75-4.38,3.54-6.92,5.22l-.25-.18a59,59,0,0,1,5.44-6.68,76,76,0,0,1,6.29-5.89,25.09,25.09,0,0,0,3-3l2.6-3.41,5.17-6.85Z" transform="translate(-88.51 -136.87)"/><path d="M377.72,258c-2.88,3-5.82,5.65-8.7,8.34-1.41,1.39-2.91,2.66-4.31,4.05s-2.87,2.63-4.19,4a37.52,37.52,0,0,1-4.75,4.18,36.26,36.26,0,0,1-5.4,3.16c-.85.41-1.61.88-2.44,1.37s-1.63,1-2.42,1.6c-1.64,1.08-3.2,2.31-4.86,3.55l-.24-.18a41.83,41.83,0,0,1,4-4.52,31.18,31.18,0,0,1,4.69-3.8,41,41,0,0,0,9.3-7.48,101.65,101.65,0,0,1,9.17-7.81,104.42,104.42,0,0,1,10-6.72Z" transform="translate(-88.51 -136.87)"/><path d="M399.47,258.06A123.63,123.63,0,0,0,387,266.22a63.36,63.36,0,0,1-6.39,4.34,33.82,33.82,0,0,1-3.55,1.83c-1.26.57-2.35,1-3.36,1.49s-2.1,1-3.15,1.62-2,1.17-3,1.83c-2.05,1.37-4.22,2.88-6.43,4.09s-4.39,2.35-6.65,3.46S350,287,347.45,288l-.22-.21c4.2-2.77,8.47-5.47,12.62-8.3,2.07-1.41,4.09-2.89,6.09-4.41a42.43,42.43,0,0,1,6.51-3.89c1.14-.55,2.34-1,3.48-1.46s2.26-1,3.37-1.64c2.21-1.17,4.34-2.48,6.45-3.84a59.51,59.51,0,0,1,13.63-6.46Z" transform="translate(-88.51 -136.87)"/><path d="M421.28,259.75c-2.64,2-5.41,3.82-8.19,5.65s-5.71,3.39-8.66,4.9c-5.87,3.13-12.07,5.37-18.21,7.81-3.1,1.14-6.19,2.29-9.3,3.33l-9.31,3c-6.14,2.09-12.24,4.39-18.5,6.62l-.14-.27a173.31,173.31,0,0,1,17.75-8.54c6.12-2.42,12.33-4.53,18.43-6.95l9.21-3.46c3.09-1.12,6.11-2.39,9.11-3.72s6-2.67,8.91-4.16l8.76-4.48Z" transform="translate(-88.51 -136.87)"/><path d="M352.07,293.17c3.81-1.63,7.69-3,11.55-4.45s7.77-2.75,11.68-4c1.94-.67,3.92-1.27,5.91-1.84l5.94-1.73c2-.58,4-1.1,6-1.64s4.05-1,6.06-1.42l12.05-2.48,12-2.36c2-.39,3.9-.93,5.87-1.41s3.93-1.05,5.88-1.63c3.93-1.07,7.68-2.67,11.66-3.9l.13.27c-3.72,1.74-7.36,3.68-11.23,5.11a119.05,119.05,0,0,1-11.73,3.84c-8,2-16,3.74-24,5.49q-3,.63-6,1.33l-6,1.54c-4,1-8,2-11.92,3.11q-11.87,3.28-23.77,6.48Z" transform="translate(-88.51 -136.87)"/><path d="M357.51,295.9a124.56,124.56,0,0,1,13.4-4.73c4.56-1.37,9.19-2.24,13.82-3.21,9.3-2,18.49-3.43,27.85-4.94,4.72-.61,9.43-1.16,14.19-1.45,2.38-.13,4.7-.22,7-.4s4.59-.41,6.89-.68a226.35,226.35,0,0,0,27.49-5.35l.1.28A143.88,143.88,0,0,1,441,282.81c-2.32.39-4.66.71-7,1s-4.69.41-7,.6c-4.68.38-9.35.95-14,1.6l-13.94,2.13q-7,1-13.94,2.18c-4.63.78-9.3,1.37-13.88,2.43s-9.14,2.15-13.65,3.47Z" transform="translate(-88.51 -136.87)"/><path d="M355.81,300.32c4.95-1.84,9.94-3.48,15-5.11a73.2,73.2,0,0,1,7.82-1.94,67.36,67.36,0,0,1,8-.93,14.53,14.53,0,0,0,1.71-.21,13.8,13.8,0,0,0,1.64-.46,16.89,16.89,0,0,1,2.15-.54c.74-.13,1.46-.22,2.17-.29a74.62,74.62,0,0,1,8.16-.14c5.29.19,10.58.55,15.84,1,2.61.28,5.12.51,7.69.62s5.15.13,7.72.14c5.15,0,10.3-.39,15.55-.68,10.38-.66,20.74-1.92,31.18-3.4l.07.29a223,223,0,0,1-31,5.46c-5.22.54-10.46,1-15.72,1.15a125.69,125.69,0,0,1-15.76-.59c-5.22-.53-10.45-.92-15.69-1.2a73.25,73.25,0,0,0-7.84-.06,17.73,17.73,0,0,0-3.83.64,15.22,15.22,0,0,1-1.94.45,16.81,16.81,0,0,1-2,.15c-10.55,0-20.6,3.54-30.8,5.91Z" transform="translate(-88.51 -136.87)"/><path d="M356.52,303c5.16-1.07,10.29-1.85,15.43-2.76q3.9-.69,7.83-1.18c2.63-.34,5.28-.51,7.88-.71l3.94-.3a26.18,26.18,0,0,1,4.24.11c2.74.29,5.28.7,7.87,1.06l15.42,2.25c2.57.4,5.12.85,7.69,1.21s5.14.59,7.69.87c5.11.55,10.23.76,15.37.8a164.85,164.85,0,0,0,30.86-3l.09.28A124.27,124.27,0,0,1,450,306.75a134.52,134.52,0,0,1-15.68-.35c-2.6-.21-5.2-.48-7.8-.78s-5.17-.76-7.75-1.14c-5.16-.81-10.33-1.56-15.48-2.43-2.58-.43-5.15-.9-7.72-1.24a47.08,47.08,0,0,0-7.79-.06c-5.22.13-10.42.49-15.6,1.11s-10.4,1-15.6,1.48Z" transform="translate(-88.51 -136.87)"/><path d="M358.61,305.43c6.38.46,12.62,1,18.86,1.36,1.56.08,3.14.14,4.78.32a48.28,48.28,0,0,1,4.94.76,23.27,23.27,0,0,1,2.48.65c.81.26,1.57.52,2.32.78l4.48,1.56,8.86,3.28c2.94,1.16,5.88,2.28,8.8,3.51a179.31,179.31,0,0,1,17.34,7.87l-.09.28-18-5.92q-9-3-17.92-6.2L391,312.05a37.61,37.61,0,0,0-4.48-1.43,66.15,66.15,0,0,0-9.33-1.48,151.37,151.37,0,0,1-18.65-3.42Z" transform="translate(-88.51 -136.87)"/><path d="M351.5,306.47a124.05,124.05,0,0,1,13.37,5.32c2.18.93,4.26,2,6.38,3,1.06.47,2.1,1,3.14,1.39s2.06.79,3.22,1.2a58.24,58.24,0,0,1,6.74,3.11,70.75,70.75,0,0,1,6.21,3.83,88.44,88.44,0,0,1,11.33,9l-.16.26c-4.1-2.44-8.19-4.88-12.34-7.22a87.3,87.3,0,0,0-12.82-6.17,54.11,54.11,0,0,1-6.58-2.87l-6.25-3.49c-4.19-2.29-8.26-4.76-12.39-7.14Z" transform="translate(-88.51 -136.87)"/><path d="M347.45,309.55a54.09,54.09,0,0,1,8.63,5.47c1.39.94,2.66,2,4,3s2.59,2,4,3.24a19.21,19.21,0,0,1,2,2.17,22.71,22.71,0,0,1,1.56,2.3c.45.81.85,1.63,1.21,2.4s.69,1.5,1,2.24c.69,1.46,1.37,3,2.13,4.46a46,46,0,0,1,2.06,4.72l-.23.19-3.14-4c-1-1.34-2-2.74-2.85-4.18s-1.65-2.94-2.57-4.32a19.71,19.71,0,0,0-3.16-3.82c-1.23-1.12-2.54-2.18-3.81-3.28s-2.53-2.22-3.77-3.36c-2.44-2.31-4.85-4.67-7.25-7Z" transform="translate(-88.51 -136.87)"/><path d="M345.76,312.63a23.19,23.19,0,0,1,6.29,5.91,31.07,31.07,0,0,1,4.18,7.51,32.16,32.16,0,0,1,2,8.35,23.44,23.44,0,0,1-.56,8.61l-.3,0a70.84,70.84,0,0,0-1.46-8.08,60.17,60.17,0,0,0-2.5-7.81,61.79,61.79,0,0,0-7.92-14.34Z" transform="translate(-88.51 -136.87)"/><path d="M204.72,191.51c-1.16.15-1.72,1.37-2.44,2.29a21.65,21.65,0,0,1-2.32,2.75,28.34,28.34,0,0,1-2.7,2.43c-1,.74-2.06,1.28-3,2a20.66,20.66,0,0,0-2.68,2.24c-.8.8-1.51,1.73-2.27,2.66-1.51,1.86-3.05,3.71-4.62,5.53l-2.35,2.71a23.43,23.43,0,0,0-2,2.6,4.33,4.33,0,0,0-.51,1.16c-.06.21-.1.42-.15.66s-.09.52-.12.76a6.24,6.24,0,0,0,.17,2.55,2.35,2.35,0,0,0,.43.82,1,1,0,0,0,.49.33,10,10,0,0,0,1.29.41c.54.14,1.11.3,1.69.47a65.32,65.32,0,0,1,7.07,2.38c3.06,2,6.79.1,10.85-2.36a47.82,47.82,0,0,0,5.76-3.63,15.53,15.53,0,0,0,4.07-5A19,19,0,0,0,212.83,202a23.11,23.11,0,0,0-2.77-6.44,13.6,13.6,0,0,0-2.27-2.68A4.38,4.38,0,0,0,204.72,191.51Zm0-.3a4.68,4.68,0,0,1,3.34,1.35,14.24,14.24,0,0,1,2.38,2.71,24.75,24.75,0,0,1,3.09,6.48,20.49,20.49,0,0,1-.65,14.14,17.29,17.29,0,0,1-4.12,5.9,42,42,0,0,1-5.79,4.25,27.25,27.25,0,0,1-6.34,3.41A10.56,10.56,0,0,1,193,230a6,6,0,0,1-1.85-.29c-.59-.22-1.11-.49-1.66-.72a64.08,64.08,0,0,0-6.7-2.37,24,24,0,0,1-3.43-1.18,4.41,4.41,0,0,1-2.18-3,8.52,8.52,0,0,1,0-3.66,8,8,0,0,1,1.39-3.38,26.94,26.94,0,0,1,2.43-2.67l2.52-2.53c1.67-1.7,3.33-3.41,4.94-5.16a35.93,35.93,0,0,1,2.53-2.56,27.43,27.43,0,0,1,2.9-2.14c1-.66,2.1-1.16,3.07-1.82a21.82,21.82,0,0,0,2.72-2.27,22.05,22.05,0,0,0,2.33-2.68c.35-.47.69-1,1.09-1.43A2.48,2.48,0,0,1,204.68,191.21Z" transform="translate(-88.51 -136.87)"/><path d="M246.55,172.11a13.72,13.72,0,0,0-3.59-.29,6.41,6.41,0,0,0-3.21,1.37c-1.86,1.48-2.87,3.79-3.93,5.92a8,8,0,0,0-.77,3.31,5,5,0,0,0,.86,3c.61.88,1.5,1.85,2.2,3a21.25,21.25,0,0,1,1.8,3.48,24.06,24.06,0,0,1,1.11,3.7,4.49,4.49,0,0,0,.51,1.28,7.28,7.28,0,0,0,.87,1.13,8.76,8.76,0,0,0,2.37,1.79,20.3,20.3,0,0,0,2.95,1.22,15.45,15.45,0,0,0,6.15.76,8.08,8.08,0,0,0,2.65-.69,5.51,5.51,0,0,0,1.07-.64,3,3,0,0,0,.71-.72,21.73,21.73,0,0,0,1.47-2.82,18.74,18.74,0,0,1,5.25-6.41,21.25,21.25,0,0,1,3.38-2.27c1.14-.66,2.36-1.13,3.12-1.59a2.85,2.85,0,0,0,.86-.67,2.6,2.6,0,0,0,.53-1c.57-1.57,0-3.78-1.05-5.73-.27-.49-.56-1-.88-1.46a14.54,14.54,0,0,0-1-1.33,14.11,14.11,0,0,0-2.54-2.26,17.08,17.08,0,0,0-6.45-2.69,14,14,0,0,0-3.54-.23,20,20,0,0,0-3.55.63,17.46,17.46,0,0,1-3.66.52A20.52,20.52,0,0,1,246.55,172.11Zm0-.3a19.9,19.9,0,0,0,3.61.22,16.82,16.82,0,0,0,3.58-.58,26.6,26.6,0,0,1,3.59-.76,14.78,14.78,0,0,1,3.7.09,18.84,18.84,0,0,1,6.94,2.38,15.37,15.37,0,0,1,5.23,5.16,13.28,13.28,0,0,1,1.57,3.37,7.48,7.48,0,0,1,.17,3.73,4.94,4.94,0,0,1-2.09,3.1c-1,.73-2.13,1.24-3.16,1.87a20.59,20.59,0,0,0-5.42,4.72,16.53,16.53,0,0,0-1.91,3,22.29,22.29,0,0,1-1.69,3.29,7.28,7.28,0,0,1-3,2.28,11.16,11.16,0,0,1-3.63.88,17.36,17.36,0,0,1-7.28-1.2,13.71,13.71,0,0,1-6.1-4.12,7.2,7.2,0,0,1-1.56-3.38,20.6,20.6,0,0,0-.82-3.53,18.73,18.73,0,0,0-1.44-3.31c-.58-1.06-1.35-2-2-3.07a6.15,6.15,0,0,1-.76-3.64,9.55,9.55,0,0,1,1.06-3.55c.56-1.1,1.17-2.15,1.83-3.19a11,11,0,0,1,2.47-2.75,6.84,6.84,0,0,1,3.43-1.4A14,14,0,0,1,246.6,171.81Z" transform="translate(-88.51 -136.87)"/><path d="M288.58,147c-.46,1.25.1,2.63.72,3.81a27.67,27.67,0,0,0,2.37,3.37,11.83,11.83,0,0,0,2.86,2.72A7.36,7.36,0,0,0,298,158c2.34.14,4.67-.86,7.14-1.86,1.19-.48,2.35-1.08,3.46-1.66a15,15,0,0,0,2.91-1.9,6.22,6.22,0,0,0,.53-.45,3.81,3.81,0,0,0,.28-.35c.1-.11.05-.12.1-.12a0,0,0,0,0,0,0s0,.05,0,.06,0-.21-.29-.51a6.16,6.16,0,0,0-1.18-1,23.8,23.8,0,0,0-3.34-1.81c-1.21-.57-2.49-1.13-3.72-1.61a30.55,30.55,0,0,0-7.91-2,15.83,15.83,0,0,0-4.07.09A4.58,4.58,0,0,0,288.58,147Zm-.27-.12a4.84,4.84,0,0,1,3.48-2.27,18.43,18.43,0,0,1,4.18-.38A40.26,40.26,0,0,1,312.16,148a10,10,0,0,1,1.78,1.19,4,4,0,0,1,1.25,1.83,2.78,2.78,0,0,1-.36,2.2,5.92,5.92,0,0,1-1.42,1.64,24,24,0,0,1-7.5,3.75c-2.64.8-5.46,1.61-8.29,1a8.85,8.85,0,0,1-3.8-1.83,13.64,13.64,0,0,1-2.72-3.21,35.8,35.8,0,0,1-2.18-3.57,9.22,9.22,0,0,1-.73-2A3.56,3.56,0,0,1,288.31,146.88Z" transform="translate(-88.51 -136.87)"/><path d="M299.25,173.11a13.48,13.48,0,0,0-3.65,3.61,9.23,9.23,0,0,0-1.51,4.76,8.33,8.33,0,0,0,1.29,4.63,18.44,18.44,0,0,0,3.29,3.7,31.07,31.07,0,0,0,3.85,3.14,9.44,9.44,0,0,0,3.94,1.53,7.55,7.55,0,0,0,3.85-.48,10.93,10.93,0,0,0,3.54-2.22,17.48,17.48,0,0,0,3-3.33,18.83,18.83,0,0,0,2.25-4,13.61,13.61,0,0,0,.65-2.06,7.69,7.69,0,0,0,.13-2,6.25,6.25,0,0,0-.49-1.92,5.65,5.65,0,0,0-1.21-1.67,14.28,14.28,0,0,0-4.15-2.5,50.51,50.51,0,0,0-4.85-1.88,15.26,15.26,0,0,0-5.06-.75A10.88,10.88,0,0,0,299.25,173.11Zm-.16-.26a11.31,11.31,0,0,1,5-1.59,17.18,17.18,0,0,1,5.25.48c1.72.4,3.38,1,5,1.5a16.39,16.39,0,0,1,4.79,2.25,7.35,7.35,0,0,1,1.84,2,8.34,8.34,0,0,1,1,2.5,10.71,10.71,0,0,1-.43,5.3,20.37,20.37,0,0,1-5.79,8.78,13.4,13.4,0,0,1-4.6,2.69,9.89,9.89,0,0,1-5.31.31,11.71,11.71,0,0,1-4.75-2.38,32.92,32.92,0,0,1-3.72-3.75,19.24,19.24,0,0,1-3.07-4.3,9.63,9.63,0,0,1-1-5.19,10.58,10.58,0,0,1,.61-2.6,12.28,12.28,0,0,1,1.26-2.34A13.8,13.8,0,0,1,299.09,172.85Z" transform="translate(-88.51 -136.87)"/><path d="M393.23,188.41a2.09,2.09,0,0,0-.36,1.71,9.25,9.25,0,0,0,.45,1.85,19.49,19.49,0,0,0,1.64,3.49,10,10,0,0,0,2.52,2.83c1,.78,2.1,1.51,3.13,2.35a31.83,31.83,0,0,1,5.51,5.79,25.66,25.66,0,0,1,3.85,7.22,28.71,28.71,0,0,1,.91,4,3.12,3.12,0,0,0,1.27,2.28c1.32,1.13,3.6,1.18,6,1s4.9-.66,7.47-1.05a71.25,71.25,0,0,0,7.37-1.36,8.93,8.93,0,0,0,2.71-1,1,1,0,0,0,.37-.34s.06-.11,0-.38a6.62,6.62,0,0,0-1.22-2.36,22.69,22.69,0,0,0-2.36-2.62,63.87,63.87,0,0,0-5.7-4.93,38.46,38.46,0,0,0-6.27-4.15c-2.26-1.14-4.71-2.24-7-3.5s-4.57-2.61-6.82-3.94-4.45-2.74-6.66-4.11c-1.11-.68-2.22-1.36-3.36-2a12.54,12.54,0,0,0-1.74-.82A1.79,1.79,0,0,0,393.23,188.41Zm-.2-.22a1.46,1.46,0,0,1,1-.32,4,4,0,0,1,1,.21,14.55,14.55,0,0,1,1.8.81c1.16.62,2.28,1.28,3.4,1.94,2.24,1.33,4.49,2.63,6.78,3.86s4.61,2.42,7,3.5,4.79,2,7.19,3.05a39.18,39.18,0,0,1,6.81,3.89,62.2,62.2,0,0,1,6.24,4.75A27.14,27.14,0,0,1,437,212.7a8.94,8.94,0,0,1,1.91,3.52,3.37,3.37,0,0,1-.17,2.08,3.64,3.64,0,0,1-1.32,1.6,11.51,11.51,0,0,1-3.68,1.55,71.1,71.1,0,0,1-7.74,1.32,74.74,74.74,0,0,1-7.79.8,16.94,16.94,0,0,1-3.95-.3,7.18,7.18,0,0,1-3.57-1.77,4.94,4.94,0,0,1-1.2-1.65,6.79,6.79,0,0,1-.48-1.95,25.49,25.49,0,0,0-.62-3.83,24.43,24.43,0,0,0-3.22-7,29.18,29.18,0,0,0-5-5.91c-1-.86-2-1.61-3-2.46a11.48,11.48,0,0,1-2.52-3,19.64,19.64,0,0,1-1.62-3.59,9.5,9.5,0,0,1-.44-1.93A2.37,2.37,0,0,1,393,188.19Z" transform="translate(-88.51 -136.87)"/><path d="M330.46,214.9a2.73,2.73,0,0,0,.69,2.31,14.54,14.54,0,0,0,1.75,1.94c1.29,1.19,2.73,2.22,4.15,3.29s2.92,2,4.38,3A33.57,33.57,0,0,0,345.9,228a8.89,8.89,0,0,0,4.39.88,9.14,9.14,0,0,0,4-1.4,12.6,12.6,0,0,0,3.25-2.91,12.08,12.08,0,0,0,1.26-1.8,16.72,16.72,0,0,0,1-2,13,13,0,0,0,.72-2,8,8,0,0,0,.21-1.88,4,4,0,0,0-1.27-2.91c-1.7-1.72-5.5-2.51-8.63-2.71a20.15,20.15,0,0,0-5,.79c-1.76.42-3.55.69-5.32,1s-3.55.45-5.31.64c-.88.11-1.77.2-2.64.32S330.78,214.14,330.46,214.9Zm-.28-.1a1.73,1.73,0,0,1,1.05-1,7.69,7.69,0,0,1,1.32-.32c.88-.15,1.76-.25,2.63-.38q2.64-.36,5.23-.91a50.73,50.73,0,0,0,5.11-1.38,22.53,22.53,0,0,1,5.18-1.33,17.24,17.24,0,0,1,2.69,0c.89.06,1.78.15,2.67.3a11.14,11.14,0,0,1,5,2,6.61,6.61,0,0,1,2.54,4.74,11.76,11.76,0,0,1-1,5.31,15.7,15.7,0,0,1-7.09,7.9,11,11,0,0,1-5.24,1.22,11.1,11.1,0,0,1-5.14-1.59A67.68,67.68,0,0,1,336.6,223c-1.36-1.14-2.72-2.27-4-3.53a14.25,14.25,0,0,1-1.76-2A3,3,0,0,1,330.18,214.8Z" transform="translate(-88.51 -136.87)"/><path d="M431.5,234.38A7.72,7.72,0,0,0,428,239a4.07,4.07,0,0,0,.19,2.6,3.52,3.52,0,0,0,1.64,1.64,11.58,11.58,0,0,0,5,.85,10.37,10.37,0,0,0,1.27,0c.45,0,.87-.11,1.29-.15a13.57,13.57,0,0,0,2.33-.52,5.47,5.47,0,0,0,1.61-.79,2.22,2.22,0,0,0,.84-1.13c.41-1,.07-2.82-.79-4.36a6.94,6.94,0,0,0-4.18-3.36,8.1,8.1,0,0,0-2.91-.25A7.27,7.27,0,0,0,431.5,234.38Zm-.15-.25a8.92,8.92,0,0,1,6-1.1,8.79,8.79,0,0,1,5.32,3,7.89,7.89,0,0,1,2.12,5.75,4.89,4.89,0,0,1-1.38,2.84,6.94,6.94,0,0,1-2.71,1.6,14.56,14.56,0,0,1-6.15.46,11.41,11.41,0,0,1-5.75-2.18,5,5,0,0,1-1.67-2.64,5.41,5.41,0,0,1,.25-3.11A9.48,9.48,0,0,1,431.35,234.13Z" transform="translate(-88.51 -136.87)"/><path d="M364.1,184.85a1.6,1.6,0,0,0-.58,1.16,3.13,3.13,0,0,0,.2,1.36,3.89,3.89,0,0,0,.72,1.14,3,3,0,0,0,1,.69,3.1,3.1,0,0,0,1.89.09,10.18,10.18,0,0,0,1.52-.42c.18,0,.32-.18.1.15l0,.06a.75.75,0,0,0-.07.12,1,1,0,0,0-.09.29,1.2,1.2,0,0,0-.05.33.6.6,0,0,0,0,.23c0,.24.14.22.16.15a1.87,1.87,0,0,0-.14-.94,7.94,7.94,0,0,0-.5-1.25,7.79,7.79,0,0,0-1.67-2.33,4.14,4.14,0,0,0-1.18-.77A1.6,1.6,0,0,0,364.1,184.85Zm-.16-.26a2.12,2.12,0,0,1,1.56-.08,6.94,6.94,0,0,1,1.41.57,12.7,12.7,0,0,1,2.45,1.72,8,8,0,0,1,1.92,2.35,2.36,2.36,0,0,1,.21.81,1.2,1.2,0,0,1-.29.87,3.08,3.08,0,0,1-1.36.87,5.79,5.79,0,0,1-3.06.15,4.63,4.63,0,0,1-2.61-1.59,5.23,5.23,0,0,1-1.13-2.81,4.64,4.64,0,0,1,.08-1.53A2.13,2.13,0,0,1,363.94,184.59Z" transform="translate(-88.51 -136.87)"/><path d="M282.34,228.28a11.5,11.5,0,0,0-4.65,2.11,14.29,14.29,0,0,0-1.91,1.74c-.59.64-1.19,1.27-1.71,1.93a7.13,7.13,0,0,0-1.63,4.43,7.45,7.45,0,0,0,1.3,4.29,4.3,4.3,0,0,0,1.44,1.28,3.47,3.47,0,0,0,1.65.28c1.41,0,3.26-.34,5-.43a47.17,47.17,0,0,1,5.45-.06c1.8.1,3.66.29,5.4.54a17.94,17.94,0,0,0,2.21.28,6.24,6.24,0,0,0,1.86-.26,14.6,14.6,0,0,0,4.06-1.64,7.44,7.44,0,0,0,1.47-1.15,1.94,1.94,0,0,0,.38-.52,1.07,1.07,0,0,0,.1-.22c0-.08,0,0,.05-.1s0-.26-.13-.49a4.17,4.17,0,0,0-.58-.79,15.52,15.52,0,0,0-1.75-1.65,96.24,96.24,0,0,0-8.5-6,42.16,42.16,0,0,0-4.58-2.48A9.91,9.91,0,0,0,282.34,228.28Zm0-.3a6.44,6.44,0,0,1,2.66.15,18.92,18.92,0,0,1,2.51.83,48.12,48.12,0,0,1,4.76,2.25c1.55.81,3.06,1.69,4.58,2.56s3,1.74,4.5,2.72a17.76,17.76,0,0,1,2.12,1.59,4.55,4.55,0,0,1,1.55,2.24,3.57,3.57,0,0,1-.68,2.66,7.83,7.83,0,0,1-1.92,1.89,15.9,15.9,0,0,1-4.78,2.31,9.14,9.14,0,0,1-2.66.43,19.18,19.18,0,0,1-2.65-.26,64.64,64.64,0,0,0-10.4-.83c-1.74,0-3.47.14-5.26,0a5.06,5.06,0,0,1-2.56-.89,6.07,6.07,0,0,1-1.76-2,9,9,0,0,1-1-5.2,8.42,8.42,0,0,1,2.24-4.78,26.83,26.83,0,0,1,3.9-3.55A11.93,11.93,0,0,1,282.29,228Z" transform="translate(-88.51 -136.87)"/><path d="M224.25,218.91a4,4,0,0,0,1.45,2.2,6.71,6.71,0,0,0,2.39,1.19,8.24,8.24,0,0,0,5-.19,6,6,0,0,0,3.27-2.57,4.52,4.52,0,0,0,.19-3.15,7,7,0,0,0-1.74-3.22,3.23,3.23,0,0,0-1.42-.87,5.58,5.58,0,0,0-2.19-.12,9.33,9.33,0,0,0-4.7,2.1,7.93,7.93,0,0,0-1.73,2.05A4.2,4.2,0,0,0,224.25,218.91ZM224,219a4.83,4.83,0,0,1,.49-2.8,9.44,9.44,0,0,1,1.59-2.35,12.16,12.16,0,0,1,4.66-3.18,7.94,7.94,0,0,1,2.82-.5,5.67,5.67,0,0,1,2.77.86,8,8,0,0,1,3.22,4.67,6.23,6.23,0,0,1-1.08,5.54,8,8,0,0,1-5,2.54,10.43,10.43,0,0,1-5.57-.8,8.52,8.52,0,0,1-2.4-1.53A4.62,4.62,0,0,1,224,219Z" transform="translate(-88.51 -136.87)"/><path d="M202.16,242.06c-1.62.17-3.24.33-4.83.58a12.89,12.89,0,0,0-4.48,1.5,6.45,6.45,0,0,0-2.67,3.45,6,6,0,0,0-.15,4,3.48,3.48,0,0,0,1,1.31,7.77,7.77,0,0,0,1.65,1,17.65,17.65,0,0,0,4.13,1.13,36.54,36.54,0,0,0,4.48.46,38.36,38.36,0,0,0,4.55,0,33.59,33.59,0,0,0,4.51-.34,22.63,22.63,0,0,0,4.26-.87,12.65,12.65,0,0,0,1.81-.71,4,4,0,0,0,1.16-.89,1.69,1.69,0,0,0,.39-1.23,5.78,5.78,0,0,0-.4-1.9,13.39,13.39,0,0,0-6-6.68,10,10,0,0,0-4.57-1C205.41,241.85,203.78,242,202.16,242.06Zm0-.29c1.62-.14,3.24-.3,4.88-.33a11.39,11.39,0,0,1,4.85.79,15.54,15.54,0,0,1,7.18,6.56,8.45,8.45,0,0,1,.83,2.37,3.91,3.91,0,0,1-.35,2.51,7.39,7.39,0,0,1-3.93,3,29,29,0,0,1-9.64,1.79,36.85,36.85,0,0,1-9.76-1,17.76,17.76,0,0,1-4.6-1.78,8.64,8.64,0,0,1-2-1.55,5.07,5.07,0,0,1-1.2-2.22,8.24,8.24,0,0,1,4.1-8.46,14.35,14.35,0,0,1,4.74-1.29C198.89,242,200.52,241.89,202.14,241.77Z" transform="translate(-88.51 -136.87)"/><path d="M140.51,248.56a5.29,5.29,0,0,0,1.51,3.37,9.58,9.58,0,0,0,3.11,2.13,7.9,7.9,0,0,0,3.55.62,9.23,9.23,0,0,0,3.38-1,17.06,17.06,0,0,0,3.07-1.86,19.9,19.9,0,0,0,2.59-2.33,13.86,13.86,0,0,0,2-2.59,6.28,6.28,0,0,0,1-2.56c0-.2.06-.4.06-.59s0-.38,0-.58a4.66,4.66,0,0,0-.31-1.22,3.9,3.9,0,0,0-1.22-1.86,2.09,2.09,0,0,0-.76-.38,3.52,3.52,0,0,0-1.29.08A28.36,28.36,0,0,0,153.6,241c-2.46.92-4.92,1.85-7.29,2.95a30.33,30.33,0,0,0-3.41,1.86,11.53,11.53,0,0,0-1.5,1.19A2.7,2.7,0,0,0,140.51,248.56Zm-.3,0a3,3,0,0,1,.93-1.8,12.26,12.26,0,0,1,1.51-1.29c1.07-.78,2.19-1.45,3.32-2.12,2.26-1.32,4.56-2.55,6.86-3.8a32.19,32.19,0,0,1,3.53-1.75,6.39,6.39,0,0,1,2-.44,4.12,4.12,0,0,1,2,.46,6.11,6.11,0,0,1,2.67,3,7.15,7.15,0,0,1,.58,4,11.63,11.63,0,0,1-4.17,6.69,18.65,18.65,0,0,1-6.89,3.8,11,11,0,0,1-3.94.52,9.42,9.42,0,0,1-3.81-1.14,10.87,10.87,0,0,1-3.1-2.47A5.71,5.71,0,0,1,140.21,248.55Z" transform="translate(-88.51 -136.87)"/><path d="M111.71,271.67a2.45,2.45,0,0,0-2.06.55,6.89,6.89,0,0,0-1.57,1.66,12.84,12.84,0,0,0-1.77,4.19,16.59,16.59,0,0,0-.33,2.14,14,14,0,0,0-.1,2.07,4,4,0,0,0,.1.74c0,.18.13.25.1.13a.85.85,0,0,0-.37-.47c-.14-.05,0,0,.06,0a4.39,4.39,0,0,0,1.34-.17,7.86,7.86,0,0,0,1.67-.57,7.16,7.16,0,0,0,3-2.19,8,8,0,0,0,1-1.87,8.81,8.81,0,0,0,.47-2.19,7.2,7.2,0,0,0-.25-2.26A2.73,2.73,0,0,0,111.71,271.67Zm.11-.28a3.29,3.29,0,0,1,1.59,1.85,9.05,9.05,0,0,1,.56,2.35,10.43,10.43,0,0,1-.67,4.75,8.4,8.4,0,0,1-1.25,2.09,9.68,9.68,0,0,1-1.81,1.63,8.16,8.16,0,0,1-4.58,1.58,3,3,0,0,1-1.26-.3,1.93,1.93,0,0,1-.94-1,4.44,4.44,0,0,1-.17-2.49,17.33,17.33,0,0,1,1.54-4.55,17,17,0,0,1,2.75-3.92,9.24,9.24,0,0,1,1.86-1.54A2.92,2.92,0,0,1,111.82,271.39Z" transform="translate(-88.51 -136.87)"/><path d="M270.69,422.22c-1,2.6-2,5.17-3,7.76s-2,5.13-3.13,7.7c-.54,1.29-1.09,2.58-1.71,3.87a15.16,15.16,0,0,1-2.43,3.61,17,17,0,0,1-7.16,4.69l-.13-.21a57.28,57.28,0,0,0,5.36-6.07,58.88,58.88,0,0,0,4.27-6.75c1.29-2.43,2.54-4.9,3.8-7.36s2.55-4.91,3.88-7.34Z" transform="translate(-88.51 -136.87)"/><path d="M241,439.13c-1.2.9-2.38,1.79-3.48,2.78s-2.18,2-3.2,3-1.81,2.29-2.91,3.23a21.16,21.16,0,0,1-3.65,2.69l-.2-.15a10.64,10.64,0,0,1,2-4.22,15.4,15.4,0,0,1,3.44-3.05,33,33,0,0,1,3.8-2.53,33.34,33.34,0,0,1,4.08-2Z" transform="translate(-88.51 -136.87)"/><path d="M335,421.18a26.39,26.39,0,0,0-.14,7,24.06,24.06,0,0,0,1.75,6.72c.82,2.22,2,4.34,2.61,6.63a33.78,33.78,0,0,1,1.39,7.11l-.23.09a34.37,34.37,0,0,1-3.51-6.35,45.28,45.28,0,0,1-2.16-6.87c-.31-1.16-.61-2.35-.81-3.57a22,22,0,0,1-.29-3.69,25,25,0,0,1,1.14-7.17Z" transform="translate(-88.51 -136.87)"/><path d="M355.44,417.5c1.84,2.23,3.63,4.51,5.45,6.77l2.68,3.43,2.57,3.5a37.06,37.06,0,0,0,5.5,6.15,25.53,25.53,0,0,0,7.21,4.1l0,.25a13.47,13.47,0,0,1-8.68-2.36,13.27,13.27,0,0,1-3.27-3.29c-.86-1.24-1.62-2.49-2.38-3.74l-2.25-3.7L359.87,425c-1.54-2.44-3.11-4.87-4.63-7.34Z" transform="translate(-88.51 -136.87)"/><path d="M294.19,447.7c.16,1.62.19,3.25.19,4.89a42.14,42.14,0,0,1-.34,4.89,18.51,18.51,0,0,1-.87,4.85,13,13,0,0,1-2.56,4.31l-.24-.09a22.67,22.67,0,0,1,.39-4.88c.25-1.57.92-3,1.32-4.56s.75-3.09,1.06-4.65.56-3.16.8-4.76Z" transform="translate(-88.51 -136.87)"/><path d="M312.06,422.18c0,2.17,0,4.32.17,6.46A55.89,55.89,0,0,0,313,435c.36,2.1,1.05,4.12,1.36,6.21a54.92,54.92,0,0,1,.75,6.46l-.24.08a19.17,19.17,0,0,1-2.94-6,26.82,26.82,0,0,1-.92-6.55,57.81,57.81,0,0,1,0-6.58,51.86,51.86,0,0,1,.83-6.49Z" transform="translate(-88.51 -136.87)"/><path d="M364.66,441.07a11.9,11.9,0,0,0,3.1,7.4,24.19,24.19,0,0,0,3.08,2.33c1,.78,2.14,1.49,3.41,2.4l0,.24a6.72,6.72,0,0,1-4.62-.47,8.49,8.49,0,0,1-3.39-3.25,13.17,13.17,0,0,1-1.13-2,13.41,13.41,0,0,1-.66-2.19,11.44,11.44,0,0,1,0-4.44Z" transform="translate(-88.51 -136.87)"/></svg>