<svg id="Layer_2" data-name="Layer 2" xmlns="http://www.w3.org/2000/svg" viewBox="0 0 378.57 405.59"><title>kantareller</title><path d="M201.09,223a123.93,123.93,0,0,1,14.5-9.73c1.29-.71,2.62-1.36,4-2a39.67,39.67,0,0,1,4.21-1.57,64.93,64.93,0,0,1,8.62-2.12A97,97,0,0,1,250,206.34c2.9,0,5.88.06,8.82.26s5.87.54,8.76.92c5.79.8,11.47,1.75,17.18,2.73A151.39,151.39,0,0,1,301.9,214c2.82.83,5.61,1.7,8.37,2.8s5.4,2.31,8,3.61c5.2,2.64,10.21,5.56,15.1,8.69-10.76-4.35-21.31-9.06-32.44-11.32-5.56-1.2-11.19-2-16.9-2.85l-17.11-2.47a139.67,139.67,0,0,0-17-1.4,121.31,121.31,0,0,0-17,.41,73.94,73.94,0,0,0-8.33,1.42,37.42,37.42,0,0,0-4,1.08c-1.33.44-2.65,1-4,1.5C211.37,217.64,206.3,220.45,201.09,223Z" transform="translate(-109.25 -206.34)"/><path d="M276.19,244a38.69,38.69,0,0,0,11.91-1.13,30.89,30.89,0,0,0,5.58-2c1.79-.86,3.53-1.86,5.29-2.83,3.52-2,7-3.86,10.53-5.86.87-.5,1.75-1,2.69-1.48a18.9,18.9,0,0,1,3-1.16,35,35,0,0,1,6.07-1.35,41.61,41.61,0,0,1,6.19-.35,45.87,45.87,0,0,1,6.19.42c2,.28,4.07.67,6.08,1.15a36.6,36.6,0,0,1,5.95,1.94c3.77,1.57,7.4,3.25,11.08,4.9s7.33,3.33,11,4.91,7.38,2.92,11.11,4.08a37.21,37.21,0,0,0,5.55,1.33,44.21,44.21,0,0,0,5.73.52,38.49,38.49,0,0,0,5.7-.24,29.4,29.4,0,0,0,5.48-1.24c3.69-1.16,7.4-2.66,11.06-4.19s7.2-3.27,10.9-5,7.37-3.31,11.12-4.89c1.88-.78,3.77-1.54,5.72-2.25,1-.35,2-.7,3-1,.54-.15,1.09-.29,1.7-.4.31-.06.63-.1.94-.13l.84-.06a32.24,32.24,0,0,1,12.82,1.89,59.32,59.32,0,0,1,5.78,2.44c1.83.85,3.71,1.75,5.55,2.78a35.08,35.08,0,0,1,10,8.11,30.73,30.73,0,0,1,6,11.56,34.23,34.23,0,0,1,.88,12.84c-.11,1.06-.28,2.11-.46,3.14s-.38,2-.62,3.06a42.36,42.36,0,0,1-1.87,6.09A36.44,36.44,0,0,1,478,290.51a35.75,35.75,0,0,1-4.67,4.38,54.15,54.15,0,0,1-5.09,3.66,27.27,27.27,0,0,1-5.91,2.75,17.69,17.69,0,0,1-6.69.84,44.12,44.12,0,0,1-6.13-1.2,5.78,5.78,0,0,0-4.49.58,6.15,6.15,0,0,0-1.7,1.61,8.88,8.88,0,0,0-.7,1.09l-.36.64c-.13.24-.31.5-.47.75a14.26,14.26,0,0,1-5.06,4.5,35,35,0,0,1-12.07,3.53,74.08,74.08,0,0,1-12.26.5,92.9,92.9,0,0,1-12.13-1.28c-2-.34-4-.78-6-1.22a52,52,0,0,1-5.89-1.61,17.69,17.69,0,0,1-5.51-2.87,10.57,10.57,0,0,1-3.44-5.15,25.9,25.9,0,0,1-1.28-5.95,20.44,20.44,0,0,1-.06-3,8,8,0,0,1,.63-2.95,8.24,8.24,0,0,0-.45,2.95,21.15,21.15,0,0,0,.26,3,24.52,24.52,0,0,0,1.61,5.73,9.59,9.59,0,0,0,3.39,4.57,16.62,16.62,0,0,0,5.27,2.4,58.25,58.25,0,0,0,5.81,1.29c2,.35,3.94.7,5.91.95a92.65,92.65,0,0,0,11.88.74,73.54,73.54,0,0,0,11.8-.89,31.85,31.85,0,0,0,10.85-3.54,11.11,11.11,0,0,0,3.79-3.52c.4-.6.89-1.75,1.57-2.68a9.83,9.83,0,0,1,2.61-2.57,8.49,8.49,0,0,1,3.53-1.35,11.47,11.47,0,0,1,3.58.1,42.61,42.61,0,0,0,5.71,1c3.49.2,7-1.22,10.13-3.25a53.49,53.49,0,0,0,4.64-3.45,30.68,30.68,0,0,0,4.05-3.92,31.71,31.71,0,0,0,5.69-9.67A37.79,37.79,0,0,0,482,272.5c.2-.92.38-1.92.54-2.86s.29-1.89.37-2.83a30.54,30.54,0,0,0-.83-11.09A25.79,25.79,0,0,0,477,246a30.08,30.08,0,0,0-8.68-6.92c-1.67-.93-3.42-1.75-5.24-2.59s-3.56-1.61-5.33-2.24a27.32,27.32,0,0,0-10.87-1.67l-.66,0-.56.07c-.38.07-.81.18-1.23.29-.87.24-1.79.56-2.7.88-1.83.65-3.67,1.39-5.51,2.14-3.68,1.52-7.35,3.13-11,4.77s-7.29,3.42-11.09,4.94-7.55,3-11.56,4.19a35.43,35.43,0,0,1-6.29,1.31,43.45,43.45,0,0,1-6.34.18,50.68,50.68,0,0,1-6.27-.66,39.59,39.59,0,0,1-6.13-1.58c-3.92-1.32-7.67-2.82-11.42-4.51l-21.78-10.36a33.68,33.68,0,0,0-5.44-2,55.61,55.61,0,0,0-5.72-1.28,44,44,0,0,0-5.83-.6,42.23,42.23,0,0,0-5.85.12,33.86,33.86,0,0,0-5.74,1,16.7,16.7,0,0,0-2.69.92c-.87.39-1.76.85-2.65,1.31-3.58,1.86-7.21,3.63-10.81,5.39-1.81.88-3.61,1.79-5.49,2.59a32.79,32.79,0,0,1-5.85,1.76A39.53,39.53,0,0,1,276.19,244Z" transform="translate(-109.25 -206.34)"/><path d="M383.94,280.72a18.5,18.5,0,0,1-2.69,8.41,16.13,16.13,0,0,1-3.05,3.57,14.32,14.32,0,0,1-4.31,2.23,46.1,46.1,0,0,1-8.69,1.92c-2.89.4-5.77.6-8.66.73a82.13,82.13,0,0,1-8.73-.09,34.94,34.94,0,0,1-8.9-1.6,13.15,13.15,0,0,1-2.24-1c-.37-.2-.68-.42-1-.61s-.62-.42-.93-.65a18.42,18.42,0,0,1-3.4-3.09,13.94,13.94,0,0,1-2.33-3.94,12.85,12.85,0,0,1-.6-2.16c-.06-.35-.11-.7-.2-1a1.68,1.68,0,0,0-.07-.24s0-.08,0-.08,0,0,.07,0,.09,0,.07-.15-.18-.06-.17,0h0a2.32,2.32,0,0,0,.21-.48,2.69,2.69,0,0,1,0,.56.17.17,0,0,1-.05.1s-.17.08-.2,0,0-.14.09-.17a.14.14,0,0,1,.13,0,.45.45,0,0,1,.14.13l.18.23c.21.32.38.64.56,1a12,12,0,0,0,1.1,1.75,13.7,13.7,0,0,0,2.82,2.82,19.73,19.73,0,0,0,3.39,2.05l.92.43c.32.15.62.29.89.39a13.64,13.64,0,0,0,1.75.5,42.88,42.88,0,0,0,8,.63c2.76,0,5.55-.05,8.34-.17s5.6-.23,8.37-.44a64,64,0,0,0,8.11-1,13,13,0,0,0,3.49-1.14,11.44,11.44,0,0,0,1.54-1.08,16.52,16.52,0,0,0,1.47-1.32A24.46,24.46,0,0,0,383.94,280.72Z" transform="translate(-109.25 -206.34)"/><path d="M229.21,294a33.28,33.28,0,0,0,6.2,4.25,25,25,0,0,0,6.86,2.47,41.85,41.85,0,0,0,7.31.63c2.48,0,5,0,7.5-.05,5-.16,10-.42,15-.9s10-1,14.92-1.74a143.83,143.83,0,0,0,14.6-3c4.9-1.22,9.77-2.32,14-4.32a30.35,30.35,0,0,0,3.1-1.74c.5-.33,1-.67,1.48-1s1-.7,1.44-1.09a35.36,35.36,0,0,0,5.2-5.11,48.4,48.4,0,0,0,7.58-12.87,39.47,39.47,0,0,1-5.6,14.32,34.31,34.31,0,0,1-11.37,11,39,39,0,0,1-3.6,1.8c-1.22.52-2.46,1-3.69,1.41-2.46.85-4.92,1.54-7.36,2.24s-4.94,1.37-7.46,1.95-5.07,1-7.62,1.42c-5.12.76-10.2,1.17-15.28,1.51a136.27,136.27,0,0,1-15.39.08c-5.1-.29-10.25-.56-15.38-2.11A26.29,26.29,0,0,1,229.21,294Z" transform="translate(-109.25 -206.34)"/><path d="M157.72,293.49a20.22,20.22,0,0,0-.9,7,12.14,12.14,0,0,0,2.13,6.28,14.64,14.64,0,0,0,4.93,4.33,43.38,43.38,0,0,0,6.27,2.93c2.2.84,4.46,1.6,6.73,2.4s4.48,1.54,6.74,2.18a79.47,79.47,0,0,0,13.71,2.67c2.32.23,4.65.4,7,.41,1.16,0,2.32,0,3.5,0l3.61-.09c2.38-.06,4.73-.16,7-.38a42.29,42.29,0,0,0,6.74-1.21,33.35,33.35,0,0,0,6.38-2.49,29.9,29.9,0,0,0,5.7-3.85,73.74,73.74,0,0,0,9.82-10.42A51.52,51.52,0,0,1,239,315.45a32.18,32.18,0,0,1-5.76,4.92,33.55,33.55,0,0,1-6.82,3.37,50.78,50.78,0,0,1-14.76,2.6l-3.62.2c-1.24,0-2.49.12-3.73.11-2.49,0-5-.15-7.47-.38a71.07,71.07,0,0,1-14.58-3.12c-2.36-.77-4.68-1.65-6.92-2.59s-4.48-1.88-6.71-2.95a40.86,40.86,0,0,1-6.53-3.77,17.45,17.45,0,0,1-5.22-5.8,13.63,13.63,0,0,1-1.41-7.55A18.05,18.05,0,0,1,157.72,293.49Z" transform="translate(-109.25 -206.34)"/><path d="M145,241.9a50.28,50.28,0,0,1,7.94-8.77,36.58,36.58,0,0,1,4.91-3.55,30,30,0,0,1,5.6-2.56,98.74,98.74,0,0,1,11.5-3c3.82-.8,7.62-1.54,11.48-2.22a58.6,58.6,0,0,1,12.06-1.18,50.63,50.63,0,0,1,11.91,2.1c3.79,1.11,7.45,2.35,11.16,3.69a95.51,95.51,0,0,1,10.76,4.75c-3.85-.79-7.63-1.66-11.44-2.39-1.89-.4-3.78-.76-5.7-1.12l-5.69-1.1a59.06,59.06,0,0,0-11.12-1.19,38.12,38.12,0,0,0-5.44.45c-1.86.25-3.75.58-5.65.91-3.79.66-7.64,1.33-11.46,1.95s-7.63,1.21-11.25,2.08C157.35,232.34,151.05,237,145,241.9Z" transform="translate(-109.25 -206.34)"/><path d="M159.26,239.87a58,58,0,0,0-17.19,4.24,50.49,50.49,0,0,0-14.78,9,39.83,39.83,0,0,0-9.76,13.74,38.56,38.56,0,0,0-2.45,8.05c-.14.69-.23,1.39-.35,2.08s-.19,1.44-.26,2.15a39.71,39.71,0,0,0-.22,4.21,31,31,0,0,0,9.12,22.56,35,35,0,0,0,6.64,5.17,37.81,37.81,0,0,0,7.79,3.48,28.53,28.53,0,0,0,8.42,1.28,58.55,58.55,0,0,0,17.44-2.88,48.54,48.54,0,0,1-17.34,5.33,30.87,30.87,0,0,1-9.37-.56,33.73,33.73,0,0,1-4.5-1.35,39.18,39.18,0,0,1-4.32-1.88,34.62,34.62,0,0,1-13.9-12.79,35.22,35.22,0,0,1-5-18.36,46.57,46.57,0,0,1,.28-4.74c.08-.79.19-1.56.3-2.31s.23-1.57.41-2.35a41.47,41.47,0,0,1,3-9,40.72,40.72,0,0,1,11.56-14.78,42.71,42.71,0,0,1,7.9-5,65.35,65.35,0,0,1,8.57-3.32A48.46,48.46,0,0,1,159.26,239.87Z" transform="translate(-109.25 -206.34)"/><path d="M145,272a57.45,57.45,0,0,1,14.17-7.13,60.9,60.9,0,0,1,7.78-2c2.62-.49,5.2-.9,7.94-1.17a23.56,23.56,0,0,1,8.51.61,20,20,0,0,1,4.07,1.6,33.22,33.22,0,0,0,3.33,1.61c.54.22,1.09.4,1.66.57s1.19.36,1.76.5a21.07,21.07,0,0,0,3.48.58,18.85,18.85,0,0,0,6.86-.65,21.91,21.91,0,0,0,6.34-3.1,21.14,21.14,0,0,0,2.83-2.13,24.59,24.59,0,0,0,2.46-2.6c.83-1,1.72-2.06,2.73-3.08a25.86,25.86,0,0,1,3.29-2.78,25.49,25.49,0,0,1,7.68-3.57c2.63-.77,5.22-1.34,7.8-1.84s5.24-1,7.88-1.26a64.6,64.6,0,0,1,15.85.34,94.28,94.28,0,0,0-15.46,2.09c-2.54.54-5,1.23-7.48,2s-5,1.45-7.34,2.35a24.39,24.39,0,0,0-6.31,3.43,23.55,23.55,0,0,0-2.59,2.41c-.81.87-1.54,1.84-2.37,2.89a25,25,0,0,1-6.23,5.85,26.6,26.6,0,0,1-7.7,3.79,23.49,23.49,0,0,1-8.7.76,26,26,0,0,1-4.24-.81c-.7-.19-1.34-.39-2-.61a21,21,0,0,1-2-.78,36.5,36.5,0,0,1-3.67-1.93,17.1,17.1,0,0,0-3.16-1.43,21.6,21.6,0,0,0-7-.93c-2.49,0-5.11.31-7.68.51a59.48,59.48,0,0,0-7.59,1.16A79.19,79.19,0,0,0,145,272Z" transform="translate(-109.25 -206.34)"/><path d="M176.11,318.51a22.08,22.08,0,0,1,4.93,2.23c1.57.89,3.11,1.83,4.66,2.77s3.09,1.87,4.66,2.75,3.2,1.72,4.71,2.73a82.68,82.68,0,0,1,16.3,14.39c2.41,2.72,4.68,5.55,6.92,8.38s4.47,5.7,6.62,8.63q6.43,8.78,12,18.15a255.31,255.31,0,0,1,18.83,39.24,243.7,243.7,0,0,1,11.86,42c2.65,14.36,3.84,28.8,5.31,43.17.69,7.2,1.35,14.43,1.72,21.71a213.29,213.29,0,0,1,0,21.9l-.32,5.39c-.06,1.75-.11,3.51-.08,5.28,0,3.54.22,7.12.4,10.73s.38,7.25.4,10.94-.29,7.38-.07,10.68a17.44,17.44,0,0,0,.88,4.64,11.71,11.71,0,0,0,1,2,10.26,10.26,0,0,0,1.28,1.75,11.84,11.84,0,0,0,3.71,2.44,40.27,40.27,0,0,0,4.78,1.75c1.66.5,3.36.94,5.08,1.35l5.25,1.2a101.08,101.08,0,0,0,10.41,1.85,51.8,51.8,0,0,0,10.33.25c1.71-.12,3.41-.38,5.11-.67l2.53-.54,2.59-.63a32.24,32.24,0,0,0,9.31-3.69,17.85,17.85,0,0,0,6.37-6.92,39.21,39.21,0,0,0,2.9-9.72,89.3,89.3,0,0,0,1.38-10.44,103.63,103.63,0,0,0,.14-10.58c-.13-3.54-.43-7.08-.72-10.69l-1.75-21.66-.44-5.41-.2-2.71-.13-2.74c-.13-3.65-.16-7.31-.08-11,.17-7.32.79-14.58,1.49-21.78s1.47-14.38,2.32-21.59,1.9-14.4,3.25-21.55,3-14.22,4.77-21.25,3.94-14,6.36-20.85,5.14-13.58,8-20.25a209.17,209.17,0,0,1,9.6-19.54,175.21,175.21,0,0,1,11.78-18.29,201.9,201.9,0,0,1,29.48-31.78,204.67,204.67,0,0,0-15,15.59,193.16,193.16,0,0,0-13.38,17,175.57,175.57,0,0,0-11.2,18.42,206.29,206.29,0,0,0-9,19.59c-2.67,6.69-5.3,13.4-7.53,20.22s-4.21,13.74-5.89,20.72-3.18,14-4.4,21.1-2.18,14.19-2.93,21.35-1.37,14.36-2,21.54-1.19,14.33-1.29,21.47c0,3.57,0,7.13.17,10.7l.14,2.68.23,2.69.48,5.38L352,552.51a132,132,0,0,1,.68,22,92.92,92.92,0,0,1-1.42,11,43.89,43.89,0,0,1-3.3,11,22.84,22.84,0,0,1-8.09,8.87,36.71,36.71,0,0,1-10.72,4.33l-2.68.67-2.77.59a53,53,0,0,1-5.62.75,55.46,55.46,0,0,1-11.31-.24,107.11,107.11,0,0,1-10.91-2l-5.31-1.23c-1.8-.43-3.59-.9-5.39-1.45a43.43,43.43,0,0,1-5.38-2,16.61,16.61,0,0,1-5.24-3.55,15.62,15.62,0,0,1-1.92-2.61,16.32,16.32,0,0,1-1.35-2.87,22.39,22.39,0,0,1-1.14-6c-.23-3.91.13-7.48.09-11s-.19-7.11-.36-10.72-.37-7.25-.38-10.93c0-1.84,0-3.69.11-5.55l.36-5.43c.92-14.25-.11-28.57-1.39-42.94l-2-21.55c-.69-7.16-1.54-14.29-2.72-21.36a241.27,241.27,0,0,0-11-41.53,257.2,257.2,0,0,0-18-39.12q-5.28-9.4-11.44-18.28c-2-3-4.18-5.86-6.35-8.74s-4.35-5.75-6.66-8.5a82.34,82.34,0,0,0-15.72-14.63c-1.47-1.05-3-1.94-4.58-2.86s-3.06-1.93-4.57-2.92-3-2-4.56-2.93A22,22,0,0,0,176.11,318.51Z" transform="translate(-109.25 -206.34)"/><path d="M220.7,323.12c3.85,3.34,7.37,7,10.87,10.7.87.93,1.72,1.88,2.56,2.85a37.59,37.59,0,0,1,2.44,3.09c1.52,2.11,2.85,4.3,4.19,6.47,2.67,4.38,5.11,8.77,7.54,13.3,1.21,2.31,2.28,4.69,3.26,7.09s1.81,4.85,2.63,7.24,1.59,4.77,2.49,7,1.85,4.77,2.7,7.17c1.7,4.82,3.24,9.69,4.58,14.6,2.73,9.81,4.86,19.72,6.61,29.74-3.75-9.46-6.94-19.08-10.33-28.56-1.74-4.73-3.45-9.45-5.3-14.11q-1.38-3.51-2.83-7c-1-2.44-1.83-4.88-2.65-7.27a116.87,116.87,0,0,0-5.39-13.82l-6.71-13.52c-1.12-2.25-2.31-4.45-3.53-6.6-.62-1.08-1.23-2.09-1.94-3.09l-2.21-3.07C226.74,331.27,223.73,327.2,220.7,323.12Z" transform="translate(-109.25 -206.34)"/><path d="M245.64,305.46c3.6,5.22,6.9,10.62,10.08,16.12a172,172,0,0,1,8.52,17.08c2.58,5.83,4.72,11.85,6.74,17.88s3.73,12.1,5.47,18.22,3.16,12.31,4.49,18.51,2.49,12.45,3.44,18.71a327.87,327.87,0,0,1,4.07,37.76c-2.63-12.39-5.18-24.72-7.91-37-1.39-6.15-2.69-12.3-4.21-18.39s-3-12.2-4.7-18.24-3.38-12.13-5.16-18.14-3.73-11.94-5.84-17.84C256.39,328.32,251,317,245.64,305.46Z" transform="translate(-109.25 -206.34)"/><path d="M275.68,302.45c3.12,9.24,5.59,18.65,7.8,28.1,1.14,4.72,2.15,9.47,3.16,14.2s2,9.47,2.9,14.23c1.84,9.52,3.55,19.07,5,28.66s2.79,19.2,3.61,28.91c-2.86-9.31-5.24-18.72-7.44-28.17s-4.23-18.92-6.07-28.43-3.54-19.09-5-28.65S276.78,312.14,275.68,302.45Z" transform="translate(-109.25 -206.34)"/><path d="M304.79,297.24c1.65,11,2.82,22.08,3.81,33.15s1.79,22.15,2.33,33.25.86,22.22.87,33.33-.14,22.24-.89,33.37c-1.33-11.07-2.23-22.15-3-33.22s-1.43-22.15-2-33.24-1-22.16-1.22-33.27S304.38,308.4,304.79,297.24Z" transform="translate(-109.25 -206.34)"/><path d="M335.94,293.49c.1,9.64-.28,19.22-.84,28.78s-1.32,19.1-2.16,28.64-1.9,19-3.16,28.54-2.66,19-4.57,28.42c-.16-9.62.17-19.21.68-28.78s1.2-19.12,2.07-28.66,2-19.05,3.28-28.55S334,302.91,335.94,293.49Z" transform="translate(-109.25 -206.34)"/><path d="M371.59,293.49c-2.2,10-5,19.81-7.6,29.61-1.31,4.9-2.45,9.85-3.69,14.78s-2.52,9.85-3.83,14.76l-8.07,29.41-4.08,14.7c-1.37,4.9-2.72,9.82-4.3,14.7.49-5.1,1.2-10.16,1.9-15.22s1.66-10.08,2.68-15.09c2-10,4.35-19.93,7-29.78q2-7.39,4.1-14.75c1.42-4.9,2.79-9.81,4.53-14.64C363.6,312.29,367.43,302.83,371.59,293.49Z" transform="translate(-109.25 -206.34)"/><path d="M397.21,311.36c-3.37,7.91-7.15,15.55-11.07,23.09-1.95,3.77-3.95,7.54-5.92,11.3s-4,7.47-5.86,11.24q-5.69,11.29-10.92,22.87c-3.47,7.72-6.74,15.55-10.14,23.42a150.29,150.29,0,0,1,6.51-24.86,194.44,194.44,0,0,1,10.09-23.68c2-3.84,4-7.6,6.18-11.29s4.34-7.34,6.68-10.92C387.34,325.32,392.07,318.2,397.21,311.36Z" transform="translate(-109.25 -206.34)"/></svg>