<svg id="Layer_2" data-name="Layer 2" xmlns="http://www.w3.org/2000/svg" viewBox="0 0 212.19 475.82"><defs><style>.cls-1{fill:none;stroke:#000;stroke-miterlimit:10;stroke-width:4px;}</style></defs><title>Murklor</title><path class="cls-1" d="M213.89,384.89c4.1-11.21,3.39-13.79,8.17-26.55,4.7-12.51,7.48-13.35,11.24-22.47,5.74-13.94,3.75-23,4.08-43.91.53-33.49,1.06-38.26,4.09-46,2.08-5.31,6.72-16.71,18.38-25.53,3.85-2.92,17.93-13.57,33.7-10.21,10.8,2.29,17.22,10.41,29.62,26.55,6.35,8.26,13.21,18.54,21.45,34.72a367.06,367.06,0,0,1,20.42,49c11.45,32.77,17.17,49.15,16.34,63.32-.43,7.52-1.93,15.87,1,27.58,2.11,8.33,4.66,11.17,9.2,23.49,1.71,4.65,5.76,15.64,7.14,24.51,2.58,16.5-3.44,29.78-11.23,47-8.91,19.66-15.87,35-32.68,44.93a71.27,71.27,0,0,1-30.64,9.19c-15.84,1-22.61-4.24-39.83-2a63.43,63.43,0,0,1-14.36.37h-.09a52.88,52.88,0,0,1-14.14-3.42c-5.72-2.5-6.47-7.85-11.24-14.3-6.41-8.67-12.47-9-21.44-15.32-14.94-10.43-21.49-25.65-24.52-32.68-2.47-5.74-10.51-24.42-6.12-44.94,1.05-4.91,2-6,4.08-15.32,3.56-15.67,7.67-22.93,11.16-31C220.71,371.9,171.15,501.84,213.89,384.89Z" transform="translate(-189.16 -207.61)"/><path class="cls-1" d="M270,558.88c.89,3.55,5.05,19.72,5.17,26.18.19,10.61-2.2,17.83-5.11,27.58-11.2,37.61-9.38,43.9-8.17,47,3.55,9,11.21,14,13.28,15.32,7.75,5,15.22,5.56,23.49,6.12,7.92.55,15.84,1.09,24.51-3.06,3.66-1.75,11.71-5.61,14.3-13.28,2.37-7-1.62-12.05-5.11-22.46-3.6-10.76-3.76-20.79-4.08-40.86-.16-9.87,1.7-28,3.5-41.76" transform="translate(-189.16 -207.61)"/><path d="M270.88,221.68a6.6,6.6,0,0,0-4,3.91,8.24,8.24,0,0,0-.66,2.78,7.27,7.27,0,0,0,.57,2.73l2,5.7,1,2.87a18.76,18.76,0,0,1,.88,3.19,16.48,16.48,0,0,1,.11,3.51,20.65,20.65,0,0,1-.6,3.33,5.87,5.87,0,0,0-.2,1.13.77.77,0,0,0,.12.48c.05.1.2.28.32.45a2.61,2.61,0,0,1,.23.24c.1.08.17.16.27.25a8.88,8.88,0,0,0,3.79,1.49,10.36,10.36,0,0,0,4.33-.11c2.86-.69,5.24-2.36,6-4.94a12.53,12.53,0,0,0,.4-4.86l-.12-1.44-.05-.63q0-.28-.09-.6a19.42,19.42,0,0,0-.75-2.64,113.7,113.7,0,0,0-4.65-11c-.95-1.72-1.88-3.52-3.44-4.64A6.88,6.88,0,0,0,270.88,221.68Zm-.1-.38a7.59,7.59,0,0,1,5.9,1.11,14.54,14.54,0,0,1,3.94,4.62c1.05,1.71,2,3.47,3,5.22s1.94,3.51,2.84,5.31a24.06,24.06,0,0,1,1.2,2.8,22.61,22.61,0,0,1,.69,3,15.64,15.64,0,0,1,.14,6.1,10,10,0,0,1-3.06,5.31,12.47,12.47,0,0,1-5.47,2.79,13.23,13.23,0,0,1-6.13,0,11.21,11.21,0,0,1-5.43-2.85,5.51,5.51,0,0,1-1.45-2.81,6,6,0,0,1,.5-3.09,17.28,17.28,0,0,0,.82-2.84,13.5,13.5,0,0,0,.22-2.91,43.29,43.29,0,0,0-1.17-5.83c-.47-1.95-.95-3.89-1.46-5.83a8.08,8.08,0,0,1-.39-3,9.63,9.63,0,0,1,.89-2.94A7.31,7.31,0,0,1,270.78,221.3Z" transform="translate(-189.16 -207.61)"/><path d="M239,255l2.58,0c.87.05,1.73.13,2.61.23a18.13,18.13,0,0,1,2.65.5,12.5,12.5,0,0,1,2.73,1,14.09,14.09,0,0,1,4.31,4.12,29.85,29.85,0,0,1,2.73,4.8,40.1,40.1,0,0,1,1.95,5c.52,1.61,1,3.23,1.54,4.91a43.68,43.68,0,0,1,1.15,5.34,22.82,22.82,0,0,1,.1,6,22.09,22.09,0,0,1-1.72,5.75,23.39,23.39,0,0,1-3,5.06,13.86,13.86,0,0,1-5.15,4.12,10.11,10.11,0,0,1-1.76.59,13.07,13.07,0,0,1-1.87.22,10.21,10.21,0,0,1-3.49-.65,10.51,10.51,0,0,1-4.21-2.85c-.19-.24-.35-.42-.58-.76a5.64,5.64,0,0,1-.51-.95,14.7,14.7,0,0,1-.74-2.92c-.14-.89-.26-1.76-.33-2.63s-.12-1.78-.16-2.56l-.21-2.5a51.13,51.13,0,0,1-.29-5.16l.39-.06c.71,3.25,1.76,6.52,2.33,9.84a24.35,24.35,0,0,0,1.42,4.77,4.87,4.87,0,0,0,1.63,1.72,8.07,8.07,0,0,0,2.19,1.06,6.27,6.27,0,0,0,4.7-.32,10.33,10.33,0,0,0,3.63-3.21,21.65,21.65,0,0,0,2.41-4.34,18.06,18.06,0,0,0,1.34-4.76,26.75,26.75,0,0,0-1-9.87,90.35,90.35,0,0,0-2.77-9.69,29.73,29.73,0,0,0-2.11-4.54,11.54,11.54,0,0,0-3.17-3.75,16.9,16.9,0,0,0-4.57-1.95c-1.61-.48-3.25-.81-4.91-1.19Z" transform="translate(-189.16 -207.61)"/><path d="M275.28,267.36a8.72,8.72,0,0,0-3.42,4.16,10.77,10.77,0,0,0-.69,2.62,7.68,7.68,0,0,0-.06,2.61,37.93,37.93,0,0,1,1.56,11.44,15.07,15.07,0,0,0,.84,4.93,13.45,13.45,0,0,0,.79,2.27,2.8,2.8,0,0,0,.89,1.09,5,5,0,0,0,3,.68,8.66,8.66,0,0,0,3.65-.94,5.85,5.85,0,0,0,1.38-.94,4.39,4.39,0,0,0,.92-1.22,19,19,0,0,0,1.43-4.49c.86-3.67,1.9-7,1.93-10.44a19.41,19.41,0,0,0-2.81-10.08,6.58,6.58,0,0,0-4.21-2.91A7.69,7.69,0,0,0,275.28,267.36Zm-.21-.34a8.53,8.53,0,0,1,5.45-1.42,7.43,7.43,0,0,1,4.86,2.87,20,20,0,0,1,2.78,4.93,20.31,20.31,0,0,1,1.5,5.46c.5,3.79-.15,7.56-.68,11.24a23,23,0,0,1-1.34,5.53,8.3,8.3,0,0,1-1.63,2.43,9.43,9.43,0,0,1-2.36,1.71,11.57,11.57,0,0,1-5.6,1.25,7.8,7.8,0,0,1-5.34-2.1,6.21,6.21,0,0,1-1.47-2.54,19.73,19.73,0,0,1-.6-2.78,23.78,23.78,0,0,1-.33-2.83,17.9,17.9,0,0,1,.16-2.84,32.3,32.3,0,0,0-.28-11.09,8.49,8.49,0,0,1,.27-2.85,13.41,13.41,0,0,1,.91-2.7A9.65,9.65,0,0,1,275.07,267Z" transform="translate(-189.16 -207.61)"/><path d="M301.34,267.09a3,3,0,0,0-1,2.28,20.48,20.48,0,0,0,0,2.71c.11,1.82.34,3.64.48,5.48l.56,5.51.28,2.76a14.19,14.19,0,0,0,.37,2.44,3.22,3.22,0,0,0,.39.73c.18.28.44.58.66.86a12.41,12.41,0,0,0,1.63,1.53,11.5,11.5,0,0,0,3.84,2,7.5,7.5,0,0,0,1.92.35,8.6,8.6,0,0,0,1.73-.14,6.21,6.21,0,0,0,2.88-1.6,9,9,0,0,0,1.28-1.46l.29-.43.24-.35a5.83,5.83,0,0,0,.33-.7,25.86,25.86,0,0,0,1.06-4.65c.12-.89.33-1.79.49-2.69s.32-1.73.44-2.59.26-1.7.3-2.43c0-.36,0-.68,0-.82a1.68,1.68,0,0,0-.11-.41,3.8,3.8,0,0,0-.18-.47,10.44,10.44,0,0,0-3.24-3.53,19.62,19.62,0,0,0-7-3.83c-.88-.27-1.74-.58-2.62-.77a12.18,12.18,0,0,0-2.65-.42A4,4,0,0,0,301.34,267.09Zm-.25-.31a4.3,4.3,0,0,1,2.71-.8,14.15,14.15,0,0,1,2.76.32,39.82,39.82,0,0,1,5.33,1.4,25.1,25.1,0,0,1,4.94,2.48,13.32,13.32,0,0,1,4.26,3.56,6.73,6.73,0,0,1,.69,1.27,5.56,5.56,0,0,1,.3,1.41,23.55,23.55,0,0,1,.06,2.78c-.06,1.85-.23,3.67-.38,5.49a29.08,29.08,0,0,1-.84,5.49,9,9,0,0,1-1.26,2.54,12.88,12.88,0,0,1-1.81,2.16,9.39,9.39,0,0,1-5.05,2.5,10.54,10.54,0,0,1-5.55-.8,13.9,13.9,0,0,1-4.6-3.16,13.23,13.23,0,0,1-1.72-2.21,6.63,6.63,0,0,1-1.05-2.64,18.64,18.64,0,0,1,0-2.79l.07-2.74c0-1.82,0-3.64,0-5.47l-.1-5.48a25.5,25.5,0,0,1,.07-2.76A3.4,3.4,0,0,1,301.09,266.78Z" transform="translate(-189.16 -207.61)"/><path d="M271.51,310.19a4.58,4.58,0,0,0-.59,2.07,7.48,7.48,0,0,0,.31,2.19c.4,1.45.95,2.9,1.24,4.42a19.88,19.88,0,0,1-.38,9.29,32,32,0,0,1-1.59,4.43,30.41,30.41,0,0,1-2.21,4.18c-.85,1.34-1.77,2.6-2.37,3.78a9.59,9.59,0,0,0-1,3.75,12.82,12.82,0,0,0,1.78,7.46,13.52,13.52,0,0,0,2.37,3,14.6,14.6,0,0,0,2.95,2.16,13,13,0,0,0,7,1.41,10.94,10.94,0,0,0,1.7-.27,17.23,17.23,0,0,0,1.77-.53,10.47,10.47,0,0,0,3-1.59,5.67,5.67,0,0,0,2.37-5,19.43,19.43,0,0,0-.53-3.78l-.25-1.06-.26-1a11.81,11.81,0,0,0-.57-1.71c-.11-.27-.26-.55-.46-1a11.87,11.87,0,0,1-.57-1.47,14.1,14.1,0,0,1-.49-2.89,19,19,0,0,1,.5-5.26c.35-1.59.79-3.08,1.21-4.56s.87-3,1.33-4.43.9-2.88,1.31-4.34.82-2.92,1.12-4.36a13.45,13.45,0,0,0,.29-2.05,4.4,4.4,0,0,0-.08-.89,7.89,7.89,0,0,0-.3-.94,7.49,7.49,0,0,0-2.58-3.2,10.83,10.83,0,0,0-3.9-1.83,10.26,10.26,0,0,0-4.38,0c-.73.14-1.46.35-2.19.56a15.68,15.68,0,0,0-2.12.75A7.15,7.15,0,0,0,271.51,310.19Zm-.34-.21a7.63,7.63,0,0,1,3.54-3,19.45,19.45,0,0,1,2.16-.81c.73-.23,1.46-.46,2.22-.63a11.83,11.83,0,0,1,4.63-.13,11.46,11.46,0,0,1,4.28,1.78,9,9,0,0,1,3.13,3.43,5.88,5.88,0,0,1,.66,2.29,12.92,12.92,0,0,1-.16,2.33c-.45,3-1.08,6-1.76,9s-1.33,5.94-1.82,8.93a16.73,16.73,0,0,0-.19,4.46,11.16,11.16,0,0,0,.48,2.15,16.94,16.94,0,0,0,1,2,25.41,25.41,0,0,1,1.51,4.37,21.17,21.17,0,0,1,.83,4.57,9.44,9.44,0,0,1-3.76,8.3,14.15,14.15,0,0,1-4.14,2.17,17,17,0,0,1-4.57.92,16.21,16.21,0,0,1-8.94-2.28,16.82,16.82,0,0,1-6.17-6.84,15.33,15.33,0,0,1-1.34-9.09,11.65,11.65,0,0,1,1.6-4.37c.83-1.32,1.85-2.46,2.73-3.69a29.67,29.67,0,0,0,2.37-3.85,26.6,26.6,0,0,0,1.76-4.16,18.6,18.6,0,0,0,.73-8.91c-.25-1.49-.74-2.92-1.13-4.41a7.76,7.76,0,0,1-.3-2.31A5,5,0,0,1,271.17,310Z" transform="translate(-189.16 -207.61)"/><path d="M243.17,311.71a4.06,4.06,0,0,0,0,3.31,27.27,27.27,0,0,1,1.06,3.46,18.31,18.31,0,0,1,.25,1.83c0,.63,0,1.24.05,1.79.08,1.15.3,2.35.31,3.61a12.18,12.18,0,0,1-.5,3.81,15.31,15.31,0,0,1-.7,1.8l-.78,1.65c-.52,1.1-1.13,2.24-1.67,3.26s-1,2.06-1.46,3.14a24.89,24.89,0,0,0-1.91,6.3,6,6,0,0,0,0,2.46s.26.48.41.63.27.25.35.26a5.33,5.33,0,0,0,1.63.06c.46,0,1-.09,1.55-.16l1.71-.2a16.6,16.6,0,0,0,5.45-1.6c1.46-.77,2-1.72,2-2.24s-.31-1.71-.49-3.3a12.14,12.14,0,0,1,.46-4.78,10.08,10.08,0,0,1,.91-2.23,17.45,17.45,0,0,1,1.14-1.7,17.88,17.88,0,0,0,1.62-2.73,39.14,39.14,0,0,0,2.61-6.3,32.63,32.63,0,0,0,.93-3.25,9.93,9.93,0,0,0,.18-1.56,15.15,15.15,0,0,0,0-1.66,8.53,8.53,0,0,0-2.73-5.75,9.2,9.2,0,0,0-6.19-2.49,10.58,10.58,0,0,0-3.44.54A5,5,0,0,0,243.17,311.71Zm-.34-.19a5.27,5.27,0,0,1,2.86-2.27,11.81,11.81,0,0,1,3.57-.67,10.23,10.23,0,0,1,6.79,2.32,10,10,0,0,1,3.62,6.21,14.3,14.3,0,0,1,.21,3.64,27.55,27.55,0,0,1-.61,3.56,41.58,41.58,0,0,1-2.06,6.91,22.87,22.87,0,0,1-1.56,3.28,9.54,9.54,0,0,0-1.44,3.15,8.54,8.54,0,0,0-.19,3.41c.15,1.15.59,2.27.7,3.54a5.14,5.14,0,0,1-.22,1.91,3.81,3.81,0,0,1-.37.88,4.24,4.24,0,0,1-.49.82,8.49,8.49,0,0,1-2.83,2.41,18.84,18.84,0,0,1-7,1.95c-1.2.08-2.38.2-3.61.2a6.33,6.33,0,0,1-3.63-.89,5.17,5.17,0,0,1-1.93-3.23A9.83,9.83,0,0,1,235,345a27.9,27.9,0,0,1,2.8-6.66c.58-1.05,1.18-2.09,1.85-3.1s1.32-2,1.92-3a24.68,24.68,0,0,0,1.66-3.12,10,10,0,0,0,.69-3.41c.06-1.17-.08-2.35-.1-3.57,0-.62,0-1.21,0-1.79a11.5,11.5,0,0,0-.16-1.75,25.61,25.61,0,0,0-.94-3.42,7.25,7.25,0,0,1-.34-1.81A3.62,3.62,0,0,1,242.83,311.52Z" transform="translate(-189.16 -207.61)"/><path d="M301.65,308.12a5,5,0,0,0-.45,2,13.13,13.13,0,0,0,.18,2.06,35,35,0,0,1,.41,4.22,43.05,43.05,0,0,1-.5,8.49c-.39,2.77-.73,5.64-1.4,8.42-.15.69-.31,1.38-.4,2a7.1,7.1,0,0,0-.05,1.78,16.13,16.13,0,0,0,.28,1.88,13.41,13.41,0,0,0,.5,1.81,9.19,9.19,0,0,0,4.15,5.2,8.48,8.48,0,0,0,3,1,18.3,18.3,0,0,0,3.52.09,12.12,12.12,0,0,0,6.21-2,9.45,9.45,0,0,0,3.95-4.45,4.53,4.53,0,0,0,.24-2.48c-.07-.61-.16-1.44-.18-2.38a12.1,12.1,0,0,1,.32-2.92,11.14,11.14,0,0,1,1-2.71,10.27,10.27,0,0,1,1.77-2.49l1.45-1.46a15.8,15.8,0,0,0,1.19-1.37c.75-1,1.53-2,2.3-3.2a13.55,13.55,0,0,0,1.64-2.83,3.78,3.78,0,0,0,.1-.46.61.61,0,0,0,0-.34,5.66,5.66,0,0,0-.6-1.4,26,26,0,0,0-2.24-3.21c-.83-1.07-1.74-2.11-2.66-3.18s-1.82-2.12-2.78-3.09a17.42,17.42,0,0,0-3-2.57,13.14,13.14,0,0,0-3.65-1.58,13.51,13.51,0,0,0-8,.21,12.62,12.62,0,0,0-3.66,1.85A8.43,8.43,0,0,0,301.65,308.12Zm-.36-.16c1.21-2.67,3.8-4.37,6.44-5.33a14.63,14.63,0,0,1,8.41-.59,16.07,16.07,0,0,1,4,1.43,19,19,0,0,1,3.45,2.5c2.1,1.89,4.09,3.86,6.05,5.89a29.45,29.45,0,0,1,2.73,3.26,9,9,0,0,1,1.06,1.9,4.18,4.18,0,0,1,.19,2.24,13.23,13.23,0,0,1-1.72,3.95c-.71,1.21-1.42,2.43-2.24,3.59a28.82,28.82,0,0,1-2.72,3.26,7.53,7.53,0,0,0-1.74,3.57,11.37,11.37,0,0,0,0,4.07,11.18,11.18,0,0,1,.07,2.17,7.83,7.83,0,0,1-.5,2.15,12.89,12.89,0,0,1-5.69,6.34,15.48,15.48,0,0,1-8.22,2.16,13.8,13.8,0,0,1-8.2-2.18,11.83,11.83,0,0,1-4.64-7.07,17.88,17.88,0,0,1-.48-4.25,14.27,14.27,0,0,1,.86-4.18,70.59,70.59,0,0,0,1.92-8.16,39.5,39.5,0,0,0,.88-8.31,32.37,32.37,0,0,0-.31-4.17,13.61,13.61,0,0,1-.16-2.13A5.12,5.12,0,0,1,301.29,308Z" transform="translate(-189.16 -207.61)"/><path d="M342,306.6a5.08,5.08,0,0,0,.1,3.9,41.64,41.64,0,0,1,1.16,4c.55,2.72,1.2,5.52.78,8.46a11.08,11.08,0,0,1-1.46,4.27A8.4,8.4,0,0,1,341,329c-.56.49-1.08.91-1.57,1.36a19.63,19.63,0,0,0-2.57,2.95,37.24,37.24,0,0,0-2.24,3.32,11.47,11.47,0,0,0-1.37,3.29,6.91,6.91,0,0,0,0,3.1,9.68,9.68,0,0,0,3.45,5.23,11.44,11.44,0,0,0,1.29,1l.67.35a3.6,3.6,0,0,0,.69.32,10.35,10.35,0,0,0,3,.69,17.48,17.48,0,0,0,9.64-2.39,15.31,15.31,0,0,0,2.68-2,21,21,0,0,0,2.35-2.64,18.67,18.67,0,0,0,1.9-3,14.61,14.61,0,0,0,1.83-6.65,9,9,0,0,0-.43-3.16,6.41,6.41,0,0,0-.82-1.46c-.4-.57-.84-1.23-1.22-1.9a23.23,23.23,0,0,1-1.79-4.14c-.49-1.37-.82-2.81-1.16-4.14-.69-2.68-1.39-5.38-2.24-8a14.12,14.12,0,0,0-1.7-3.62,12.47,12.47,0,0,0-1.27-1.57,8.69,8.69,0,0,0-1.49-1.36,3.87,3.87,0,0,0-3.71-.56A5.41,5.41,0,0,0,342,306.6Zm-.36-.18a5.88,5.88,0,0,1,3.08-2.89,4.41,4.41,0,0,1,2.16-.26,4.69,4.69,0,0,1,2,.79,10.2,10.2,0,0,1,1.63,1.37,15.27,15.27,0,0,1,1.41,1.58,15,15,0,0,1,2,3.72q1.49,3.91,2.8,7.87a29.92,29.92,0,0,0,3.35,7.52c.73,1.15,1.76,2.09,2.47,3.39a10.8,10.8,0,0,1,1.07,4.14,17.3,17.3,0,0,1-1.54,8.27,24,24,0,0,1-4.7,7,19.38,19.38,0,0,1-15.52,5.52,12.5,12.5,0,0,1-4.1-1.2,5.28,5.28,0,0,1-.94-.5c-.31-.19-.62-.37-.92-.57a15.32,15.32,0,0,1-1.62-1.38,12.35,12.35,0,0,1-3.94-7.42,9.73,9.73,0,0,1,.5-4.25,14.44,14.44,0,0,1,2-3.74c.82-1.15,1.74-2.21,2.65-3.26a22.6,22.6,0,0,1,3-2.91,15.53,15.53,0,0,0,3.11-2.65,9.5,9.5,0,0,0,1.52-3.73,23.12,23.12,0,0,0-.41-8.19,38.11,38.11,0,0,0-1-4,10.12,10.12,0,0,1-.45-2.08A4.26,4.26,0,0,1,341.63,306.42Z" transform="translate(-189.16 -207.61)"/><path d="M236.27,364.08c-1.69,2.38-3.67,4.53-5.56,6.73a19.33,19.33,0,0,0-1.35,1.67,6.14,6.14,0,0,0-.53.87,2.43,2.43,0,0,0-.23.91,4.92,4.92,0,0,1-1.13,2.14,4.85,4.85,0,0,0-.56.83c-.17.28-.31.61-.46.92-1.1,2.6-1.79,5.44-2.75,8.22a20.42,20.42,0,0,1-1.83,4.34c-.45.71-.92,1.3-1.21,1.8a4.16,4.16,0,0,0-.52,1.45,8,8,0,0,0-.08,1.72,3.22,3.22,0,0,0,.4,1.23,16.76,16.76,0,0,0,2.26,2.9l.74.86a12.77,12.77,0,0,1,.81,1.09l.16.24.12.16,0,0,0-.05a.76.76,0,0,0-.17-.2,1.22,1.22,0,0,0-.25-.2.5.5,0,0,0-.12-.08h.18c.45.05,1.22.11,1.91.16s1.46.13,2.14.18a40.09,40.09,0,0,0,4.06.17l2.13,0a22.61,22.61,0,0,1,2.45.08,38.63,38.63,0,0,1,4.71.72c.77.17,1.54.36,2.26.55s1.38.36,1.68.4a2,2,0,0,0,.88-.05,6.51,6.51,0,0,0,1.31-.44,7.38,7.38,0,0,0,2.34-1.66,5.67,5.67,0,0,0,1.33-2.25,5.55,5.55,0,0,0,0-2.75,20.37,20.37,0,0,0-1.28-3.51,14.07,14.07,0,0,0-.81-1.55,8.77,8.77,0,0,0-1-1.34,23.59,23.59,0,0,1-1.64-1.81,10.1,10.1,0,0,1-1.39-2.4,15.23,15.23,0,0,1-1.11-4.91,22.89,22.89,0,0,1,1.57-9.2,27.48,27.48,0,0,1,2-4.08c.7-1.26,1.41-2.43,1.26-3.64a4.83,4.83,0,0,0-2-3.23,5.77,5.77,0,0,0-3.8-1.28,8.14,8.14,0,0,0-4,1.19,6.14,6.14,0,0,0-1.6,1.34C237.11,362.88,236.7,363.49,236.27,364.08Zm-.33-.24c.43-.58.82-1.18,1.27-1.78a6.34,6.34,0,0,1,1.7-1.45,9,9,0,0,1,4.21-1.37,6.63,6.63,0,0,1,4.24,1.24,5.65,5.65,0,0,1,2.45,3.69,4.8,4.8,0,0,1-.23,2.26,19.36,19.36,0,0,1-.87,2,26.85,26.85,0,0,0-1.61,4,20.91,20.91,0,0,0-.82,8.49,12.65,12.65,0,0,0,1.21,4.05,7.84,7.84,0,0,0,1.15,1.74c.46.52,1,1,1.55,1.48a12.23,12.23,0,0,1,2.72,3.51,20.94,20.94,0,0,1,1.79,4,9.14,9.14,0,0,1,.28,4.47,8.85,8.85,0,0,1-2,4,10.8,10.8,0,0,1-3.56,2.72,10.35,10.35,0,0,1-2.13.75,6.12,6.12,0,0,1-2.3.13c-1.52-.26-2.84-.75-4.26-1.05a40.87,40.87,0,0,0-4.24-.74c-1.42-.16-2.86-.13-4.32-.19s-2.93-.21-4.37-.41-2.87-.36-4.34-.66a2.45,2.45,0,0,1-1.13-.5,3.92,3.92,0,0,1-.68-1,16.8,16.8,0,0,0-1.23-1.75,15.82,15.82,0,0,1-2.35-3.75,5.44,5.44,0,0,1-.38-2.26,10,10,0,0,1,.34-2.22,6.21,6.21,0,0,1,1-2c.44-.6.94-1.13,1.35-1.7a19.31,19.31,0,0,0,1.94-3.82c1.12-2.67,2-5.42,3.31-8.07a9.11,9.11,0,0,1,1.22-1.87,4.21,4.21,0,0,0,1-1.73,2.88,2.88,0,0,1,.35-1.1,6.07,6.07,0,0,1,.63-.93c.45-.58.95-1.13,1.44-1.66A74.9,74.9,0,0,0,235.94,363.84Z" transform="translate(-189.16 -207.61)"/><path d="M264.77,367.21a15.45,15.45,0,0,0-4.73,3.06,7.6,7.6,0,0,0-2.63,4.72,3.34,3.34,0,0,0,.84,2.4c.57.73,1.23,1.45,1.84,2.21,1.24,1.51,2.3,3.16,3.4,4.75.54.81,1.08,1.61,1.59,2.49a13.09,13.09,0,0,1,1.27,2.85,17.13,17.13,0,0,1,.68,6.19,44.33,44.33,0,0,1-2.38,11.83c-.34,1-.73,1.92-1.14,2.83l-.58,1.31a4,4,0,0,0-.32.93c0,.18.08-.15.06-.22s0-.06.15,0a4.27,4.27,0,0,0,1.42.49,7.79,7.79,0,0,0,1,.12,3.82,3.82,0,0,0,.8,0,5.87,5.87,0,0,0,1.48-.67,34.41,34.41,0,0,0,4.17-3.06c1.43-1.13,2.85-2.36,4.25-3.59.69-.62,1.38-1.24,2-1.88s1.34-1.3,2.16-2a48.65,48.65,0,0,1,5.05-3.65c.84-.55,1.68-1.08,2.54-1.59l1.29-.77.65-.37.33-.19.17-.09.09,0,0,0-.17.11.23-.14c.67-.35,1.35-.69,2.05-1s1.44-.65,2.07-.91c.3-.13.5-.23.41-.17s-.05.06,0,.06A.68.68,0,0,0,295,393a1,1,0,0,0,.29-.52,20,20,0,0,0,0-3.61,38.4,38.4,0,0,1,.07-4.67,31.39,31.39,0,0,1,.68-4.62c.32-1.52.81-3,1.16-4.27a7.67,7.67,0,0,0,.29-3.46,19.14,19.14,0,0,0-.46-1.89,9.5,9.5,0,0,0-.69-1.72A4.57,4.57,0,0,0,293.9,366a5.57,5.57,0,0,0-3.55.17,49.07,49.07,0,0,1-8.52,2.06,23.37,23.37,0,0,1-8.74-.69,26,26,0,0,0-4.17-.93A9.1,9.1,0,0,0,264.77,367.21Zm-.14-.38a9.52,9.52,0,0,1,4.32-.69,26.07,26.07,0,0,1,4.27.88,21,21,0,0,0,8.49.4,25.81,25.81,0,0,0,4.17-1c1.36-.43,2.69-1,4.06-1.46a11.83,11.83,0,0,1,2.14-.57,4.91,4.91,0,0,1,2.25.12,6.18,6.18,0,0,1,3.46,2.76,14.94,14.94,0,0,1,1.65,4.09,9.67,9.67,0,0,1,.26,2.21,12.25,12.25,0,0,1-.26,2.2c-.29,1.44-.65,2.82-.87,4.23a28.92,28.92,0,0,0-.36,4.26,34,34,0,0,0,.2,4.28,22.58,22.58,0,0,1,.27,4.39,4.58,4.58,0,0,1-.85,2.15,3.42,3.42,0,0,1-.8.86,6,6,0,0,1-1,.57c-1.31.61-2.58,1.27-3.83,2h0c-1.7,1-3.3,2-4.89,3a44.24,44.24,0,0,0-4.58,3.41c-2.8,2.6-5.71,5.18-8.77,7.52a35.55,35.55,0,0,1-4.85,3.23,7.79,7.79,0,0,1-2.85.94,9,9,0,0,1-3-.36,6.47,6.47,0,0,1-2.66-1.41,3.17,3.17,0,0,1-.88-1.32,2.5,2.5,0,0,1,0-1.62,20.29,20.29,0,0,1,1.27-2.65c.44-.84.85-1.7,1.22-2.58a42,42,0,0,0,2.94-11,15.22,15.22,0,0,0-.27-5.63,19.46,19.46,0,0,0-2.38-5.14,47.65,47.65,0,0,0-3.12-4.81c-.57-.77-1.18-1.5-1.76-2.3a5,5,0,0,1-.7-1.33,3.87,3.87,0,0,1-.15-1.51,8.13,8.13,0,0,1,2.87-5A16,16,0,0,1,264.63,366.83Z" transform="translate(-189.16 -207.61)"/><path d="M308.78,359.73a4.42,4.42,0,0,0-.73,1.8,14.55,14.55,0,0,0-.13,2,33.33,33.33,0,0,1-.34,4.1,38,38,0,0,1-.79,4.07,33.83,33.83,0,0,0-1.05,3.89,27.52,27.52,0,0,0,.14,7.9,19.76,19.76,0,0,0,.93,3.73c.22.6.49,1.32.69,2s.36,1.44.5,2.15a24.13,24.13,0,0,1,.48,4.43,3.22,3.22,0,0,0,.7,2.52c1,1.41,3,2.33,5.24,2.87a10.93,10.93,0,0,0,6.19-.35c.54-.16,1.06-.36,1.66-.6l1.75-.72a13.64,13.64,0,0,0,2.81-1.56,4.78,4.78,0,0,0,1.51-1.66c0-.13.13-.29.16-.37s0,.07,0,0a7.92,7.92,0,0,0-.23-1.31c-.6-2.55-1.18-5.4-1.7-8-.27-1.35-.47-2.71-.69-4.14-.1-.72-.2-1.44-.25-2.27a10.28,10.28,0,0,1,0-1.37,11,11,0,0,1,.14-1.23,14.16,14.16,0,0,1,.55-2.33c.23-.72.46-1.35.67-2a32.53,32.53,0,0,0,1-3.73,38.94,38.94,0,0,0,.68-3.85,8.08,8.08,0,0,0,0-1.69,8.24,8.24,0,0,0-.45-1.72,10.2,10.2,0,0,0-5-5.42,13,13,0,0,0-7.72-.9A9.77,9.77,0,0,0,308.78,359.73Zm-.33-.23c1.61-2.36,4.39-3.53,7.07-4a18.29,18.29,0,0,1,4.12-.32,12,12,0,0,1,4.05.91,11.74,11.74,0,0,1,5.95,5.63,10.62,10.62,0,0,1,.71,2,8.3,8.3,0,0,1,.19,2.1,40,40,0,0,1-.33,4.1,37.59,37.59,0,0,1-.74,4.06,25.66,25.66,0,0,0-.81,3.95,11.88,11.88,0,0,0,.37,4c.28,1.32.61,2.64.93,4,.65,2.66,1.34,5.27,2.06,7.92a12.16,12.16,0,0,1,.4,2.08,3.84,3.84,0,0,1-.11,1.12c-.09.36-.24.69-.36,1a8.52,8.52,0,0,1-2.73,3.24,17.27,17.27,0,0,1-3.67,2c-1.28.51-2.55,1-3.89,1.39a14.13,14.13,0,0,1-8.27-.05,15.44,15.44,0,0,1-3.79-1.73,9.1,9.1,0,0,1-2.94-3,6.09,6.09,0,0,1-.75-2,10.62,10.62,0,0,1,0-2.11,21.7,21.7,0,0,0-.1-4,22.58,22.58,0,0,0-.79-4,22.75,22.75,0,0,1-.64-4.09,30.17,30.17,0,0,1,.46-8.21,33.21,33.21,0,0,1,1.26-3.92,30.54,30.54,0,0,0,.94-3.94,28.69,28.69,0,0,0,.43-4,18.38,18.38,0,0,1,.16-2.07A5,5,0,0,1,308.45,359.5Z" transform="translate(-189.16 -207.61)"/><path d="M357,358.78c-2.44,1.1-4.88,2.21-7.3,3.38-1.21.56-2.4,1.2-3.6,1.79a37.58,37.58,0,0,1-3.83,1.47A7.7,7.7,0,0,0,339,367a5.83,5.83,0,0,0-1.32,3.06,8.79,8.79,0,0,0-.07,1.78,9.87,9.87,0,0,0,.21,1.74,8.1,8.1,0,0,0,.6,1.56,11.84,11.84,0,0,1,.79,2.19,13.07,13.07,0,0,1,.35,2.36,17.89,17.89,0,0,1-.08,2.31c-.08,1.21,0,2.42,0,3.77,0,.64.06,1.28.13,1.74a2.13,2.13,0,0,0,.13.49s0,.06.06.06l.12.17a4,4,0,0,0,1.67,1.27.88.88,0,0,0,.58.05c.12,0,.14-.08.33-.2a5.41,5.41,0,0,0,.85-.8c.38-.4.83-.9,1.45-1.49a8,8,0,0,1,2.94-1.87,6,6,0,0,1,2.37-.29,4.63,4.63,0,0,1,1.24.22,5.9,5.9,0,0,1,1.29.57,6.87,6.87,0,0,1,1.58,1.4l.68.82a9,9,0,0,0,1,1,10.18,10.18,0,0,0,2.48,1.64,13.51,13.51,0,0,0,3,1,28,28,0,0,0,3.45.66,9.25,9.25,0,0,0,2.92-.08,3.22,3.22,0,0,0,1.71-.82,2,2,0,0,0,.46-.84,6.31,6.31,0,0,0,.25-1.47c.09-1.15.09-2.47.07-3.8a34.19,34.19,0,0,0-.23-3.81,43,43,0,0,0-1.72-7.6c-.41-1.28-.81-2.52-1.29-3.74s-1.07-2.39-1.6-3.73a26.61,26.61,0,0,1-1-4,27.31,27.31,0,0,0-.8-3.89,2.12,2.12,0,0,0-1.13-1.3,2.83,2.83,0,0,0-1.81.07A36.18,36.18,0,0,0,357,358.78Zm-.16-.37a36.34,36.34,0,0,1,3.75-1.53,3.44,3.44,0,0,1,2.11-.1,2.68,2.68,0,0,1,1.46,1.55,36.54,36.54,0,0,1,1,3.93,24.25,24.25,0,0,0,1.17,3.8c.52,1.2,1.25,2.35,1.83,3.57s1.1,2.47,1.59,3.71a46.74,46.74,0,0,1,2.49,7.7,33.89,33.89,0,0,1,.61,4c.13,1.34.28,2.68.3,4a7.19,7.19,0,0,1-.92,4.05,5.94,5.94,0,0,1-3.4,2.42,17.18,17.18,0,0,1-8.13-.12,15.66,15.66,0,0,1-7.38-3.47,12.64,12.64,0,0,1-1.43-1.5,6.9,6.9,0,0,0-1.27-1.38,2,2,0,0,0-1.62-.14,4.4,4.4,0,0,0-1.54,1,17.27,17.27,0,0,1-3.11,2.66,4.44,4.44,0,0,1-4.19.08,7,7,0,0,1-3-2.89,4.5,4.5,0,0,1-.54-2.07c0-.69,0-1.37,0-2a36.71,36.71,0,0,1,.35-4,10.68,10.68,0,0,0,.1-3.9c-.18-1.27-.9-2.47-1-3.89a12.56,12.56,0,0,1,.23-4.1,7.06,7.06,0,0,1,2-3.62,5.24,5.24,0,0,1,1.83-1c.65-.23,1.3-.4,1.94-.58a39.05,39.05,0,0,0,3.79-1.24l3.68-1.63Z" transform="translate(-189.16 -207.61)"/><path class="cls-1" d="M302,237.57c-.8.54.36,2.6.76,7.15.35,4-.37,4.16.26,5.88,1.59,4.31,7.14,5.69,7.91,5.87,1.92.45,6.58,1.07,7.66-1,.88-1.68-.83-4.59-2.8-6.13-2.61-2-4.38-.66-6.39-2.55s-.86-4.1-3.32-6.9C304.79,238.42,302.76,237.06,302,237.57Z" transform="translate(-189.16 -207.61)"/><path d="M333.32,277.19a26.39,26.39,0,0,0-.63,6.84,28,28,0,0,0,.38,3.4,5.62,5.62,0,0,0,1.11,2.61,3.7,3.7,0,0,0,.89.72,5.31,5.31,0,0,0,1.06.49,2.14,2.14,0,0,0,.91.13.45.45,0,0,0,.38-.22c0-.08,0-.15.05-.25l.34-.6a24.37,24.37,0,0,0,1.05-2.45c.22-.53.38-.92.52-1.35a11.28,11.28,0,0,0,.39-1.25,12.8,12.8,0,0,0,.46-2.53,8.33,8.33,0,0,0-1.11-5.3c-.53-1-1.13-2-1.75-3-.3-.48-.61-.95-.93-1.4a5.15,5.15,0,0,0-1-1.09l-.11-.09h-.12c-.11,0-.27.23-.39.45a8.9,8.9,0,0,0-.65,1.54A33.34,33.34,0,0,0,333.32,277.19Zm-.39-.08c.22-1.14.45-2.27.73-3.4a10.53,10.53,0,0,1,.53-1.68,1.89,1.89,0,0,1,.55-.81,1.07,1.07,0,0,1,1.06-.12,5.6,5.6,0,0,1,1.46,1.08c.43.41.83.83,1.22,1.26.78.85,1.57,1.7,2.32,2.58a13.12,13.12,0,0,1,2,2.93,11,11,0,0,1,.91,3.44,14.43,14.43,0,0,1-1.11,6.94A15.68,15.68,0,0,1,341,292.5a4.64,4.64,0,0,1-3,2.1,4.92,4.92,0,0,1-3.51-.93,6.74,6.74,0,0,1-2.34-2.73,8.5,8.5,0,0,1-.59-3.5c0-1.18.11-2.33.21-3.48A52.36,52.36,0,0,1,332.93,277.11Z" transform="translate(-189.16 -207.61)"/><path d="M205.9,420.74a3.94,3.94,0,0,0-.47,2.24c0,.78.23,1.58.34,2.4a12,12,0,0,1-.31,4.95,23.48,23.48,0,0,1-2,4.56,25.78,25.78,0,0,1-2.67,4.21,23,23,0,0,0-1.43,1.9c-.38.63-.26.82,0,1.24a4.37,4.37,0,0,0,1.64.93,17.82,17.82,0,0,0,2.21.59c1.51.31,3.17.57,4.71.79.78.1,1.55.17,2.33.22s1.56.07,2.47.14a7.58,7.58,0,0,1,3.08.85,9.43,9.43,0,0,1,1.36.9,7.76,7.76,0,0,1,1.22,1.27c.72,1,1,1.77,1.38,2.3a10.09,10.09,0,0,0,1.22,1.51,12.8,12.8,0,0,0,3.23,2.43c1.2.65,2.65,1.19,4.14,1.88a35.16,35.16,0,0,0,4.17,1.61,7,7,0,0,0,1.67.31,3.18,3.18,0,0,0,1.07-.12,1.73,1.73,0,0,0,.72-.45,4.33,4.33,0,0,0,.76-1.08,32.77,32.77,0,0,0,1.6-4,28.09,28.09,0,0,0,1.33-4.15l.93-4.77c.71-3.28,1.68-6.45,2.57-9.65.22-.8.46-1.6.71-2.39s.51-1.58.81-2.37l.91-2.33c.29-.75.61-1.51.79-2.07.1-.29.14-.47.17-.58a.84.84,0,0,0,0-.43,2.91,2.91,0,0,0-.67-1.27,9.09,9.09,0,0,0-3.28-2.22,18.79,18.79,0,0,0-2.11-.79,10.3,10.3,0,0,0-2.08-.47,31.25,31.25,0,0,0-4.67-.1c-1.61.05-3.23.14-4.86.23s-3.24.17-4.85.38l-2.44.3a9.77,9.77,0,0,1-2.56-.17,38.5,38.5,0,0,1-4.78-1.26,11.3,11.3,0,0,0-2.33-.46,6.23,6.23,0,0,0-2.3.3A6.36,6.36,0,0,0,205.9,420.74Zm-.35-.2a7.66,7.66,0,0,1,6.44-3.28,10.5,10.5,0,0,1,2.44.44,33,33,0,0,0,4.73,1.08,9.45,9.45,0,0,0,2.37.07c.79-.11,1.6-.27,2.4-.4,3.23-.5,6.46-.88,9.7-1.23a35,35,0,0,1,4.92-.23,17.39,17.39,0,0,1,4.84,1.06,11.66,11.66,0,0,1,4.3,2.49,5.62,5.62,0,0,1,1.42,2.13,4.15,4.15,0,0,1,.12,2.58c-.42,1.62-1,3.13-1.44,4.69s-.8,3.15-1.21,4.72c-.75,3.16-1.54,6.31-2.14,9.5l-.87,4.81a30.66,30.66,0,0,1-1.41,4.73,31,31,0,0,1-1.94,4.54,8.17,8.17,0,0,1-1.55,2,5.75,5.75,0,0,1-2.26,1.27,8.3,8.3,0,0,1-5-.38,63.77,63.77,0,0,1-8.85-4.3,15.57,15.57,0,0,1-3.72-3.29,12.22,12.22,0,0,1-1.4-2.08c-.39-.73-.67-1.51-1.09-2.14a5.32,5.32,0,0,0-1.69-1.54,5.44,5.44,0,0,0-2.19-.71c-1.59-.21-3.24-.37-4.85-.71s-3.18-.7-4.77-1.14a19.15,19.15,0,0,1-2.34-.82,5.08,5.08,0,0,1-2.07-1.49,2.12,2.12,0,0,1-.4-1.31,2.3,2.3,0,0,1,.51-1.24c.5-.69,1.07-1.26,1.58-1.88a26.58,26.58,0,0,0,2.75-4,19.66,19.66,0,0,0,2.06-4.35,11.71,11.71,0,0,0,.37-4.75c-.09-.8-.27-1.59-.31-2.43A4.42,4.42,0,0,1,205.55,420.54Z" transform="translate(-189.16 -207.61)"/><path d="M256.44,430.19c-1,1.41-.75,3.26-1.21,5a28.43,28.43,0,0,1-1.7,5,24.83,24.83,0,0,0-2,4.74,20,20,0,0,0-.74,5,6.56,6.56,0,0,0,1.58,4.34,8.81,8.81,0,0,0,3.89,2.48,18.5,18.5,0,0,0,4.76.92,11.48,11.48,0,0,0,2.28-.07c.75-.1,1.53-.31,2.55-.46a9.72,9.72,0,0,1,3.27.09,11.81,11.81,0,0,1,3,1,15.9,15.9,0,0,1,2.51,1.72,3.49,3.49,0,0,0,1.46.69,6.65,6.65,0,0,0,3.62-.37,13.22,13.22,0,0,0,3.55-2.11,10.2,10.2,0,0,0,2.5-3.07,14.13,14.13,0,0,0,1.35-3.85,16.26,16.26,0,0,0,.14-4.29c-.13-1.56-.34-3.37-.59-4.82-.12-.77-.26-1.48-.46-2.28a25.88,25.88,0,0,1-.62-2.94,18,18,0,0,1-.12-3.24,25.87,25.87,0,0,1,.31-3,21.77,21.77,0,0,1,1.85-5.83,18.13,18.13,0,0,1,1.63-2.78c.65-.9,1.32-1.61,1.85-2.22a37.66,37.66,0,0,0,3-3.78c.49-.72,1-1.42,1.42-2.1a13.32,13.32,0,0,0,1-1.81c.11-.24.16-.41.18-.46s.06,0,.05-.06-.28-.43-.82-.67a7.78,7.78,0,0,0-2-.55,6.67,6.67,0,0,0-1.05-.09,5.62,5.62,0,0,0-1,0,9.94,9.94,0,0,0-4.08,1.76c-1.39.92-2.8,2-4.21,3l-8.55,6.14a51.89,51.89,0,0,1-4.4,2.95,26.61,26.61,0,0,1-4.92,2c-1.68.55-3.42.88-5.09,1.29a9.64,9.64,0,0,0-2.39.89A5.71,5.71,0,0,0,256.44,430.19Zm-.33-.21A6,6,0,0,1,258,428.1a9.71,9.71,0,0,1,2.48-1c1.7-.45,3.41-.79,5.05-1.36.82-.28,1.63-.58,2.42-.93a15.12,15.12,0,0,0,2.29-1.2c1.46-.92,2.84-2,4.22-3.06,2.73-2.16,5.44-4.37,8.13-6.59,1.34-1.12,2.68-2.25,4.08-3.31a12.16,12.16,0,0,1,4.75-2.41,10.84,10.84,0,0,1,5.33.37,4.23,4.23,0,0,1,2.25,1.63,3.15,3.15,0,0,1,.22,2.78,25.92,25.92,0,0,1-2.45,4.71,33.93,33.93,0,0,1-3,4.34,17,17,0,0,0-4.22,9.21,18.57,18.57,0,0,0-.11,5.1c.26,1.66.88,3.35,1.14,5.1s.44,3.49.57,5.25a19.83,19.83,0,0,1-.29,5.32,14.68,14.68,0,0,1-10.3,11.33,9.49,9.49,0,0,1-5.36,0,6.33,6.33,0,0,1-2.35-1.38,12.78,12.78,0,0,0-2-1.57,8.4,8.4,0,0,0-4.84-1.13c-.85.08-1.72.25-2.61.3a12.55,12.55,0,0,1-2.67-.11,20.26,20.26,0,0,1-5.12-1.35,10.22,10.22,0,0,1-4.26-3.18,8,8,0,0,1-1.52-5.08,20.59,20.59,0,0,1,1-5.2,11.3,11.3,0,0,1,1-2.46c.43-.78.85-1.52,1.21-2.31a27.36,27.36,0,0,0,1.74-4.89,24,24,0,0,0,.45-2.56A5.76,5.76,0,0,1,256.11,430Z" transform="translate(-189.16 -207.61)"/><path d="M305.93,417.73a4.58,4.58,0,0,0-1.22,1.38,17.47,17.47,0,0,0-.78,1.75,31.63,31.63,0,0,1-1.68,3.53,30,30,0,0,1-2.12,3.32c-.39.53-.81,1-1.13,1.52a4.45,4.45,0,0,0-.65,1.58,8.12,8.12,0,0,0,1.5,6.56,7.86,7.86,0,0,0,5.89,2.32,20.91,20.91,0,0,0,3.51-.23c.59-.09,1.2-.2,1.81-.31s1.09-.26,1.65-.41l1.82-.55a16,16,0,0,1,2.24-.49,18.71,18.71,0,0,1,4.53-.1,33.15,33.15,0,0,1,4.28.69,20.09,20.09,0,0,1,2.26.69l1,.43a2.38,2.38,0,0,0,.49.18,9.6,9.6,0,0,0,1.29.21,10.29,10.29,0,0,0,1.33.05,2.77,2.77,0,0,0,1.51-.42.88.88,0,0,0,.25-.28,2.41,2.41,0,0,0,.21-.72,4.6,4.6,0,0,0,.05-1.06,3.14,3.14,0,0,0-.14-.73,3.37,3.37,0,0,0-.52-.81c-.32-.4-.83-.95-1.35-1.63a11.68,11.68,0,0,1-2.16-4.8,13.15,13.15,0,0,1,0-4.88,17.71,17.71,0,0,1,1.31-4.35,15.59,15.59,0,0,1,2.41-3.82l1.2-1.37c.13-.13.11-.23.11.18a1.11,1.11,0,0,0,.24.63c.29.37.49.39.5.39s-.21-.11-.43-.16a5.57,5.57,0,0,0-.8-.13c-.57-.08-1.19-.1-1.8-.13-1.25,0-2.53,0-3.8.05s-2.54.16-3.8.32-2.55.37-3.91.47a22,22,0,0,1-4-.14,24.46,24.46,0,0,0-3.82-.44C310.72,416.16,308,416.19,305.93,417.73Zm-.24-.31a8.31,8.31,0,0,1,3.63-1.51,33.87,33.87,0,0,1,3.88-.44,29.2,29.2,0,0,1,3.89.27,21.31,21.31,0,0,0,3.83-.05c1.25-.15,2.5-.48,3.78-.73s2.56-.46,3.84-.63,2.57-.31,3.87-.4c.65,0,1.31-.07,2-.06a6.52,6.52,0,0,1,2,.28,1.25,1.25,0,0,1,.53.39,1.31,1.31,0,0,1,.18.63,2.19,2.19,0,0,1-.38,1.05c-.37.58-.77,1.08-1.13,1.6a13.56,13.56,0,0,0-1.77,3.34,12.84,12.84,0,0,0-.62,7.42,8.18,8.18,0,0,0,1.63,3.3,16.42,16.42,0,0,1,2.49,3.07,7.27,7.27,0,0,1,.55,4,5.38,5.38,0,0,1-1.89,3.61,6.5,6.5,0,0,1-3.86,1.24,13,13,0,0,1-4-.54c-.67-.21-1.23-.56-1.8-.79a16.37,16.37,0,0,0-1.78-.63,28,28,0,0,0-3.75-.78,17.77,17.77,0,0,0-3.78-.16,32.46,32.46,0,0,0-3.78.7,28.38,28.38,0,0,1-3.89.42,22.47,22.47,0,0,1-3.93-.14,12.31,12.31,0,0,1-3.79-1.1,8.1,8.1,0,0,1-3.05-2.55,9.53,9.53,0,0,1-1.15-7.66,5.19,5.19,0,0,1,.87-1.82c.39-.54.84-1,1.24-1.5a23.66,23.66,0,0,0,2.21-3.14,26.92,26.92,0,0,0,1.74-3.43,18.91,18.91,0,0,1,.82-1.78A4.91,4.91,0,0,1,305.69,417.42Z" transform="translate(-189.16 -207.61)"/><path d="M349,406.79a5.68,5.68,0,0,0-3.24,2.23,23.26,23.26,0,0,0-2.14,3.52c-.65,1.23-1.19,2.5-1.78,3.76s-1.17,2.53-1.66,3.79a13.32,13.32,0,0,0-.87,3.87,17.78,17.78,0,0,0,.07,3.93,17.19,17.19,0,0,0,2.68,7.15,14.06,14.06,0,0,0,5.18,4.92,13.91,13.91,0,0,0,3.21,1.23,18.7,18.7,0,0,0,3.44.41,17.23,17.23,0,0,0,6.75-1.19c.51-.2,1-.45,1.62-.75s1.3-.65,2.09-1a19,19,0,0,1,5-1.21,22.93,22.93,0,0,1,2.49-.11l1.05,0c.27,0,.38,0,.41,0l.19,0a3.07,3.07,0,0,0,.41-.2,2.88,2.88,0,0,0,.82-.67,9.2,9.2,0,0,0,1.6-2.53c.24-.54.46-1.11.68-1.72l.33-1c.09-.29.2-.56.28-.85a22.84,22.84,0,0,0,.77-3.53,29.36,29.36,0,0,0,.18-3.84,19.51,19.51,0,0,0-.88-7.41,9.42,9.42,0,0,0-.79-1.59,15.45,15.45,0,0,0-1.09-1.54,5.27,5.27,0,0,0-2.67-1.94,3.14,3.14,0,0,0-1.56-.08c-.59.1-1.29.32-2,.46a13.52,13.52,0,0,1-4.44.08,33.22,33.22,0,0,1-4.13-1c-1.34-.37-2.69-.86-4-1.32s-2.62-.84-4-1.19c-.67-.17-1.34-.35-2-.5A6.2,6.2,0,0,0,349,406.79Zm-.08-.39c5.71.48,10.77,3.05,16.26,3.73a11.69,11.69,0,0,0,4-.32c.66-.17,1.3-.42,2-.61a4.77,4.77,0,0,1,2.19-.09,7,7,0,0,1,3.7,2.13,13.85,13.85,0,0,1,2.51,3.41,20.77,20.77,0,0,1,1.82,8.2,25.48,25.48,0,0,1-.47,8.39,37.52,37.52,0,0,1-1.24,4,12.6,12.6,0,0,1-2.1,3.72,6.61,6.61,0,0,1-3.69,2.3,13,13,0,0,1-2.14.06,19.76,19.76,0,0,0-2,.1,15,15,0,0,0-3.94.92c-1.26.49-2.49,1.19-3.83,1.66a20.2,20.2,0,0,1-8.37,1,16.1,16.1,0,0,1-13.51-9,19.07,19.07,0,0,1-.77-16.34c.57-1.28,1.22-2.51,1.86-3.75s1.28-2.47,1.95-3.69a25.93,25.93,0,0,1,2.27-3.54A6.1,6.1,0,0,1,348.92,406.4Z" transform="translate(-189.16 -207.61)"/><path d="M201.28,462.64a5.89,5.89,0,0,0-1.17,3.29,10.15,10.15,0,0,0,.52,3.53,12.37,12.37,0,0,0,3.84,5.87,38,38,0,0,0,6.06,3.89c2.07,1.16,4.29,1.81,6.71,2.92a42.38,42.38,0,0,1,6.71,3.93,5.93,5.93,0,0,0,1.21.7c.45.21,1,.44,1.46.61a19.33,19.33,0,0,0,3,.78,11.77,11.77,0,0,0,2.89.13,16.37,16.37,0,0,0,2.9-.54,5.2,5.2,0,0,0,2-.9,3.74,3.74,0,0,0,1.09-1.48c.6-1.24.73-3.44.88-5.9a29.5,29.5,0,0,0,.09-3.16,4.73,4.73,0,0,0-.42-1.94c-.08-.15-.27-.36-.24-.39s0-.06-.11-.11a3.26,3.26,0,0,0-.55-.14c-1-.16-2.41-.28-3.66-.49a50.21,50.21,0,0,1-7.46-1.95l-7-2.32c-1.17-.38-2.36-.78-3.54-1.23a13.69,13.69,0,0,1-3.45-1.84,18.41,18.41,0,0,1-2.75-2.61,9.76,9.76,0,0,0-2.57-2.42,4.73,4.73,0,0,0-3.4-.17A6.28,6.28,0,0,0,201.28,462.64Zm-.31-.25a6.59,6.59,0,0,1,3.1-2.11,5.22,5.22,0,0,1,3.75.1,10.86,10.86,0,0,1,2.87,2.41,18.08,18.08,0,0,0,2.75,2.35,11.15,11.15,0,0,0,3.28,1.46c1.16.34,2.35.64,3.54.92l7.17,1.63a52.42,52.42,0,0,0,7.21,1.21c1.22.1,2.42.12,3.67.19a4.91,4.91,0,0,1,1.91.44,4.54,4.54,0,0,1,1.51,1.27,7.39,7.39,0,0,1,1.3,3.6,24.56,24.56,0,0,1,.12,3.73c-.1,2.43-.05,5-1.06,7.38a7.59,7.59,0,0,1-2.36,3,8.74,8.74,0,0,1-3.5,1.52,15.77,15.77,0,0,1-7.45,0,18.32,18.32,0,0,1-3.53-1.26,13.68,13.68,0,0,1-3.18-2,41.33,41.33,0,0,0-5.93-4.25c-2.1-1.2-4.4-2.17-6.44-3.58a43.05,43.05,0,0,1-5.88-4.48,13.61,13.61,0,0,1-3.72-6.38,11.07,11.07,0,0,1-.43-3.71A6.24,6.24,0,0,1,201,462.39Z" transform="translate(-189.16 -207.61)"/><path d="M252.33,468a5.93,5.93,0,0,0-1.63,3.66,23.36,23.36,0,0,0,0,4.18,14.56,14.56,0,0,0,.66,4.06,9.55,9.55,0,0,0,2.07,3.38,11.18,11.18,0,0,0,3.22,2.31,16.39,16.39,0,0,0,3.72,1.36,11.54,11.54,0,0,0,3.81.08,20.6,20.6,0,0,1,4.57-.16,18.19,18.19,0,0,1,4.68,1.14,12.06,12.06,0,0,1,2.28,1.2l1.74,1.14a29.09,29.09,0,0,0,3.43,1.77l3.77,1.61a14.3,14.3,0,0,0,3.3,1,6.73,6.73,0,0,0,1.42,0,12.57,12.57,0,0,0,1.56-.2,9.81,9.81,0,0,0,2.84-1,5.46,5.46,0,0,0,1.84-1.68,5.09,5.09,0,0,0,.84-2.31,8.65,8.65,0,0,0-.17-3,12.78,12.78,0,0,0-1.08-3.06,6.5,6.5,0,0,0-.71-1.11,7.78,7.78,0,0,0-1.23-1.08,11.73,11.73,0,0,1-1.93-1.87,17,17,0,0,1-1.46-2.07,18.71,18.71,0,0,1-2-4.48c-.23-.74-.39-1.49-.54-2-.07-.29-.14-.48-.17-.61s0-.12,0-.12,0-.07-.07-.11,0-.09-.14-.06a4.8,4.8,0,0,0-1.49.57,15.28,15.28,0,0,1-4.46,1.54,9.49,9.49,0,0,1-1.18.14,8.52,8.52,0,0,1-1.25,0,17.14,17.14,0,0,1-2.3-.34c-2.86-.64-5.51-1.45-8.28-2.14-1.38-.36-2.76-.75-4.11-1.25s-2.64-1.17-3.9-1.74a7.35,7.35,0,0,0-4-.51A6.43,6.43,0,0,0,252.33,468Zm-.28-.29a6.8,6.8,0,0,1,3.9-1.79,7.91,7.91,0,0,1,4.27.45,39.21,39.21,0,0,0,3.91,1.55,37.46,37.46,0,0,0,4.08,1c2.76.55,5.53,1.14,8.3,1.57a10.92,10.92,0,0,0,7.87-1.79,9,9,0,0,1,2-1,2.66,2.66,0,0,1,2.27.36,3.57,3.57,0,0,1,1.27,1.88l.7,2a16.17,16.17,0,0,0,1.92,3.66,11.77,11.77,0,0,0,2.83,3A13,13,0,0,1,297,480a8.74,8.74,0,0,1,1.34,1.75,15.18,15.18,0,0,1,1.66,4,12.07,12.07,0,0,1,.37,4.32,9,9,0,0,1-1.45,4.13,9.35,9.35,0,0,1-3.27,2.92,13.18,13.18,0,0,1-4.13,1.35,12,12,0,0,1-4.34-.06,19.08,19.08,0,0,1-4-1.5,48.81,48.81,0,0,1-7.42-4.18,21.49,21.49,0,0,0-3.42-2.38,15.64,15.64,0,0,0-3.94-1.27,19.86,19.86,0,0,0-4.16-.17,13.43,13.43,0,0,1-4.27-.49,18.16,18.16,0,0,1-3.91-1.77,13.36,13.36,0,0,1-3.31-2.73,10.42,10.42,0,0,1-2.06-3.78,16.71,16.71,0,0,1-.52-4.25,25.3,25.3,0,0,1,.08-4.26A6.4,6.4,0,0,1,252.05,467.73Z" transform="translate(-189.16 -207.61)"/><path d="M306.15,450.44a17.62,17.62,0,0,0-7.37,5.79,13.28,13.28,0,0,0-1.9,4.26,13.13,13.13,0,0,0-.42,4.57,9.13,9.13,0,0,0,.45,2.21,6.07,6.07,0,0,0,1,1.87c.9,1.15,2.09,2.34,3.14,3.56s2.13,2.48,3.15,3.73,2,2.5,3,3.82c.5.66,1,1.34,1.48,2.09a18.68,18.68,0,0,1,1.29,2.35,42.42,42.42,0,0,1,1.84,4.73,6.93,6.93,0,0,0,.75,1.6,1.74,1.74,0,0,0,.8.58,5.94,5.94,0,0,0,2.95.29,4.51,4.51,0,0,0,1.42-.38c.4-.18.85-.48,1.69-1a10.49,10.49,0,0,1,1.57-.76,8.44,8.44,0,0,1,1.92-.48,8.18,8.18,0,0,1,2,0,5.87,5.87,0,0,1,1.22.27c.35.11.61.21.8.28a16.59,16.59,0,0,0,1.95.66l2.22.57a20,20,0,0,0,2,.39,3.15,3.15,0,0,0,.92,0,.85.85,0,0,0-.3.19.8.8,0,0,0-.2.27,3.19,3.19,0,0,0,.17-1c0-.31,0-.66,0-1s0-.8,0-1.09a9.84,9.84,0,0,0-.18-1.78,14.4,14.4,0,0,0-.52-1.82,20.16,20.16,0,0,1-.8-2.77,16,16,0,0,1,.08-6,19.66,19.66,0,0,1,1.86-5.2l.59-1.14.62-1.14a19,19,0,0,1,1.57-2.33,5.75,5.75,0,0,0,1-1.42,9.37,9.37,0,0,0,.58-1.85,10.64,10.64,0,0,0,.13-4,7.81,7.81,0,0,0-1.59-3.56,10.31,10.31,0,0,0-3.38-2.55,11.86,11.86,0,0,0-4.2-1.49c-1.55-.26-3.19-.55-4.77-.84s-3.18-.68-4.74-1.13a20.12,20.12,0,0,0-4.59-1.17A20.35,20.35,0,0,0,306.15,450.44Zm-.17-.37A20.83,20.83,0,0,1,315.4,448a23.68,23.68,0,0,1,4.73,1c1.55.38,3.13.67,4.71.91s3.16.4,4.77.55a15.63,15.63,0,0,1,2.41.43,16,16,0,0,1,2.28.87,12,12,0,0,1,4.1,2.67,9.81,9.81,0,0,1,2.37,4.3,13,13,0,0,1,.23,4.89,11.85,11.85,0,0,1-.55,2.41,7.64,7.64,0,0,1-1.2,2.17,21.74,21.74,0,0,0-2.19,4.2,19.12,19.12,0,0,0-1.36,4.52,12.53,12.53,0,0,0,.08,4.65c.33,1.49,1.15,2.93,1.49,4.57a20.13,20.13,0,0,1,.32,4.89,6.74,6.74,0,0,1-.49,2.5,3.1,3.1,0,0,1-2,1.73,6.33,6.33,0,0,1-2.56.05,20.68,20.68,0,0,1-2.39-.51,34.13,34.13,0,0,1-4.64-1.46,4.05,4.05,0,0,0-1.05-.32,5.24,5.24,0,0,0-1.12,0,5.5,5.5,0,0,0-2.13.72,16.58,16.58,0,0,1-2.19,1.1,8.56,8.56,0,0,1-2.45.51,8.4,8.4,0,0,1-4.84-1,4.93,4.93,0,0,1-1.78-1.82,11.1,11.1,0,0,1-.87-2.32,36.6,36.6,0,0,0-1.43-4.56,20.54,20.54,0,0,0-2.26-4.17c-1.79-2.64-3.64-5.28-5.57-7.82-1-1.29-2-2.48-2.94-3.84a9.37,9.37,0,0,1-1.34-4.71,15.11,15.11,0,0,1,2.8-9.19A18.11,18.11,0,0,1,306,450.07Z" transform="translate(-189.16 -207.61)"/><path d="M348.28,460.9a6.76,6.76,0,0,0-2.63,2.49,13.48,13.48,0,0,0-1.41,3.42,26,26,0,0,0-.73,3.66,19.68,19.68,0,0,0-.05,3.68,16.62,16.62,0,0,0,.66,3.58,26.64,26.64,0,0,0,1.28,3.41,22.8,22.8,0,0,0,1.69,3.18,7,7,0,0,0,2.05,2.21,1.26,1.26,0,0,0,.79.2c.2-.05,0-.07.26-.27a12,12,0,0,0,.92-1.08l1.15-1.46a53.83,53.83,0,0,1,5.37-5.82c.93-.87,1.88-1.76,2.95-2.64a22.91,22.91,0,0,1,3.53-2.48,34.65,34.65,0,0,1,7.78-3.07c1.31-.34,2.65-.63,4-.86.67-.12,1.36-.2,2.05-.28l1.6-.14s-.18.09,0,0,.21-.09.34-.18a3.68,3.68,0,0,0,.78-.69,7.42,7.42,0,0,0,1.34-2.25,6.65,6.65,0,0,0,.21-5,3.61,3.61,0,0,0-1.58-1.68,10.17,10.17,0,0,0-3-1,35.53,35.53,0,0,0-3.59-.45,28.21,28.21,0,0,0-3.65-.15,33.59,33.59,0,0,0-7.31,1.1,35.77,35.77,0,0,0-3.57,1.1,18.21,18.21,0,0,1-3.74,1,19.59,19.59,0,0,1-3.83.17c-.64,0-1.27-.12-1.87-.12A4,4,0,0,0,348.28,460.9Zm-.18-.36a4.52,4.52,0,0,1,1.91-.47c.66,0,1.28.07,1.9.09a17.17,17.17,0,0,0,3.72-.26,15.14,15.14,0,0,0,3.56-1.11c1.16-.49,2.35-.94,3.57-1.32a38.84,38.84,0,0,1,7.41-1.69,30.34,30.34,0,0,1,3.8-.2,37.28,37.28,0,0,1,3.81.1,13.07,13.07,0,0,1,3.78.83,6.41,6.41,0,0,1,3,2.46,9.3,9.3,0,0,1,.67,7.59,10.83,10.83,0,0,1-1.74,3.48,8,8,0,0,1-1.37,1.42,4.58,4.58,0,0,1-1.82.94,48.92,48.92,0,0,0-7.41,1.37,27.9,27.9,0,0,0-13.05,7,58,58,0,0,0-5.48,5.15,21.29,21.29,0,0,1-2.76,2.68,2.73,2.73,0,0,1-2,.51,3.86,3.86,0,0,1-1.85-.83,9.32,9.32,0,0,1-2.33-3.1,25.74,25.74,0,0,1-1.46-3.53,22.69,22.69,0,0,1-1.46-7.47,20.34,20.34,0,0,1,.27-3.82,31.25,31.25,0,0,1,.92-3.7,14.41,14.41,0,0,1,1.56-3.5A7.16,7.16,0,0,1,348.1,460.54Z" transform="translate(-189.16 -207.61)"/><path d="M220.19,500.41a2.9,2.9,0,0,0,0,2.46,12.92,12.92,0,0,0,1.26,2.38c.47.77,1,1.48,1.59,2.21a21.7,21.7,0,0,0,1.74,2c2.58,2.44,5.67,4.57,8.59,6.82s5.92,4.43,8.76,6.8l2.06,1.81c.65.58,1.4,1.2,1.81,1.5l.08.05s0,0-.07-.05a1.82,1.82,0,0,0-.4-.16,2.47,2.47,0,0,0-.92-.08,2.14,2.14,0,0,0-1.64.85c0,.06,0,0,0,0s0,0,0,0l.07-.29a7.77,7.77,0,0,0,.14-.88,14.08,14.08,0,0,0,.1-2.2,20.67,20.67,0,0,0-.12-2.35c-.08-.78-.15-1.58-.29-2.29a14.28,14.28,0,0,0-.61-2.18c-.53-1.5-1.24-3.19-2-4.85s-1.4-3.42-2.15-4.88a9.27,9.27,0,0,0-1.28-2,9.83,9.83,0,0,0-1.82-1.64,19.16,19.16,0,0,0-4.77-2.2,46.66,46.66,0,0,0-5.24-1.52,12.09,12.09,0,0,0-2.67-.26A2.88,2.88,0,0,0,220.19,500.41Zm-.34-.22a2.51,2.51,0,0,1,1.2-.87,5.22,5.22,0,0,1,1.4-.25,13.54,13.54,0,0,1,2.78.16c1.83.27,3.61.73,5.39,1.16a23.15,23.15,0,0,1,5.24,1.78,11.45,11.45,0,0,1,4.19,3.66c1.07,1.53,1.94,3.13,2.87,4.71s1.84,3.17,2.62,4.86a18.81,18.81,0,0,1,1.55,5.34,22.14,22.14,0,0,1,.18,5.58,7.08,7.08,0,0,1-.8,2.77,1.88,1.88,0,0,1-1.34,1,2.13,2.13,0,0,1-1.49-.63c-1.44-1.23-2.64-2.58-3.94-3.87l-7.83-7.69-3.93-3.83c-1.3-1.29-2.63-2.54-3.83-4a22,22,0,0,1-1.63-2.24c-.5-.77-1-1.54-1.47-2.33a15.22,15.22,0,0,1-1.2-2.51A3.3,3.3,0,0,1,219.85,500.19Z" transform="translate(-189.16 -207.61)"/><path d="M253.3,494.35a3.19,3.19,0,0,0-1.39,1.53,7.46,7.46,0,0,0-.62,2.08,17.59,17.59,0,0,0-.09,4.41,10.81,10.81,0,0,0,1.29,4.14c.65,1.34,1.34,2.67,2,4,1.37,2.67,2.83,5.31,4.25,8l2.18,4c.7,1.35,1.33,2.76,1.94,4.15.3.67.61,1.4.88,1.89s.28.34.69.57a.69.69,0,0,0,.37.06l.63,0,2.14-.25c1.55-.16,3.12-.27,4.68-.33a42.36,42.36,0,0,1,4.77,0,17.87,17.87,0,0,1,2.72.42,13.2,13.2,0,0,1,2.82,1.07,11.57,11.57,0,0,1,1.36.83c.47.34.88.72,1.08.87a9.26,9.26,0,0,0,1.28.8,9.54,9.54,0,0,0,3,1.07,2.35,2.35,0,0,0,.88,0,1,1,0,0,0,.44-.24,4.36,4.36,0,0,0,1.11-2.09,13.26,13.26,0,0,0,.36-1.67,7.53,7.53,0,0,0,.09-1.53c-.07-2-1.16-5-2-7.71l-.71-2c-.24-.64-.5-1.22-.85-2.1a11.67,11.67,0,0,1-.72-2.75,17.23,17.23,0,0,1-.23-2.61,15.84,15.84,0,0,1,.18-2.6l.34-2c0-.41.09-.39-.07-.68a.67.67,0,0,0-.18-.25,1.69,1.69,0,0,0-.55-.22,15.07,15.07,0,0,0-2-.29c-.75-.07-1.53-.16-2.3-.27a39.13,39.13,0,0,1-4.58-.94,53.49,53.49,0,0,1-8.56-3.26c-2.74-1.22-5.5-2.38-8.27-3.52l-4.17-1.67c-.69-.28-1.38-.57-2.08-.79A2.72,2.72,0,0,0,253.3,494.35Zm-.17-.36a3.18,3.18,0,0,1,2.33,0c.73.23,1.43.51,2.12.79,1.4.55,2.81,1.05,4.21,1.58,2.8,1,5.62,2.06,8.4,3.16a49.73,49.73,0,0,0,8.52,2.66,36.34,36.34,0,0,0,4.42.57c1.48.12,3,0,4.5.22a3.4,3.4,0,0,1,2.16,1,3.22,3.22,0,0,1,.86,2.25c0,.79-.11,1.53-.16,2.27a14.55,14.55,0,0,0,0,2.19,13.3,13.3,0,0,0,1,4.25c.65,1.31,1.33,2.69,1.87,4.09s1.08,2.8,1.58,4.22a19,19,0,0,1,1.09,4.44,13.84,13.84,0,0,1-.48,4.58,8.21,8.21,0,0,1-2.29,4.05,5,5,0,0,1-2.15,1.1,6.11,6.11,0,0,1-2.37.07,12.7,12.7,0,0,1-4.31-1.63,10.16,10.16,0,0,1-1.9-1.33,8.25,8.25,0,0,0-1.72-1.31,10.5,10.5,0,0,0-4.14-1.24,64.56,64.56,0,0,0-8.91-.25c-.75,0-1.49.08-2.26.09a4.14,4.14,0,0,1-2.31-.55,3.64,3.64,0,0,1-1.57-1.81c-.31-.71-.53-1.42-.78-2.13-.5-1.41-1-2.81-1.57-4.19l-1.86-4.09-3.7-8.17c-.62-1.36-1.25-2.72-1.85-4.1a20.74,20.74,0,0,1-.79-2.13,10.9,10.9,0,0,1-.38-2.26,19.1,19.1,0,0,1,.2-4.53,7.52,7.52,0,0,1,.68-2.19A3.56,3.56,0,0,1,253.13,494Z" transform="translate(-189.16 -207.61)"/><path d="M305.62,501.25a7.06,7.06,0,0,0-3,2.28,11.48,11.48,0,0,0-1.76,3.36,13.25,13.25,0,0,0-.67,3.73c0,.31,0,.63,0,.93a4,4,0,0,0,.16.84c.16.6.37,1.21.58,1.82.87,2.43,1.91,4.84,2.88,7.25.49,1.2,1,2.39,1.54,3.59s1.07,2.32,1.56,3.77c.24.76.38,1.43.53,2.11s.26,1.38.36,2.05.19,1.35.3,1.8a1.1,1.1,0,0,0,.16.38c0,.05.08,0,.15.1a3.79,3.79,0,0,0,1.92.69,5.65,5.65,0,0,0,2.39-.31,2.44,2.44,0,0,0,.81-.47,2.49,2.49,0,0,0,.55-.67c.43-.66,1-2,2-3.36a15.83,15.83,0,0,1,3.47-3.51,28.48,28.48,0,0,1,3.76-2.32c1.18-.61,2.48-1.26,3.83-1.8.33-.14.68-.27,1-.37l.64-.24c.08,0-.07.08-.05.07s.12-.11.1-.08,0,.1,0,.06a1.27,1.27,0,0,0,.12-.45c.1-.53.21-1.35.39-2.11a21,21,0,0,1,1.53-4.36,12.85,12.85,0,0,1,1.18-2,13.76,13.76,0,0,0,.86-1.35c.12-.24.25-.49.37-.75l.4-.87c.27-.58.52-1.14.73-1.66a6.07,6.07,0,0,0,.63-2.64A4.34,4.34,0,0,0,334,504.3a11.07,11.07,0,0,0-2.57-2.22l-.79-.5-.77-.44-.8-.4-.84-.33a17.31,17.31,0,0,0-7.33-.92,18.05,18.05,0,0,0-3.72.68,24.73,24.73,0,0,1-3.83,1,18.73,18.73,0,0,1-4,.14C308.06,501.24,306.8,500.75,305.62,501.25Zm-.13-.37a4.16,4.16,0,0,1,2-.24c.66.09,1.28.2,1.92.23a16.46,16.46,0,0,0,3.84-.23,20.06,20.06,0,0,0,3.68-1.15,20.73,20.73,0,0,1,11.69-.52,17.15,17.15,0,0,1,3.66,1.49,13.52,13.52,0,0,1,3.25,2.28,6.94,6.94,0,0,1,2,3.49,7.84,7.84,0,0,1-.35,4c-.41,1.27-.84,2.47-1.34,3.71s-1.32,2.31-1.79,3.46a17.61,17.61,0,0,0-1.1,3.65c-.12.63-.18,1.26-.26,1.92a4.44,4.44,0,0,1-.62,2,3.9,3.9,0,0,1-1.57,1.44c-.63.3-1.23.49-1.82.75-1.19.5-2.34,1.08-3.48,1.69a16.4,16.4,0,0,0-6,4.6c-.77,1-1.35,2.16-2.15,3.26a6.1,6.1,0,0,1-3.35,2.28,8.5,8.5,0,0,1-4,.1,6.26,6.26,0,0,1-3.51-2,3.69,3.69,0,0,1-.76-2c-.07-.68-.08-1.32-.13-2a25.57,25.57,0,0,0-.48-3.82c-.31-1.22-.77-2.46-1.16-3.69l-1.22-3.71c-.79-2.49-1.6-5-2.34-7.46-.18-.63-.36-1.26-.5-1.91a5.36,5.36,0,0,1-.13-1c0-.34,0-.67.06-1a15.46,15.46,0,0,1,.87-3.85,12.35,12.35,0,0,1,1.94-3.45A7.36,7.36,0,0,1,305.49,500.88Z" transform="translate(-189.16 -207.61)"/><path d="M350.06,505.08a16.9,16.9,0,0,0-6.17,5.57,32.42,32.42,0,0,0-3.91,7.41,25.73,25.73,0,0,0-1.27,3.94,5.75,5.75,0,0,0,.16,3.54,4.1,4.1,0,0,0,2.36,2.12,27.2,27.2,0,0,0,3.8,1.15,21.24,21.24,0,0,0,7.61.94,8.62,8.62,0,0,0,3.06-.93,13.59,13.59,0,0,0,2.05-2.17c1.63-2,3.17-4.37,4.68-6.62s2.93-4.65,4.41-7.06l4.49-7.14c1.47-2.34,2.9-4.65,4.17-7.08s2.66-4.89,2.91-6.78a5,5,0,0,0,0-1.39,6.61,6.61,0,0,0-.44-1.5,3.36,3.36,0,0,0-1.69-1.93,3.29,3.29,0,0,0-1.35-.2,7.43,7.43,0,0,0-1.69.36,17.4,17.4,0,0,0-3.53,1.77c-1.16.75-2.34,1.54-3.41,2.38a32.75,32.75,0,0,0-3.13,2.78l-6.06,6A21.1,21.1,0,0,1,350.06,505.08Zm-.16-.37a19.45,19.45,0,0,0,6.82-4.84c2-2.05,3.85-4.16,5.77-6.25,1-1.05,1.95-2.08,3-3s2.19-1.84,3.33-2.7a20.16,20.16,0,0,1,3.67-2.25,10,10,0,0,1,2.09-.67,5.84,5.84,0,0,1,2.24.07,5.52,5.52,0,0,1,3.36,2.8,8.21,8.21,0,0,1,1.11,4.23,13.73,13.73,0,0,1-1,4.23c-.51,1.35-1.1,2.65-1.7,3.94a148.21,148.21,0,0,1-8.39,14.85,100.79,100.79,0,0,1-9.9,13.9c-.48.53-1,1-1.52,1.54a6.72,6.72,0,0,1-1.84,1.25,11.7,11.7,0,0,1-4.27.89,24.15,24.15,0,0,1-8.39-1.76,25.28,25.28,0,0,1-4-1.62,5.82,5.82,0,0,1-2.88-3.26,7.1,7.1,0,0,1,.11-4.35,32.72,32.72,0,0,1,1.57-4,35.45,35.45,0,0,1,4.33-7.37A18.3,18.3,0,0,1,349.9,504.71Z" transform="translate(-189.16 -207.61)"/><path d="M263.79,551.5a10.58,10.58,0,0,1-2.65-5,8.71,8.71,0,0,1,.52-5.82,8.54,8.54,0,0,1,1.86-2.5,9.75,9.75,0,0,1,2.62-1.7,18,18,0,0,1,5.95-1.57,12.49,12.49,0,0,1,3.3.06,17.47,17.47,0,0,1,3.13.76,58.14,58.14,0,0,1,5.44,2.18c1.67.78,3.51,1.61,5.22,2.62a36.22,36.22,0,0,1,5,3.5c.77.66,1.52,1.36,2.24,2.08s1.32,1.38,2,2.17a15.69,15.69,0,0,1,1,1.27,13.25,13.25,0,0,1,1.05,1.65c.08.17.17.34.26.56a6.64,6.64,0,0,1,.26.7l.11.4c0,.17.06.35.08.53a4.45,4.45,0,0,1,0,1.25,4.06,4.06,0,0,1-.54,1.46,4.76,4.76,0,0,1-.5.68,5.84,5.84,0,0,1-.59.51,3,3,0,0,1-.59.35l-.55.23a7.62,7.62,0,0,1-.83.2,7.28,7.28,0,0,1-2.07,0c-.55-.06-1.05-.15-1.53-.24l-2.78-.54c-1.81-.37-3.63-.75-5.43-1-.9-.15-1.79-.28-2.71-.37s-1.89-.2-2.85-.32c-1.92-.22-3.76-.6-5.61-.85s-3.73-.55-5.58-.92a17.74,17.74,0,0,1-2.75-.74A6.57,6.57,0,0,1,263.79,551.5Zm.29-.28a8.82,8.82,0,0,0,5,2c1.83.28,3.69.41,5.55.54s3.73.25,5.58.28,3.73-.1,5.61,0,3.74.19,5.61.35l2.79.24a12.88,12.88,0,0,0,2.7,0c.43-.08.66-.25.71-.55a2,2,0,0,0-.35-1.09,12.82,12.82,0,0,0-1.69-2.11,53.87,53.87,0,0,0-4-3.83,52.93,52.93,0,0,0-9.27-6.12c-1.64-.9-3.26-1.81-5-2.57a12.21,12.21,0,0,0-5.28-1.27,15.69,15.69,0,0,0-5.41.77,7.46,7.46,0,0,0-4.19,3.25,7.84,7.84,0,0,0-.78,5.26A9.42,9.42,0,0,0,264.08,551.22Z" transform="translate(-189.16 -207.61)"/><path d="M308.67,551.89a3.12,3.12,0,0,1,.58-1.93,9.09,9.09,0,0,1,1.27-1.49c.93-.91,1.94-1.72,2.9-2.56a24.14,24.14,0,0,1,3.23-2.37l3.29-2.1a32.23,32.23,0,0,1,3.56-2,11.45,11.45,0,0,1,4.81-1.09,12.33,12.33,0,0,1,1.35.13,8.42,8.42,0,0,1,1.16.22,8.13,8.13,0,0,1,2.72,1.12,6,6,0,0,1,2.57,3.38,5.63,5.63,0,0,1,.17,2.39,7.12,7.12,0,0,1-.49,1.82,15.49,15.49,0,0,1-2.67,3.91c-.89,1-1.75,1.89-2.71,2.81a28.81,28.81,0,0,1-3.24,2.72,10,10,0,0,1-4.5,1.77,10.79,10.79,0,0,1-4.43-.4,26,26,0,0,1-3.74-1.41A22.42,22.42,0,0,1,311,555a8,8,0,0,1-1.52-1.26A3.31,3.31,0,0,1,308.67,551.89Zm.4,0a2.78,2.78,0,0,0,.78,1.54,6.58,6.58,0,0,0,1.46,1.1,16.17,16.17,0,0,0,3.46,1.43c2.39.69,5,1.26,7.32.57s4.06-2.66,5.64-4.59l2.36-3a15.85,15.85,0,0,0,2-3.09,2.37,2.37,0,0,0,.2-1.59,2.33,2.33,0,0,0-1-1.28,8.19,8.19,0,0,0-3.39-1.16c-2.43-.25-4.84.78-7.17,1.67a37.65,37.65,0,0,0-6.83,3.18,32.18,32.18,0,0,0-3.06,2.21C310,549.67,309,550.67,309.07,551.86Z" transform="translate(-189.16 -207.61)"/></svg>