<svg id="Layer_2" data-name="Layer 2" xmlns="http://www.w3.org/2000/svg" viewBox="0 0 452.96 559.28"><defs><style>.cls-1{fill:none;}</style></defs><title>Skivlingar</title><path d="M260.61,272.84c.22,4.32.54,8.64.79,13,.13,2.16.26,4.32.34,6.5s0,4.34,0,6.51c-.13,8.67-.42,17.35-1.38,26-.5,4.34-1.19,8.6-1.63,12.89s-.79,8.59-1.05,12.9c-.5,8.62-.73,17.26-.41,25.85s1.39,17.19,1.47,26-.47,17.41-.84,26.07c-.81,17.31-1.61,34.63-2.91,52-.63,8.65-1.38,17.32-2.27,25.95-.43,4.31-.85,8.58-1.15,12.87s-.56,8.58-.69,12.87c-.25,8.6-.29,17.26-.33,25.91s0,17.32,0,26,.12,17.3.44,25.88c.17,4.28.39,8.58,1,12.64A18.47,18.47,0,0,0,253.4,628a8.22,8.22,0,0,0,1.42,2,8.53,8.53,0,0,0,1.87,1.55c2.87,1.76,7.11,2.41,11.26,2.94s8.53.86,12.85,1.29,8.67.87,13,1.41,8.66,1.18,12.9,1.73,8.55,1.19,12.12.72a29,29,0,0,0,5.66-1.59l1.5-.55c.18-.07.68-.25,1-.34s.68-.17,1-.23c1.24-.24,2.32-.37,3.41-.52,4.28-.54,8.39-1.11,12-2.54a13.22,13.22,0,0,0,4.49-2.78,8.33,8.33,0,0,0,1.43-1.89,8.54,8.54,0,0,0,.46-1.08l.11-.28.13-.41.27-.82c.74-2.16,1.5-4.07,1.94-5.92a15.63,15.63,0,0,0,.35-5.44c-.2-1.67-.83-4.07-1.14-6.27s-.61-4.43-.81-6.63c-.82-8.78-.85-17.45-2.2-25.67a104.68,104.68,0,0,1-1.52-13.25c-.18-4.51,0-8.79-.13-13s-.38-8.53-.73-12.81-.83-8.51-1.43-12.77c-1.19-8.52-2.68-17.05-4.11-25.58s-2.88-17.09-4.39-25.6l-2.32-12.78c-.79-4.25-1.53-8.61-2.08-12.94-1.08-8.61-2.16-17.24-2.71-26a233.35,233.35,0,0,1-.2-26.18c.42-8.7,1.14-17.35,1.92-26l1.21-12.94c.4-4.32.85-8.62,1.07-12.9a98.44,98.44,0,0,0-.23-12.85c-.31-4.28-1.07-8.49-1.77-12.8a68.07,68.07,0,0,1-.93-13.06c.08-4.35.32-8.69.63-13s.76-8.65,1.32-13a102.28,102.28,0,0,1,2.36-12.78,101,101,0,0,0-1.91,12.83c-.41,4.31-.69,8.63-.87,12.95-.3,8.65-.79,17.32.95,25.76.81,4.22,1.7,8.53,2.13,12.88a102.46,102.46,0,0,1,.57,13.11c-.11,4.38-.46,8.71-.75,13l-.87,13c-.57,8.64-1.16,17.27-1.41,25.89a228.14,228.14,0,0,0,.68,25.76c.72,8.56,1.89,17.12,3.08,25.68.6,4.26,1.37,8.44,2.22,12.69l2.49,12.76c1.63,8.53,3.18,17.06,4.74,25.58s3.08,17.07,4.37,25.7c.64,4.31,1.18,8.71,1.56,13s.72,8.73.85,13.13,0,8.79.23,12.94A102.46,102.46,0,0,0,354,575.67c1.54,8.89,1.56,17.63,2.39,26.09.19,2.11.46,4.2.78,6.26.17,1,.34,2.05.57,3.05l.33,1.64c.13.59.21,1.21.29,1.83a21.41,21.41,0,0,1-.46,7.45c-.56,2.37-1.42,4.5-2.07,6.44l-.23.73-.12.36-.17.48a13.3,13.3,0,0,1-3.27,5.19,19.12,19.12,0,0,1-6.44,4.09c-4.52,1.8-9.09,2.38-13.38,3-1.05.14-2.12.28-3,.46a5.75,5.75,0,0,0-.59.14,4.14,4.14,0,0,0-.52.17l-1.55.57a34,34,0,0,1-6.83,1.91,32.41,32.41,0,0,1-7.15.08c-2.26-.19-4.44-.46-6.61-.74-4.34-.58-8.59-1.24-12.85-1.77s-8.54-1-12.84-1.43-8.6-.8-13-1.34c-2.2-.28-4.42-.61-6.7-1.13a23,23,0,0,1-6.94-2.69,14.72,14.72,0,0,1-3.1-2.6,14.32,14.32,0,0,1-2.3-3.3,24.2,24.2,0,0,1-2-7.13c-.62-4.52-.82-8.89-1-13.26-.31-8.74-.32-17.41-.3-26.09s.1-17.35.2-26,.23-17.34.55-26.06c.16-4.37.46-8.73.8-13.07s.81-8.71,1.3-13c1-8.6,1.86-17.18,2.61-25.8,1.54-17.21,2.49-34.5,3.65-51.79.53-8.64,1.16-17.3,1.31-25.87s-.87-17.16-1-25.91.35-17.43,1.08-26.09c.38-4.33.82-8.65,1.39-13s1.36-8.6,2-12.86c1.17-8.53,1.66-17.19,2-25.83.09-2.16.2-4.34.21-6.48S261,288,261,285.83C260.85,281.5,260.68,277.17,260.61,272.84Z" transform="translate(-75.01 -86.44)"/><path d="M77,220.47c.6-4.6,1.12-9.21,1.8-13.81A91.36,91.36,0,0,1,81.7,193a44.29,44.29,0,0,1,2.53-6.53A32.83,32.83,0,0,1,88,180.55a16.36,16.36,0,0,1,1.17-1.33c.4-.43.78-.88,1.21-1.28.84-.81,1.68-1.6,2.48-2.42a51.82,51.82,0,0,0,4.51-5.21,39.4,39.4,0,0,0,6.45-12c.34-1.1.67-2.23,1.11-3.35a25.69,25.69,0,0,1,1.54-3.22,39,39,0,0,1,4.08-5.79,48.16,48.16,0,0,1,10.68-9.21,64,64,0,0,1,6.15-3.48,45.07,45.07,0,0,1,6.59-2.56,15.07,15.07,0,0,0,3-1.29,13.69,13.69,0,0,0,2.58-2,24.46,24.46,0,0,0,4.12-5.24,24.63,24.63,0,0,1,2.06-3,10.32,10.32,0,0,1,3-2.42,17,17,0,0,1,7.16-1.82,27.43,27.43,0,0,1,3.63.07,29.58,29.58,0,0,1,3.58.49,27.66,27.66,0,0,1,3.48,1,7.13,7.13,0,0,0,1.43.38,2.1,2.1,0,0,0,1.11-.19,3,3,0,0,0,1.61-1.86c.37-.94.63-2.07,1-3.22a15.59,15.59,0,0,1,3.6-6.54,17.48,17.48,0,0,1,6.23-4.09,34.28,34.28,0,0,1,7-1.85c1.17-.2,2.32-.37,3.48-.53a35.91,35.91,0,0,1,3.6-.31c2.41-.12,4.85.2,6.87,0a8.68,8.68,0,0,0,2.9-.78A12.49,12.49,0,0,0,208,95.91c.81-.64,1.57-1.48,2.65-2.31a10.46,10.46,0,0,1,3.58-1.75,10,10,0,0,1,4-.37c1.33.15,2.38.43,3.39.49a11.36,11.36,0,0,0,3.06-.21,10.8,10.8,0,0,0,2.91-1,19.35,19.35,0,0,0,2.73-1.75A9.59,9.59,0,0,1,234,87.31a8.82,8.82,0,0,1,4.21.22,10.18,10.18,0,0,1,3.52,2,11.09,11.09,0,0,0,2.51,1.71,5.81,5.81,0,0,0,2.64.43,5.4,5.4,0,0,0,2.52-.87c.85-.51,1.73-1.24,2.77-1.95a12.82,12.82,0,0,1,7.45-2.43,10.1,10.1,0,0,1,4.05.85c1.21.54,2.18,1.11,3.15,1.53A16.38,16.38,0,0,0,273,90.16a15.39,15.39,0,0,0,6.18-1.09A24.43,24.43,0,0,1,282.68,88a12.76,12.76,0,0,1,4-.19,21,21,0,0,1,7.21,2.28A30.27,30.27,0,0,1,300,94.24a26.69,26.69,0,0,1,4.82,5.61c.32.48.64,1,.91,1.3a1.62,1.62,0,0,0,.62.55,1.21,1.21,0,0,0,.66,0c.1,0,.22-.09.35-.12a4.33,4.33,0,0,0,.45-.32,21.75,21.75,0,0,0,2.16-2.3,26.19,26.19,0,0,1,2.62-2.66,16.47,16.47,0,0,1,3.26-2.16l.9-.41a5.3,5.3,0,0,1,.56-.21c.21-.07.39-.1.59-.15a14.09,14.09,0,0,1,2-.23c2.5-.08,4.8.07,7.13.18,4.63.25,9.31.46,14.05,1.16a30.47,30.47,0,0,1,3.65.76,10.73,10.73,0,0,1,2,.79c.35.2.61.38.88.55l.76.54a12.37,12.37,0,0,0,2.57,1.62,6.84,6.84,0,0,0,2.64.5,10.91,10.91,0,0,0,2.91-.61,18.67,18.67,0,0,1,3.78-.79,11.57,11.57,0,0,1,4.07.43c1.22.33,2.31.7,3.41,1A95.4,95.4,0,0,0,381,102.46c1.11.18,2.33.35,3.59.67a31.76,31.76,0,0,1,3.53,1.18,48.14,48.14,0,0,1,6.46,3.25c2,1.16,4.06,2.38,6,3.72,1,.66,2,1.37,2.9,2.06A13.81,13.81,0,0,0,406,115a10.88,10.88,0,0,0,2.81.75,8.66,8.66,0,0,0,2.86-.18,17.85,17.85,0,0,1,3.83-.41,22.56,22.56,0,0,1,3.81.4,27.46,27.46,0,0,1,7,2.47c2.17,1.06,4.18,2.19,6.24,3.33l11.93,7.34c2,1.24,4,2.41,5.94,3.79,1,.68,2,1.4,2.9,2.16s1.76,1.49,2.62,2.07a27.65,27.65,0,0,0,5.72,3c1,.39,2,.68,3.21,1.05a13.34,13.34,0,0,1,5.21,2.92,13.72,13.72,0,0,1,1.42,1.43c1,1.19,1.41,2.09,2.08,3,1.28,1.77,2.78,3.55,4.26,5.25a59.69,59.69,0,0,0,4.71,4.83,52.16,52.16,0,0,0,5.28,4.18,38.23,38.23,0,0,1,5.56,4.67c.87.88,1.62,1.68,2.45,2.59a12,12,0,0,1,2.34,3.37c1.16,3.12.11,6.07-1.12,8.27a31.94,31.94,0,0,1-2,3.07c-.33.47-.66.93-.91,1.35a4.49,4.49,0,0,0-.3.54c-.06.13-.05.23-.05,0a1,1,0,0,0-.54-.84c-.11-.1-.32-.09-.29-.11h0l.09,0a7.09,7.09,0,0,0,1.32-.35,26.42,26.42,0,0,1,3.58-1,12.09,12.09,0,0,1,4.08-.1,9.77,9.77,0,0,1,3.92,1.54,17.07,17.07,0,0,1,5.08,5.81,59,59,0,0,1,3.18,6.43c.94,2.17,1.83,4.25,2.71,6.47s1.65,4.43,2.37,6.68c1.41,4.49,2.6,9,3.69,13.54.52,2.24,1.14,4.39,1.84,6.58s1.51,4.28,2.18,6.7a28.42,28.42,0,0,1,.91,7.33c0,2.48-.34,4.81-.55,7.1-.47,4.61-.88,9.18-1.15,13.8-.14,2.38-.47,4.75-.8,7l-1,6.9a88.81,88.81,0,0,1-2.93,13.85c-.78,2.26-1.54,4.41-2.42,6.63A44.29,44.29,0,0,1,516,306.7,31.84,31.84,0,0,1,505.9,317a18.39,18.39,0,0,0-5,4.09,14.2,14.2,0,0,0-1.65,2.71,17.88,17.88,0,0,0-1.13,3.05c-.31,1.07-.59,2.25-1.06,3.45a12.78,12.78,0,0,1-1.92,3.32,14,14,0,0,1-2.7,2.69,20.66,20.66,0,0,1-3.17,1.87,19,19,0,0,0-5.32,3.75,19.41,19.41,0,0,0-3.46,5.54,65.39,65.39,0,0,1-3.18,6.31,44,44,0,0,1-4.11,5.83,50.5,50.5,0,0,1-10.52,9.5,49.42,49.42,0,0,1-6.14,3.58,27.65,27.65,0,0,1-6.77,2.38,48.85,48.85,0,0,0-6.67,1.55,44.65,44.65,0,0,0-6.25,2.7,37.14,37.14,0,0,0-5.73,3.67c-1.83,1.4-3.71,2.85-5.7,4.1a67.78,67.78,0,0,1-12.55,6.27c-4.37,1.66-8.79,3.07-13.19,4.54a142.07,142.07,0,0,1-27.06,6.65c-4.61.59-9.24.95-13.88,1.17s-9.28.28-13.92.12c4.64.05,9.28-.1,13.9-.42s9.24-.79,13.82-1.46a143,143,0,0,0,26.8-7.06c4.37-1.55,8.78-3,13.06-4.73a66.35,66.35,0,0,0,12.2-6.35c1.92-1.25,3.7-2.66,5.53-4.11a37.4,37.4,0,0,1,5.91-3.92,44.76,44.76,0,0,1,6.46-2.92,50.48,50.48,0,0,1,6.85-1.72,26.67,26.67,0,0,0,6.29-2.29,48.68,48.68,0,0,0,5.84-3.49,48.16,48.16,0,0,0,10-9.19,42.46,42.46,0,0,0,3.85-5.57,64.57,64.57,0,0,0,3-6.13,35.8,35.8,0,0,1,1.61-3.22,17.12,17.12,0,0,1,2.23-3,21.18,21.18,0,0,1,5.94-4.3,19.56,19.56,0,0,0,2.8-1.68,11.64,11.64,0,0,0,2.19-2.24,10.24,10.24,0,0,0,1.52-2.69,30.2,30.2,0,0,0,.94-3.21,19.18,19.18,0,0,1,3.19-6.71,14.09,14.09,0,0,1,2.7-2.7c1-.77,2-1.41,2.93-2.05a28.88,28.88,0,0,0,9.09-9.51c2.25-3.8,3.69-8.2,5.16-12.54a85.08,85.08,0,0,0,2.68-13.37l1-6.88c.31-2.3.59-4.53.7-6.79.23-4.65.66-9.32,1.1-13.94.21-2.33.51-4.6.51-6.77a24.7,24.7,0,0,0-.81-6.43c-.57-2.06-1.45-4.28-2.16-6.53s-1.39-4.53-1.93-6.81c-1.08-4.48-2.28-8.94-3.66-13.29q-1.05-3.27-2.31-6.44c-.84-2.09-1.77-4.26-2.68-6.35a59.4,59.4,0,0,0-3-6,13.8,13.8,0,0,0-4-4.61,6.91,6.91,0,0,0-5.34-.88,24.16,24.16,0,0,0-3.12.88,10.76,10.76,0,0,1-2,.51l-.35,0-.46,0a3.11,3.11,0,0,1-1.13-.32,2.87,2.87,0,0,1-1-1,2.61,2.61,0,0,1-.36-1.26,3.83,3.83,0,0,1,.35-1.65,8.18,8.18,0,0,1,.53-1c.35-.57.7-1.06,1-1.54a31.15,31.15,0,0,0,1.79-2.75,9.42,9.42,0,0,0,1.05-2.69,6.07,6.07,0,0,0,.08-1.27c0-.21,0-.41-.07-.61a3,3,0,0,0-.15-.48,9,9,0,0,0-1.67-2.28c-.73-.8-1.57-1.69-2.33-2.46a35,35,0,0,0-5.1-4.24,55.66,55.66,0,0,1-5.63-4.44,65.51,65.51,0,0,1-5-5.11c-1.57-1.79-3.07-3.56-4.51-5.54-.73-1-1.39-2.12-1.9-2.73a12.38,12.38,0,0,0-2.2-1.93,9.77,9.77,0,0,0-2.67-1.21c-1-.33-2.24-.66-3.4-1.1a32.19,32.19,0,0,1-6.58-3.44c-1.06-.72-2-1.55-2.85-2.22s-1.76-1.36-2.69-2c-1.83-1.29-3.84-2.46-5.8-3.67l-11.79-7.21c-2-1.11-4-2.26-6-3.25a23.75,23.75,0,0,0-6-2.15,18.6,18.6,0,0,0-3.1-.34,14.1,14.1,0,0,0-3.07.33,12.56,12.56,0,0,1-4.06.21,14.61,14.61,0,0,1-3.89-1.06,11.7,11.7,0,0,1-1.82-1c-.53-.36-1-.73-1.49-1.07-.93-.69-1.83-1.34-2.77-2-1.86-1.27-3.8-2.42-5.8-3.59-4-2.34-7.79-4.18-12.25-4.67A100.18,100.18,0,0,1,366.56,103c-1.12-.35-2.23-.73-3.25-1a7.75,7.75,0,0,0-2.81-.32,14.24,14.24,0,0,0-3,.64,14.23,14.23,0,0,1-3.88.74,10.5,10.5,0,0,1-4.15-.79,15.94,15.94,0,0,1-3.32-2.06l-.66-.47a6.62,6.62,0,0,0-.59-.37,5.82,5.82,0,0,0-1.24-.49,26.26,26.26,0,0,0-3.16-.67c-4.45-.66-9.05-.9-13.68-1.16-2.29-.12-4.63-.27-6.78-.2a8.5,8.5,0,0,0-1.44.15l-.25.06a1.12,1.12,0,0,0-.25.1l-.69.31a12.91,12.91,0,0,0-2.52,1.66,23.42,23.42,0,0,0-2.27,2.29,21.87,21.87,0,0,1-2.63,2.73,6.73,6.73,0,0,1-1,.67,5,5,0,0,1-1.28.46,4.35,4.35,0,0,1-1.39.09A4.54,4.54,0,0,1,305,105a5.09,5.09,0,0,1-2-1.62c-.45-.57-.76-1.07-1.09-1.55a23,23,0,0,0-4.2-4.94,26.74,26.74,0,0,0-5.35-3.7,17.4,17.4,0,0,0-6-1.93,12.09,12.09,0,0,0-6,1.08,23.1,23.1,0,0,1-3.62,1,18.29,18.29,0,0,1-3.83.26,22.5,22.5,0,0,1-3.74-.47,17.62,17.62,0,0,1-3.64-1.19c-1.15-.51-2.19-1.12-3.11-1.52a6.44,6.44,0,0,0-2.7-.58,10.26,10.26,0,0,0-2.9.45,10.67,10.67,0,0,0-2.68,1.34c-.88.59-1.79,1.34-2.94,2a8.81,8.81,0,0,1-4,1.3,8.93,8.93,0,0,1-4.15-.73A14,14,0,0,1,239.73,92a7.07,7.07,0,0,0-2.44-1.48,6,6,0,0,0-2.67-.17,6.62,6.62,0,0,0-2.52,1.22,21.08,21.08,0,0,1-3.16,2,13.8,13.8,0,0,1-3.69,1.18,14.6,14.6,0,0,1-3.86.22c-1.31-.11-2.51-.43-3.48-.54a6.91,6.91,0,0,0-2.88.25,7.7,7.7,0,0,0-2.65,1.24c-.77.57-1.59,1.45-2.61,2.24a15.61,15.61,0,0,1-3.28,2,11.77,11.77,0,0,1-3.8,1,29.53,29.53,0,0,1-3.66,0c-1.15-.06-2.26-.09-3.37-.06s-2.23.12-3.34.25-2.28.31-3.4.48a32,32,0,0,0-6.46,1.65,14.66,14.66,0,0,0-5.35,3.42,13,13,0,0,0-3.09,5.51c-.33,1.06-.59,2.2-1.08,3.42a6.29,6.29,0,0,1-1.08,1.82,4.92,4.92,0,0,1-1.85,1.32,4.5,4.5,0,0,1-2.28.35,9.6,9.6,0,0,1-1.93-.51,25.66,25.66,0,0,0-3.2-1,28.28,28.28,0,0,0-6.62-.58,14.67,14.67,0,0,0-6.24,1.5,7.93,7.93,0,0,0-2.41,1.9,23.09,23.09,0,0,0-1.9,2.71,26,26,0,0,1-4.51,5.61,16,16,0,0,1-3,2.22,16.76,16.76,0,0,1-3.4,1.41,42.85,42.85,0,0,0-6.4,2.36,63.62,63.62,0,0,0-6,3.28,46.24,46.24,0,0,0-10.47,8.73,37.79,37.79,0,0,0-4,5.5,23.69,23.69,0,0,0-1.5,3c-.43,1-.77,2.13-1.13,3.24a32.23,32.23,0,0,1-2.9,6.45A52.17,52.17,0,0,1,98.19,171a53.93,53.93,0,0,1-4.68,5.23c-.83.82-1.69,1.61-2.54,2.39-.43.39-.8.82-1.2,1.23a13.76,13.76,0,0,0-1.14,1.27,31.63,31.63,0,0,0-3.76,5.73,47.26,47.26,0,0,0-2.6,6.39,91.63,91.63,0,0,0-3.14,13.51C78.36,211.28,77.74,215.88,77,220.47Z" transform="translate(-75.01 -86.44)"/><path class="cls-1" d="M83.68,284.3" transform="translate(-75.01 -86.44)"/><path class="cls-1" d="M117.89,338.43" transform="translate(-75.01 -86.44)"/><path class="cls-1" d="M157.21,374.17" transform="translate(-75.01 -86.44)"/><path class="cls-1" d="M196,393.57" transform="translate(-75.01 -86.44)"/><path class="cls-1" d="M224.11,403.79" transform="translate(-75.01 -86.44)"/><path d="M77,220.47l.56,17.89c.08,1.48.19,2.95.35,4.43s.35,3,.37,4.52a24.15,24.15,0,0,1-.31,4.62c-.14.78-.37,1.56-.56,2.25a10.23,10.23,0,0,0-.37,2,20.77,20.77,0,0,0,1.34,8.37c.91,2.78,2,5.57,3,8.36.53,1.39,1.06,2.76,1.63,4.11s1.17,2.86,1.64,4.27a69.06,69.06,0,0,1,2.43,8.81,17.9,17.9,0,0,0,1,3.95,11.37,11.37,0,0,0,2.28,3.12,17.83,17.83,0,0,0,3.33,2.44,12.29,12.29,0,0,1,2,1.58,10.42,10.42,0,0,1,1.63,2.15,12.5,12.5,0,0,1,1.06,2.39,10.68,10.68,0,0,1,.45,2.61,23.06,23.06,0,0,0,.55,4.16c.16.67.34,1.39.53,2.11s.38,1.41.59,2.09a18.13,18.13,0,0,0,1.52,3.76,10.47,10.47,0,0,0,2.39,2.88,9.22,9.22,0,0,0,3.32,1.7,18.7,18.7,0,0,1,4.56,1.88,11.17,11.17,0,0,1,2.1,1.7,12.91,12.91,0,0,1,1.63,2.08,10.24,10.24,0,0,1,1.12,2.44,15.84,15.84,0,0,0,.68,1.9,10.31,10.31,0,0,0,2.26,2.93,12.25,12.25,0,0,0,1.51,1.2,22.66,22.66,0,0,1,2,1.41,9.23,9.23,0,0,1,1.85,2.16,10,10,0,0,1,1.15,2.55,11.42,11.42,0,0,1,.36,2.64,4.25,4.25,0,0,0,.26,1.49,3.85,3.85,0,0,0,.82,1.15,3.65,3.65,0,0,0,1.24.72,26.41,26.41,0,0,1,4.45,1.58,12.44,12.44,0,0,1,4.11,3.37,10.77,10.77,0,0,1,1.31,2.37c.32.75.55,1.35.84,1.88a6.8,6.8,0,0,0,1,1.45,9.57,9.57,0,0,0,1.36,1.27,8.42,8.42,0,0,0,3.36,1.49,27.37,27.37,0,0,1,4.53,1.39,23.32,23.32,0,0,1,4.28,2.38,15.1,15.1,0,0,1,3.51,3.59,16.38,16.38,0,0,0,2.69,3.06,23.33,23.33,0,0,0,3.36,2.4,19.24,19.24,0,0,0,3.76,1.63c1.35.44,2.84.84,4.3,1.36a43.33,43.33,0,0,1,8.38,4,32.78,32.78,0,0,1,3.76,2.76c1.17,1,2.26,1.86,3.44,2.68a36.93,36.93,0,0,0,7.57,4.1c5.36,2.11,11.29,3.07,17.13,4.22a237.78,237.78,0,0,0,35.51,3.45q-4.47.19-9,.21t-9-.22c-6-.26-12-.68-17.92-1.5-3-.44-5.91-.9-8.87-1.45a57.3,57.3,0,0,1-8.86-2.26,37.42,37.42,0,0,1-8.26-4.16c-1.3-.85-2.54-1.82-3.69-2.73a31.23,31.23,0,0,0-3.52-2.44,40.7,40.7,0,0,0-7.83-3.5c-1.36-.45-2.76-.81-4.25-1.26a23,23,0,0,1-4.46-1.86,26.86,26.86,0,0,1-4-2.74,20.34,20.34,0,0,1-3.28-3.58,11,11,0,0,0-2.75-2.75,19.32,19.32,0,0,0-3.56-1.91,28,28,0,0,0-4-1.17,12.43,12.43,0,0,1-4.75-2.13,14,14,0,0,1-1.92-1.76,11,11,0,0,1-1.55-2.2c-.43-.78-.73-1.57-1-2.19a6.7,6.7,0,0,0-.85-1.54,8.49,8.49,0,0,0-2.79-2.23,24.82,24.82,0,0,0-4-1.36,7.29,7.29,0,0,1-2.6-1.53A7.37,7.37,0,0,1,123.7,351a7.89,7.89,0,0,1-.6-2.87,8,8,0,0,0-.23-1.79,6.08,6.08,0,0,0-.68-1.51,5.27,5.27,0,0,0-1-1.24,42.32,42.32,0,0,1-3.64-2.76A19.07,19.07,0,0,1,115.8,339a12.1,12.1,0,0,1-1.4-2.28,17.12,17.12,0,0,1-.83-2.32,7,7,0,0,0-.73-1.61,9.53,9.53,0,0,0-1.12-1.45,7.51,7.51,0,0,0-1.36-1.11,15.27,15.27,0,0,0-3.7-1.49,13.1,13.1,0,0,1-4.56-2.42,13.63,13.63,0,0,1-3.24-4,21.75,21.75,0,0,1-1.78-4.55c-.22-.75-.4-1.49-.58-2.22s-.36-1.46-.53-2.25-.3-1.56-.39-2.37-.14-1.63-.17-2.33a6.75,6.75,0,0,0-.27-1.8,9,9,0,0,0-.72-1.71,7,7,0,0,0-2.52-2.6,20.32,20.32,0,0,1-3.8-2.93,14.81,14.81,0,0,1-2.86-4.16,21.07,21.07,0,0,1-1.16-4.69A64.74,64.74,0,0,0,82,282.2c-.43-1.43-.89-2.73-1.45-4.12s-1-2.85-1.53-4.27c-.95-2.84-1.92-5.66-2.76-8.58a38.25,38.25,0,0,1-1-4.5,17.5,17.5,0,0,1-.07-4.74,12.09,12.09,0,0,1,.55-2.34,20,20,0,0,0,.63-2.07,22.17,22.17,0,0,0,.49-4.28,43.86,43.86,0,0,0-.14-4.41c-.08-1.5-.12-3-.12-4.51C76.61,232.39,76.85,226.44,77,220.47Z" transform="translate(-75.01 -86.44)"/><path d="M286.4,252.13a43.8,43.8,0,0,1-6-8.44,32.25,32.25,0,0,1-2.18-4.77c-.58-1.65-1.06-3.3-1.54-5-.93-3.32-1.76-6.66-2.59-10s-1.54-6.77-2.33-10a37.68,37.68,0,0,0-1.63-4.64,46.63,46.63,0,0,0-2.17-4.44c-1.63-2.91-3.48-5.85-5.19-8.84-3.42-6-6.65-12.09-9.59-18.37-1.45-3.15-2.79-6.38-4-9.67s-2.2-6.61-3.12-9.93l-2.69-9.94c-.89-3.32-1.74-6.67-2.47-10a114,114,0,0,1-1.53-41.22A143.49,143.49,0,0,0,244,137.38c1.8,6.53,3.79,13.12,5.76,19.66,1,3.27,2,6.5,3.16,9.66s2.49,6.26,3.92,9.33c2.81,6.17,6,12.21,9.25,18.19,1.61,3,3.34,5.92,5,9a41.67,41.67,0,0,1,2.19,4.86,39.68,39.68,0,0,1,1.55,5.14c.38,1.76.63,3.43.95,5.11l.91,5q.91,5.06,1.94,10.08c.33,1.67.69,3.34,1.12,5a35.29,35.29,0,0,0,1.69,4.74A50.77,50.77,0,0,0,286.4,252.13Z" transform="translate(-75.01 -86.44)"/><path d="M292.53,247.53a67.05,67.05,0,0,1-6.71-18c-.62-3.17-1.17-6.24-1.91-9.32s-1.56-6-2.49-9.11c-1.86-6.09-3.47-12.32-4.88-18.54s-2.87-12.35-4.49-18.46-3.29-12.33-4.61-18.57l-1.95-9.36c-.64-3.13-1.25-6.28-1.65-9.51a36.84,36.84,0,0,1-.32-5,46.3,46.3,0,0,1,.36-4.89c.4-3.2.91-6.32,1.33-9.47s.83-6.29,1.21-9.45.7-6.32,1.09-9.48c0,3.18.05,6.37,0,9.56s-.2,6.38-.37,9.57-.5,6.37-.67,9.5c-.07,1.55-.13,3.14-.09,4.64a34,34,0,0,0,.53,4.53c1.15,6.11,2.72,12.32,4.2,18.48.74,3.08,1.48,6.15,2.3,9.2l2.49,9.21c1.56,6.21,3,12.41,4.31,18.67s2.69,12.35,4.19,18.53c.76,3.06,1.56,6.24,2.05,9.41s.9,6.38,1.27,9.5A81,81,0,0,0,292.53,247.53Z" transform="translate(-75.01 -86.44)"/><path d="M300.7,247.53a107.27,107.27,0,0,1-3.71-18c-.35-3.06-.56-6.13-.66-9.22s0-6.18.05-9.19a76.12,76.12,0,0,0-.4-8.94,59,59,0,0,0-1.48-8.77c-.72-2.92-1.41-6-2-9s-1.13-6-1.57-9.1c-.85-6.12-1.36-12.23-1.84-18.31s-.76-12.25-.81-18.37c0-3-.08-6.1-.08-9.16s.09-6.11.13-9.16c.16-6.11.3-12.22.63-18.32.56,6.09.94,12.18,1.34,18.27s.72,12.17,1.1,18.25.81,12.12,1.46,18.16,1.13,12.11,2,18.07c.41,3,.91,6,1.45,8.94s1.22,5.88,1.86,8.9a63.47,63.47,0,0,1,1.28,9.29,64.85,64.85,0,0,1,0,9.35c-.21,3.09-.44,6.08-.55,9.09s-.11,6,0,9.06A156.55,156.55,0,0,0,300.7,247.53Z" transform="translate(-75.01 -86.44)"/><path d="M310.4,243.45c1.75-12.07,3.52-24.23,6.57-36.07,1.37-5.9,2.68-11.83,3.6-17.77.47-3,.85-6,1.28-9s.95-6.09,1.53-9.1c1.24-6,2.41-12,3.9-18,.77-3,1.63-6,2.7-8.91a83.24,83.24,0,0,1,3.66-8.55c2.66-5.57,5.68-10.79,7.75-16.44A80.59,80.59,0,0,0,345.64,102a66.13,66.13,0,0,1-2.38,18.24,82.39,82.39,0,0,1-3.14,8.73c-1.18,2.84-2.48,5.6-3.64,8.38s-2.26,5.58-3.19,8.41-1.67,5.72-2.33,8.66c-1.34,5.87-2.49,11.88-3.66,17.83-.6,3-1.13,5.93-1.58,8.92s-.85,6-1.43,9.07-1.22,6-1.94,9-1.5,6-2.37,8.9C316.37,219.81,313.78,231.67,310.4,243.45Z" transform="translate(-75.01 -86.44)"/><path d="M306.83,214.34a119.44,119.44,0,0,1-1.09-14.28,113.37,113.37,0,0,1,.65-14.38c.49-4.77,1.21-9.44,1.72-14.14s1.13-9.38,1.44-14.07.77-9.57,1.52-14.29,1.57-9.42,2.59-14.09,2.1-9.3,3.31-13.91,2.66-9.17,4.16-13.69c-.63,4.74-1.46,9.41-2.24,14.1s-1.46,9.37-2.16,14-1.38,9.37-1.91,14.06c-.29,2.34-.57,4.67-.77,7s-.34,4.69-.51,7.08c-.4,4.78-1,9.55-1.68,14.26s-1.55,9.43-2.39,14.07A214.8,214.8,0,0,0,306.83,214.34Z" transform="translate(-75.01 -86.44)"/><path d="M317,244.47c1.9-5.72,3.76-11.44,5.4-17.2s3-11.58,4.58-17.43c.8-2.91,1.61-5.83,2.61-8.73l3-8.52,5.9-17c2-5.66,4-11.31,5.71-17s3.31-11.47,4.86-17.27,3.12-11.61,4.38-17.44,2.18-11.77,2.91-17.75a119.19,119.19,0,0,1-1,18.09c-.82,6-2.05,11.92-3.28,17.81s-2.65,11.8-4.25,17.63-3.64,11.56-5.58,17.26-4,11.35-6.11,17l-3.24,8.41c-1,2.77-2,5.6-2.92,8.44s-1.79,5.71-2.72,8.58-1.92,5.75-3,8.58C322.12,233.52,319.75,239.08,317,244.47Z" transform="translate(-75.01 -86.44)"/><path d="M323.17,248.55a102.28,102.28,0,0,0,9.15-16.4c.63-1.42,1.2-2.85,1.77-4.32a45.6,45.6,0,0,1,2-4.43,46.9,46.9,0,0,1,5.26-8.16c2-2.54,4.19-4.82,6.1-7.19A34.22,34.22,0,0,0,350,204.4a41.86,41.86,0,0,0,2.12-4c2.69-5.71,5.77-11.33,9-16.77,1.66-2.71,3.43-5.4,5.32-8s3.71-5,5.28-7.63a136.53,136.53,0,0,0,8.45-16.57,121.86,121.86,0,0,0,9.31-36.17,97.23,97.23,0,0,1-6.41,37.33c-1.11,3-2.34,5.94-3.7,8.82s-2.78,5.73-4.39,8.53a88.68,88.68,0,0,1-5.37,8c-1.8,2.52-3.47,5.11-5.07,7.78s-3.21,5.35-4.72,8.08-2.91,5.47-4.35,8.29a47.47,47.47,0,0,1-2.43,4.28,39.79,39.79,0,0,1-3,3.92c-2.1,2.48-4.39,4.67-6.41,7a47.9,47.9,0,0,0-5.35,7.42,40.51,40.51,0,0,0-2.15,4.08c-.67,1.42-1.36,2.87-2.12,4.27A80.52,80.52,0,0,1,323.17,248.55Z" transform="translate(-75.01 -86.44)"/><path d="M329.3,249.06a96.68,96.68,0,0,0,11.19-14.64c1.63-2.57,3-5.32,4.61-8a68.36,68.36,0,0,1,5.52-7.7c2-2.44,4.18-4.71,6.35-6.92s4.37-4.44,6.68-6.57,4.73-4.1,7-6.12,4.47-4.16,6.65-6.31a108.14,108.14,0,0,0,12-13.68,75.24,75.24,0,0,0,5-7.56c1.5-2.63,2.88-5.35,4.22-8.11l4-8.36q2-4.19,3.86-8.41c2.54-5.62,4.89-11.33,7.24-17.07-1.51,6-3.38,11.94-5.42,17.8s-4.39,11.6-6.79,17.33a84.6,84.6,0,0,1-9,16.59,106.31,106.31,0,0,1-12.27,14.32c-2.25,2.17-4.49,4.31-6.87,6.39l-7.05,6c-2.3,2-4.51,4.1-6.74,6.24s-4.42,4.25-6.46,6.48a75.54,75.54,0,0,0-5.68,7.08c-1.74,2.46-3.3,5.19-5.18,7.72A76.18,76.18,0,0,1,329.3,249.06Z" transform="translate(-75.01 -86.44)"/><path d="M335.94,250.6c4-5,8.19-9.88,12.32-14.76,2.05-2.44,4.07-5,6.36-7.32a77.75,77.75,0,0,1,7.26-6.55c2.55-2,5.2-3.9,7.85-5.72s5.35-3.61,8.1-5.32,5.54-3.26,8.1-5a74.83,74.83,0,0,0,7.44-5.67c4.75-4,8.93-8.8,13.2-13.56s8.52-9.48,12.36-14.5A130.52,130.52,0,0,0,437,138.77,103.17,103.17,0,0,1,421.46,174a182,182,0,0,1-12,15.16A135,135,0,0,1,396,203.29a80.55,80.55,0,0,1-7.89,5.9c-2.77,1.81-5.59,3.37-8.31,5s-5.44,3.28-8.12,5-5.35,3.45-7.9,5.29a83.38,83.38,0,0,0-7.32,6c-2.34,2.08-4.48,4.44-6.73,6.74C345.16,241.68,340.61,246.2,335.94,250.6Z" transform="translate(-75.01 -86.44)"/><path d="M342.57,254.17A55.43,55.43,0,0,0,357.16,241c1-1.29,1.91-2.64,2.91-4a34.53,34.53,0,0,1,3.34-3.93,33.09,33.09,0,0,1,8.34-6.13c3.05-1.64,6.19-2.82,9.11-4.2a81.52,81.52,0,0,0,8.57-4.66,153,153,0,0,0,15.92-11.56c2.64-2.07,5.13-4.06,7.54-6.29s4.74-4.55,7.08-6.88c4.7-4.67,9.36-9.44,14-14.14q3.45-3.56,6.75-7.25a81.9,81.9,0,0,0,6.17-7.65,98.27,98.27,0,0,0,9.56-17.34,79.76,79.76,0,0,1-7.91,18.41,115.35,115.35,0,0,1-12.28,16c-2.21,2.51-4.47,5-6.74,7.39L422.68,196c-2.31,2.41-4.68,4.78-7.14,7.09s-5.12,4.52-7.7,6.56a148.76,148.76,0,0,1-16.46,11.67,85.88,85.88,0,0,1-9.08,4.6c-3.12,1.39-6.27,2.42-9.15,3.79a32.11,32.11,0,0,0-7.94,5.25,30.37,30.37,0,0,0-3.34,3.46c-1,1.24-2.07,2.58-3.2,3.85A49.85,49.85,0,0,1,342.57,254.17Z" transform="translate(-75.01 -86.44)"/><path d="M348.19,256.21a66.23,66.23,0,0,0,18.25-7.41c2.81-1.68,5.5-3.58,8.17-5.53s5.39-3.89,8-5.87c1.32-1,2.55-2,4-3.06s2.88-1.86,4.36-2.72a68.84,68.84,0,0,1,9.25-4.34c1.58-.62,3.17-1.16,4.73-1.71s3.06-1.13,4.59-1.73c3-1.21,6.08-2.51,9.07-3.87A163,163,0,0,0,436.13,211a130.52,130.52,0,0,0,16-11.34A196.62,196.62,0,0,0,480.45,172a141.65,141.65,0,0,1-26.27,30.11,118.38,118.38,0,0,1-16.07,12.2,159.77,159.77,0,0,1-17.86,9.35q-4.61,2-9.29,3.86c-1.56.6-3.14,1.19-4.75,1.74l-4.67,1.6a62.6,62.6,0,0,0-8.88,3.87c-1.42.75-2.85,1.58-4.18,2.42s-2.66,1.87-4,2.81c-2.79,1.9-5.55,3.71-8.36,5.51s-5.68,3.55-8.69,5.08A57.62,57.62,0,0,1,348.19,256.21Z" transform="translate(-75.01 -86.44)"/><path d="M354.83,263.87a64.13,64.13,0,0,0,18.62-7.09c2.85-1.63,5.59-3.66,8.73-5.2a44,44,0,0,1,9.81-3.46c3.41-.76,6.73-1.14,9.95-1.79a95.61,95.61,0,0,0,9.61-2.38c6.33-1.88,12.63-4.26,18.87-6.6,1.55-.59,3.06-1.19,4.52-1.88s2.95-1.44,4.46-2.21c3-1.53,6.09-3,9.18-4.36,6.19-2.71,12.41-5.33,18.7-7.73,3.13-1.22,6.25-2.43,9.23-3.8a43.23,43.23,0,0,0,8.39-5.1A66.89,66.89,0,0,0,498.83,198a58.46,58.46,0,0,1-12.69,15.8,45.08,45.08,0,0,1-8.45,5.91c-3,1.64-6.15,3-9.21,4.34-6.14,2.74-12.28,5.41-18.32,8.29-3,1.43-6,2.86-9,4.4-1.48.76-3,1.57-4.56,2.32s-3.17,1.41-4.77,2c-6.36,2.31-12.66,4.68-19.26,6.51-3.3.88-6.65,1.63-10,2.18-1.68.29-3.39.53-5.05.72s-3.3.39-4.9.68a43.53,43.53,0,0,0-9.33,2.78c-3,1.22-5.81,3.05-8.91,4.55A56.38,56.38,0,0,1,354.83,263.87Z" transform="translate(-75.01 -86.44)"/><path d="M355.34,271.53a53.35,53.35,0,0,0,14.35-.43,38.09,38.09,0,0,0,13.19-4.91c2-1.2,4.13-2.55,6.39-3.63a48.79,48.79,0,0,1,7-2.71,44.94,44.94,0,0,1,7.32-1.62c2.46-.35,4.9-.54,7.29-.78H411l3.15-.4,3.33-.47q3.34-.46,6.68-1c4.46-.69,8.9-1.46,13.35-2.21A263.08,263.08,0,0,0,463.88,248c4.3-1.22,8.53-2.62,12.69-4.24a119.53,119.53,0,0,0,12.16-5.64A137.67,137.67,0,0,0,511.09,223a106.26,106.26,0,0,1-21.18,17.14,100.54,100.54,0,0,1-12.14,6.43,110.26,110.26,0,0,1-12.88,4.82c-8.77,2.75-17.81,4.31-26.7,5.89-4.47.78-8.95,1.47-13.44,2.14q-3.37.49-6.76.94l-3.39.39-1.71.17L412,261l-.43,0-.6,0h.15c-2.43.17-4.82.29-7.15.56a50.29,50.29,0,0,0-6.89,1.26,45.11,45.11,0,0,0-6.64,2.25c-2.14.92-4.21,2.07-6.4,3.19a40.25,40.25,0,0,1-6.9,2.81,39.58,39.58,0,0,1-7.28,1.37A47.28,47.28,0,0,1,355.34,271.53Z" transform="translate(-75.01 -86.44)"/><path d="M356.36,279.7a87.2,87.2,0,0,0,29.82-6.09,71.39,71.39,0,0,1,10-3.14,43.94,43.94,0,0,1,10.54-1.21c3.52,0,6.91.25,10.3.3a154,154,0,0,0,20.26-.75c6.73-.62,13.43-1.73,20.13-3s13.48-2.49,20.12-3.84a102.07,102.07,0,0,0,37.16-16,89.1,89.1,0,0,1-17,11.67,86.89,86.89,0,0,1-9.48,4.28,97.55,97.55,0,0,1-9.94,3.09c-3.35.88-6.7,1.64-10.05,2.36l-10.07,2.15c-6.73,1.37-13.56,2.53-20.46,3.24a151.76,151.76,0,0,1-20.78.55c-3.45-.15-6.89-.47-10.22-.58a46,46,0,0,0-9.86.75,78.73,78.73,0,0,0-9.75,2.56A87.4,87.4,0,0,1,377,278.7,75.89,75.89,0,0,1,356.36,279.7Z" transform="translate(-75.01 -86.44)"/><path d="M355.34,285.32c6.11-1,12.24-1.84,18.38-2.68l9.22-1.18c3.08-.33,6.16-.61,9.26-.87q9.29-.81,18.68-.7c6.29.1,12.45.83,18.56,1.13s12.31.63,18.43.76,12.24,0,18.34-.42a173.05,173.05,0,0,0,36.19-6.76,125,125,0,0,1-35.88,9.87,157.93,157.93,0,0,1-18.69,1.1c-3.11,0-6.22-.08-9.32-.18s-6.2-.2-9.31-.38c-6.24-.39-12.36-1.12-18.44-1.35s-12.24-.13-18.38,0l-9.25.37-9.24.52C367.72,284.88,361.54,285.19,355.34,285.32Z" transform="translate(-75.01 -86.44)"/><path d="M355.85,293a117,117,0,0,0,17.18-.69c2.85-.33,5.62-.81,8.43-1.41a48.35,48.35,0,0,1,8.81-1.09,39.57,39.57,0,0,1,8.94.75c3,.58,5.73,1.52,8.41,2.07,1.36.28,2.7.51,4.06.67s2.73.22,4.12.24c2.78,0,5.69-.11,8.6-.12a104.53,104.53,0,0,1,17.53,1.32c2.9.52,5.68,1.15,8.49,1.64s5.62.93,8.45,1.33a290.42,290.42,0,0,0,34.34,2.44,164.71,164.71,0,0,1-34.68.67c-2.9-.24-5.79-.55-8.68-1s-5.74-1-8.53-1.37a106.84,106.84,0,0,0-16.91-1.05c-2.85,0-5.71.08-8.68,0a39.82,39.82,0,0,1-9-1.13c-2.95-.71-5.63-1.73-8.3-2.33a43.42,43.42,0,0,0-8.21-1.06,50.63,50.63,0,0,0-8.38.55,81.07,81.07,0,0,1-26-.47Z" transform="translate(-75.01 -86.44)"/><path d="M353.81,299.11a51.48,51.48,0,0,0,16.26,2.28c2.7-.05,5.43-.49,8.32-.58a28.76,28.76,0,0,1,8.66.92c2.82.79,5.35,1.75,8,2.54,1.3.39,2.62.76,3.92,1.09a33.57,33.57,0,0,0,3.9.75c5.43.74,11,1.52,16.49,2.36s11,1.83,16.44,2.81l8.19,1.5c2.72.46,5.44,1,8.16,1.48l8.16,1.54c2.72.6,5.45.92,8.19,1.27,5.49.71,11,1.11,16.57,1.44a129.47,129.47,0,0,1-16.72.52,162.22,162.22,0,0,1-16.64-1.68c-5.54-.68-11.05-1.52-16.54-2.34s-10.95-1.77-16.43-2.59-10.91-1.69-16.47-2.58a39.89,39.89,0,0,1-4.24-1c-1.38-.4-2.71-.82-4.06-1.28s-2.67-.94-4-1.45-2.57-1-3.82-1.43a27.57,27.57,0,0,0-7.79-1.29c-2.66-.14-5.47.11-8.33-.07A44.47,44.47,0,0,1,353.81,299.11Z" transform="translate(-75.01 -86.44)"/><path d="M350.23,305.74a29.56,29.56,0,0,0,13.12,6.74,16.34,16.34,0,0,0,3.56.34l3.81,0c2.57,0,5.11.2,7.65.35a71.68,71.68,0,0,1,15.31,2.48c2.51.73,4.91,1.65,7.29,2.54s4.73,1.79,7.11,2.73,4.74,2,7,3c1.13.51,2.23.95,3.38,1.36s2.35.77,3.52,1.14,2.34.68,3.53,1,2.44.5,3.73.82a44.89,44.89,0,0,1,7.41,2.63,70.74,70.74,0,0,1,6.82,3.61,57.51,57.51,0,0,0,6.7,3.25A78,78,0,0,0,464.62,342a56.67,56.67,0,0,1-22.32-5.22c-2.36-1.1-4.51-2.24-6.81-3.07a55.46,55.46,0,0,0-7-2.09c-1.17-.24-2.41-.43-3.7-.68s-2.57-.54-3.83-.88-2.48-.72-3.73-1.13-2.49-.91-3.67-1.42c-2.35-1-4.62-2-7-2.9-4.65-1.86-9.39-3.82-14-5.37a78.58,78.58,0,0,0-14.49-3c-2.5-.33-5-.61-7.48-.85l-3.78-.3a17.75,17.75,0,0,1-3.94-.72A27.28,27.28,0,0,1,350.23,305.74Z" transform="translate(-75.01 -86.44)"/><path d="M353.3,316.47a53.48,53.48,0,0,0,12.55,4.68,35.82,35.82,0,0,0,6.49,1,56.65,56.65,0,0,1,6.9.54,25,25,0,0,1,6.89,2.2,22.56,22.56,0,0,1,3.08,2c.93.67,1.81,1.3,2.73,1.92,1.82,1.22,3.67,2.41,5.6,3.52s3.85,2.19,5.82,3.14,4.07,1.93,6.1,3,4.05,2.14,6,3.3,3.92,2.38,5.82,3.66,3.7,2.58,5.56,3.76a99.91,99.91,0,0,0,24.49,10.75,70.67,70.67,0,0,1-26.06-8.06c-2-1.09-4-2.33-5.88-3.5s-3.82-2.25-5.79-3.31-3.93-2.14-5.91-3.12-4-1.88-6.1-2.89-4.1-2.18-6.05-3.37-3.93-2.42-5.79-3.8c-.94-.68-1.86-1.4-2.73-2.1a20.06,20.06,0,0,0-2.55-1.78,25.77,25.77,0,0,0-5.86-2.24c-2-.52-4.24-.63-6.55-1A37.65,37.65,0,0,1,365.3,323,42.52,42.52,0,0,1,353.3,316.47Z" transform="translate(-75.01 -86.44)"/><path d="M350.23,326.17c7.06,2.23,13.94,4.82,20.77,7.52,3.44,1.33,6.82,2.74,10.24,4.24,1.71.76,3.4,1.63,5.05,2.57.82.48,1.64,1,2.42,1.47l2.27,1.61,8.93,6.63c2.9,2.26,5.84,4.47,8.69,6.77a132.71,132.71,0,0,0,18.23,12.08,72.48,72.48,0,0,1-10.37-4c-1.68-.8-3.32-1.66-5-2.58s-3.19-2-4.73-3c-3.09-2-6.07-4.16-9.1-6.25l-8.88-6.33a50.06,50.06,0,0,0-9.18-5.59c-3.22-1.64-6.58-3.15-9.86-4.8C363.15,333.29,356.61,329.91,350.23,326.17Z" transform="translate(-75.01 -86.44)"/><path d="M360.45,336.89a56.25,56.25,0,0,1,7.16,4.8c1.13.89,2.23,1.83,3.32,2.79a19.85,19.85,0,0,1,1.54,1.5l1.5,1.53c2,2,4,4.13,5.9,6.24l2.83,3.2c.93,1.06,1.88,2.2,2.75,3.17a6.94,6.94,0,0,0,.6.61c.22.2.49.42.74.63.51.42,1,.82,1.56,1.18a26.94,26.94,0,0,0,3.46,2,12.71,12.71,0,0,1,3.89,2.93,13.52,13.52,0,0,1,2.51,4.11c.29.75.48,1.47.68,2.09a11.83,11.83,0,0,0,.7,1.75,12,12,0,0,0,2.33,3.09,20.44,20.44,0,0,0,7,4.32,16.9,16.9,0,0,1-8.29-2.8,13.88,13.88,0,0,1-3.31-3.23,11.1,11.1,0,0,1-1.17-2.09c-.3-.7-.55-1.33-.84-1.88a9.61,9.61,0,0,0-1-1.54,11.74,11.74,0,0,0-1.23-1.4,9.85,9.85,0,0,0-3-2,27.61,27.61,0,0,1-4-2.14c-.65-.42-1.27-.89-1.86-1.36-.29-.25-.58-.47-.89-.74s-.64-.61-.9-.9c-1-1.16-1.87-2.21-2.79-3.31l-2.7-3.28c-1.79-2.2-3.59-4.36-5.32-6.6s-3.49-4.43-5.4-6.5S362.43,339,360.45,336.89Z" transform="translate(-75.01 -86.44)"/><path d="M351.26,340.47a76.84,76.84,0,0,0,10.57,13c1,1,2,1.84,3.07,2.69s2.16,1.64,3.32,2.46,2.31,1.71,3.45,2.6,2.23,1.87,3.31,2.83a71.07,71.07,0,0,1,6.08,6.19l5.52,6.4c3.73,4.23,7.49,8.45,11.14,12.86a107.56,107.56,0,0,1-13.37-10.68c-2.12-1.91-4.15-4-6.09-6s-3.9-3.91-6-5.79-4.15-3.62-6.36-5.37a39.09,39.09,0,0,1-6.37-6.05A42.85,42.85,0,0,1,351.26,340.47Z" transform="translate(-75.01 -86.44)"/><path d="M355.85,362.43a74.55,74.55,0,0,0,5.26,8.62,40.16,40.16,0,0,0,3.08,3.73,41.42,41.42,0,0,0,3.52,3.33,80.23,80.23,0,0,1,7.46,7.1c1.17,1.28,2.24,2.66,3.28,4s2.05,2.81,2.93,4.32a82.52,82.52,0,0,1-8.35-6.05c-2.68-2.11-5.3-4.13-7.95-6.4a28.83,28.83,0,0,1-3.76-3.88,25.74,25.74,0,0,1-2.9-4.57A24.68,24.68,0,0,1,355.85,362.43Z" transform="translate(-75.01 -86.44)"/><path d="M276.7,254.17a198.65,198.65,0,0,1-10.94-18.87,33.75,33.75,0,0,0-2.65-4.58,30.79,30.79,0,0,0-3.3-4.06,85.56,85.56,0,0,0-8.15-6.9,103.54,103.54,0,0,1-8.32-7.23c-2.64-2.55-5.18-5.17-7.7-7.78l-3.76-3.95c-1.26-1.35-2.48-2.72-3.68-4.09q-3.6-4.11-7.12-8.26-7-8.35-13.9-16.76c-2.28-2.83-4.56-5.65-6.78-8.59-.55-.73-1.1-1.48-1.64-2.26-.27-.39-.54-.79-.81-1.23-.13-.22-.27-.48-.39-.71l-.29-.63c-.79-1.69-1.52-3.41-2.15-5.16a75.81,75.81,0,0,1-4.25-21.63c-.2-3.64-.39-7.28-.3-10.94a91.86,91.86,0,0,1,.86-10.88c-.08,3.63,0,7.25.25,10.86s.66,7.18,1.14,10.76A81,81,0,0,0,198,152c.66,1.64,1.43,3.23,2.24,4.79l.3.59.28.47c.22.34.45.68.71,1,.51.7,1.06,1.4,1.61,2.1,2.23,2.79,4.59,5.55,6.93,8.31l14,16.6c2.33,2.78,4.66,5.55,7,8.28,1.18,1.36,2.37,2.72,3.57,4l3.68,4c2.45,2.67,4.9,5.33,7.41,7.88s5.11,5,7.84,7.33a78,78,0,0,1,8.1,7.53,34.87,34.87,0,0,1,5.79,9.57C270.34,241.14,273.45,247.67,276.7,254.17Z" transform="translate(-75.01 -86.44)"/><path d="M267,257.23a70.87,70.87,0,0,1-13.82-16.6c-.94-1.55-1.79-3.17-2.61-4.78a46.82,46.82,0,0,0-2.51-4.61A24,24,0,0,0,241,224.1c-2.82-1.78-6.22-3-9.46-4.83q-2.43-1.31-4.77-2.83a30.62,30.62,0,0,1-4.47-3.56c-1.38-1.35-2.54-2.77-3.69-4.13s-2.31-2.69-3.5-4c-2.37-2.61-4.87-5.14-7.42-7.61s-5.1-4.95-7.75-7.3-5.4-4.54-8.17-7a69.53,69.53,0,0,1-7.51-8.07,84.55,84.55,0,0,1-6.47-8.81,71.23,71.23,0,0,1-5.17-9.67A74,74,0,0,1,169,146a65.17,65.17,0,0,1-1.86-10.72,52.62,52.62,0,0,1,.26-10.8c0,1.79,0,3.58.2,5.36a51.81,51.81,0,0,0,.64,5.3,68.54,68.54,0,0,0,2.64,10.3,73.83,73.83,0,0,0,9.47,18.81,105.06,105.06,0,0,0,6.56,8.29,64.67,64.67,0,0,0,7.32,7.47c2.65,2.25,5.54,4.51,8.25,6.91s5.38,4.85,8,7.38,5.1,5.13,7.52,7.85q1.81,2,3.55,4.13c1.16,1.38,2.26,2.74,3.42,3.94a37.61,37.61,0,0,0,8.25,6c3,1.75,6.33,3.12,9.5,5.31a23.36,23.36,0,0,1,4.26,3.8,26.09,26.09,0,0,1,3.31,4.57,50.84,50.84,0,0,1,2.35,5c.71,1.63,1.45,3.23,2.25,4.8A82.57,82.57,0,0,0,267,257.23Z" transform="translate(-75.01 -86.44)"/><path d="M260.87,262.85a91,91,0,0,1-16.77-15.71c-1.23-1.49-2.4-3-3.53-4.59s-2.22-3.06-3.43-4.44a32.41,32.41,0,0,0-8.37-7c-1.58-.89-3.28-1.65-5-2.44s-3.49-1.6-5.23-2.48a96.55,96.55,0,0,1-10.06-5.9,104.7,104.7,0,0,1-17.66-15.15c-1.32-1.42-2.6-2.86-3.86-4.33s-2.51-3-3.67-4.59-2.22-3.21-3.28-4.75-2.18-3.05-3.31-4.55c-2.28-3-4.69-5.92-7.16-8.79s-5.06-5.6-7.55-8.65a77.38,77.38,0,0,1-11.44-20.18A86.62,86.62,0,0,1,145,127a102.41,102.41,0,0,0,7.37,21.52,92.41,92.41,0,0,0,5.4,9.93,67.9,67.9,0,0,0,6.62,9c1.23,1.39,2.54,2.75,3.87,4.12s2.63,2.8,3.93,4.22c2.58,2.86,5.09,5.76,7.52,8.78s4.59,6.35,6.75,9.31c1.09,1.49,2.27,2.91,3.51,4.32s2.51,2.82,3.79,4.19A104.43,104.43,0,0,0,210.6,217.2a93.49,93.49,0,0,0,9.54,5.91c3.28,1.79,6.78,3.26,10.21,5.35a33.62,33.62,0,0,1,8.8,8c1.23,1.56,2.28,3.22,3.31,4.81s2.08,3.15,3.19,4.68A108.76,108.76,0,0,0,260.87,262.85Z" transform="translate(-75.01 -86.44)"/><path d="M250.15,274.6a161.22,161.22,0,0,1-20.89-10.09c-3.36-1.93-6.64-4-9.86-6.16s-6.36-4.3-9.67-6.12q-2.47-1.38-5-2.59c-1.72-.82-3.41-1.62-5.14-2.25-3.6-1.26-7.3-2.66-10.86-4.11s-7.15-3-10.7-4.55-7.06-3.35-10.47-4.89a94.58,94.58,0,0,0-10.57-4c-1.8-.54-3.6-1-5.43-1.38s-3.67-.65-5.58-.92-3.87-.57-5.83-1a49.22,49.22,0,0,1-5.76-1.64,76,76,0,0,1-10.78-4.79,77.19,77.19,0,0,1-18.85-13.91,72.7,72.7,0,0,1-13.37-19,82.67,82.67,0,0,0,14.73,17.55,72,72,0,0,0,9,6.93,87.54,87.54,0,0,0,20.36,9.86,53.16,53.16,0,0,0,11,2.2,67,67,0,0,1,11.62,2.31c1.9.56,3.77,1.19,5.61,1.87s3.68,1.39,5.49,2.19c3.6,1.67,6.95,3.41,10.44,5s7,3.1,10.54,4.63,7,2.95,10.66,4.33a54.29,54.29,0,0,1,5.39,2.52q2.59,1.36,5.12,2.9c3.36,2,6.52,4.36,9.6,6.66s6.19,4.53,9.39,6.64A230.72,230.72,0,0,0,250.15,274.6Z" transform="translate(-75.01 -86.44)"/><path d="M254.23,266.43a101.12,101.12,0,0,1-17.94-13.49c-1.37-1.28-2.69-2.64-4-4a39.59,39.59,0,0,0-4-3.71,36.78,36.78,0,0,0-9.19-5.51c-3.32-1.36-6.93-2.37-10.48-3.75-.88-.34-1.77-.68-2.69-1.1s-1.76-.86-2.61-1.32c-1.68-.92-3.3-1.9-4.9-2.89-6.37-4-12.5-8.23-18.7-12.38s-12.31-8.41-18.4-12.78c-1.51-1.11-3-2.22-4.52-3.39-.75-.59-1.49-1.18-2.23-1.82-.37-.31-.73-.64-1.1-1l-1-1a102.44,102.44,0,0,1-7.8-8.21,104.44,104.44,0,0,1-12.88-18.56A88.32,88.32,0,0,1,124,150.51a105.51,105.51,0,0,0,9.48,20.09A115.31,115.31,0,0,0,147,188.05c2.52,2.69,5.14,5.28,7.86,7.74a76.28,76.28,0,0,0,8.69,6.64c6.08,4.24,12.28,8.39,18.45,12.56s12.29,8.46,18.47,12.51c1.55,1,3.1,2,4.66,2.9.78.45,1.57.88,2.35,1.26s1.61.72,2.46,1.08c3.37,1.39,6.92,2.53,10.44,4.16a37.8,37.8,0,0,1,9.64,6.37,43,43,0,0,1,4,4.15c1.22,1.41,2.43,2.79,3.69,4.15A125.88,125.88,0,0,0,254.23,266.43Z" transform="translate(-75.01 -86.44)"/><path d="M245.55,280.72A80.18,80.18,0,0,1,225.69,271a26,26,0,0,0-4.68-2.48,19.41,19.41,0,0,0-5-1.28c-1.64-.17-3.43,0-5.37,0a33.24,33.24,0,0,1-5.73-.48,28,28,0,0,1-5.64-1.44,41.74,41.74,0,0,1-5.15-2.51c-1.6-.88-3.17-1.69-4.79-2.41s-3.29-1.33-5-1.89A67.19,67.19,0,0,0,174,256c-3.53-.6-7.17-1-10.81-1.41a90.38,90.38,0,0,0-10.76-.69,68.8,68.8,0,0,1-11.24-.57,72.23,72.23,0,0,1-21.49-6.58c-3.37-1.62-6.63-3.41-9.8-5.28s-6.34-3.88-9.34-6.06a99.85,99.85,0,0,1-16.34-14.92,124.54,124.54,0,0,0,17.44,13.29c3.08,2,6.24,3.74,9.5,5.39s6.49,3.33,9.82,4.73a84.82,84.82,0,0,0,10.17,3.61,67.45,67.45,0,0,0,10.52,2.06c1.77.21,3.55.37,5.32.42s3.56,0,5.43,0a93.36,93.36,0,0,1,11.23.63c3.65.44,7.32.87,11,1.53A65.75,65.75,0,0,1,185.59,255c1.78.64,3.54,1.35,5.26,2.15s3.4,1.74,5,2.67a40.37,40.37,0,0,0,4.67,2.45,24.78,24.78,0,0,0,5,1.5,30.78,30.78,0,0,0,5.22.65,47,47,0,0,1,5.65.25,21.5,21.5,0,0,1,5.56,1.77,27.46,27.46,0,0,1,4.88,3A94.24,94.24,0,0,0,245.55,280.72Z" transform="translate(-75.01 -86.44)"/><path d="M242.49,288.38a48.82,48.82,0,0,1-20.19-3.56A59,59,0,0,0,203,279.73c-1.67-.16-3.35-.28-5.05-.4s-3.34-.22-5-.24-3.27.05-5,.17-3.42.24-5.15.3c-3.48.14-6.91,0-10.37-.11s-6.93-.58-10.27-1-6.67-.67-10-.82c-1.68-.07-3.37-.15-5.05-.17s-3.3,0-5,0c-3.48,0-6.88-.13-10.28-.23s-6.83-.24-10.25-.48a86.05,86.05,0,0,1-10.3-1.22,51.47,51.47,0,0,1-10-3,55.78,55.78,0,0,1-17.12-11.31A63.27,63.27,0,0,0,102,270.79c6.34,2.18,13,2.75,19.75,2.9,3.37.07,6.76.07,10.16.1s6.8,0,10.14-.06c1.66-.07,3.44-.12,5.17-.1s3.44.07,5.16.13c3.43.13,6.9.37,10.32.76s6.7.83,10,1,6.72.27,10,.24c1.67,0,3.33-.09,5.05-.16s3.49-.11,5.24,0,3.49.21,5.21.4,3.39.4,5.11.64a56.77,56.77,0,0,1,10.18,2.3c1.66.55,3.28,1.17,4.88,1.87s3.13,1.48,4.64,2.23A54.14,54.14,0,0,0,242.49,288.38Z" transform="translate(-75.01 -86.44)"/><path d="M243.51,298.6A98.75,98.75,0,0,1,225,297.12c-3.06-.52-6.15-1.29-9.1-2a81.24,81.24,0,0,0-8.94-1.62,86.18,86.18,0,0,0-18.06-.57c-2.86.32-5.91,1-8.92,1.53l-9.06,1.83-18.19,3.57a82,82,0,0,1-9.4,1.09c-3.12.19-6.2.25-9.29.32-12.34.3-24.68.6-37,.42q18.41-2.24,36.9-3.54l9.19-.69a82.16,82.16,0,0,0,8.95-1.32l18.11-3.78,9.1-1.73c3.06-.54,6.06-1.2,9.34-1.46a71.76,71.76,0,0,1,9.51.08,81.08,81.08,0,0,1,9.34,1.18,72.68,72.68,0,0,1,9.17,2.17c3,1,5.83,1.9,8.81,2.64A137.61,137.61,0,0,0,243.51,298.6Z" transform="translate(-75.01 -86.44)"/><path d="M237.89,304.72a107.64,107.64,0,0,0-16-1,101.12,101.12,0,0,0-15.82,1.51c-2.63.46-5.28.92-7.86,1.43s-5.15,1.17-7.8,1.79-5.33,1.11-8,1.56-5.44.79-8.15,1a73.36,73.36,0,0,0-7.82.83,46.73,46.73,0,0,0-7.51,1.91c-5.08,1.65-10.28,3.35-15.49,4.69-2.6.69-5.22,1.4-7.88,1.95a81.65,81.65,0,0,1-8.07,1.3,73.2,73.2,0,0,1-16.21-.09,101.6,101.6,0,0,0,15.92-1.85,125.14,125.14,0,0,0,15.35-4.3l7.6-2.57c2.52-.87,5-1.8,7.56-2.72a46.48,46.48,0,0,1,8.06-2.17,75.13,75.13,0,0,1,8.19-1,116.42,116.42,0,0,0,15.67-2.25c2.6-.51,5.27-1.1,8-1.54s5.38-.77,8.06-1.07a84.76,84.76,0,0,1,16.32-.38A76.41,76.41,0,0,1,237.89,304.72Z" transform="translate(-75.01 -86.44)"/><path d="M242.49,308.81c-4.45,1.59-8.84,3.26-13.11,5.18s-8.37,4.06-12.56,6.26c-2.09,1.1-4.19,2.18-6.33,3.21l-6.45,3c-2.15,1-4.32,1.92-6.49,2.88s-4.34,1.88-6.54,2.77c-4.43,1.7-8.93,3.3-13.51,4.63-2.29.65-4.56,1.21-6.64,2a43.65,43.65,0,0,0-6.13,2.89c-2,1.1-4,2.38-6.1,3.54A36.63,36.63,0,0,1,152,348a38.24,38.24,0,0,1-14.17,1.62,46,46,0,0,0,13.48-3.46c4.23-1.76,7.77-4.71,11.84-7.32a37.36,37.36,0,0,1,6.46-3.48c2.32-.95,4.6-1.59,6.81-2.33,4.44-1.4,8.8-3,13.15-4.73s8.64-3.61,13-5.38l6.5-2.67,6.44-2.84c2.16-.95,4.3-1.94,6.51-2.83s4.46-1.72,6.71-2.45A93.27,93.27,0,0,1,242.49,308.81Z" transform="translate(-75.01 -86.44)"/><path d="M239.94,317.49A112.58,112.58,0,0,0,219.65,329c-3.07,2.3-6.06,4.8-9.13,7.3s-6.32,4.8-9.58,7.06c-1.64,1.1-3.32,2.18-5,3.22s-3.42,2-5.1,3c-3.39,1.91-6.69,4-10,6-6.67,4.1-13.27,8.32-20,12.49A166.65,166.65,0,0,1,179,353c3.19-2.34,6.48-4.52,9.82-6.66,1.68-1.07,3.39-2,5-3.06s3.23-2.1,4.84-3.2c3.24-2.15,6.38-4.43,9.52-6.75s6.25-4.76,9.68-6.87A69.79,69.79,0,0,1,239.94,317.49Z" transform="translate(-75.01 -86.44)"/><path d="M242,328.72a57,57,0,0,0-18.31,10.76c-2.54,2.31-4.73,5.11-7.24,7.86a92.14,92.14,0,0,1-8.06,7.62,161.43,161.43,0,0,1-18.24,12.2,131.92,131.92,0,0,1-19.64,9.56c6-4.08,12.06-8.06,18-12.19l8.83-6.26c2.94-2.08,5.85-4.14,8.55-6.41a98.28,98.28,0,0,0,7.87-7.13c1.27-1.25,2.49-2.55,3.78-3.87a36.87,36.87,0,0,1,4.19-3.77A42.69,42.69,0,0,1,242,328.72Z" transform="translate(-75.01 -86.44)"/><path d="M244,335.36c-3.8,4.83-7.85,9.34-12,13.76s-8.17,8.9-12.36,13.3a106,106,0,0,1-13.59,12.4,84.4,84.4,0,0,1-15.68,9.56c4.67-4,9.26-7.88,13.67-11.95,2.18-2.07,4.36-4.12,6.45-6.26s4.17-4.31,6.25-6.51c4.19-4.37,8.45-8.76,13.06-12.75S239.1,339,244,335.36Z" transform="translate(-75.01 -86.44)"/><path d="M245,351.7c-2.15,4.34-4.5,8.49-6.8,12.65s-4.59,8.28-7,12.42c-1.23,2.06-2.49,4.13-4,6.14a24.67,24.67,0,0,1-5.28,5.48A20.26,20.26,0,0,1,207.77,392,26.21,26.21,0,0,0,220,386c3.18-3,5.34-7.15,7.79-11.22a140.7,140.7,0,0,1,7.83-12.09A85.28,85.28,0,0,1,245,351.7Z" transform="translate(-75.01 -86.44)"/></svg>