<svg id="Layer_2" data-name="Layer 2" xmlns="http://www.w3.org/2000/svg" viewBox="0 0 572.76 713.83"><defs><style>.cls-1{fill:none;stroke:#000;stroke-miterlimit:10;stroke-width:4px;}</style></defs><title>tickor</title><path class="cls-1" d="M117.25,419.23c-.94-4.87.63-8.81,2.88-14.25,1.89-4.57,5.66-12,16.32-22.8,5.36-5.42,12.91-13,25-19.95,10.09-5.86,25.33-14.7,46.07-14.25,7.89.18,28.74.63,42.23,15.2,11.12,12,15.26,31.52,15.35,43.7A53,53,0,0,0,267,423a58.08,58.08,0,0,0,8.64,17.1c4.42,6.32,6.06,6.51,11.52,13.3,4.41,5.48,8.7,10.81,11.52,18.05,4.7,12.07,2.86,23.17,1.92,28.5-1.87,10.5-6,17.7-9.6,23.75a92.1,92.1,0,0,1-21.12,24.69c-13.14,10.44-25.55,13.49-44.15,18.05-17.87,4.39-36.34,8.7-57.58,2.85-6.33-1.74-20-5.5-22.08-14.25-1.49-6.24,4.27-9.28,3.84-19-.2-4.67-1.68-7.3-7.68-19-6.8-13.28-10.2-19.91-10.55-20.9-4.41-12.31-3.71-24.05-2.88-38,.79-13.37,2.63-16.1,0-21.85C125.16,428.46,118.78,427.12,117.25,419.23Z" transform="translate(-9.88 -60.74)"/><path class="cls-1" d="M125.53,395.14c-4.27-6-14-18.65-18.84-29.11a145.88,145.88,0,0,1-11.51-36.09c-1.76-10.53-4.57-27.31,1-47.5,2.39-8.75,8.59-30.22,28.79-45.6,4.66-3.55,26.85-20.45,44.15-13.3,8.44,3.49,8.31,9.66,21.11,19,9.76,7.12,18.8,10.08,25.92,12.35,23.15,7.38,31.44,1.44,62.38,4.75,22.15,2.37,33.22,3.55,45.11,11.4,20.73,13.68,27.57,36.44,29.75,43.7a86.14,86.14,0,0,1,2.88,37A82.81,82.81,0,0,1,337,393.58c-12.85,14.46-27.71,20.21-39.35,24.7a195.11,195.11,0,0,1-29.53,8.27" transform="translate(-9.88 -60.74)"/><path class="cls-1" d="M230.07,565.4c-1,4.53-2.49,16.94-.53,25.77,4.18,18.83,18.52,29,22.08,31.35,17.89,11.85,38.11,8.28,52.78,5.7,24.89-4.38,41.62-15.9,58.55-27.55,14.28-9.82,28.69-19.74,42.23-38,7.6-10.25,23.38-32.11,25.91-64.59.72-9.14,3.27-41.88-16.31-68.4-4.28-5.79-5.79-6.1-32.63-32.3-11-10.78-24.36-22.95-30.27-28.88" transform="translate(-9.88 -60.74)"/><path class="cls-1" d="M188.27,241.09c-.05-8.55.43-30.7,2.88-45.1,3.73-21.84,6.39-37.46,16.32-49.4,19.78-23.78,58.57-21.08,74.86-19.94,30.28,2.1,51.31,13.61,76.78,27.54,17,9.33,42.71,23.65,68.14,51.3,17,18.52,38.88,42.26,46.07,78.85,3.59,18.21,2.25,33,0,57.94-2.21,24.56-3.48,37.09-11.51,49.4-12.53,19.21-38.66,28.9-52.08,32.22" transform="translate(-9.88 -60.74)"/><path class="cls-1" d="M474.33,330.89c4.71.35,18.55,1.53,25.87,5.69,10.46,6,15.36,14.67,22.07,26.6,4.29,7.63,9,16,11.52,28.5,1.63,8.15,3.82,19.08,0,31.35-3.58,11.49-8.47,11.42-15.36,27.55-3.16,7.41-4.57,13.13-6.72,21.85-2.71,11-3.35,17.3-5.76,33.25-3.11,20.69-4.67,31-5.75,34.19-2.11,6.15-8.66,24.39-26.88,37-6.4,4.45-26.22,18.23-46.07,10.45-10.54-4.13-20.8-18.29-23.49-22.83" transform="translate(-9.88 -60.74)"/><path class="cls-1" d="M273.38,630.34c-.85,4.24-3.28,16-2.57,23.53.21,2.21,1.77,17.15,9.6,27.55,10.39,13.78,28.95,15.77,43.19,17.1,8.35.77,63.23,5,102.69-34.2,9-9,25.81-25.64,25.92-49.4,0-8.46-5.57-20.66-7.36-25.21" transform="translate(-9.88 -60.74)"/><path class="cls-1" d="M419.9,197.86c3-3.51,15.78-15.23,23.67-17.07,6.56-1.52,16-1.07,32.63,10.45,15.24,10.59,27.83,24.51,44.15,51.3,10,16.36,16.38,29.81,28.79,56,15,31.75,22.61,47.93,25.92,62.69,4.77,21.32,8.76,39.18,1.92,58.9-3.67,10.57-8.79,16.86-14.4,36.1a154.32,154.32,0,0,1-6.72,20c-4.71,11.13-7.14,16.85-12.47,20.9-10.58,8-31.39,2.58-36.34,1.14" transform="translate(-9.88 -60.74)"/><path class="cls-1" d="M92.88,317.59c-6.18-.47-21.62-1.92-31.3-6.65C36.51,298.67,27.26,274,22.23,260.59c-6.51-17.38-19.1-51-1-73.15,7.28-8.89,20.12-16.71,33.6-17.1,13.26-.38,15.74,6.76,32.63,7.6,15.2.76,27.77-4.3,33.59-6.65,13.16-5.3,13.25-8.93,26.87-13.3,13-4.16,22.42-3.9,25-3.8,8.19.36,21.56,6.12,25.94,7.7" transform="translate(-9.88 -60.74)"/><path class="cls-1" d="M106.34,176.13C103.33,166,96,135,103.81,110.5c2.73-8.56,7.06-22.2,19.2-32.3,10.32-8.6,21.57-10.71,57.58-12.35,48.65-2.22,47.94.73,83.5-.95,35.22-1.67,45.61-5,61.43,2.85,19.75,9.82,28.32,27.37,29.75,30.4,9.65,20.46,2,48.94.58,54.26" transform="translate(-9.88 -60.74)"/><path d="M119.63,424.87c2.45-3.57,5.09-7,7.85-10.38s5.71-6.55,8.73-9.68,6.14-6.17,9.44-9.05c1.63-1.45,3.37-2.86,5.1-4.18s3.43-2.64,5.19-3.94c7-5.13,14.55-10,23.09-12.94a51.64,51.64,0,0,1,13.3-2.78c1.14,0,2.28-.14,3.42-.12l3.42.1c2.21.15,4.48.39,6.72.77a60,60,0,0,1,6.66,1.55,43.68,43.68,0,0,1,6.49,2.55,30.14,30.14,0,0,1,11.05,9.11,15.84,15.84,0,0,1,2,3.44c.5,1.2.84,2.29,1.17,3.36.65,2.14,1.23,4.22,1.83,6.3l3.61,12.42,3.68,12.38c.31,1,.63,2,.95,3,.17.49.33,1,.5,1.38.08.21.16.42.24.58a4.13,4.13,0,0,0,.26.5,26.42,26.42,0,0,0,3.2,4.74c2.43,2.83,5.9,5.4,9.24,8.35a132.58,132.58,0,0,1,9.54,9.25,97.55,97.55,0,0,1,8.79,10.19,48.25,48.25,0,0,1,6.28,12.45,54.81,54.81,0,0,1,2.74,13.55,50.46,50.46,0,0,1-.77,13.81,52.71,52.71,0,0,1-4.49,13.08,53.82,53.82,0,0,1-3.44,6,58,58,0,0,1-4.07,5.48c-1.44,1.75-3,3.41-4.49,5s-3.2,3.19-4.93,4.65a66.68,66.68,0,0,1-11.17,7.64,81.66,81.66,0,0,1-12.26,5.39c-4.19,1.48-8.34,2.67-12.54,3.88a90.32,90.32,0,0,1-26.17,3.81A77.34,77.34,0,0,1,186.59,555,58,58,0,0,1,174,551.13a109.94,109.94,0,0,1-11.67-5.9q-5.62-3.32-10.92-7.09l.22-.33a132.44,132.44,0,0,0,22.85,12.09,66.36,66.36,0,0,0,25.3,4.44,79.25,79.25,0,0,0,12.86-1.17,105,105,0,0,0,12.57-3c8.24-2.54,16.54-5.14,24-9.47a62.92,62.92,0,0,0,10.51-7.46,81.84,81.84,0,0,0,8.91-9.33,56.73,56.73,0,0,0,3.79-5.21,50.77,50.77,0,0,0,3.17-5.61,48.59,48.59,0,0,0,4.05-12.18,48,48,0,0,0,.64-12.83,50.39,50.39,0,0,0-2.6-12.57,43.75,43.75,0,0,0-5.8-11.42,96.39,96.39,0,0,0-8.47-9.74c-3-3.15-6-6.19-9.26-9s-6.72-5.45-9.59-8.79a29.57,29.57,0,0,1-3.65-5.44,17.84,17.84,0,0,1-1.24-3.06c-.35-1-.67-2.06-1-3.1-1.25-4.15-2.43-8.3-3.62-12.46l-3.49-12.5c-.58-2.08-1.14-4.17-1.75-6.23a17,17,0,0,0-2.57-5.8,26.87,26.87,0,0,0-9.73-8.15,40.54,40.54,0,0,0-5.94-2.45,53.39,53.39,0,0,0-6.25-1.57,54.68,54.68,0,0,0-12.83-.95,48.64,48.64,0,0,0-12.63,2.4c-8.2,2.68-15.63,7.26-22.7,12.19-3.52,2.5-7.09,4.94-10.4,7.71s-6.51,5.66-9.61,8.67A169.68,169.68,0,0,0,120,425.11Z" transform="translate(-9.88 -60.74)"/><path d="M129.71,439.39q2.86-3.28,6-6.36c2.09-2,4.26-4,6.51-5.86a81.64,81.64,0,0,1,7.06-5.29,52.23,52.23,0,0,1,7.82-4.39,58.08,58.08,0,0,1,8.56-2.78,62.7,62.7,0,0,1,8.86-1.57,46.94,46.94,0,0,1,9.11-.14c1.53.07,3.05.36,4.58.57.76.15,1.52.34,2.27.5l1.14.26,1.12.36,2.23.71,2.17.92,1.08.46,1,.57,2.08,1.14a27.39,27.39,0,0,1,7.15,6.55,64.9,64.9,0,0,1,5.06,7.62c1.49,2.58,2.88,5.17,4.23,7.75s2.64,5.19,3.94,7.78,2.59,5.27,3.8,7.95q3.66,8,6.57,16.43,1.42,4.2,2.6,8.5l2.22,8.46c.71,2.84,1.41,5.72,1.93,8.73a37.65,37.65,0,0,1,.64,9.45,28.32,28.32,0,0,1-.77,4.85c-.16.81-.45,1.53-.68,2.3a22.21,22.21,0,0,1-.79,2.25,38,38,0,0,1-4.52,8.29,46.34,46.34,0,0,1-13.52,12.52,41.89,41.89,0,0,1-17.36,6,77.28,77.28,0,0,1-17.83-.48c-2.91-.39-5.75-.82-8.65-1.27s-5.75-1-8.59-1.62a153.78,153.78,0,0,1-16.91-4.26l.11-.39c2.77.76,5.62,1.31,8.46,1.86s5.69,1,8.55,1.49,5.71.88,8.58,1.21,5.76.63,8.63.88a76.71,76.71,0,0,0,17.27-.08,39.76,39.76,0,0,0,16-6,44.47,44.47,0,0,0,12.35-11.87,33.84,33.84,0,0,0,4-7.59,18.6,18.6,0,0,0,.68-2c.19-.69.46-1.37.59-2.07a25.22,25.22,0,0,0,.61-4.23,36.13,36.13,0,0,0-.67-8.55c-.51-2.84-1.2-5.64-1.92-8.44-1.49-5.59-2.92-11.2-4.83-16.65s-4-10.84-6.35-16.11-5-10.44-7.54-15.63-5.24-10.34-8.7-14.92a24.49,24.49,0,0,0-6.19-5.87l-1.86-1.07-.94-.54-1-.44-2-.88-2-.71-1-.35-1.05-.26c-.69-.17-1.39-.36-2.09-.51-1.42-.23-2.82-.53-4.26-.63a47.73,47.73,0,0,0-8.62-.1,62.71,62.71,0,0,0-16.85,3.63A64.81,64.81,0,0,0,143,428.23a121.84,121.84,0,0,0-13,11.44Z" transform="translate(-9.88 -60.74)"/><path d="M130.5,388.47c-1.35-4.63-3-9.17-4.78-13.64s-3.66-8.91-5.66-13.29S116,352.8,114,348.35a91.81,91.81,0,0,1-4.83-13.93c-1.25-4.73-2.2-9.52-3.09-14.3a114.68,114.68,0,0,1-2-14.64,45.61,45.61,0,0,1,1.66-15.15,45.15,45.15,0,0,1,6.79-13.77,47.38,47.38,0,0,1,5-5.84c.91-.91,1.86-1.78,2.87-2.61a28.48,28.48,0,0,1,3.16-2.32,44.28,44.28,0,0,1,14.21-6.16,54.09,54.09,0,0,1,15.3-1.31,61.27,61.27,0,0,1,7.58.89,38.93,38.93,0,0,1,3.89.88,33.77,33.77,0,0,1,3.76,1.38c2.33,1,4.49,2,6.69,3l6.56,3,13.23,5.82c4.42,1.93,8.84,3.85,13.25,5.63,2.2.88,4.4,1.73,6.56,2.42s4.41,1.23,6.64,1.72c9,1.93,18.55,2.15,28.17,2.41l14.44.25c4.8.05,9.58,0,14.42-.08,2.43,0,4.88-.07,7.5.09a25.72,25.72,0,0,1,8,1.73,45,45,0,0,1,7,3.54,46.77,46.77,0,0,1,6.2,4.7,54.51,54.51,0,0,1,9.75,11.79c1.33,2.15,2.51,4.39,3.61,6.58a72.31,72.31,0,0,1,3.05,6.89,61.17,61.17,0,0,1,3.74,29.71,53.27,53.27,0,0,1-12,27.24,70.42,70.42,0,0,1-10.77,10.18c-2,1.51-3.86,2.94-5.9,4.35a66.91,66.91,0,0,1-6.31,3.81,138.23,138.23,0,0,1-27,10.79l-.11-.38c4.59-1.46,9.09-3.23,13.52-5.14a130,130,0,0,0,13-6.41,81.21,81.21,0,0,0,11.78-8.34,68.72,68.72,0,0,0,10.21-10.18,50.9,50.9,0,0,0,11-26.22,58.27,58.27,0,0,0-4-28.26c-3.71-8.83-8.61-17.43-15.82-23.83A44,44,0,0,0,298.9,294a42.58,42.58,0,0,0-6.41-3.2c-4.46-1.82-9.38-1.55-14.18-1.49s-9.67.19-14.5.17-9.67-.1-14.5-.17-9.67-.2-14.5-.5A99,99,0,0,1,220.38,287a71.49,71.49,0,0,1-7-1.86c-2.31-.76-4.57-1.65-6.81-2.57-4.48-1.84-8.89-3.79-13.31-5.75L180,270.9c-4.4-2-8.76-4.12-13.15-6.08a27.27,27.27,0,0,0-6.84-2.06,57.24,57.24,0,0,0-7.15-.89,50.89,50.89,0,0,0-14.3,1.13,41.46,41.46,0,0,0-13.16,5.6,33.61,33.61,0,0,0-5.63,4.45,44.4,44.4,0,0,0-4.78,5.38,42.53,42.53,0,0,0-6.54,12.74,43.25,43.25,0,0,0-1.78,14.22,112.34,112.34,0,0,0,1.78,14.34c.79,4.76,1.67,9.51,2.8,14.2a89.11,89.11,0,0,0,4.37,13.76c1.84,4.46,3.81,8.87,5.69,13.33a195.86,195.86,0,0,1,9.6,27.36Z" transform="translate(-9.88 -60.74)"/><path class="cls-1" d="M138.37,379.33c-.43-5.66-6.67-26.83-6.72-36.73-.08-13.56,2.43-23.34,5.12-27.23,8.95-13,29.23-12.79,36.15-13.93,13.27-2.2,25.48.75,49.9,6.65,10.68,2.57,18,5.2,32.64,10.45,15.87,5.69,19.24,7.81,22.07,11.4,9,11.4,4.45,27.4,3.84,29.44-3.4,11.34-17.65,20.92-20.67,23.12" transform="translate(-9.88 -60.74)"/><path d="M92.82,304.79a71.36,71.36,0,0,1-8.63-3c-2.81-1.19-5.56-2.52-8.25-4s-5.33-3-7.9-4.71a42.08,42.08,0,0,1-3.79-2.81c-.65-.56-1.17-1.06-1.73-1.56l-1.67-1.54a75.81,75.81,0,0,1-6.42-6.72,71.22,71.22,0,0,1-5.5-7.57c-.83-1.34-1.62-2.63-2.38-3.93l-2.3-4c-1.52-2.65-3-5.36-4.34-8.18s-2.56-5.76-3.6-8.57-2.2-5.62-3.21-8.56a76,76,0,0,1-2.61-9.08A45.59,45.59,0,0,1,29.38,221a28.56,28.56,0,0,1,1.51-10.09,20.72,20.72,0,0,1,2.53-4.82,26.15,26.15,0,0,1,3.44-3.91,12.75,12.75,0,0,1,2.4-1.85A14.38,14.38,0,0,1,42,199.1a28,28,0,0,1,5-1.19,75.81,75.81,0,0,1,9.48-.74c3.1,0,6.2,0,9.34.17s6.28.56,9.27,1a80.16,80.16,0,0,0,8.66.84,74.71,74.71,0,0,0,8.59-.27,73.18,73.18,0,0,0,16.91-3.69c2.76-.94,5.5-2,8.26-3.17a59.12,59.12,0,0,0,7.75-3.78c2.47-1.46,5-3.21,7.75-4.76a77.13,77.13,0,0,1,8.34-4.16c2.83-1.23,5.66-2.38,8.56-3.42a68.34,68.34,0,0,1,9-2.63,34.8,34.8,0,0,1,9.45-.71c.4,0,.79.06,1.18.11a10.72,10.72,0,0,1,1.2.16,19.24,19.24,0,0,1,2.38.56,38.69,38.69,0,0,1,4.37,1.67,85.57,85.57,0,0,1,8.14,4.2c2.63,1.54,5.18,3.17,7.73,4.8l-.2.35A134,134,0,0,0,177,176.3a41.21,41.21,0,0,0-4.27-1.44,18.81,18.81,0,0,0-4.43-.57,32.26,32.26,0,0,0-8.9,1,96.92,96.92,0,0,0-16.86,6.43,88.2,88.2,0,0,0-8,4.24c-2.58,1.54-5,3.3-7.6,4.92a61.77,61.77,0,0,1-8.08,4.18c-2.77,1.21-5.57,2.37-8.42,3.39a76.13,76.13,0,0,1-17.69,4.14,70.8,70.8,0,0,1-9.09.37,85.41,85.41,0,0,1-9.06-.82c-3-.4-6-.75-9-.9s-6-.18-9-.11a72.74,72.74,0,0,0-9,.64c-2.92.46-6,1.12-8,3.23a18.49,18.49,0,0,0-5,7.22,25.82,25.82,0,0,0-1.35,8.79c-.08,6,1.4,11.93,3.27,17.63.94,2.86,2,5.68,3,8.52s2.06,5.67,3.31,8.41c5.3,10.75,10.77,21.81,19.57,30.16,4,4.53,9.1,7.86,14.26,11a86.5,86.5,0,0,0,16.33,7.67Z" transform="translate(-9.88 -60.74)"/><path d="M92.72,292.68l-4-5.07L85,282.46q-3.83-5.16-7.58-10.37c-2.45-3.51-4.86-7-7.22-10.66-1.18-1.81-2.32-3.67-3.39-5.61s-2.07-3.79-3.07-5.74A57.15,57.15,0,0,1,61,243.91a18.66,18.66,0,0,1-1.23-7.53,15.23,15.23,0,0,1,2.88-7.53,21,21,0,0,1,5.5-5.2,32.27,32.27,0,0,1,6.33-3.22c1.08-.42,2.17-.79,3.21-1.13l1.69-.49c.56-.16,1.13-.32,1.73-.43a27.38,27.38,0,0,1,7.24-.67,47.85,47.85,0,0,1,6.83.86,34.32,34.32,0,0,0,11.64.71l1.42-.18a5.42,5.42,0,0,0,1-.25,26,26,0,0,0,2.61-1.11c1.85-.87,3.74-1.84,5.65-2.76,7.62-3.75,15.16-7.73,22.85-11.47,3.86-1.87,7.66-3.83,11.81-5.45a31.66,31.66,0,0,1,6.63-1.87,26.91,26.91,0,0,1,3.45-.29l1.77,0c.58,0,1.14.11,1.71.18a57.28,57.28,0,0,1,12.62,3.75q3,1.23,5.91,2.65c1.92,1,3.81,2,5.64,3.14l-.19.36a89.69,89.69,0,0,0-11.78-4.89,56.42,56.42,0,0,0-12.38-2.91,22.22,22.22,0,0,0-6.3.34,29.39,29.39,0,0,0-6,2c-3.88,1.72-7.64,3.76-11.4,5.76-7.53,4-15,8.08-22.61,12-1.89,1-3.79,2-5.72,2.89-1,.46-1.94.92-3,1.29a13.89,13.89,0,0,1-3.2.65,38.45,38.45,0,0,1-12.84-.65,45,45,0,0,0-6.29-.84,23.58,23.58,0,0,0-6.26.53A43.1,43.1,0,0,0,75.81,224a31.13,31.13,0,0,0-5.67,2.8A17.28,17.28,0,0,0,65.52,231a11.82,11.82,0,0,0-2.31,5.69,15.72,15.72,0,0,0,.93,6.16,53.38,53.38,0,0,0,2.41,5.88c3.53,7.77,8.09,15,12.61,22.22s9.21,14.37,13.89,21.5Z" transform="translate(-9.88 -60.74)"/><path d="M200.09,248.66c1.21-5.35,2.26-10.74,3.24-16.14s1.95-10.8,2.68-16.22,1.17-10.84,1.65-16.35A61.81,61.81,0,0,1,209,191.6c.66-2.77,1.4-5.37,2.21-8.07a50.7,50.7,0,0,1,7.36-15.39,34.52,34.52,0,0,1,13.5-11c5.42-2.42,11.13-3.33,16.58-4.16,2.69-.42,5.53-.83,8.34-1.06s5.64-.37,8.46-.37a106.12,106.12,0,0,1,16.88,1.32c1.4.21,2.79.47,4.17.77s2.76.6,4.13.95,2.73.72,4.09,1.1l1,.29,1.11.36c.71.25,1.39.51,2.06.78,5.28,2.17,10.19,4.57,15.18,6.93l14.86,7.17c5,2.4,9.9,4.82,14.83,7.34,2.47,1.26,4.93,2.55,7.4,3.92s4.95,3,7.24,4.53a135.53,135.53,0,0,1,13.32,10.39c2.11,1.85,4.16,3.73,6.17,5.63s4,3.79,6,5.75c3.94,3.94,7.78,8.05,11.36,12.39,1.79,2.16,3.5,4.39,5.17,6.46a38.59,38.59,0,0,0,5.21,5.5,46.75,46.75,0,0,0,6.3,4.35,67.49,67.49,0,0,0,7,3.57c2.43,1.09,5.06,2.14,7.69,3.53a40.66,40.66,0,0,1,7.4,5,56.41,56.41,0,0,1,11.33,13.21c1.53,2.44,2.88,4.87,4.21,7.31s2.63,5,3.75,7.64,2.18,5.24,3.09,7.92,1.73,5.4,2.38,8.16,1.2,5.54,1.61,8.36c.2,1.42.37,2.8.49,4.26s.16,2.93.16,4.36c-.06,5.7-.57,11.17-1,16.67l-1.41,16.44a156.64,156.64,0,0,1-2.19,16.58,83,83,0,0,1-2.2,8.14c-.82,2.65-1.69,5.32-2.79,7.93a48.18,48.18,0,0,1-9,14.38A51.73,51.73,0,0,1,429.1,401.2c-2.43,1.37-4.93,2.57-7.42,3.75s-5.09,2.21-7.68,3.16c-5.2,1.86-10.43,3.57-15.77,4.95l-.11-.39c5.26-1.53,10.44-3.41,15.54-5.42a107.66,107.66,0,0,0,14.77-7.18,50.5,50.5,0,0,0,12.71-10.27,46.11,46.11,0,0,0,8.33-14c1-2.55,1.83-5.16,2.6-7.79a82.1,82.1,0,0,0,2-8A151.18,151.18,0,0,0,456,343.7l1.17-16.44c.35-5.48.77-11,.75-16.44a53.09,53.09,0,0,0-.73-8.15c-.44-2.7-1-5.39-1.67-8s-1.46-5.28-2.37-7.86-1.9-5.14-3-7.64a121.22,121.22,0,0,0-7.8-14.45,52.58,52.58,0,0,0-10.67-12.32,37.41,37.41,0,0,0-6.76-4.55c-2.42-1.26-5-2.27-7.49-3.38a70.92,70.92,0,0,1-7.39-3.72,49.7,49.7,0,0,1-6.85-4.69,41.68,41.68,0,0,1-5.75-6c-1.74-2.13-3.42-4.3-5.18-6.4-3.51-4.21-7.28-8.19-11.17-12-7.85-7.66-15.8-15.29-24.87-21.47A117.09,117.09,0,0,0,342,181.85c-4.88-2.52-9.8-5-14.73-7.39l-14.8-7.24c-4.95-2.38-9.88-4.81-14.93-6.92A30.9,30.9,0,0,0,293.7,159c-1.32-.37-2.63-.78-4-1.09s-2.66-.67-4-.93-2.68-.55-4-.79a104.22,104.22,0,0,0-16.35-1.52A102,102,0,0,0,249,155.79c-5.43.74-10.9,1.56-15.93,3.73a31.92,31.92,0,0,0-12.64,10.06,49.14,49.14,0,0,0-7.26,14.62c-.85,2.6-1.66,5.23-2.35,7.87a61.3,61.3,0,0,0-1.44,8.08c-.6,5.45-1.18,10.93-2.05,16.36-1.79,10.85-4.13,21.6-6.85,32.25Z" transform="translate(-9.88 -60.74)"/><path d="M215.92,254.81q2.42-6.12,4.64-12.31c1.5-4.11,3-8.25,4.18-12.41.3-1,.56-2.07.78-3.1s.41-2.13.6-3.2c.38-2.14.71-4.3,1-6.47.65-4.34,1.35-8.72,2.24-13.06.22-1.08.46-2.16.71-3.24l.38-1.62.45-1.68a33.37,33.37,0,0,1,2.7-6.47,37.15,37.15,0,0,1,3.93-5.77c.74-.9,1.53-1.76,2.35-2.6.41-.41.84-.82,1.28-1.21s1-.79,1.43-1.19a18,18,0,0,1,6.86-3.11,27,27,0,0,1,7.23-.49,52.18,52.18,0,0,1,6.84.83c2.24.38,4.42.86,6.59,1.35l1.62.38c.29.07.51.11.85.21a9.75,9.75,0,0,1,1.08.36,31.92,31.92,0,0,1,3.29,1.55l5.82,3.11c3.82,2.06,7.67,4,11.58,5.89,7.79,3.69,16,6.95,24,10.79a67.63,67.63,0,0,1,12,7,27.29,27.29,0,0,1,2.82,2.5,15.21,15.21,0,0,1,1.3,1.45c.44.51.79,1,1.14,1.5a32,32,0,0,1,3.57,6.42c.94,2.25,1.58,4.45,2.26,6.37a26.93,26.93,0,0,0,2.47,5.28,38.59,38.59,0,0,0,8,8.88,81,81,0,0,0,10.44,7,72.61,72.61,0,0,0,11.26,5.63c4,1.58,8.27,3.28,12.29,5.18s8,3.69,12,5.78a63.15,63.15,0,0,1,11.66,7.49,46.47,46.47,0,0,1,9.25,10.65,52.2,52.2,0,0,1,5.72,12.7c.66,2.2,1.21,4.41,1.68,6.61s.9,4.3,1.3,6.58a85.11,85.11,0,0,1,.12,27,99.56,99.56,0,0,1-3,13.13,77.25,77.25,0,0,1-5,12.51,73.13,73.13,0,0,1-7.26,11.32c-.7.87-1.38,1.76-2.11,2.61l-2.23,2.5a59,59,0,0,1-4.92,4.59,104.26,104.26,0,0,1-22.56,13.79l-.19-.36a110.43,110.43,0,0,0,21.88-14.42,56.19,56.19,0,0,0,4.65-4.61l2.11-2.51c.69-.84,1.33-1.73,2-2.6a71.39,71.39,0,0,0,6.74-11.23A85,85,0,0,0,425,335a82,82,0,0,0-.58-26.11,117.74,117.74,0,0,0-3.12-12.74,49.47,49.47,0,0,0-5.47-11.83,42.61,42.61,0,0,0-8.62-9.74,59.61,59.61,0,0,0-11.06-6.94c-3.9-2-7.89-3.8-11.87-5.64s-8-3.46-12.12-5.06a76.61,76.61,0,0,1-11.84-5.85,85.05,85.05,0,0,1-11-7.36,42.07,42.07,0,0,1-8.78-9.89,31.11,31.11,0,0,1-2.8-6c-.73-2.09-1.33-4.19-2.16-6.19a28.56,28.56,0,0,0-3.13-5.68,20.72,20.72,0,0,0-4.46-4.65,67.08,67.08,0,0,0-11.28-6.59c-7.86-3.86-16-7.19-23.89-11q-5.92-2.9-11.68-6.1l-5.74-3.21a29.1,29.1,0,0,0-2.91-1.44,29.89,29.89,0,0,0-3.13-.87c-2.12-.53-4.26-1-6.4-1.44a51,51,0,0,0-6.48-.91,23.75,23.75,0,0,0-6.47.32,15,15,0,0,0-5.88,2.55,33.27,33.27,0,0,0-8.46,9.82,31,31,0,0,0-2.62,6c-.63,2.08-1.11,4.23-1.63,6.35-1,4.27-1.83,8.57-2.61,12.89-.39,2.16-.79,4.32-1.24,6.47a56.89,56.89,0,0,1-1.61,6.39c-1.35,4.19-2.94,8.28-4.58,12.35S218.06,251,216.29,255Z" transform="translate(-9.88 -60.74)"/><path d="M345.31,382.48a74.14,74.14,0,0,0,3.16,11.59A90.18,90.18,0,0,0,353,405.15a36.51,36.51,0,0,0,6.62,9.6,54.43,54.43,0,0,0,9.17,7.31,200.38,200.38,0,0,1,19.49,14.69c3.1,2.67,6.12,5.47,9,8.47a60.75,60.75,0,0,1,7.85,9.85l.86,1.35c.29.45.52.93.77,1.4.5.94,1,1.88,1.49,2.83a60.44,60.44,0,0,1,2.38,5.92A59.71,59.71,0,0,1,413.37,479a90.9,90.9,0,0,1-.6,25c-.28,2-.69,4.08-1.09,6.14-.18,1-.49,2-.73,3.07s-.48,2-.81,3a86.29,86.29,0,0,1-4.43,11.8,105.2,105.2,0,0,1-13.29,21.14c-2.58,3.22-5.26,6.32-7.95,9.35s-5.45,6.09-8.33,9a155.5,155.5,0,0,1-18.66,16.19,140.18,140.18,0,0,1-21.19,12.79c-1.88.85-3.73,1.78-5.64,2.58s-3.84,1.53-5.78,2.26-3.94,1.26-5.91,1.89-4,1.09-6,1.57c-4,1.08-8.12,1.57-12.18,2.25a115.89,115.89,0,0,1-12.31,1A62.56,62.56,0,0,1,276,607a44.55,44.55,0,0,1-12-4,47.9,47.9,0,0,1-10.21-7.24,38.24,38.24,0,0,1-7.68-9.81,32.79,32.79,0,0,1-2.42-5.74c-.27-1-.59-2-.77-3a29.53,29.53,0,0,1-.37-3.07,85.2,85.2,0,0,1,.11-12.17l.4,0a83.52,83.52,0,0,0,.41,12,27.93,27.93,0,0,0,3.78,11.3c4,6.94,10.52,12.27,17.67,15.81a42.8,42.8,0,0,0,11.43,3.58,59.5,59.5,0,0,0,12,.7,116.84,116.84,0,0,0,23.81-3.61c1.94-.51,3.91-1,5.8-1.65s3.83-1.23,5.71-1.94l5.58-2.28c1.85-.79,3.64-1.71,5.46-2.57a135.05,135.05,0,0,0,20.49-12.67,157.32,157.32,0,0,0,18.13-15.89c2.81-2.88,5.49-5.87,8.15-8.91s5.28-6.08,7.78-9.23a102,102,0,0,0,12.89-20.29,83.41,83.41,0,0,0,4.27-11.25c.32-1,.53-1.93.79-2.9s.53-1.94.7-2.93c.39-2,.81-3.93,1.1-5.92a87.07,87.07,0,0,0,.85-24A59.15,59.15,0,0,0,405.26,462c-.43-.91-.9-1.79-1.34-2.69-.24-.44-.44-.9-.7-1.33l-.79-1.28a58,58,0,0,0-7.31-9.54,120.32,120.32,0,0,0-8.61-8.44,204.21,204.21,0,0,0-19-14.94,55.78,55.78,0,0,1-9.22-7.87,37.88,37.88,0,0,1-6.54-10.19,90.66,90.66,0,0,1-4.2-11.37,75.71,75.71,0,0,1-2.67-11.82Z" transform="translate(-9.88 -60.74)"/><path d="M259.07,555.46c1.95,2.08,4,4,6.13,5.94s4.25,3.76,6.47,5.5a69.84,69.84,0,0,0,6.91,4.79,35.86,35.86,0,0,0,7.38,3.53c.62.25,1.26.36,1.89.55a14.78,14.78,0,0,0,2,.39c.66.1,1.33.24,2,.32l2,.15a15,15,0,0,0,2,0c.67,0,1.34,0,2,0a35.78,35.78,0,0,0,4-.48,52.34,52.34,0,0,0,15.33-5.32c4.9-2.52,9.6-5.58,14.4-8.64a84.37,84.37,0,0,0,13-10.1,71.69,71.69,0,0,0,10.47-12.46,73.53,73.53,0,0,0,7.56-14.46,62.83,62.83,0,0,0,4-31.82l-.28-2c-.11-.67-.25-1.33-.38-2-.22-1.34-.59-2.65-.89-4a73.65,73.65,0,0,0-2.55-7.78A92.87,92.87,0,0,0,355,462.85a77.55,77.55,0,0,0-4.69-6.81c-1.68-2.19-3.52-4.29-5.37-6.51a66.61,66.61,0,0,1-5.32-7.07,50.1,50.1,0,0,1-4.1-7.89,55,55,0,0,1-2.59-8.44c-.66-2.83-1.18-5.67-1.61-8.52s-.79-5.7-1-8.56-.38-5.73-.36-8.6l.4,0a129,129,0,0,0,2.3,16.93c.55,2.79,1.19,5.57,2,8.31a53.43,53.43,0,0,0,2.85,8,50,50,0,0,0,4.17,7.42,64.09,64.09,0,0,0,5.35,6.63c1.9,2.12,3.84,4.23,5.64,6.45a83.71,83.71,0,0,1,5.05,6.95c6.3,9.52,11.05,20.27,12.67,31.67a66.15,66.15,0,0,1-4,33.81,77.37,77.37,0,0,1-8,15.18,73.85,73.85,0,0,1-11.14,13.05,88.18,88.18,0,0,1-13.72,10.31,158.52,158.52,0,0,1-14.89,8.51,63.15,63.15,0,0,1-8,3.23,43.9,43.9,0,0,1-8.38,1.93,41.13,41.13,0,0,1-4.29.36c-.72,0-1.44,0-2.16,0a17.23,17.23,0,0,1-2.15-.13l-2.14-.24c-.71-.11-1.41-.27-2.12-.41a15.12,15.12,0,0,1-2.09-.5,15.92,15.92,0,0,1-2.05-.69,37,37,0,0,1-7.57-4.07,70.6,70.6,0,0,1-6.82-5.21,106.71,106.71,0,0,1-12.05-12.19Z" transform="translate(-9.88 -60.74)"/><path d="M120.89,171.33c-.7-3.31-1.27-6.65-1.76-10s-.8-6.72-1-10.11-.4-6.79-.34-10.22a63.81,63.81,0,0,1,.88-10.35l.59-2.61c.22-.83.47-1.65.72-2.48.52-1.66,1.07-3.3,1.7-4.92a75,75,0,0,1,4.43-9.44,56.1,56.1,0,0,1,5.94-8.69A52,52,0,0,1,139.53,95l2.13-1.64c.7-.56,1.49-1,2.23-1.5l1.14-.73.57-.36.66-.35a23.35,23.35,0,0,1,2.68-1.19,47.36,47.36,0,0,1,10.6-2.17c6.94-.73,13.73-.83,20.5-.94s13.51,0,20.25,0l20.22.09,20.19.21c1.67,0,3.35,0,5,0,.82,0,1.62,0,2.39-.07s1.52-.12,2.34-.21c3.29-.37,6.58-.77,9.86-1.26,6.57-.92,13.13-2.37,20.1-3.13a73.78,73.78,0,0,1,10.51-.4,94,94,0,0,1,10.38,1,85.65,85.65,0,0,1,10.22,2.07A57,57,0,0,1,321.4,88a42.54,42.54,0,0,1,4.67,2.67,25.24,25.24,0,0,1,4.22,3.5,37.07,37.07,0,0,1,6.36,8.51,43.85,43.85,0,0,1,3.8,9.78A45.85,45.85,0,0,1,342,122.73,40.64,40.64,0,0,1,340.49,133c-.88,3.29-2,6.5-3.15,9.67l-.38-.12c1-3.21,1.93-6.45,2.62-9.74a39.49,39.49,0,0,0,1.07-10,44.18,44.18,0,0,0-1.84-9.87,42,42,0,0,0-4-9.2,35.46,35.46,0,0,0-6.21-7.85,28.83,28.83,0,0,0-8.34-5.45,68.39,68.39,0,0,0-19.41-5,80.89,80.89,0,0,0-20.09-.22c-6.67.81-13.25,2.34-19.92,3.37-3.33.55-6.68,1-10,1.37a88.11,88.11,0,0,1-10.13.36l-20.22-.11c-13.48-.1-27-.29-40.43-.31-6.73,0-13.48,0-20.17.66a44.12,44.12,0,0,0-9.83,1.86,19.52,19.52,0,0,0-4.45,2.23c-.7.45-1.44.84-2.11,1.35l-2,1.49a49,49,0,0,0-7.23,7,56.68,56.68,0,0,0-5.85,8.16,71.34,71.34,0,0,0-4.53,9,63.17,63.17,0,0,0-3.18,9.54,62.85,62.85,0,0,0-1.22,10c-.19,3.35-.18,6.72,0,10.08a171.27,171.27,0,0,0,1.88,20.09Z" transform="translate(-9.88 -60.74)"/><path d="M441.77,221.6c3.38.7,6.77,1.37,10.15,2.11s6.74,1.61,10.09,2.51a128.21,128.21,0,0,1,19.8,6.85,43.56,43.56,0,0,1,4.73,2.57l1.16.71,1.12.85,1.12.85c.36.29.68.59,1,.89a53.16,53.16,0,0,1,7.24,8,86.35,86.35,0,0,1,5.78,8.92c1.74,3,3.38,6.11,5,9.18,3.2,6.11,6.45,12.31,9.3,18.65s5.64,12.71,8.24,19.15,5,13,7.29,19.54l3.3,9.81a87.48,87.48,0,0,0,3.68,9.26c.71,1.5,1.45,3,2.24,4.49s1.56,3,2.38,4.42c1.65,2.91,3.43,5.59,5.43,8.47a46.46,46.46,0,0,1,2.91,4.77,38.27,38.27,0,0,1,2.23,5.19,54.34,54.34,0,0,1,2.68,10.69,63.21,63.21,0,0,1,.58,10.86c-.07,3.58-.33,7.08-.61,10.54l-.92,10.34c-.31,3.44-.63,6.9-1.08,10.39a90.16,90.16,0,0,1-1.88,10.52,44.54,44.54,0,0,1-1.65,5.27,36,36,0,0,1-2.45,5,59.27,59.27,0,0,1-6.55,8.52,28.72,28.72,0,0,0-5.27,8,24.41,24.41,0,0,0-1.39,4.57c-.35,1.58-.48,3.21-.78,5a16.74,16.74,0,0,1-1.78,5.43c-.22.43-.45.81-.71,1.23s-.64.87-1,1.25l-1,1c-.36.31-.73.58-1.09.87a54.68,54.68,0,0,1-9.21,5.29q-2.37,1.11-4.78,2.12l-2.41,1-1.21.48-.61.23c-.19,0-.51.24-.37.07l-.84-1.21,10.75-4.44.17.36L512,487.19l-.24-.35,2.45-1.06,2.35-1.06c1.57-.72,3.11-1.48,4.64-2.26A53.66,53.66,0,0,0,530,477c.32-.28.66-.54,1-.83l.88-.91c.27-.33.49-.67.74-1a12.14,12.14,0,0,0,.61-1.12,14.92,14.92,0,0,0,1.41-4.87c.21-1.69.32-3.43.64-5.14a27.32,27.32,0,0,1,1.37-5,31.49,31.49,0,0,1,5.43-8.86,61.16,61.16,0,0,0,6.1-8.29,32.6,32.6,0,0,0,2.16-4.64,43.61,43.61,0,0,0,1.45-4.93,86.93,86.93,0,0,0,1.6-10.18c.72-6.85,1.19-13.74,1.72-20.61s.87-13.79-.17-20.58a50.89,50.89,0,0,0-2.54-9.94A35.93,35.93,0,0,0,547.6,361a108.91,108.91,0,0,1-10.41-17.93c-3-6.29-4.8-13-7.05-19.49s-4.58-13-7.08-19.43a403.38,403.38,0,0,0-16.85-37.77c-3.11-6.15-6.21-12.34-10.17-18a50.28,50.28,0,0,0-6.7-7.79,36.57,36.57,0,0,0-8.47-5.75,126.44,126.44,0,0,0-19.25-7.45c-6.58-2.06-13.26-3.77-19.95-5.47Z" transform="translate(-9.88 -60.74)"/><path d="M472,364.25a73.07,73.07,0,0,1,16.57,4.11,45.2,45.2,0,0,1,7.86,3.75c.64.39,1.24.83,1.87,1.25s1.16.88,1.73,1.34a43.94,43.94,0,0,1,3.29,3,39.84,39.84,0,0,1,9.4,15,36.8,36.8,0,0,1,1.36,18,68.34,68.34,0,0,1-2,8.61c-.41,1.4-.87,2.76-1.32,4.11s-.89,2.66-1.41,4.1a36.86,36.86,0,0,1-1.87,4.25c-.73,1.38-1.48,2.61-2.19,3.81-1.41,2.4-2.73,4.79-4,7.26-2.51,4.9-5.05,10-7.43,15-1.17,2.51-2.29,5-3.17,7.47a33.08,33.08,0,0,0-1.75,7.45,28.86,28.86,0,0,0,0,7.6,68,68,0,0,1,.58,8.84,74.21,74.21,0,0,1-.63,8.87,73.08,73.08,0,0,1-1.63,8.69,115.68,115.68,0,0,1-5.69,16.43,110.59,110.59,0,0,1-7.42,15.7,45.64,45.64,0,0,1-5.35,7.21,46.72,46.72,0,0,1-6.64,6,48.33,48.33,0,0,1-15.81,7.79,46.41,46.41,0,0,1-8.68,1.44,32.55,32.55,0,0,1-8.77-.91,73.44,73.44,0,0,1-8.22-2.45c-2.67-1-5.28-2.09-7.89-3.15l.12-.38a112.57,112.57,0,0,0,16.23,4.68,31.74,31.74,0,0,0,8.36.51,44.57,44.57,0,0,0,8.22-1.75A46.35,46.35,0,0,0,460.49,550a48.46,48.46,0,0,0,6.11-5.78,42.65,42.65,0,0,0,4.84-6.86,116.29,116.29,0,0,0,6.88-15.41,112.52,112.52,0,0,0,5.29-16,75.75,75.75,0,0,0,2-16.69,64.14,64.14,0,0,0-.61-8.4,32.91,32.91,0,0,1-.06-8.53,37,37,0,0,1,2-8.3c1-2.67,2.16-5.25,3.37-7.8,2.47-5.09,5-10.14,7.63-15.14q2-3.75,4.22-7.37c.73-1.2,1.48-2.4,2.15-3.62a32.74,32.74,0,0,0,1.74-3.81A103.6,103.6,0,0,0,511,410.12a34.23,34.23,0,0,0-.85-16.61,37.67,37.67,0,0,0-8.37-14.42,38.19,38.19,0,0,0-6.29-5.56,45.49,45.49,0,0,0-7.42-4A81.12,81.12,0,0,0,472,364.65Z" transform="translate(-9.88 -60.74)"/><path d="M458.35,396.35c1.45,1,2.82,2.12,4.18,3.24s2.63,2.35,3.92,3.55a83.4,83.4,0,0,1,7.33,7.78,27.16,27.16,0,0,1,3.08,4.71,21.81,21.81,0,0,1,1.8,5.55,49.35,49.35,0,0,1,.61,11,56.4,56.4,0,0,1-1.35,10.88c-.83,3.62-1.9,6.92-2.79,10.23s-1.8,6.63-2.56,9.95-1.39,6.64-1.88,10c-.27,1.68-.49,3.34-.73,5.09l-.2,1.4c-.05.27-.09.51-.18.9l-.09.33-.05.19-.11.29a4.09,4.09,0,0,1-.52.94,4.45,4.45,0,0,1-.55.6,3.59,3.59,0,0,1-2.3.9,4,4,0,0,1-.82-.07,3.79,3.79,0,0,1-1.51-.66,2.51,2.51,0,0,1-.32-.25,2.73,2.73,0,0,1-.25-.23c-.15-.17-.3-.36-.42-.52a4.35,4.35,0,0,1-.64-1.52,5.24,5.24,0,0,1-.07-1.91,5.14,5.14,0,0,1,.3-1.15l.09-.21.17-.31c.05-.1.12-.2.18-.3a4.91,4.91,0,0,1,.49-.56,3.31,3.31,0,0,1,.79-.58,3.7,3.7,0,0,1,1.6-.42c.87-.29,2.89,1.06,2.76,1.18a4,4,0,0,1,.58.88,4.27,4.27,0,0,1,.24.62l.08.33.06.4c0,.21.05.38.06.54a27,27,0,0,1,0,3c0,.93-.1,1.84-.17,2.74-.14,1.79-.31,3.57-.55,5.33-.49,3.54-1,6.95-1.69,10.59a38.54,38.54,0,0,1-1.51,5.43,39.63,39.63,0,0,1-2.3,5.12,37.85,37.85,0,0,1-6.45,9.12,33.7,33.7,0,0,1-4.28,3.65c-.37.28-.76.54-1.15.79s-.77.51-1.21.74-.85.48-1.29.7-.87.38-1.32.56a34.49,34.49,0,0,1-10.76,2c-1.78.06-3.55.06-5.32,0s-3.51-.32-5.25-.48V528a86.37,86.37,0,0,0,10.43-.4,33.44,33.44,0,0,0,10-2.55,21,21,0,0,0,4.36-2.77,29.4,29.4,0,0,0,3.76-3.56,36,36,0,0,0,5.62-8.68,37.22,37.22,0,0,0,3.22-9.84c.61-3.41,1-6.89,1.38-10.34.18-1.74.34-3.47.46-5.2a45,45,0,0,0,.13-5.18,2.86,2.86,0,0,0-.08-.51.21.21,0,0,0,0,.06s.18.14.26.1.18-.07.18-.06,0,0,0,0a1,1,0,0,0-.05.22,1.79,1.79,0,0,0,0,.52c0,.17.11.21.09.19s-.1,0-.17,0a.14.14,0,0,0-.07.06s0,0,0-.06a1.34,1.34,0,0,0,.08-.26c0-.19.08-.41.11-.62l.18-1.28c.21-1.73.43-3.47.69-5.2a151.9,151.9,0,0,1,4.78-20.41c1-3.35,2.14-6.65,3-10A62.36,62.36,0,0,0,476.13,432a48.65,48.65,0,0,0-.15-10.38,18.72,18.72,0,0,0-1.33-5,27.88,27.88,0,0,0-2.61-4.47,83.47,83.47,0,0,0-6.57-8.09,95.16,95.16,0,0,0-7.38-7.38Z" transform="translate(-9.88 -60.74)"/><path d="M289.59,630.47a63.45,63.45,0,0,0-1,7,60.5,60.5,0,0,0-.36,7,30.56,30.56,0,0,0,.75,6.75,11.64,11.64,0,0,0,.45,1.56,12.06,12.06,0,0,0,.61,1.52,26.49,26.49,0,0,0,1.52,3,29.64,29.64,0,0,0,9.14,9.41,52.85,52.85,0,0,0,12,5.93,49.28,49.28,0,0,0,13.05,2.39,67.11,67.11,0,0,0,13.46-.81c4.5-.68,9-1.63,13.52-2.77s9.12-2.37,13.58-3.62a93.39,93.39,0,0,0,25.19-10.36,80.21,80.21,0,0,0,20.36-17.89,88,88,0,0,0,7.75-11.31,65.06,65.06,0,0,0,5.64-12.46,68.75,68.75,0,0,0,2.63-13.6c.24-2.33.4-4.68.53-7s.26-4.72.37-7.09h.4c.29,9.42.41,19-1.89,28.26a65.7,65.7,0,0,1-5.3,13.18,85.25,85.25,0,0,1-7.64,12,80.73,80.73,0,0,1-20.84,19.15c-8,5.11-17,8.51-26.12,11s-18.26,5-27.68,6.27a70.22,70.22,0,0,1-14.2.57,49.31,49.31,0,0,1-13.9-2.92,53.54,53.54,0,0,1-12.52-6.71,31.8,31.8,0,0,1-9.41-10.6,24.26,24.26,0,0,1-2.41-6.71,32.7,32.7,0,0,1-.38-7.12,63.91,63.91,0,0,1,2.33-14Z" transform="translate(-9.88 -60.74)"/><path d="M307.13,629.37c1.14,1.31,2.3,2.59,3.55,3.77s2.47,2.38,3.77,3.5a64.53,64.53,0,0,0,8.23,6,37.72,37.72,0,0,0,4.29,2.41c.68.32,1.52.59,2.27.88l1.15.44,1.19.35c.79.21,1.56.49,2.37.67l2.39.56c1.62.26,3.23.59,4.87.7a52.49,52.49,0,0,0,9.79,0,43.73,43.73,0,0,0,9.53-1.81,40.43,40.43,0,0,0,8.76-3.7,31.32,31.32,0,0,0,3.82-2.66,23.48,23.48,0,0,0,3.37-3.17c1.07-1.14,2.09-2.42,3.2-3.79a42.39,42.39,0,0,1,3.78-4.22,26.75,26.75,0,0,1,4.75-3.6,29.65,29.65,0,0,1,5.26-2.48,34.62,34.62,0,0,1,5.51-1.46,25.09,25.09,0,0,0,4.46-1.09,12.21,12.21,0,0,0,3.5-2.19,17.26,17.26,0,0,0,3-3.27,26.88,26.88,0,0,0,3.76-8.62c.22-.79.41-1.6.6-2.43.08-.4.19-.85.26-1.23l.2-1.15a39.13,39.13,0,0,0,.28-4.9,100.87,100.87,0,0,0-2.35-20.41l.38-.14a86.44,86.44,0,0,1,2.62,10.09,79.74,79.74,0,0,1,1.45,10.33,38,38,0,0,1,0,5.23,52,52,0,0,1-.82,5.17,29,29,0,0,1-3.75,9.76,18.26,18.26,0,0,1-7.76,7,27,27,0,0,1-5.06,1.41,32.14,32.14,0,0,0-4.94,1.43,25.46,25.46,0,0,0-8.65,5.38c-2.47,2.37-4.35,5.31-6.72,7.9a27.75,27.75,0,0,1-3.87,3.56,35.27,35.27,0,0,1-4.34,2.95,42.71,42.71,0,0,1-9.69,4,47.61,47.61,0,0,1-10.32,1.68c-1.74.15-3.49.09-5.23.08s-3.48-.2-5.21-.49a47.07,47.07,0,0,1-10.13-2.51l-1.23-.44-1.2-.54c-.79-.37-1.6-.67-2.38-1.1a39.61,39.61,0,0,1-4.4-2.82A63.31,63.31,0,0,1,306.8,629.6Z" transform="translate(-9.88 -60.74)"/><text x="-9.88" y="-60.74"/><text x="-9.88" y="-60.74"/></svg>