<svg width="96" height="24" viewBox="0 0 96 24" fill="none" xmlns="http://www.w3.org/2000/svg">
<path d="M11 9H9V2H7V9H5V2H3V9C3 11.12 4.66 12.84 6.75 12.97V22H9.25V12.97C11.34 12.84 13 11.12 13 9V2H11V9ZM16 6V14H18.5V22H21V2C18.24 2 16 4.24 16 6Z" fill="black"/>
<path d="M94 9.24L86.81 8.62L84 2L81.19 8.63L74 9.24L79.46 13.97L77.82 21L84 17.27L90.18 21L88.55 13.97L94 9.24ZM84 15.4L80.24 17.67L81.24 13.39L77.92 10.51L82.3 10.13L84 6.1L85.71 10.14L90.09 10.52L86.77 13.4L87.77 17.68L84 15.4Z" fill="black"/>
<path d="M70 9.24L62.81 8.62L60 2L57.19 8.63L50 9.24L55.46 13.97L53.82 21L60 17.27L66.18 21L64.55 13.97L70 9.24ZM60 15.4L56.24 17.67L57.24 13.39L53.92 10.51L58.3 10.13L60 6.1L61.71 10.14L66.09 10.52L62.77 13.4L63.77 17.68L60 15.4Z" fill="black"/>
<path d="M36 17.27L42.18 21L40.54 13.97L46 9.24L38.81 8.63L36 2L33.19 8.63L26 9.24L31.46 13.97L29.82 21L36 17.27Z" fill="black"/>
</svg>
