<svg id="Layer_2" data-name="Layer 2" xmlns="http://www.w3.org/2000/svg" viewBox="0 0 383.75 388.24"><defs><style>.cls-1,.cls-2{fill:none;stroke:#000;stroke-miterlimit:10;}.cls-2{stroke-width:4px;}</style></defs><title>champinjion</title><path class="cls-1" d="M306.69,634.83" transform="translate(-114.82 -252.79)"/><path class="cls-1" d="M306.69,630.67" transform="translate(-114.82 -252.79)"/><path class="cls-1" d="M306.69,634.83" transform="translate(-114.82 -252.79)"/><path class="cls-1" d="M306.69,542.3" transform="translate(-114.82 -252.79)"/><path class="cls-1" d="M306.69,410.28" transform="translate(-114.82 -252.79)"/><path class="cls-2" d="M236.46,391.56c-11.31,5.34-27.34,14.6-32.74,19.24-5.09,4.36-12.18,10.55-18.2,20.79-4.68,8-10.12,17.22-6.75,26,2.23,5.81,8.15,10.95,11.95,9.87,3.52-1,2.55-6.53,8.32-15.07,2.9-4.29,5.69-8.42,10.39-9.88,7.17-2.21,10.11,4.44,17.68,2.6s12.57-10.54,14.55-14c1-1.79,3-3.36,2.6-5.72-1.9-10.17-6.85-34.09-7.8-33.79S245,418.7,247.9,445.62a246.2,246.2,0,0,1,1,33.79,616.79,616.79,0,0,1-7.28,80.05c-7.81,49.36-24.94,63.17-16.11,73.81,5.89,7.11,13.59,2,57.7,3.12,7.8.2,37.07,1.13,62.37,2.08,24.59.91,33.42,1.39,36.91-4.16,3.92-6.25-5.86-14.14-13.52-34.31-3.67-9.67-5.05-19.44-7.79-39-4.42-31.4-6.63-47.1-5.2-60.3,2-18.38,9.05-48.16,8.83-65,0-.53,0-2.07.09-4.18a56.24,56.24,0,0,1,6.67-23.89c2.13-3.89,8.18-13.84,8.84-13.52,1.08.54-10.45,17.59-7.8,29.63,1.28,5.81,5.52,13.51,12.48,16.11,5.75,2.16,8.65-.95,18.19,1.56,4.6,1.22,7.56,2,9.87,4.68,4.06,4.71,1.05,9.37,5.2,14.56,2.39,3,6.82,5.73,10.4,4.67,5.64-1.66,6.62-12,6.76-13.51,1.24-13.27-7.5-24-12.48-30.15-8.08-9.94-17-15.25-22.87-18.71a99.4,99.4,0,0,0-19.75-8.84" transform="translate(-114.82 -252.79)"/><path class="cls-2" d="M358.09,495.47c2,1.71,13.65,11.41,20.13,12,5.19.48,13.25-.69,14.55-4.68.66-2-.86-3.43-5.72-12-5.23-9.17-5.07-10.34-4.68-10.91,1.57-2.3,9.41,1.11,16.12,3.12,16.81,5,33.63,3.43,43.14.52,15.16-4.64,23.59-16.21,32.23-28.07,17.73-24.35,21.44-49.93,22.35-61.86a124.63,124.63,0,0,0-14-67.57c-17.42-32.31-44.49-46.76-55.61-52.5-16.18-8.35-34.3-13.71-80.57-16.11-79.45-4.13-119.18-6.2-157,15.07-13.59,7.65-47.35,27.29-63.42,68.09-2.2,5.6-22.93,60.8,8.32,106.56,6.35,9.3,25.28,37,58.74,39,29.88,1.75,50.93-18.24,55.1-22.36" transform="translate(-114.82 -252.79)"/></svg>