<svg id="Layer_2" data-name="Layer 2" xmlns="http://www.w3.org/2000/svg" viewBox="0 0 476.25 458.58"><defs><style>.cls-1,.cls-2{fill:none;stroke:#000;stroke-miterlimit:10;}.cls-1{stroke-width:4px;}</style></defs><title>Kremlor</title><path class="cls-1" d="M243,382c.6,3.46,1.39,8.65,2,15,.79,8.25.78,13.5,1,20,.6,17.51,2,17.67,2,27,0,14.94-3.6,26.29-7,37-2.62,8.25-3.24,8.06-12,29-11.66,27.88-14.14,36.77-15,40-4,15.07-6,22.82-4,33,.65,3.31,3.33,16,14,26,16.16,15.21,38.57,13.08,50,12,6.63-.63,20.12-2.07,34-11,6.54-4.21,15.57-11.64,26-30,14.36-25.3,18.14-48,23-79,3.33-21.23,6-38.83,5-63a260.34,260.34,0,0,0-9-58" transform="translate(-57.17 -165.18)"/><path class="cls-1" d="M155,203a285.09,285.09,0,0,0-42,7c-24.22,5.84-32.1,11-37,15-5.3,4.34-13.34,10.92-16,22-3.46,14.37,4.91,27.48,6.44,29.93A45.62,45.62,0,0,0,71,283a37.93,37.93,0,0,0,11.81,8.58c.14.07,1,.48,1.94.92,9.15,4.07,22.88,6.28,39.25,8.5,1.71.23,5.25.7,10,1.09,1.13.09,2.3.18,3.57.25,12.63.75,18.1-.44,33.42,2.66,13.71,2.77,21.53,6.19,39,13,31.54,12.29,57.86,21.32,66,24,17.19,5.66,47,15.47,83,16,12.87.19,74.45-.09,126-40l.51-.4s1.37-1.07,2.69-2.14A133.17,133.17,0,0,0,521,276c5-10.16,12.25-24.79,10-44-.63-5.38-2.84-22.16-16-35-6.28-6.12-12.91-9.27-27-14-24.71-8.3-38.75-13-60-15-26.66-2.49-46.37,1-73,6-28.53,5.32-28.73,8.31-71,18-33.34,7.65-50,11.47-67,12C191.9,204.78,185.68,200.62,155,203Z" transform="translate(-57.17 -165.18)"/><path class="cls-1" d="M66.44,276.93c1.48,3.64,3.81,14.5,7.2,20.13,2.53,4.22,5.51,13.52,17.7,25,13.15,12.4,25.08,19.7,34.72,25.53s22,13.27,38.81,19.4c10.26,3.74,20.83,6.49,53.62,10.72,31.58,4.09,47.37,6.13,65.36,6.64,38.41,1.1,67.49-3.23,86.3-6.12,27-4.16,44.14-6.91,66.38-15.83,26.67-10.71,42.67-23.05,46.47-26.05,8.3-6.54,21.28-16.77,32.17-33.7,16.34-25.39,16.22-51.66,16.25-66.89" transform="translate(-57.17 -165.18)"/><path d="M77.9,288.59c1.09,1.34,2.13,2.69,3.19,4l3.07,4.08c2,2.72,4.11,5.43,6.23,8.05,1,1.3,2.09,2.66,3.13,3.72s2.37,2.32,3.6,3.44a95,95,0,0,0,7.63,6.29c2.66,2,5.42,3.75,8.24,5.52s5.77,3.45,8.7,5.19l17.43,10.56c5.74,3.6,11.53,7.13,17.32,10.46,2.9,1.69,5.76,3.24,8.8,4.73l9.09,4.46,9.17,4.37c3.06,1.48,6.13,2.9,9.21,4.34s6.13,2.92,9.23,4.33l9.33,4.15-.13.38c-6.48-2.06-12.87-4.42-19.2-6.9s-12.63-5.08-18.87-7.79-12.47-5.47-18.44-8.78-11.79-6.8-17.6-10.34L119.7,332.11a167.3,167.3,0,0,1-16.92-11.44,89.65,89.65,0,0,1-7.59-6.86q-1.78-1.83-3.48-3.74A48.24,48.24,0,0,1,88.65,306c-3.85-5.61-7.41-11.42-11.08-17.13Z" transform="translate(-57.17 -165.18)"/><path d="M129.37,301.51c4.22,3.87,8,8.11,12,12,2,2,4,3.91,6.07,5.67s4.29,3.55,6.48,5.22,4.46,3.32,6.7,4.95,4.56,3.17,6.9,4.7c4.63,3.09,9.36,6.1,14.15,9.05s9.54,6,14.31,9,9.55,6,14.26,9.13c9.5,6.12,18.94,12.32,28.25,18.88l-.19.35c-10-5.29-19.86-10.85-29.64-16.52s-19.51-11.47-29.11-17.45-19-12.31-27.66-19.69c-2.16-1.84-4.28-3.71-6.33-5.68s-3.94-4.08-5.79-6.22c-3.72-4.27-7.13-8.8-10.73-13.14Z" transform="translate(-57.17 -165.18)"/><path d="M181.89,307.51c6.18,6.71,11.5,14.11,16.92,21.14,1.38,1.74,2.75,3.46,4.13,5.1a60.43,60.43,0,0,0,4.45,4.66c3.13,3.13,6.32,6.2,9.63,9.15s6.58,5.92,10,8.8,6.85,5.77,10.22,8.63c6.91,5.66,14,11.3,20.72,17.41l-.22.33c-7.56-4.91-15-9.92-22.36-15.2a269.85,269.85,0,0,1-21-17q-5-4.59-9.65-9.49a73,73,0,0,1-8.46-10.58c-5.07-7.46-9.68-15.21-14.65-22.71Z" transform="translate(-57.17 -165.18)"/><path d="M241.14,329.62a58.37,58.37,0,0,1,4,7.63c1.14,2.56,2.29,5.08,3.48,7.41.32.57.63,1.14,1,1.66s.6,1,1,1.55c.76,1.09,1.56,2.18,2.38,3.25,1.61,2.17,3.26,4.35,5,6.45s3.38,4.25,5.15,6.4,3.52,4.28,5.2,6.5c3.46,4.37,6.84,8.8,10.11,13.55l-.27.3c-4.26-3.66-8.27-7.6-12.15-11.66s-7.67-8.2-11.18-12.61c-1.74-2.21-3.41-4.47-5-6.8-.79-1.17-1.56-2.35-2.28-3.56a28.72,28.72,0,0,1-1.87-3.82,79.13,79.13,0,0,1-2.61-8c-.76-2.7-1.37-5.45-2.26-8.08Z" transform="translate(-57.17 -165.18)"/><path d="M276.2,342c1.38,3.94,2.38,7.8,3.3,11.56.52,1.86,1,3.73,1.51,5.32.32.8.56,1.61,1,2.41s.74,1.63,1.13,2.45c1.62,3.27,3.52,6.57,5.39,10s3.83,6.86,5.55,10.69l-.29.28a85.27,85.27,0,0,1-7.81-9.07,68.72,68.72,0,0,1-6.43-10.12,33.9,33.9,0,0,1-2.16-5.63,43,43,0,0,1-1-5.93,85.3,85.3,0,0,1-.54-12Z" transform="translate(-57.17 -165.18)"/><path d="M301.56,350.42c1.48,2.92,2.6,5.57,3.69,8.29s2,5.41,2.83,8.15,1.57,5.52,2.21,8.35c.34,1.41.58,2.87.89,4.31s.54,2.9.83,4.52l-.31.25a34.63,34.63,0,0,1-4.36-7.84c-1.17-2.75-2.18-5.56-3.08-8.41s-1.59-5.76-2.16-8.7a44.41,44.41,0,0,1-.94-8.91Z" transform="translate(-57.17 -165.18)"/><path d="M336.65,355.8a22.18,22.18,0,0,1,2.35,7.11,18.09,18.09,0,0,1,.21,1.82,12.75,12.75,0,0,1,0,2,22.32,22.32,0,0,1-.63,3.73,28.38,28.38,0,0,1-2.61,6.66,24.92,24.92,0,0,1-4.44,5.95l-.39-.09c.48-2.29,1.13-4.52,1.77-6.76s1.25-4.48,1.8-6.73c.28-1.12.56-2.24.76-3.37a31.88,31.88,0,0,0,.33-3.43c.13-2.32.24-4.64.45-7Z" transform="translate(-57.17 -165.18)"/><path d="M367.74,358.16c-.26,1.37-.51,2.56-.79,3.81a27.46,27.46,0,0,1-1.14,3.61c-.25.6-.5,1.19-.82,1.79a13.13,13.13,0,0,1-1.17,1.88L361.57,372a49.92,49.92,0,0,1-4.88,5.25,17.63,17.63,0,0,1-6.83,4.07l-.28-.29c.83-.88,1.61-1.81,2.35-2.77s1.48-1.93,2.19-2.91c1.43-2,2.83-4,4.37-5.9.78-.94,1.67-1.85,2.49-2.7a27.13,27.13,0,0,0,2.14-2.9,42.19,42.19,0,0,1,4.33-5.95Z" transform="translate(-57.17 -165.18)"/><path d="M408.26,353.05a77.06,77.06,0,0,1-4.17,8.5,27.87,27.87,0,0,1-2.88,4,21.06,21.06,0,0,1-1.89,1.89c-.66.56-1.31,1.06-2,1.54a48.08,48.08,0,0,1-8.15,4.68,45.12,45.12,0,0,1-9.07,3l-.24-.32c2.43-1.92,5-3.63,7.54-5.35s5.1-3.45,7.57-5.26a26.56,26.56,0,0,0,3.53-2.88c1.08-1.06,2.1-2.21,3.1-3.37a53.23,53.23,0,0,1,6.36-6.74Z" transform="translate(-57.17 -165.18)"/><path d="M457.8,336.49a30.17,30.17,0,0,1-3.5,9.12,39.31,39.31,0,0,1-5.67,7.81,41.05,41.05,0,0,1-7.47,6.06,30.06,30.06,0,0,1-8.93,4l-.24-.32c1.21-1,2.39-2,3.56-3s2.34-2,3.5-3.06c2.3-2.07,4.57-4.19,6.69-6.42s4.09-4.63,6.05-7c1-1.21,1.92-2.43,2.87-3.65s1.91-2.44,2.81-3.7Z" transform="translate(-57.17 -165.18)"/><path d="M490.91,313.39a14.24,14.24,0,0,1,.38,4.66,26.89,26.89,0,0,1-.67,4.43,35.26,35.26,0,0,1-3.1,8.2,32.09,32.09,0,0,1-5.13,7.22,20.57,20.57,0,0,1-1.65,1.57,17.52,17.52,0,0,1-1.84,1.41,11.2,11.2,0,0,1-4.36,1.88l-.22-.33a16.7,16.7,0,0,0,2.93-2.95,20.85,20.85,0,0,0,1.29-1.65c.41-.57.83-1.13,1.2-1.73a75.44,75.44,0,0,0,4.24-7.28c1.32-2.48,2.56-5,3.69-7.59.56-1.29,1.09-2.59,1.58-3.91a27.31,27.31,0,0,0,1.27-4Z" transform="translate(-57.17 -165.18)"/><path d="M213,226.15l2.9.17,2.88.23c1.92.15,3.84.22,5.77.34,3.85.24,7.69.55,11.52.9,7.68.65,15.38,1.19,23,1.77s15.37,1.46,22.87.31c7.51-1,14.92-3.06,22.4-4.93,3.71-1,7.39-2,11-3.09s7.27-2.36,11-3.49,7.62-2.05,11.45-2.83,7.69-1.49,11.65-1.9c2-.2,4-.39,6-.41a34,34,0,0,1,6.37.39,15.35,15.35,0,0,1,6.78,2.79,16.13,16.13,0,0,1,4.54,5.67A17.78,17.78,0,0,1,375.2,229a14.18,14.18,0,0,1-1.5,7.44,15.79,15.79,0,0,1-5,5.43,34.54,34.54,0,0,1-5.6,3.14c-7.53,3.31-15.05,5.18-22.49,7.31a157.5,157.5,0,0,1-23.08,4.66c-3.92.49-7.86.69-11.78.8s-7.84.08-11.76-.13c-7.84-.4-15.55-1.47-23.19-2.61l-11.44-1.77c-3.81-.61-7.64-1.22-11.46-2-1.92-.41-3.8-1-5.64-1.39s-3.71-.8-5.6-1.13c-3.77-.67-7.58-1.21-11.41-1.79A48.69,48.69,0,0,1,214,244a43.17,43.17,0,0,1-10-6,15.61,15.61,0,0,1-4-4.29,3.46,3.46,0,0,1-.34-3,4.78,4.78,0,0,1,2.1-2.16,17.54,17.54,0,0,1,5.53-1.86A30.44,30.44,0,0,1,213,226.15Zm0,.4a30.27,30.27,0,0,0-5.7.57A17.17,17.17,0,0,0,202,229a4.3,4.3,0,0,0-1.89,1.93,2.92,2.92,0,0,0,.34,2.58,14.86,14.86,0,0,0,3.88,4.11,40.71,40.71,0,0,0,9.92,5.72A48.94,48.94,0,0,0,225.38,246c3.81.52,7.64.93,11.46,1.5,1.91.28,3.82.59,5.71,1s3.75.87,5.64,1.22c3.78.71,7.6,1.21,11.41,1.71l11.47,1.45c7.64.92,15.3,1.75,23,1.94a151.12,151.12,0,0,0,23-1.26,159.41,159.41,0,0,0,22.51-4.93c7.38-2.16,14.88-4.11,21.87-7.25a32.59,32.59,0,0,0,5-2.74,12.08,12.08,0,0,0,3.8-4,10.32,10.32,0,0,0,1.09-5.39,13.94,13.94,0,0,0-1.44-5.4,12.7,12.7,0,0,0-3.42-4.39,11.55,11.55,0,0,0-5.12-2.14,44.51,44.51,0,0,0-11.42-.14c-3.82.34-7.63.93-11.42,1.58s-7.55,1.45-11.26,2.45-7.39,2.15-11.11,3.17-7.47,1.94-11.23,2.79c-7.51,1.66-15,3.53-22.72,4.32a59.76,59.76,0,0,1-11.58.13l-11.51-1.06-23-2.14q-5.76-.56-11.52-1c-1.91-.14-3.84-.22-5.76-.38l-2.88-.25Z" transform="translate(-57.17 -165.18)"/><path class="cls-2" d="M442.32,223.19" transform="translate(-57.17 -165.18)"/></svg>