<svg width="29" height="29" viewBox="0 0 29 29" fill="none" xmlns="http://www.w3.org/2000/svg">
<path d="M10.914 27.6L9.74643 12.5565H19.0491L17.8816 27.6H10.914Z" fill="#A78F72" stroke="#FFF1CD" stroke-width="2"/>
<mask id="mask0" mask-type="alpha" maskUnits="userSpaceOnUse" x="0" y="0" width="29" height="18">
<path fill-rule="evenodd" clip-rule="evenodd" d="M28.3146 17.6435C28.317 17.5159 28.3182 17.3879 28.3182 17.2596C28.3182 8.05877 22.0858 0.600006 14.3977 0.600006C6.70969 0.600006 0.477295 8.05877 0.477295 17.2596C0.477295 17.3879 0.478507 17.5159 0.480918 17.6435H28.3146Z" fill="white"/>
</mask>
<g mask="url(#mask0)">
<path fill-rule="evenodd" clip-rule="evenodd" d="M28.3146 17.6435C28.317 17.5159 28.3182 17.3879 28.3182 17.2596C28.3182 8.05877 22.0858 0.600006 14.3977 0.600006C6.70969 0.600006 0.477295 8.05877 0.477295 17.2596C0.477295 17.3879 0.478507 17.5159 0.480918 17.6435H28.3146Z" fill="#A78F72"/>
<path d="M28.3146 17.6435V19.6435H30.2772L30.3142 17.6813L28.3146 17.6435ZM0.480923 17.6435L-1.51873 17.6813L-1.48165 19.6435H0.480923V17.6435ZM26.3182 17.2596C26.3182 17.3753 26.3171 17.4907 26.3149 17.6057L30.3142 17.6813C30.3169 17.5411 30.3182 17.4005 30.3182 17.2596H26.3182ZM14.3977 2.60001C20.6598 2.60001 26.3182 8.81185 26.3182 17.2596H30.3182C30.3182 7.30569 23.5118 -1.39999 14.3977 -1.39999V2.60001ZM2.47729 17.2596C2.47729 8.81185 8.13568 2.60001 14.3977 2.60001V-1.39999C5.28372 -1.39999 -1.52271 7.30569 -1.52271 17.2596H2.47729ZM2.48057 17.6057C2.4784 17.4907 2.47729 17.3753 2.47729 17.2596H-1.52271C-1.52271 17.4005 -1.52137 17.5411 -1.51873 17.6813L2.48057 17.6057ZM0.480923 19.6435H28.3146V15.6435H0.480923V19.6435Z" fill="#FFF1CD"/>
</g>
</svg>
