<svg id="Layer_2" data-name="Layer 2" xmlns="http://www.w3.org/2000/svg" viewBox="0 0 448.14 395.86"><defs><style>.cls-1{fill:none;stroke:#000;stroke-miterlimit:10;stroke-width:4px;}</style></defs><title>Musseroner</title><path class="cls-1" d="M239.92,349.21c-10.59,6.22-31.1,13.45-37.33,14.7-12.58,2.52-25.69,1.2-51.91-1.44-16-1.62-18.1-2.5-24.52-1.44-9.85,1.62-20.68,9.82-28,7.21-1.25-.45-7.06-1.61-9.57-7.48-2-4.77-1-16.14-.43-18.11,6.55-22.19,12.89-20.41,21-39.77,4.55-10.79,15.3-26.05,35.34-51.54a257,257,0,0,1,26.51-28.72c2.6-2.51,9.42-10,30.19-22.83,20.18-12.43,13.2-15.38,22.1-23.56,14-12.88,16.35-20.87,29.73-28.63,10-5.8,20-5.78,25.95-5.77,17.77,0,28.33,7.45,46.15,15.86,3.26,1.54,20,7.28,53.36,18.75,27.82,9.56,44.3,15.22,66.33,21.63,40.88,11.9,58.74,14.12,75,31.73,10.06,10.89,11.26,18.75,11.54,21.63,1.58,16.65-12.54,30.27-24.52,41.82-9.46,9.13-19.21,18.53-34.61,23.07-9.73,2.87-16.51,2.27-25.95,8.66-7.32,4.94-11.81,4.1-19.73,9.57-10.48,7.24-14.55,7.28-19.15,8.1-13.49,2.39-11.73,2.42-20.21,6.43-5.94,2.81-13.23-3.72-21,.93-6.73,4-19.63,1.34-24,2.47" transform="translate(-85.37 -139.83)"/><path class="cls-1" d="M126.16,361c6.27-.93,44.33-5.66,55.2-9.54,5.21-1.86,9.6-3.78,36.08-18.41,26.65-14.72,28.5-16.26,30.93-19.15,7.86-9.34,8.68-17.28,16.2-19.15,6.17-1.53,7.74,3.28,18.41,5.16,1.77.31,21.53,3.51,33.14-7.37,4.15-3.88,6.17-8.55,9.57-8.1,2.78.37,3.71,3.79,5.89,6.63s15.35,13.41,36.82,14.73c18.25,1.12,25.9-6.95,33.88-9.37,12.81-3.88,7.89-4.37,19.14-4.62,6-.14,11.14-2.44,18.41-.74,11.26,2.63,10.5,3.89,15.47,4.42,13.92,1.47,26-7.8,33.13-13.25,7.84-6,7-9,14-14,8.34-6,22.16-8,28.54-8.83" transform="translate(-85.37 -139.83)"/><path class="cls-1" d="M232.91,328.66A70.73,70.73,0,0,1,237.33,339,71.79,71.79,0,0,1,241,361.06c.88,49.3,0,61.12,0,61.12-2,27.21-2.35,54.53-4.42,81.74-.61,8-1.24,15.66,3.68,21.35,7,8.13,17.75,3.34,47.87,5.16,23.57,1.41,28.4,5,43.44,2.21,18.08-3.4,23.62-5.48,25.78-9.58,2.33-4.42.36-7.88-.74-16.93C355,492.51,358,488.24,358.83,473c.19-3.21.27-6.76-2.95-36.82-2.88-27-4.33-40.49-5.89-49.34-4.2-23.85-6.83-25.54-8.83-41.24-2.38-18.65-1.87-30.65.56-44.43" transform="translate(-85.37 -139.83)"/></svg>