<svg id="Layer_2" data-name="Layer 2" xmlns="http://www.w3.org/2000/svg" viewBox="0 0 565.54 446.62"><defs><style>.cls-1{fill:none;stroke:#000;stroke-miterlimit:10;stroke-width:4px;}</style></defs><title>Musslingar</title><path class="cls-1" d="M182,313.93c-1.62-1.32-7.08-5.82-10.15-8.14-5.44-4.11-9.26-6.63-10.72-7.66-3.64-2.54-7-5.77-17.37-19.91-7.57-10.34-11.35-15.5-16.34-23.49C118.91,241,113.62,230.14,104,210.3,99,200,93.12,190,88.15,179.66a62.64,62.64,0,0,0-12.26-17.87,79.16,79.16,0,0,0-8.67-7.1" transform="translate(-18.61 -90.2)"/><path class="cls-1" d="M102.44,148c-2.44.45-6.17,1.14-10.72,2.05-10.14,2-12.53,2.71-17.36,3.57a132.92,132.92,0,0,1-20.43,2c-12,.23-18,.34-24-3.57-1.68-1.1-8.19-5.33-9.19-12.26-1.17-8.11,5.94-15,11.75-20.42,3.44-3.24,12-10.65,31.66-17.88,10.23-3.76,22.6-8.31,39.83-9.19s30.39,2.44,42.89,5.62c13.29,3.38,19.93,5.07,25,8.68,2.71,1.93,7.11,5.56,14.3,7.66a44.26,44.26,0,0,0,9.19,1.53,163.72,163.72,0,0,0,21.45.51c8-.44,16.93.56,34.72,2.56,15.43,1.73,27,3.87,36.25,5.61,9.14,1.72,10.86,2.26,35.75,7.66,32.78,7.12,30.67,6.38,35.23,7.66,14.2,4,24.45,8.45,44.94,17.36a403.92,403.92,0,0,1,36.77,17.88c17.05,9.47,24.15,15.17,29.61,23.49,2.09,3.18,10.27,16.36,5.62,22.46a9.92,9.92,0,0,1-7.66,3.58c-2.93-.1-3.54-1.79-6.64-2.55a13.37,13.37,0,0,0-12.25,3.57c-2.7,2.85-2.82,6.32-3.07,13.28-.16,4.65.26,8.32,1,14.8.92,7.78,1.57,9.55,1,13.28a25.75,25.75,0,0,1-3.58,9.7" transform="translate(-18.61 -90.2)"/><path class="cls-1" d="M102.44,148a39.49,39.49,0,0,1,5.62.51,41.54,41.54,0,0,1,14.81,5.62c8.51,5,19.54,5.72,33.19,6.64,9.23.62,8.86-.52,32.17-2,10.77-.71,19.43-1,36.77-1.54,22.28-.71,23-.35,35.23-1,24.35-1.33,21.87-2.77,32.68-2.55,19.14.38,19.74,4.76,47.49,7.66,15.06,1.57,17.85.6,29.11,3.06a150.41,150.41,0,0,1,27.57,9.19c9.86,4.15,16.79,8.05,30.64,15.83,23.33,13.12,18,12.44,25.53,15.32,4.18,1.61,10.91,3.78,15.32,10.22,1.71,2.49,2.59,7.33,3.06,9" transform="translate(-18.61 -90.2)"/><path class="cls-1" d="M365.74,336.26c-1.38,1.08-9.86,8.05-12.06,10.38-3.15,3.32-4.61,5.76-7.15,9.19-1.79,2.42-1.39,2.7-5.08,6.58" transform="translate(-18.61 -90.2)"/><path class="cls-1" d="M301.73,484.35c-1.4-1.38-5.22-5.69-6.55-9.6-.35-1-.92-2.93-1.39-9.15s-.7-9.37-.34-13.27a51.71,51.71,0,0,1,4.05-14.8h0" transform="translate(-18.61 -90.2)"/><path class="cls-1" d="M281.13,526.25a62.74,62.74,0,0,0,9.73-14.85c2.8-6,2.46-7.88,5.35-15.81,4.73-13,5-9.57,7.45-18.67,1.06-3.95,3.45-13.38,1.3-23-1.31-5.85-2.49-8.48-7.46-16.4-8.42-13.43-15.54-17.31-17.18-18.09-3.74-1.77-8-4.44-8.78-4.55-8.33-1.22-8.59,2.67-16.67,2.16-1-.06-11.12-.71-12.64-5.27-1.58-4.73,6.93-11.29,12.15-15.33a80.17,80.17,0,0,1,28.21-13.88c11-2.8,11.94-.62,23.34-3.84,2.09-.58,7.71-2.25,20.91-8.62,15.61-7.53,16.34-9.34,24.32-12.93,16.28-7.31,31.14-7.79,41.82-8.14,12.13-.39,22-.71,34,3.35,9.6,3.25,11.68,6.29,23.34,9.1,8.82,2.13,11.45,1.31,19.94,4.31,12,4.23,15.67,9,17,11,1.16,1.73,5,7.47,2.92,11-2.84,4.8-15.46,3.62-23.83.48-5.64-2.11-6.48-4-13.13-5.74-5.53-1.43-6.74-.57-11.67-2.4s-5.5-3.28-10.7-5.27a39.47,39.47,0,0,0-9.73-2.39c-8.17-.68-13.49,5.33-21.88,11-12.56,8.5-24.8,11.37-33.55,13.41-6.41,1.5-7.84,1.18-27.72,3.36-21.17,2.32-23.17,2.52-27.72,3.35-7,1.27-29.48,5.84-41.57,10.41" transform="translate(-18.61 -90.2)"/><path class="cls-1" d="M370.53,536.6a78.23,78.23,0,0,1,0-17.36,82.72,82.72,0,0,1,6.64-24,93.1,93.1,0,0,1,12.25-19.92c3.2-4.18,7.63-8.8,16.34-17.87,12.32-12.82,13.18-13.05,16.85-17.87,4.6-6,3.92-6.56,11.24-17.36,6.84-10.1,10.25-15.15,13.78-17.37,4.65-2.92,7.17-2.39,23-5.61,6.84-1.4,14.33-8.82,17.81-9.69" transform="translate(-18.61 -90.2)"/><path class="cls-1" d="M356.53,319.19c5.16-2.33,17.9-9.47,26.76-13.91,10.64-5.33,12.1-6.13,18.39-9.19,11.39-5.55,13.48-3.16,23-8.68,3.92-2.28,9.19-7,18.62-10.29l1.29-.44c9.19-3,16.06-2.47,23.49-2.55,16.38-.18,17.16-3,22.47-.51,5.72,2.71,11,9,9.7,13.28-1.4,4.47-9.55,5.34-16.85,6.12a48.12,48.12,0,0,1-26-3.57c-5.42-2.45-13.77-9.37-16.19-11.53" transform="translate(-18.61 -90.2)"/><path class="cls-1" d="M373.24,327.57c3.75-1,15.07-4.29,22.31-5.95,18.25-4.18,20.56-3.92,28.6-6.64a120.31,120.31,0,0,0,23-10.72c5.88-3.46,12.22-9.88,15.85-12.71" transform="translate(-18.61 -90.2)"/><path class="cls-1" d="M132.83,263c-3-2.21-13.48-6.72-19.66-8.73-8.14-2.66-14.78-2.37-20.94-2.05a78.46,78.46,0,0,0-30.64,7.15c-9.8,4.61-19.77,9.29-23,19.41-1.83,5.79-1.77,14.38,3.07,18.38,1.36,1.12,3.22,2,12.76,2a163.16,163.16,0,0,0,23.49-1.53c11.91-1.81,12.14-3.06,18.9-3.06a43.22,43.22,0,0,1,17.36,3.06A49.09,49.09,0,0,1,127,305.79c2.29,1.87,3.07,2.77,10.73,9.7,2.16,2,6.51,5.35,7.67,6.39" transform="translate(-18.61 -90.2)"/><path class="cls-1" d="M79.76,297.33c1.35,1.43,6.17,6.8,8.9,9,2.08,1.66,3.8,2.8,11.23,7.15,10.42,6.1,12.65,7.14,13.79,7.66,3.79,1.72,12.2,4.73,14.37,5.44" transform="translate(-18.61 -90.2)"/><path class="cls-1" d="M410.66,348.82c4.35-1,23.14-4.83,29.83-7.29a135.44,135.44,0,0,0,31.14-15.83c5.49-3.8,11.15-9.17,22.47-19.91,13.49-12.8,20.23-19.19,24.51-24.51,4.76-5.9,7.41-10.13,13.79-14.3a54.42,54.42,0,0,1,15.32-6.64c7.21-2,8.24-.88,17.36-3.06,12.47-3,14.64-6,15.32-7.15a11.77,11.77,0,0,0,1-10.21c-1-2.51-2.94-4.23-10.72-8.17a106,106,0,0,0-14.81-6.64c-7.17-2.5-14.1-4.92-23-5.62-4.39-.34-7.16-.1-23,2s-23.8,3.18-25.53,3.58c-8.13,1.88-25,8.37-38.31,17.4" transform="translate(-18.61 -90.2)"/><path class="cls-1" d="M447.12,253.7c2.07-1,9.81-5,13.79-6.12,5.23-1.49,8.22-1.46,24-2.05,11.64-.43,12.44-.54,14.81,0,3.63.83,4.19,1.65,14.81,6.13,5.46,2.31,8.26,3.49,11.74,4.6,5.46,1.74,21.66,2.81,24.83,3.27" transform="translate(-18.61 -90.2)"/><path class="cls-1" d="M99.55,432.77c-.48,1.57-1.12,3.78-1.7,6.47-1,4.67-2,8.93-1.7,13.27.09,1.61.77,10.61,7.48,17,3.24,3.1,7.15,4.34,15,6.81a106.09,106.09,0,0,0,19.07,4.09c10.46,1.3,10.58-.08,18.38,1.36a55,55,0,0,1,18.72,6.47c2.69,1.57,1,1,11.92,8.85,5.4,3.91,9,6.38,14.3,7.83a31.4,31.4,0,0,0,5.78,1" transform="translate(-18.61 -90.2)"/><path class="cls-1" d="M206.44,514.13a64.57,64.57,0,0,0,2.05-13.28c.2-4.27-.18-5.87-.69-7.15-1.45-3.63-4.35-5.38-6.8-7.14-1.05-.76-4.65-4.51-11.92-11.92-8.43-8.6-7.67-8.64-10-10.3-5.89-4.11-11.49-4.48-17.11-5.36,0,0-11.27-1.76-29.61-9.19-5.74-2.32-15.31-9.41-34.22-23.49-18.28-13.62-21.67-16.6-29.61-20.17-10.37-4.66-21.8-6.66-28.09-7.4" transform="translate(-18.61 -90.2)"/><path class="cls-1" d="M43,393.87a11.18,11.18,0,0,1-2.55,4.86c-.64.69-2.71,3-5.11,2.8-3.2-.21-5.47-4.68-6.12-7.91-.93-4.62,1.09-8.45,3.32-12.51,3.19-5.83,7.14-9.55,13.27-15.32,1.61-1.51,3.59-3.37,6.39-5.62A104.43,104.43,0,0,1,67.72,350c11.6-6.52,17.4-9.78,24.77-12.77,4.25-1.73,10.3-3.47,22.21-6.89,14.89-4.27,24-6.87,37-10,3.28-.77,12.14-2.83,23.74-5.1,5.92-1.16,11.53-2.26,18.39-3.32,13.87-2.15,25.24-3,31.66-3.32,10-.55,19.74-.29,38.81.25,17.13.49,25.69.74,38.12,1.71,18.13,1.41,9.44,1.63,38.13,4.76,2.54.28,15.73,1.71,27.92,8.17,6.93,3.68,8.67,6.41,8.51,8.51a4.92,4.92,0,0,1-1.71,3.07c-2.74,2.51-6.72,1.31-15,.68-2.07-.16-4.56-.22-9.54-.34-8.62-.21-11.68.36-16,.34-9.59-.06-12-3-23.15-5.45-8.32-1.82-14.35-1.78-24.85-1.7-14.68.1-15.33,2-36.76,3.74-17.76,1.47-20.15.41-31,2.73a152.18,152.18,0,0,0-20.77,6.12c-7.18,2.73-8.64,3.95-15.66,6.81a167.24,167.24,0,0,1-23.83,7.49c-11.8,2.71-13.11,1.28-33,3.75A245.23,245.23,0,0,0,97.17,364c-9.93,2.35-19.52,4.68-31,10.56C54.35,380.62,44.36,388.51,43,393.87Z" transform="translate(-18.61 -90.2)"/><path d="M213.43,489.05l-3.72-4.57-3.62-4.66c-2.4-3.1-4.61-6.44-6.94-9.41a39.1,39.1,0,0,0-8-7.66c-1.52-1.08-3.15-2.23-4.7-3.24s-3.18-2-4.85-2.84-3.4-1.72-5.15-2.57l-5.26-2.58c-3.51-1.73-7-3.46-10.54-5.24-.88-.44-1.77-.91-2.61-1.36-.44-.23-.75-.39-1.14-.57l-1.28-.56c-1.73-.76-3.47-1.44-5.22-2.07s-3.48-1.12-5.3-1.57-3.8-.88-5.81-1.47a58.56,58.56,0,0,1-5.87-2.13,57.83,57.83,0,0,1-5.61-2.71,104.85,104.85,0,0,1-10.17-6.56c-3.21-2.32-6.35-4.66-9.49-7s-6.28-4.8-9.31-7.35-5.94-5-9-7.41-6.15-4.67-9.34-6.87-6.41-4.39-9.73-6.42c-1.66-1-3.35-2-5-3s-3.37-2-5.08-2.94l.16-.36a181.23,181.23,0,0,1,20.8,10.9c3.34,2,6.61,4.2,9.8,6.48s6.26,4.72,9.33,7.13c6.16,4.79,12.6,9.24,19,13.73a115.58,115.58,0,0,0,9.89,6.23,56.64,56.64,0,0,0,10.76,4.42c1.86.55,3.76,1,5.66,1.48s3.79,1.06,5.64,1.74,3.67,1.41,5.46,2.22,3.53,1.77,5.24,2.67c3.45,1.85,6.92,3.66,10.38,5.46s7,3.57,10.37,5.53a74.7,74.7,0,0,1,9.67,6.7,40.48,40.48,0,0,1,8.06,8.57c2.22,3.25,4.14,6.65,6.32,9.89l6.56,9.72Z" transform="translate(-18.61 -90.2)"/><path d="M217.16,486.31,214,481.88l-3-4.47c-2-3-4.17-5.93-6.32-8.77a58.17,58.17,0,0,0-6.85-7.91,86.65,86.65,0,0,0-8.09-6.7q-4.28-3.15-8.73-6c-3-1.89-6.06-3.64-9.2-5.36-6.26-3.47-12.63-6.95-19-10.22L148,430c-1.64-.83-3.36-1.8-4.93-2.76-3.16-1.93-6.27-3.89-9.27-6a188.34,188.34,0,0,1-17.27-13.66c-2.73-2.46-5.42-5-8-7.52s-5.11-5-7.77-7.39a97.15,97.15,0,0,0-8.33-6.73c-1.46-1.06-2.94-2.08-4.44-3.08s-3-2-4.53-3l.18-.36A111.76,111.76,0,0,1,102.06,391c2.86,2.23,5.58,4.64,8.27,7s5.41,4.8,8.19,7.1a212.7,212.7,0,0,0,17.36,13q4.5,3,9.15,5.79c3.08,1.86,6.37,3.35,9.58,5q9.62,5.07,19,10.5a135.61,135.61,0,0,1,18,12.15,83.21,83.21,0,0,1,8.08,7.29,60.89,60.89,0,0,1,6.66,8.61c4,6,7.46,12.41,11.13,18.65Z" transform="translate(-18.61 -90.2)"/><path d="M224,483.9c-.76-1.51-1.53-3-2.35-4.48s-1.56-3-2.39-4.41c-1.65-2.92-3.43-5.72-5.28-8.53a93.47,93.47,0,0,0-5.65-8.1,72.4,72.4,0,0,0-6.41-7.26c-4.69-4.33-10-8.52-15.29-12.51-2.65-2-5.28-4-8-5.86s-5.56-3.78-8.34-5.88-5.38-4.34-8-6.73a50.81,50.81,0,0,1-3.76-3.86l-3.25-3.79c-2.12-2.42-4.44-4.76-6.82-7.08-1.19-1.17-2.37-2.26-3.59-3.39l-3.68-3.4q-7.48-6.72-14.91-13.61l-7.33-7-3.66-3.49L111.68,371l.25-.31c10.45,8.48,20.92,16.93,31.26,25.56A163.14,163.14,0,0,1,158,409.94c1.15,1.24,2.24,2.54,3.35,3.78a47.42,47.42,0,0,0,3.53,3.56c2.48,2.24,5.07,4.39,7.74,6.41s5.45,3.93,8.19,5.89,5.44,4,8.08,6.07,5.24,4.23,7.81,6.42,5.08,4.43,7.43,6.87a80.19,80.19,0,0,1,11.64,16.51,132.93,132.93,0,0,1,8.53,18.31Z" transform="translate(-18.61 -90.2)"/><path d="M234.17,487.3a276.36,276.36,0,0,0-18-32.27c-1.69-2.56-3.42-5.09-5.14-7.61s-3.54-5-5.4-7.4c-3.66-4.89-7.47-9.73-11.41-14.4-1.93-2.37-3.89-4.64-6-6.87s-4.26-4.52-6.32-6.9c-4.1-4.77-8.1-9.55-11.86-14.56a182.35,182.35,0,0,1-10.71-15.46c-1.6-2.7-3.18-5.42-4.6-8.21s-2.71-5.66-4-8.5l.35-.19c1.59,2.65,3.11,5.36,4.79,8s3.38,5.19,5.18,7.72c3.58,5.06,7.43,9.92,11.4,14.68s8,9.46,12.22,14c2.09,2.29,4.25,4.51,6.38,6.77s4.2,4.59,6.19,7a235.16,235.16,0,0,1,21.59,30.36,179.91,179.91,0,0,1,15.67,33.75Z" transform="translate(-18.61 -90.2)"/><path d="M236.22,473.35c-2.79-4.5-5.27-9.1-7.77-13.68-.59-1.16-1.27-2.28-1.94-3.4l-2-3.38c-1.33-2.24-2.57-4.53-3.87-6.79s-2.56-4.53-3.78-6.83L213,432.44l-3.75-6.86c-1.24-2.29-2.53-4.63-3.73-7-2.32-4.74-4.65-9.46-6.7-14.41l-1.45-3.69c-.46-1.2-.91-2.28-1.44-3.38-1.08-2.21-2.29-4.51-3.51-6.78s-2.55-4.55-3.75-6.92-2.37-4.82-3.36-7.32a66,66,0,0,1-3.95-15.45l.39-.1a83.85,83.85,0,0,0,5.46,14.63,156.19,156.19,0,0,0,7.89,13.52c1.37,2.24,2.72,4.48,3.94,6.81s2.15,4.8,3.22,7.18c2.12,4.76,4.46,9.44,6.82,14.1,4.77,9.29,9.8,18.48,14.35,27.9l3.48,7,1.75,3.51c.57,1.17,1.18,2.33,1.67,3.55l6.22,14.41Z" transform="translate(-18.61 -90.2)"/><path d="M244,475a157.76,157.76,0,0,0-4.9-15.58c-.93-2.53-1.93-5-3-7.45s-2.3-4.8-3.55-7.27c-2.52-4.93-4.66-10.06-6.74-15.21s-3.7-10.46-5.41-15.66-3.21-10.61-4.4-16.07c-.57-2.74-1.08-5.27-1.8-7.8s-1.52-5.12-2.34-7.7-1.73-5.18-2.51-7.84-1.55-5.32-2.21-8-1.22-5.4-1.65-8.14l-.68-4.09-.58-4.1.38-.09,2.19,7.91q1,4,2.35,7.85c1.68,5.21,3.7,10.29,5.66,15.41,1,2.56,1.9,5.14,2.73,7.76s1.47,5.3,2.11,7.95c1.29,5.31,2.88,10.54,4.56,15.75s3.29,10.44,5.15,15.58,3.89,10.22,6.08,15.23a104.59,104.59,0,0,1,9,31.52Z" transform="translate(-18.61 -90.2)"/><path d="M249.82,467.53a48.64,48.64,0,0,1-4.51-10.32c-.56-1.76-1.06-3.54-1.47-5.34-.2-.9-.36-1.8-.53-2.71l-.42-2.72a67.5,67.5,0,0,1-.56-11,46,46,0,0,1,1.7-11.15l.4,0,.55,5.43c.16,1.81.32,3.62.53,5.42q.59,5.43,1.35,10.82l.73,5.4.89,5.38q.92,5.37,1.73,10.76Z" transform="translate(-18.61 -90.2)"/><path d="M242.33,401.81a80.82,80.82,0,0,1-3.64-14.42,103.48,103.48,0,0,1-1.2-14.65c-.09-4.84,0-9.63.25-14.47a104.65,104.65,0,0,1,1.53-14.67l.39,0q.41,3.62.73,7.26t.52,7.27c.29,4.86.47,9.72.58,14.58s.14,9.71.38,14.56.61,9.69.86,14.54Z" transform="translate(-18.61 -90.2)"/><path d="M257,470.9A52.67,52.67,0,0,1,254,459.49,92.06,92.06,0,0,1,252.9,448a79.17,79.17,0,0,1,.36-11.51,52.9,52.9,0,0,1,2.34-11.58h.4c.18,3.83.33,7.66.43,11.49l.47,11.48c.1,3.83.26,7.66.32,11.5s.13,7.66.15,11.49Z" transform="translate(-18.61 -90.2)"/><path d="M256.29,392.94a54.63,54.63,0,0,1-2.15-13.79,50.82,50.82,0,0,1,.14-6.88c.15-2.28.37-4.56.64-6.83a108.56,108.56,0,0,1,2.4-13.51,72.09,72.09,0,0,1,4.41-13.15l.4.06q-.78,6.77-1.67,13.51c-.56,4.5-1,9-1.57,13.51l-.84,6.74c-.27,2.25-.6,4.5-.73,6.76q-.46,6.78-.63,13.58Z" transform="translate(-18.61 -90.2)"/><path d="M265.14,466.45a50,50,0,0,1-1.3-11.38c0-1.88,0-3.76.13-5.63s.38-3.72.66-5.57A71.18,71.18,0,0,1,267.22,433,46.65,46.65,0,0,1,272,422.52l.39.08c-1.32,7.28-2.69,14.56-3.76,21.89l-.85,5.48-.71,5.51q-.69,5.5-1.48,11Z" transform="translate(-18.61 -90.2)"/><path d="M276.38,381a50.52,50.52,0,0,1,.05-11.73,49.75,49.75,0,0,1,.85-5.71c.37-1.89.81-3.75,1.29-5.62A57.79,57.79,0,0,1,282.4,347a42.43,42.43,0,0,1,6.24-10l.37.14q-1.87,5.38-3.59,10.81c-.55,1.82-1.13,3.63-1.59,5.47L282.42,359c-1,3.68-2,7.33-2.9,11s-1.8,7.39-2.75,11.07Z" transform="translate(-18.61 -90.2)"/><path d="M273.31,464.41a27.14,27.14,0,0,1-1.39-9.79,37.8,37.8,0,0,1,1.59-9.58,64.12,64.12,0,0,1,3.31-8.76,38.6,38.6,0,0,1,5-8.33l.39.1c-.74,3-1.5,6.07-2.31,9.09s-1.69,6-2.55,9a88,88,0,0,0-2.27,9c-.58,3.05-1,6.14-1.37,9.23Z" transform="translate(-18.61 -90.2)"/><path d="M294.42,376.53a36.28,36.28,0,0,1,.41-5.62l.48-2.75c.17-.92.42-1.78.67-2.67a39.56,39.56,0,0,1,4.61-10.22c.53-.8,1.09-1.61,1.68-2.37s1.19-1.45,1.76-2.09l3.39-3.87a105.62,105.62,0,0,1,7.44-7.87l.36.17a73.41,73.41,0,0,1-5.12,9.43c-1,1.51-2,3-3.05,4.43s-2.16,2.83-3.1,4.33a71.53,71.53,0,0,0-5,9.37c-.76,1.61-1.42,3.27-2.07,4.92l-2,4.94Z" transform="translate(-18.61 -90.2)"/><path d="M189.28,307.3q-2.07-1.64-4.08-3.36c-1.32-1.18-2.6-2.39-3.87-3.62q-3.79-3.7-7.3-7.74c-2.3-2.72-4.44-5.57-6.49-8.49s-3.9-5.95-5.73-9A179.43,179.43,0,0,1,152,256.26c-2.87-6.4-5.71-12.69-8.69-19s-5.75-12.75-8.69-19c-1.46-3.14-3-6.23-4.57-9.23-.81-1.5-1.65-3-2.52-4.44s-1.75-3-2.65-4.45c-1.79-3-3.71-5.9-5.51-8.92s-3.6-6.06-5.31-9.13-3.32-6.21-4.91-9.34l-2.37-4.7-2.27-4.77.35-.2c3.62,6,7.18,12,11,17.88s7.74,11.63,11.66,17.44c1.94,2.91,3.85,5.85,5.58,8.9s3.36,6.16,4.91,9.3c3.1,6.28,6,12.64,8.95,19s5.76,12.76,8.52,19.19a204.5,204.5,0,0,0,9.15,18.84,144.44,144.44,0,0,0,11.14,17.72A129.77,129.77,0,0,0,189.56,307Z" transform="translate(-18.61 -90.2)"/><path d="M201.86,305.57a80.91,80.91,0,0,1-11.24-14.34,89,89,0,0,1-4.4-8.1c-1.33-2.77-2.44-5.58-3.62-8.32s-2.46-5.43-3.72-8.13l-3.81-8.1c-2.5-5.41-4.85-10.87-7.4-16.28s-4.86-10.92-7.23-16.42-4.61-11-7-16.5-4.85-10.9-7.42-16.28c-1.24-2.72-2.57-5.4-3.91-8.08l-2-4-1.91-4.1.34-.22,4.72,7.66c1.6,2.54,3.11,5.13,4.58,7.75,2.95,5.22,5.72,10.55,8.4,15.92s5.1,10.85,7.62,16.29l7.46,16.37c2.49,5.46,4.83,11,7.24,16.48l3.59,8.25,1.79,4.13c.61,1.37,1.09,2.79,1.62,4.19,1,2.82,2.06,5.64,3.18,8.41a86.87,86.87,0,0,0,3.76,8.14,102.05,102.05,0,0,0,9.69,15.08Z" transform="translate(-18.61 -90.2)"/><path d="M219.2,304.52a141.61,141.61,0,0,1-15.63-29.08c-2.14-5.09-3.88-10.32-5.61-15.58-.84-2.63-1.55-5.39-2.2-8.06s-1.29-5.23-2-7.83c-1.32-5.21-2.8-10.51-4.19-15.71s-2.92-10.35-4.55-15.46a304.4,304.4,0,0,0-12.12-30.14l.34-.21A173.79,173.79,0,0,1,188,211.67c4,10.2,6.75,20.78,9.67,31.29,1.42,5.28,2.41,10.65,4,15.86s3.15,10.43,5,15.57a217.65,217.65,0,0,0,13,29.94Z" transform="translate(-18.61 -90.2)"/><path d="M232.8,300.4a161.51,161.51,0,0,1-9.73-27.6c-1.31-4.71-2.25-9.51-3.22-14.3s-1.58-9.63-2.27-14.43-1.16-9.7-1.53-14.54-.74-9.62-1-14.45c-.67-9.64-1.18-19.3-1-29.09l.4-.06,3.72,28.79c1.17,9.61,2,19.25,3.35,28.82s2.66,19.15,4.61,28.62,4.28,18.86,7,28.13Z" transform="translate(-18.61 -90.2)"/><path d="M247.44,297.64c-1.21-5.12-2.12-10.3-3.05-15.48l-1.24-7.79c-.36-2.6-.62-5.21-.91-7.82-.6-5.23-.89-10.47-1.23-15.72s-.35-10.5-.49-15.71-.08-10.45,0-15.7c.07-2.63.15-5.26.27-7.91.06-1.32.13-2.66.25-4s.32-2.75.5-4a76.89,76.89,0,0,0,.82-15.14A74.17,74.17,0,0,0,240,173.1l.37-.15a60,60,0,0,1,4.12,15.13,68.62,68.62,0,0,1,.22,15.69c-.5,5.19-.4,10.41-.39,15.63l.24,15.66c.09,10.45.31,20.88.87,31.31l.46,7.82.66,7.8,1.32,15.61Z" transform="translate(-18.61 -90.2)"/><path d="M263.43,301.69c-.84-10.75-1-21.46-1-32.16,0-2.67,0-5.34,0-8s.1-5.41.22-8.1c.26-5.36.77-10.86,1.45-16.19s1.39-10.48,2-15.78l1.83-15.85c.57-5.29,1.17-10.58,1.67-15.89s.93-10.63,1.68-16h.4l0,16.05q-.15,8-.64,16c-.7,10.67-1.56,21.34-3,32s-2,21.26-2.51,31.94l-1.73,32Z" transform="translate(-18.61 -90.2)"/><path d="M277.41,302.65c1.42-5.46,3-10.83,4.33-16.24s2.87-10.77,3.93-16.12q.76-4,1.28-8c.31-2.65.46-5.39.67-8.23.1-1.42.27-2.85.44-4.27s.41-2.93.68-4.35c.52-2.86,1.15-5.63,1.8-8.38,2.82-10.93,5.74-21.65,9.23-32.4.9-2.68,1.78-5.38,2.83-8s2.16-5.28,3.36-7.85A123.66,123.66,0,0,1,314.18,174l.36.17a178.3,178.3,0,0,0-11.74,31.36c-1.49,5.39-2.87,10.82-4.26,16.24s-2.8,10.83-4.12,16.27c-.67,2.71-1.32,5.43-1.86,8.16s-.88,5.5-1.19,8.28-.53,5.57-1,8.35-1,5.53-1.68,8.26c-1.34,5.45-3.16,10.76-5,16.05s-3.82,10.53-6,15.7Z" transform="translate(-18.61 -90.2)"/><path d="M293.41,301.62c1.79-5.49,3.87-10.86,5.93-16.24l3.22-8c1.08-2.67,2.28-5.28,3.43-7.92l1.76-3.94,1.82-3.9c1.21-2.58,2.38-5.16,3.51-7.76,2.33-5.2,4.63-10.35,6.54-15.61,1-2.62,2.07-5.41,3.26-8.11s2.4-5.34,3.73-7.93c2.68-5.15,5.41-10.28,8.52-15.18a170.41,170.41,0,0,1,20.94-27.64l.32.24a276.26,276.26,0,0,0-18.52,28.94q-4.17,7.5-7.87,15.27c-1.23,2.59-2.43,5.18-3.54,7.82s-2.1,5.31-3.1,8c-4.11,10.74-9.35,21-14.55,31.2-2.59,5.11-5.08,10.28-7.56,15.45l-7.48,15.49Z" transform="translate(-18.61 -90.2)"/><path d="M310.45,302.61c6-10.43,12.06-20.66,17.88-31.08l2.27-3.94c.78-1.3,1.61-2.59,2.43-3.87,1.68-2.55,3.4-5.05,5.21-7.52,3.67-4.91,7.64-9.46,11.5-14s7.93-9,12.17-13.37a171.52,171.52,0,0,1,13.4-12.32,155.5,155.5,0,0,1,14.6-10.81A115.74,115.74,0,0,1,405.83,197l.2.35a166.77,166.77,0,0,0-14.85,10c-4.76,3.61-9.34,7.45-13.77,11.46s-8.69,8.19-12.76,12.56-8,8.89-11.89,13.42-7.88,9-11.54,13.7A171.28,171.28,0,0,0,331,273.2q-9.44,15.27-20.23,29.65Z" transform="translate(-18.61 -90.2)"/><path d="M326.84,304.61a66.78,66.78,0,0,0,10.82-13.12,74.16,74.16,0,0,0,4-7.45c.62-1.3,1.29-2.6,2-3.91s1.44-2.6,2.19-3.87a122.21,122.21,0,0,1,10.05-14.58,109.74,109.74,0,0,1,12.39-12.84c2.24-1.93,4.55-3.78,6.85-5.57s4.62-3.5,7.05-5.14l7.23-4.92,3.62-2.44,3.65-2.35a149.53,149.53,0,0,1,15.16-8.85,85.91,85.91,0,0,1,16.53-5.88l.14.37a113.55,113.55,0,0,0-15.63,7.34c-2.51,1.41-4.91,3-7.29,4.63s-4.74,3.29-7.1,5c-4.71,3.33-9.35,6.76-14,10.13l-3.5,2.54c-1.17.84-2.28,1.77-3.41,2.66-2.26,1.8-4.48,3.63-6.64,5.53a112.34,112.34,0,0,0-12.14,12.25A142.16,142.16,0,0,0,348.44,278c-3.24,4.76-5.62,10.07-9.06,14.77a57.38,57.38,0,0,1-12.31,12.19Z" transform="translate(-18.61 -90.2)"/><path d="M338.76,308.35a164.63,164.63,0,0,0,21.68-22.22c.8-1,1.58-2,2.35-3.05s1.54-2,2.28-3.06c1.49-2.06,2.83-4.13,4.14-6.35a70,70,0,0,1,4.59-6.8,46.85,46.85,0,0,1,5.82-6.17c4.2-3.58,8.47-6.66,12.75-9.71s8.6-6.07,13.2-8.8a89,89,0,0,1,29.57-11.82l.13.38a114.62,114.62,0,0,0-27.94,14.05c-4.33,2.94-8.51,6.09-12.72,9.21s-8.43,6.24-12.34,9.69a43.3,43.3,0,0,0-5.41,5.59,72,72,0,0,0-4.47,6.42,97.64,97.64,0,0,1-9.58,12.5A114.47,114.47,0,0,1,339,308.68Z" transform="translate(-18.61 -90.2)"/><path d="M354.79,308.67c5.46-4,10.75-7.78,15.76-11.86,2.45-2.08,4.95-4.11,7.31-6.32s4.8-4.33,7.09-6.6,4.62-4.51,6.86-6.83l3.46-3.56a25.15,25.15,0,0,1,4.16-3.57,30,30,0,0,1,20.1-4.85l0,.4a34.88,34.88,0,0,0-18.19,6.92c-2.56,2-4.54,4.72-6.77,7.17s-4.51,4.88-6.89,7.2a129.14,129.14,0,0,1-15.37,12.63A105.5,105.5,0,0,1,355,309Z" transform="translate(-18.61 -90.2)"/><path d="M310.77,495.68c.83-6.6,1.56-12.95,1.87-19.28.3-6.5.49-12.48-.72-18.48a55.87,55.87,0,0,0-2.22-8.87,90.44,90.44,0,0,0-3.4-8.71,132.47,132.47,0,0,0-9.11-17l.29-.28a70.53,70.53,0,0,1,11.59,15.75,59.55,59.55,0,0,1,6.79,18.37,51.89,51.89,0,0,1,.76,9.8c-.08,3.29-.45,6.53-.85,9.78a91.29,91.29,0,0,1-4.63,19Z" transform="translate(-18.61 -90.2)"/><path d="M319.79,491.08c.46-5.4,1-10.5,1.2-15.57s.21-10.15.09-15.2-.43-10.12-.86-15.23-1.05-10.24-1.45-15.65l.37-.13q1.35,3.7,2.42,7.51c.69,2.54,1.29,5.11,1.78,7.69a103.46,103.46,0,0,1,1.73,15.69,92.46,92.46,0,0,1-.93,15.77,69.42,69.42,0,0,1-4,15.26Z" transform="translate(-18.61 -90.2)"/><path d="M326.43,496.7c1-7,2-13.85,2.45-20.66.17-3.41.42-6.77.36-10.15s-.06-6.75-.31-10.16-.42-6.87-.62-10.35-.45-6.88-.61-10.34c-.46-6.9-1-13.83-1.28-21l.39-.09c1.65,6.8,3,13.68,4,20.61s1.63,13.91,2.11,20.9a101.69,101.69,0,0,1-.92,21,104.88,104.88,0,0,1-5.2,20.34Z" transform="translate(-18.61 -90.2)"/><path d="M335.1,493.64c.69-6.5,1.79-12.75,2.95-19,.53-3.16,1.29-6.23,1.86-9.33s1.3-6.13,1.82-9.2,1.11-6.11,1.59-9.19.86-6.17,1.31-9.27c.78-6.23,1.37-12.51,2.21-19l.4,0a139.13,139.13,0,0,1-1.58,38.22c-1.2,6.29-2.86,12.46-4.57,18.61s-3.55,12.27-5.61,18.32Z" transform="translate(-18.61 -90.2)"/><path d="M338.7,500.23c3.11-7.26,6.14-14.33,8.81-21.5l1.89-5.38c.61-1.8,1.19-3.62,1.73-5.44,1.15-3.64,2.25-7.31,3.24-11s2.06-7.39,3-11.11,1.91-7.45,2.92-11.18c1.91-7.49,3.73-15,5.91-22.62l.4,0a270.63,270.63,0,0,1-8.43,46,162.72,162.72,0,0,1-7.82,22A144.43,144.43,0,0,1,339,500.45Z" transform="translate(-18.61 -90.2)"/><path d="M350.44,492.58c3.16-7.58,6.5-14.91,9.69-22.27l1.17-2.77,1.2-2.75c.79-1.83,1.56-3.68,2.31-5.53,1.55-3.68,3.08-7.37,4.49-11.1s2.91-7.43,4.29-11.18,2.69-7.52,4.08-11.28c2.66-7.57,5.17-15.21,8-22.92l.39.07a244.29,244.29,0,0,1-13,46.77,252,252,0,0,1-22.24,43.17Z" transform="translate(-18.61 -90.2)"/><path d="M361.18,488.47c4.42-7.61,8.83-15,13-22.53,2.05-3.8,4.2-7.48,6.09-11.32s3.88-7.59,5.61-11.48,3.5-7.75,5-11.7,3.07-8.1,4.89-12.11,3.66-8,5.7-11.86,4.24-7.68,6.62-11.38l.37.16-5,12c-1.66,4-3.22,8.07-4.71,12.15s-2.84,8.2-4.3,12.3-3.15,8.13-4.95,12.09a188.78,188.78,0,0,1-12.67,22.82,209.9,209.9,0,0,1-15.35,21.1Z" transform="translate(-18.61 -90.2)"/><path d="M369.35,490.52c5-8.83,10.51-17.21,16.15-25.5,2.74-4.18,5.75-8.24,8.37-12.34.65-1,1.29-2,1.88-3s1.2-2.11,1.77-3.18c1.15-2.14,2.22-4.32,3.24-6.53,2.14-4.38,4-9,5.9-13.57,1-2.31,1.94-4.56,2.85-6.88s1.84-4.63,2.85-7a60,60,0,0,1,3.45-7,64.49,64.49,0,0,1,4.4-6.43,57.51,57.51,0,0,1,10.94-10.72l.28.29A71.6,71.6,0,0,0,422,400.25a65.27,65.27,0,0,0-3.75,6.48,64.49,64.49,0,0,0-2.91,6.9c-1.68,4.71-3.3,9.47-5.15,14.14s-3.65,9.35-5.78,13.91q-1.62,3.4-3.45,6.71a68.39,68.39,0,0,1-3.95,6.43c-2.89,4.12-5.94,8.1-9,12.1-6.07,8-12.22,15.9-18.34,23.84Z" transform="translate(-18.61 -90.2)"/></svg>