<svg width="24" height="24" viewBox="0 0 24 24" fill="none" xmlns="http://www.w3.org/2000/svg">
<path fill-rule="evenodd" clip-rule="evenodd" d="M12 24C18.6274 24 24 18.6274 24 12C24 5.37258 18.6274 0 12 0C5.37258 0 0 5.37258 0 12C0 18.6274 5.37258 24 12 24ZM12 23C18.0751 23 23 18.0751 23 12C23 5.92487 18.0751 1 12 1C5.92487 1 1 5.92487 1 12C1 18.0751 5.92487 23 12 23Z" fill="black"/>
<line x1="18.3033" y1="10.3033" x2="14.7678" y2="6.76773" stroke="black"/>
<line x1="14.7678" y1="10.3033" x2="18.3033" y2="6.76777" stroke="black"/>
<line x1="9.30331" y1="10.3033" x2="5.76777" y2="6.76773" stroke="black"/>
<line x1="5.76778" y1="10.3033" x2="9.30332" y2="6.76777" stroke="black"/>
<path d="M7 18C8 14 16 14 17 18" stroke="black"/>
</svg>
