<?xml version="1.0" standalone="no"?>
<!DOCTYPE svg PUBLIC "-//W3C//DTD SVG 20010904//EN"
 "http://www.w3.org/TR/2001/REC-SVG-20010904/DTD/svg10.dtd">
<svg version="1.0" xmlns="http://www.w3.org/2000/svg"
 width="300.000000pt" height="300.000000pt" viewBox="0 0 300.000000 300.000000"
 preserveAspectRatio="xMidYMid meet">
<metadata>
Created by potrace 1.16, written by Peter Selinger 2001-2019
</metadata>
<g transform="translate(0.000000,300.000000) scale(0.100000,-0.100000)"
fill="#000000" stroke="none">
<path d="M496 2141 c-10 -11 -13 -22 -8 -25 6 -3 24 -27 41 -53 51 -77 41
-153 -33 -239 -97 -114 -105 -226 -24 -318 22 -25 43 -46 46 -46 4 0 13 9 20
20 11 19 9 26 -22 61 -64 76 -57 141 30 251 95 121 98 231 10 336 -32 37 -37
38 -60 13z"/>
<path d="M878 2144 c-15 -15 -13 -20 19 -66 26 -35 37 -64 41 -97 5 -56 -9
-88 -75 -172 -92 -118 -92 -229 -1 -317 34 -32 35 -32 52 -13 18 20 17 21 -18
62 -63 75 -59 145 15 234 107 129 116 235 28 346 -35 44 -38 45 -61 23z"/>
<path d="M1257 2143 c-15 -16 -15 -19 7 -47 77 -102 74 -171 -13 -275 -59 -71
-75 -108 -75 -176 0 -65 13 -97 63 -155 l30 -35 22 22 23 23 -31 32 c-75 80
-73 141 11 248 86 109 104 182 67 265 -23 51 -67 115 -79 115 -4 0 -15 -8 -25
-17z"/>
<path d="M2390 1494 c-169 -20 -451 -84 -512 -116 -24 -12 -48 -61 -48 -97 0
-45 45 -91 95 -98 36 -4 48 1 124 51 133 89 265 121 551 131 109 5 187 12 207
20 62 26 66 93 7 115 -36 14 -289 10 -424 -6z"/>
<path d="M163 1267 c17 -182 140 -337 306 -387 64 -20 88 -21 452 -18 l384 3
68 32 c145 69 245 209 255 358 l5 75 -738 0 -738 0 6 -63z"/>
<path d="M1729 1267 c-54 -19 -57 -22 -67 -66 -7 -25 -14 -56 -18 -68 -6 -21
-3 -20 72 12 44 19 85 35 92 35 14 0 16 22 3 36 -5 5 -13 23 -18 40 l-8 31
-56 -20z"/>
</g>
</svg>
