<svg id="Layer_2" data-name="Layer 2" xmlns="http://www.w3.org/2000/svg" viewBox="0 0 285.28 290.87"><defs><style>.cls-1,.cls-2,.cls-3,.cls-4{fill:none;stroke:#000;stroke-miterlimit:10;}.cls-1{stroke-width:4px;}.cls-2{stroke-width:3px;}.cls-4{stroke-width:2px;}</style></defs><title>riskor</title><path class="cls-1" d="M276.19,393.06a77.65,77.65,0,0,1,1,11.24c.16,8.88-1.26,15.43-2.55,21.44-6,28-4.58,23.09-6.13,29.11-6.12,23.74-9,25-10.72,38.81-1.56,12.64-2.5,20.28,2,27.57,6.68,10.73,20.5,13.09,30.64,14.81,6.92,1.18,16.78,2.86,28.08-1.53,4.12-1.6,14.59-5.67,19.92-16.34,3.53-7.07,3.22-13.85,3.06-17.36-.24-5.38-1.45-8.72-5.1-18.9-5.52-15.36-8.28-23.07-8.68-24.51-1.51-5.38-2.54-12.61-4.6-27.06-1.94-13.6-2.38-20.18-2.55-25.53-.16-4.83-.1-8.87,0-11.75" transform="translate(-156.66 -248.5)"/><path class="cls-1" d="M294.06,250.6a294.58,294.58,0,0,0-31.15,2c-12,1.49-28.33,3.61-48,10.72-15.52,5.62-26.35,9.54-37.27,19.92-5.82,5.52-15.83,15-18.38,30.63A48.93,48.93,0,0,0,163.85,343c2,4.12,8.71,16.69,34.72,30.13,24.93,12.88,47,15.93,65.88,18.38a270.26,270.26,0,0,0,65.36.51c16.91-1.93,34.74-4.1,56.17-13.27,15.35-6.58,31.76-13.85,43.4-31.15,4.43-6.57,12.31-18.29,10.22-33.71-1.78-13.08-10.24-21.81-14.3-26-5.41-5.62-11.37-9.61-23.49-15.32-11.81-5.56-26-12.12-47-16.85C329.77,250.06,309.81,250.36,294.06,250.6Z" transform="translate(-156.66 -248.5)"/><path class="cls-2" d="M229.72,272a112.69,112.69,0,0,0-17.36,7.15c-8.75,4.52-15.43,8-21.45,15.32a41.73,41.73,0,0,0-9.19,18.89c-.29,1.56-2.27,12.66,2.56,23.49,5.73,12.87,17.87,18.21,35.23,25.54a193.88,193.88,0,0,0,54.64,13.78c20.27,2.2,35.74,1,47,0,16.63-1.41,29.6-2.52,46-8.68a120.75,120.75,0,0,0,31.65-17.87c9.24-7.24,14.95-11.85,17.88-20.43.42-1.23,4.6-14.13-2.05-26.55-4.53-8.47-11.69-12.2-24-18.38A140.62,140.62,0,0,0,363,274.09a259.45,259.45,0,0,0-51.06-9.2c-21.22-1.62-37.08-.17-49.54,1C247.19,267.37,238.11,269.34,229.72,272Z" transform="translate(-156.66 -248.5)"/><path class="cls-3" d="M603,398.17" transform="translate(-156.66 -248.5)"/><path class="cls-2" d="M292.28,297.06c-1.24,0-7.1-.1-15.07.51-5.18.4-10.34,1.21-20.68,2.81-5.36.84-9.69,1.57-14.81,4.09s-6.23,4.46-6.63,5.87c-1,3.29,1.18,6.49,2.29,8.17,2.31,3.47,5.61,6,11.75,8.68,4.32,1.91,10.24,4,20.17,5.62a145.29,145.29,0,0,0,19.91,1.79,193.21,193.21,0,0,0,25.53-1c9.73-.89,15.26-1.43,22.73-3.57,6.27-1.79,9.45-3.58,15.83-7.15,5-2.79,7.06-4.52,7.66-7.15.84-3.68-1.68-7.16-2-7.66a12.28,12.28,0,0,0-5.1-3.83,47.07,47.07,0,0,0-14.55-3.83c-7.78-.8-12.66-1.11-21.71-1.78-5.64-.42-8.92-.69-14.55-1C297.89,297.27,295.28,297.11,292.28,297.06Z" transform="translate(-156.66 -248.5)"/><path class="cls-2" d="M296.11,280.47c-11.89.47-12.64,0-19.41.51a161.67,161.67,0,0,0-20.42,2.81c-10.6,2-15.9,3-22,5.61A55.94,55.94,0,0,0,217,300.89c-4,4-7.13,7.12-8.17,12.26-1.42,7,2,12.92,3.57,15.57,1.19,2,5.88,9.57,22.21,16.85,11.06,4.93,20.07,6.46,30.64,8.17a208.29,208.29,0,0,0,35.49,2.56,193.09,193.09,0,0,0,30.64-2,128.71,128.71,0,0,0,27.32-6.9c11.42-4.36,16-8.17,18.38-10.47a31.39,31.39,0,0,0,8.68-12.76c1-2.88,3-8.77.77-15.07-1.54-4.27-4.33-6.69-8.17-9.95a62.78,62.78,0,0,0-17.11-10.22c-8.46-3.49-14.89-4.61-26.55-6.63-8.87-1.55-14.89-2.57-23.23-2.56C306.55,279.71,306.58,280.06,296.11,280.47Z" transform="translate(-156.66 -248.5)"/><path class="cls-4" d="M270.83,311.11c-.95.95-2.89,3.11-2.3,4.85.37,1.08,1.69,2,7.92,2.81a83,83,0,0,0,11.49.76c3,0,4.68-.07,15.06-.51,6.05-.25,9.12-.39,11.74-.76a69.52,69.52,0,0,0,9.45-2.05" transform="translate(-156.66 -248.5)"/></svg>