<svg width="24" height="24" viewBox="0 0 24 24" fill="none" xmlns="http://www.w3.org/2000/svg">
<rect x="5" y="14.6087" width="14" height="7.30435" fill="black"/>
<ellipse cx="7" cy="21.9131" rx="2" ry="2.08696" fill="black"/>
<ellipse cx="12" cy="21.9131" rx="3" ry="2.08696" fill="black"/>
<ellipse cx="17" cy="21.9131" rx="2" ry="2.08696" fill="black"/>
<path fill-rule="evenodd" clip-rule="evenodd" d="M12 19.8261C18.6274 19.8261 24 15.3879 24 9.91302C24 4.43823 18.6274 0 12 0C5.37258 0 0 4.43823 0 9.91302C0 15.3879 5.37258 19.8261 12 19.8261ZM7.5 11C8.88071 11 10 9.88074 10 8.5C10 7.11926 8.88071 6 7.5 6C6.11929 6 5 7.11926 5 8.5C5 9.88074 6.11929 11 7.5 11ZM19 8.5C19 9.88074 17.8807 11 16.5 11C15.1193 11 14 9.88074 14 8.5C14 7.11926 15.1193 6 16.5 6C17.8807 6 19 7.11926 19 8.5ZM14.5981 14L12 11L9.40192 14H14.5981Z" fill="black"/>
</svg>
