<svg id="Layer_2" data-name="Layer 2" xmlns="http://www.w3.org/2000/svg" viewBox="0 0 280.53 332.35"><defs><style>.cls-1{fill:none;stroke:#000;stroke-miterlimit:10;stroke-width:4px;}</style></defs><title>soppar</title><path class="cls-1" d="M323,371.89a113.26,113.26,0,0,1-6,25c-5.67,15.56-13.36,25.53-18,32-8.18,11.42-18.85,28.56-29,53" transform="translate(-174.06 -243.82)"/><path class="cls-1" d="M376,369.89a160.92,160.92,0,0,0,3,24,165.73,165.73,0,0,0,8,27c7.91,21.17,14.65,39.21,17,56,1.73,12.34,5.09,36.32-9,59-15.92,25.63-43.18,32-48,33-7.89,1.69-30.41,6.51-49-7a49.43,49.43,0,0,1-14-16" transform="translate(-174.06 -243.82)"/><path class="cls-1" d="M201.66,459.34C201,461.62,200,465,198.6,469c-2.48,7.21-3.8,9.77-5.62,14.81a106.85,106.85,0,0,0-5.11,18.89,78.48,78.48,0,0,0-1,20.43c.49,5.54,1.28,14.63,6.64,24.51a49.77,49.77,0,0,0,20.42,20.93c2.1,1.12,16.85,8.68,34.73,4.09,9.65-2.48,15.8-7.37,22-12.26,5.41-4.3,11-8.83,14.29-16.85a36.81,36.81,0,0,0,2.56-11.23c.36-5-.25-10.56-4.09-20.94-3.3-8.91-6.65-15.11-11.23-23.49s-7.23-12.24-12.77-23c-1.76-3.42-3.16-6.27-4.08-8.17" transform="translate(-174.06 -243.82)"/><path class="cls-1" d="M225.66,459.34c-10.18.46-13.54.37-17.87-.51-3.51-.72-6.6-1.84-12.77-4.09-7.94-2.89-11.92-4.33-13.79-6.13-5.58-5.35-5.28-14-5.1-18.89.46-13,7.17-22.3,10.72-27.06a54.83,54.83,0,0,1,21.45-17.88c4.43-2,18.9-8.4,35.74-3.06,12.59,4,19.7,12.38,23.49,16.85,4.86,5.73,12.58,14.84,12.77,28.09,0,2.48.22,15.87-9.19,24-4.3,3.7-9.16,4.68-18.9,6.63C246.8,458.38,239.75,458.7,225.66,459.34Z" transform="translate(-174.06 -243.82)"/><path class="cls-1" d="M347.7,370c-21.18.34-33.59-.25-43.4-1-23-1.79-31-4.43-37.79-8.17-6.32-3.47-16.87-9.26-21.45-20.93-6.6-16.86,3.84-34.29,8.68-42.39,8.1-13.52,18.32-20.68,29.62-28.59,9.58-6.71,22-15.26,40.85-19.92a108.34,108.34,0,0,1,49.53-.51,109.58,109.58,0,0,1,43.41,20.94c5.88,4.67,18.24,14.7,27.06,32.17,5.43,10.74,10.24,20.28,7.66,32.17-3.36,15.48-16.84,23.79-20.93,26-7.06,3.89-13.17,4.65-22.47,5.62C381.2,368.23,367.57,369.66,347.7,370Z" transform="translate(-174.06 -243.82)"/></svg>