<svg width="35" height="35" viewBox="0 0 35 35" fill="none" xmlns="http://www.w3.org/2000/svg">
<path d="M17.5 4.375C10.2521 4.375 4.375 10.2521 4.375 17.5C4.375 24.7479 10.2521 30.625 17.5 30.625C18.7104 30.625 19.6875 29.6479 19.6875 28.4375C19.6875 27.8688 19.4688 27.3583 19.1187 26.9646C18.7833 26.5854 18.5646 26.075 18.5646 25.5208C18.5646 24.3104 19.5417 23.3333 20.7521 23.3333H23.3333C27.3583 23.3333 30.625 20.0667 30.625 16.0417C30.625 9.59583 24.7479 4.375 17.5 4.375ZM9.47917 17.5C8.26875 17.5 7.29167 16.5229 7.29167 15.3125C7.29167 14.1021 8.26875 13.125 9.47917 13.125C10.6896 13.125 11.6667 14.1021 11.6667 15.3125C11.6667 16.5229 10.6896 17.5 9.47917 17.5ZM13.8542 11.6667C12.6438 11.6667 11.6667 10.6896 11.6667 9.47917C11.6667 8.26875 12.6438 7.29167 13.8542 7.29167C15.0646 7.29167 16.0417 8.26875 16.0417 9.47917C16.0417 10.6896 15.0646 11.6667 13.8542 11.6667ZM21.1458 11.6667C19.9354 11.6667 18.9583 10.6896 18.9583 9.47917C18.9583 8.26875 19.9354 7.29167 21.1458 7.29167C22.3563 7.29167 23.3333 8.26875 23.3333 9.47917C23.3333 10.6896 22.3563 11.6667 21.1458 11.6667ZM25.5208 17.5C24.3104 17.5 23.3333 16.5229 23.3333 15.3125C23.3333 14.1021 24.3104 13.125 25.5208 13.125C26.7313 13.125 27.7083 14.1021 27.7083 15.3125C27.7083 16.5229 26.7313 17.5 25.5208 17.5Z" fill="#FFF1CD"/>
</svg>
